<svg width="94" height="334" viewBox="0 0 94 334" fill="none" xmlns="http://www.w3.org/2000/svg">
<rect x="0.5" y="0.5" width="93" height="284" rx="19.5" fill="white" stroke="black"/>
<rect x="0.5" y="0.5" width="93" height="333" rx="19.5" fill="white" stroke="black"/>
<path d="M68.656 98.128H72.496V116.88H68.656V98.128ZM60.208 102.16H80.784V105.616H60.208V102.16ZM73.232 103.696C73.8293 104.848 74.576 105.989 75.472 107.12C76.3893 108.251 77.3813 109.296 78.448 110.256C79.536 111.216 80.6347 112.016 81.744 112.656C81.4667 112.869 81.1467 113.157 80.784 113.52C80.4427 113.883 80.112 114.256 79.792 114.64C79.4933 115.024 79.2373 115.376 79.024 115.696C77.9147 114.907 76.816 113.925 75.728 112.752C74.6613 111.579 73.6587 110.309 72.72 108.944C71.8027 107.557 71.0133 106.149 70.352 104.72L73.232 103.696ZM68.112 103.376L71.12 104.432C70.4373 105.925 69.6053 107.387 68.624 108.816C67.6427 110.224 66.5653 111.515 65.392 112.688C64.2187 113.84 62.992 114.821 61.712 115.632C61.52 115.312 61.264 114.96 60.944 114.576C60.6453 114.192 60.3253 113.829 59.984 113.488C59.664 113.125 59.3547 112.816 59.056 112.56C60.2933 111.92 61.488 111.12 62.64 110.16C63.792 109.179 64.8373 108.112 65.776 106.96C66.736 105.787 67.5147 104.592 68.112 103.376ZM65.968 91.6V95.888H75.376V91.6H65.968ZM62.352 88.208H79.248V99.248H62.352V88.208ZM58.16 86.896L61.712 88.048C61.008 89.8613 60.1653 91.6747 59.184 93.488C58.224 95.28 57.1787 96.9867 56.048 98.608C54.9387 100.208 53.7973 101.616 52.624 102.832C52.5173 102.512 52.3467 102.107 52.112 101.616C51.8773 101.125 51.6213 100.624 51.344 100.112C51.0667 99.6 50.8107 99.1947 50.576 98.896C51.5787 97.9147 52.5493 96.784 53.488 95.504C54.4267 94.224 55.2907 92.848 56.08 91.376C56.8907 89.904 57.584 88.4107 58.16 86.896ZM55.056 95.728L58.704 92.08V92.112V116.784H55.056V95.728ZM62.416 145.736H77.232V148.456H62.416V145.736ZM76.336 145.736H77.008L77.616 145.576L79.792 146.696C79.0453 148.104 78.064 149.331 76.848 150.376C75.6533 151.421 74.2987 152.307 72.784 153.032C71.2693 153.757 69.6373 154.355 67.888 154.824C66.1387 155.293 64.3147 155.667 62.416 155.944C62.2667 155.517 62.0427 155.016 61.744 154.44C61.4667 153.864 61.1787 153.405 60.88 153.064C62.5867 152.893 64.24 152.637 65.84 152.296C67.44 151.933 68.9227 151.475 70.288 150.92C71.6747 150.365 72.88 149.693 73.904 148.904C74.9493 148.115 75.76 147.208 76.336 146.184V145.736ZM67.728 148.104C68.56 148.936 69.6587 149.683 71.024 150.344C72.3893 150.984 73.9467 151.517 75.696 151.944C77.4453 152.349 79.28 152.648 81.2 152.84C80.816 153.181 80.4107 153.651 79.984 154.248C79.5787 154.867 79.2587 155.4 79.024 155.848C76.9973 155.571 75.0773 155.144 73.264 154.568C71.472 153.992 69.84 153.267 68.368 152.392C66.9173 151.496 65.6693 150.461 64.624 149.288L67.728 148.104ZM62 127.432H80.592V130.152H62V127.432ZM65.584 136.584H79.056V138.504H65.584V136.584ZM65.584 139.464H79.056V141.352H65.584V139.464ZM66 125.768H69.424V131.688H66V125.768ZM70.576 134.376H73.904V144.168H70.576V134.376ZM73.136 125.768H76.56V131.688H73.136V125.768ZM64.944 130.952L67.952 131.72C67.3973 133.085 66.6827 134.419 65.808 135.72C64.9333 137.021 64.0267 138.109 63.088 138.984C62.9387 138.813 62.7147 138.6 62.416 138.344C62.1173 138.088 61.808 137.843 61.488 137.608C61.168 137.352 60.8907 137.149 60.656 137C61.552 136.253 62.3733 135.347 63.12 134.28C63.888 133.192 64.496 132.083 64.944 130.952ZM71.504 131.08L74.992 131.624C74.672 132.264 74.352 132.861 74.032 133.416C73.712 133.949 73.424 134.419 73.168 134.824L70.224 134.28C70.4587 133.789 70.6933 133.256 70.928 132.68C71.184 132.083 71.376 131.549 71.504 131.08ZM79.728 133.288V135.656H67.344V142.376H80.496V144.744H64.016V133.288H79.728ZM52.272 135.624H60.784V138.536H52.272V135.624ZM52.496 126.824H60.72V129.704H52.496V126.824ZM52.272 140.008H60.784V142.888H52.272V140.008ZM50.96 131.112H61.616V134.152H50.96V131.112ZM54.032 144.424H60.752V154.12H54.032V151.112H57.68V147.432H54.032V144.424ZM52.176 144.424H55.184V155.432H52.176V144.424ZM51.6 174.528H80.4V177.888H51.6V174.528ZM54.352 168.256H72.656V171.584H54.352V168.256ZM60.016 185.664H74.288V188.576H60.016V185.664ZM60.016 190.72H74.288V193.952H60.016V190.72ZM61.904 164.8H65.712V176.416H61.904V164.8ZM75.984 165.728L79.28 167.456C77.2107 170.357 74.7787 173.003 71.984 175.392C69.1893 177.781 66.1707 179.893 62.928 181.728C59.7067 183.563 56.368 185.12 52.912 186.4C52.7627 186.123 52.5493 185.792 52.272 185.408C51.9947 185.003 51.696 184.597 51.376 184.192C51.0773 183.787 50.8107 183.467 50.576 183.232C54.0533 182.123 57.3707 180.715 60.528 179.008C63.7067 177.301 66.608 175.328 69.232 173.088C71.8773 170.848 74.128 168.395 75.984 165.728ZM57.84 180.448H76.72V194.752H72.72V183.616H61.68V194.88H57.84V180.448ZM67.696 212.92V217.624H76.016V212.92H67.696ZM64.016 209.624H79.952V220.888H64.016V209.624ZM75.504 203.736L79.504 204.76C79.056 205.763 78.608 206.733 78.16 207.672C77.712 208.589 77.3067 209.389 76.944 210.072L73.616 209.112C73.8507 208.621 74.0853 208.067 74.32 207.448C74.576 206.808 74.8107 206.168 75.024 205.528C75.2373 204.888 75.3973 204.291 75.504 203.736ZM64.4 205.048L67.792 203.96C68.3253 204.728 68.816 205.592 69.264 206.552C69.712 207.491 70.0427 208.323 70.256 209.048L66.672 210.328C66.5227 209.603 66.224 208.749 65.776 207.768C65.3493 206.765 64.8907 205.859 64.4 205.048ZM72.432 220.152H76.08V229.144C76.08 229.635 76.1013 229.944 76.144 230.072C76.208 230.179 76.3467 230.232 76.56 230.232C76.624 230.232 76.72 230.232 76.848 230.232C76.976 230.232 77.1147 230.232 77.264 230.232C77.4133 230.232 77.52 230.232 77.584 230.232C77.7547 230.232 77.8827 230.136 77.968 229.944C78.0747 229.731 78.1493 229.293 78.192 228.632C78.2347 227.971 78.2667 226.979 78.288 225.656C78.5227 225.848 78.832 226.04 79.216 226.232C79.6 226.424 79.9947 226.595 80.4 226.744C80.8267 226.893 81.2 227.021 81.52 227.128C81.4347 228.835 81.264 230.157 81.008 231.096C80.752 232.035 80.3787 232.685 79.888 233.048C79.4187 233.432 78.7893 233.624 78 233.624C77.872 233.624 77.712 233.624 77.52 233.624C77.3493 233.624 77.1573 233.624 76.944 233.624C76.752 233.624 76.56 233.624 76.368 233.624C76.1973 233.624 76.0373 233.624 75.888 233.624C74.9493 233.624 74.224 233.485 73.712 233.208C73.2213 232.931 72.88 232.461 72.688 231.8C72.5173 231.139 72.432 230.264 72.432 229.176V220.152ZM66.96 220.28H70.832C70.7253 221.688 70.5653 223.053 70.352 224.376C70.1387 225.699 69.7973 226.947 69.328 228.12C68.8587 229.293 68.208 230.371 67.376 231.352C66.5653 232.355 65.4987 233.24 64.176 234.008C64.0267 233.667 63.8133 233.304 63.536 232.92C63.2587 232.557 62.96 232.195 62.64 231.832C62.32 231.469 62.0107 231.171 61.712 230.936C63.184 230.147 64.272 229.208 64.976 228.12C65.7013 227.011 66.192 225.795 66.448 224.472C66.704 223.128 66.8747 221.731 66.96 220.28ZM52.496 213.848H61.744V216.76H52.496V213.848ZM52.688 204.824H61.776V207.704H52.688V204.824ZM52.496 218.328H61.744V221.24H52.496V218.328ZM50.96 209.24H62.896V212.28H50.96V209.24ZM54.288 222.872H62V232.6H54.288V229.56H58.736V225.912H54.288V222.872ZM52.4 222.872H55.632V233.848H52.4V222.872ZM54.224 244.56H63.44V264.208H54.224V260.72H59.888V248.048H54.224V244.56ZM54.288 252.56H61.264V255.984H54.288V252.56ZM67.952 244.112H77.744V247.664H67.952V244.112ZM67.952 251.728H77.744V255.184H67.952V251.728ZM67.888 259.312H77.712V262.768H67.888V259.312ZM52.208 244.56H55.76V266.992H52.208V244.56ZM76.336 244.112H80.144V268.464C80.144 269.467 80.016 270.245 79.76 270.8C79.5253 271.376 79.088 271.824 78.448 272.144C77.808 272.443 77.0187 272.635 76.08 272.72C75.1413 272.805 74 272.848 72.656 272.848C72.592 272.485 72.4853 272.069 72.336 271.6C72.208 271.152 72.048 270.704 71.856 270.256C71.6853 269.829 71.504 269.456 71.312 269.136C71.888 269.157 72.464 269.179 73.04 269.2C73.616 269.2 74.128 269.2 74.576 269.2C75.0453 269.179 75.3653 269.168 75.536 269.168C75.8347 269.168 76.0373 269.115 76.144 269.008C76.272 268.901 76.336 268.709 76.336 268.432V244.112ZM65.648 244.112H69.424V255.728C69.424 257.093 69.3387 258.565 69.168 260.144C68.9973 261.723 68.6773 263.301 68.208 264.88C67.76 266.437 67.088 267.931 66.192 269.36C65.296 270.768 64.112 272.016 62.64 273.104C62.448 272.848 62.1707 272.549 61.808 272.208C61.4667 271.888 61.104 271.568 60.72 271.248C60.3573 270.928 60.0267 270.693 59.728 270.544C61.0933 269.541 62.1707 268.443 62.96 267.248C63.7493 266.032 64.336 264.773 64.72 263.472C65.104 262.149 65.3493 260.827 65.456 259.504C65.584 258.181 65.648 256.912 65.648 255.696V244.112ZM52.976 307.144C54.8747 307.08 57.072 307.016 59.568 306.952C62.0853 306.867 64.72 306.771 67.472 306.664C70.2453 306.557 72.976 306.451 75.664 306.344L75.536 309.864C72.9333 310.013 70.288 310.141 67.6 310.248C64.9333 310.376 62.3947 310.493 59.984 310.6C57.5733 310.728 55.3973 310.835 53.456 310.92L52.976 307.144ZM52.816 297.64H79.408V301.224H52.816V297.64ZM58.512 291.464H73.52V294.984H58.512V291.464ZM60.624 299.976L65.008 301.16C64.5173 302.163 63.9947 303.187 63.44 304.232C62.9067 305.256 62.3733 306.237 61.84 307.176C61.328 308.115 60.8373 308.947 60.368 309.672L57.008 308.552C57.4347 307.763 57.8827 306.877 58.352 305.896C58.8213 304.893 59.248 303.88 59.632 302.856C60.0373 301.811 60.368 300.851 60.624 299.976ZM68.592 303.272L71.952 301.48C72.912 302.312 73.8613 303.208 74.8 304.168C75.7387 305.128 76.6027 306.099 77.392 307.08C78.1813 308.04 78.8213 308.925 79.312 309.736L75.728 311.912C75.3013 311.101 74.6933 310.184 73.904 309.16C73.136 308.157 72.2827 307.133 71.344 306.088C70.4267 305.043 69.5093 304.104 68.592 303.272ZM65.968 285.544C65.1147 286.76 64.016 288.008 62.672 289.288C61.328 290.547 59.8347 291.741 58.192 292.872C56.5493 294.003 54.8427 294.995 53.072 295.848C52.944 295.528 52.7413 295.176 52.464 294.792C52.208 294.387 51.9307 294.003 51.632 293.64C51.3547 293.256 51.0773 292.925 50.8 292.648C52.6347 291.837 54.3947 290.835 56.08 289.64C57.7653 288.424 59.2693 287.144 60.592 285.8C61.936 284.435 63.0027 283.123 63.792 281.864H67.824C68.6773 283.037 69.6267 284.147 70.672 285.192C71.7173 286.237 72.8267 287.197 74 288.072C75.1733 288.925 76.3787 289.693 77.616 290.376C78.8747 291.037 80.144 291.603 81.424 292.072C80.9547 292.541 80.5067 293.096 80.08 293.736C79.6533 294.376 79.2693 294.984 78.928 295.56C77.328 294.813 75.7067 293.896 74.064 292.808C72.4213 291.72 70.8853 290.547 69.456 289.288C68.048 288.029 66.8853 286.781 65.968 285.544Z" fill="black"/>
<path d="M12.86 97.11H39.17V103.68H35.66V100.23H16.25V103.68H12.86V97.11ZM17.21 102.54H33.02V105.87H17.21V102.54ZM35.66 88.35L38.09 91.26C36.39 91.58 34.55 91.87 32.57 92.13C30.61 92.37 28.57 92.58 26.45 92.76C24.35 92.94 22.24 93.09 20.12 93.21C18 93.33 15.94 93.41 13.94 93.45C13.92 93.01 13.82 92.49 13.64 91.89C13.48 91.29 13.32 90.79 13.16 90.39C15.14 90.33 17.16 90.24 19.22 90.12C21.3 90 23.33 89.86 25.31 89.7C27.31 89.52 29.19 89.32 30.95 89.1C32.71 88.86 34.28 88.61 35.66 88.35ZM15.8 94.02L18.92 93.15C19.28 93.69 19.62 94.29 19.94 94.95C20.28 95.61 20.52 96.19 20.66 96.69L17.33 97.65C17.23 97.15 17.03 96.56 16.73 95.88C16.43 95.2 16.12 94.58 15.8 94.02ZM23.72 93.39L26.9 92.67C27.2 93.29 27.48 93.96 27.74 94.68C28.02 95.4 28.2 96.03 28.28 96.57L24.89 97.41C24.83 96.87 24.68 96.22 24.44 95.46C24.22 94.7 23.98 94.01 23.72 93.39ZM33.23 92.61L37.04 93.51C36.7 94.15 36.35 94.78 35.99 95.4C35.63 96.02 35.27 96.61 34.91 97.17C34.55 97.71 34.22 98.19 33.92 98.61L30.95 97.77C31.23 97.27 31.51 96.73 31.79 96.15C32.09 95.55 32.36 94.94 32.6 94.32C32.86 93.7 33.07 93.13 33.23 92.61ZM31.7 102.54H32.45L33.08 102.42L35.54 103.89C34.64 105.85 33.47 107.55 32.03 108.99C30.61 110.41 28.97 111.61 27.11 112.59C25.25 113.57 23.23 114.37 21.05 114.99C18.89 115.61 16.63 116.08 14.27 116.4C14.15 116.1 13.97 115.74 13.73 115.32C13.49 114.92 13.23 114.52 12.95 114.12C12.67 113.74 12.41 113.43 12.17 113.19C14.47 112.95 16.66 112.59 18.74 112.11C20.82 111.63 22.71 111 24.41 110.22C26.11 109.42 27.58 108.44 28.82 107.28C30.06 106.12 31.02 104.74 31.7 103.14V102.54ZM20.78 105C21.9 106.5 23.38 107.8 25.22 108.9C27.08 109.98 29.23 110.86 31.67 111.54C34.13 112.22 36.82 112.69 39.74 112.95C39.48 113.21 39.21 113.55 38.93 113.97C38.65 114.39 38.38 114.8 38.12 115.2C37.88 115.62 37.68 116 37.52 116.34C34.52 115.96 31.78 115.35 29.3 114.51C26.82 113.67 24.6 112.57 22.64 111.21C20.68 109.83 19.01 108.18 17.63 106.26L20.78 105ZM21.53 131.01H40.04V134.64H21.53V131.01ZM32.99 124.86H36.71V148.32C36.71 149.48 36.56 150.33 36.26 150.87C35.98 151.43 35.47 151.85 34.73 152.13C34.01 152.39 33.06 152.56 31.88 152.64C30.72 152.72 29.31 152.75 27.65 152.73C27.61 152.37 27.51 151.98 27.35 151.56C27.21 151.14 27.04 150.71 26.84 150.27C26.66 149.83 26.47 149.46 26.27 149.16C27.05 149.18 27.83 149.2 28.61 149.22C29.41 149.24 30.11 149.25 30.71 149.25C31.31 149.23 31.73 149.22 31.97 149.22C32.35 149.22 32.61 149.15 32.75 149.01C32.91 148.87 32.99 148.64 32.99 148.32V124.86ZM22.88 138.27L26.06 136.8C26.52 137.52 27.01 138.31 27.53 139.17C28.05 140.01 28.55 140.84 29.03 141.66C29.51 142.46 29.89 143.16 30.17 143.76L26.75 145.53C26.51 144.89 26.17 144.16 25.73 143.34C25.29 142.52 24.82 141.66 24.32 140.76C23.82 139.86 23.34 139.03 22.88 138.27ZM16.01 133.32L19.61 129.72L19.67 129.75V152.64H16.01V133.32ZM18.98 124.68L22.55 125.79C21.87 127.53 21.07 129.27 20.15 131.01C19.23 132.75 18.24 134.39 17.18 135.93C16.12 137.47 15.02 138.81 13.88 139.95C13.76 139.65 13.57 139.26 13.31 138.78C13.07 138.3 12.81 137.83 12.53 137.37C12.25 136.89 12 136.5 11.78 136.2C12.74 135.28 13.67 134.21 14.57 132.99C15.47 131.75 16.3 130.42 17.06 129C17.82 127.58 18.46 126.14 18.98 124.68ZM13.64 165.72H38.42V180.78H34.64V169.26H17.24V180.93H13.64V165.72ZM15.5 175.74H36.74V179.28H15.5V175.74ZM24.02 160.5H27.83V188.67H24.02V160.5Z" fill="black"/>
<path d="M16 21H27.7108V27.5H34.2169V21H52.1084V27.5H58.6145V21H70V60H16V21Z" fill="black"/>
<rect x="29" y="16" width="4.26563" height="9.1875" fill="black"/>
<path d="M53.3 16H57.5656V25.1875H53.3V16Z" fill="black"/>
<path d="M21.5781 32.0781C21.5781 30.8096 22.6065 29.7812 23.875 29.7812H62.5938C63.8623 29.7812 64.8906 30.8096 64.8906 32.0781V52.0938C64.8906 53.3623 63.8623 54.3906 62.5938 54.3906H23.875C22.6065 54.3906 21.5781 53.3623 21.5781 52.0938V32.0781Z" fill="white"/>
<circle cx="59.5" cy="50.5" r="17.5" fill="white" stroke="black" stroke-width="2"/>
<line x1="59" y1="37" x2="59" y2="51" stroke="black" stroke-width="2"/>
<line x1="58.7071" y1="50.2929" x2="65.7071" y2="57.2929" stroke="black" stroke-width="2"/>
</svg>
