<svg width="331" height="62" viewBox="0 0 331 62" fill="none" xmlns="http://www.w3.org/2000/svg">
<rect x="0.5" y="0.5" width="330" height="61" rx="30.5" stroke="white"/>
<path d="M103.14 41.62C102.887 41.6067 102.667 41.5067 102.48 41.32C102.307 41.1467 102.227 40.9333 102.24 40.68C102.24 40.4267 102.327 40.2133 102.5 40.04C102.687 39.8533 102.907 39.7667 103.16 39.78C104.453 39.8067 105.44 39.62 106.12 39.22C106.8 38.8067 107.14 38.18 107.14 37.34C107.14 36.5533 106.8 35.9467 106.12 35.52C105.44 35.0933 104.487 34.88 103.26 34.88C102.727 34.88 102.213 34.9067 101.72 34.96C101.227 35 100.76 35.0667 100.32 35.16V37.88C100.32 39.1467 100.04 40.0867 99.48 40.7C98.9333 41.3 98.1067 41.6 97 41.6C96.1067 41.6 95.3667 41.3667 94.78 40.9C94.2067 40.4333 93.92 39.72 93.92 38.76C93.92 37.68 94.3333 36.72 95.16 35.88C96 35.04 97.1133 34.3933 98.5 33.94V30.4C97.8733 30.4533 97.26 30.5 96.66 30.54C96.06 30.5667 95.52 30.5867 95.04 30.6C94.7867 30.6133 94.5667 30.5333 94.38 30.36C94.1933 30.1733 94.1 29.9533 94.1 29.7C94.1 29.4467 94.1867 29.2333 94.36 29.06C94.5467 28.8867 94.7667 28.7933 95.02 28.78C95.5267 28.7667 96.08 28.7467 96.68 28.72C97.28 28.6933 97.8867 28.6533 98.5 28.6V25.76C98.5 25.4933 98.5867 25.2733 98.76 25.1C98.9467 24.9267 99.1667 24.84 99.42 24.84C99.6733 24.84 99.8867 24.9267 100.06 25.1C100.233 25.2733 100.32 25.4933 100.32 25.76V28.44C100.707 28.4 101.073 28.36 101.42 28.32C101.78 28.28 102.12 28.24 102.44 28.2C102.693 28.1733 102.92 28.2267 103.12 28.36C103.32 28.48 103.44 28.6733 103.48 28.94C103.52 29.1933 103.46 29.4133 103.3 29.6C103.153 29.7867 102.953 29.9 102.7 29.94C102.367 29.9933 102 30.0467 101.6 30.1C101.2 30.14 100.773 30.18 100.32 30.22V33.48C100.787 33.3867 101.267 33.32 101.76 33.28C102.253 33.24 102.767 33.22 103.3 33.22C105.087 33.22 106.48 33.5933 107.48 34.34C108.493 35.0733 109 36.0733 109 37.34C109 38.74 108.48 39.82 107.44 40.58C106.413 41.3267 104.98 41.6733 103.14 41.62ZM108.02 31.98C107.78 31.8067 107.473 31.6133 107.1 31.4C106.74 31.1733 106.38 30.9533 106.02 30.74C105.673 30.5267 105.373 30.36 105.12 30.24C104.907 30.12 104.747 29.9467 104.64 29.72C104.533 29.48 104.533 29.2467 104.64 29.02C104.76 28.78 104.94 28.6267 105.18 28.56C105.433 28.48 105.667 28.4933 105.88 28.6C106.173 28.7467 106.52 28.94 106.92 29.18C107.333 29.4067 107.74 29.6467 108.14 29.9C108.54 30.14 108.867 30.3533 109.12 30.54C109.32 30.6867 109.433 30.8867 109.46 31.14C109.487 31.38 109.427 31.6 109.28 31.8C109.133 32 108.94 32.12 108.7 32.16C108.46 32.1867 108.233 32.1267 108.02 31.98ZM97 39.84C97.4933 39.84 97.8667 39.7067 98.12 39.44C98.3733 39.1733 98.5 38.6533 98.5 37.88V35.72C97.6333 36.08 96.9533 36.52 96.46 37.04C95.98 37.56 95.74 38.1133 95.74 38.7C95.74 39.0467 95.8467 39.3267 96.06 39.54C96.2733 39.74 96.5867 39.84 97 39.84ZM121.48 42.76C121.227 42.76 121 42.6667 120.8 42.48C120.613 42.3067 120.52 42.08 120.52 41.8V37.32H119.12C118.067 37.32 117.193 37.26 116.5 37.14C115.807 37.0067 115.26 36.78 114.86 36.46C114.46 36.1267 114.18 35.6533 114.02 35.04C113.86 34.4267 113.78 33.6333 113.78 32.66V31.7C113.78 30.7267 113.86 29.94 114.02 29.34C114.18 28.7267 114.46 28.26 114.86 27.94C115.26 27.6067 115.807 27.38 116.5 27.26C117.193 27.1267 118.067 27.06 119.12 27.06H120.52V25.02C120.52 24.74 120.613 24.5133 120.8 24.34C121 24.1533 121.227 24.06 121.48 24.06C121.747 24.06 121.973 24.1533 122.16 24.34C122.347 24.5133 122.44 24.74 122.44 25.02V27.06H123.86C124.927 27.06 125.8 27.1267 126.48 27.26C127.173 27.38 127.72 27.6067 128.12 27.94C128.52 28.26 128.8 28.7267 128.96 29.34C129.12 29.94 129.2 30.7267 129.2 31.7V32.66C129.2 33.6333 129.12 34.4267 128.96 35.04C128.8 35.6533 128.52 36.1267 128.12 36.46C127.72 36.78 127.173 37.0067 126.48 37.14C125.8 37.26 124.927 37.32 123.86 37.32H122.44V41.8C122.44 42.08 122.347 42.3067 122.16 42.48C121.973 42.6667 121.747 42.76 121.48 42.76ZM122.44 35.64H123.86C124.58 35.64 125.16 35.6133 125.6 35.56C126.053 35.5067 126.4 35.3933 126.64 35.22C126.88 35.0333 127.047 34.76 127.14 34.4C127.233 34.04 127.28 33.56 127.28 32.96H122.44V35.64ZM119.12 35.64H120.52V32.96H115.7C115.7 33.56 115.747 34.04 115.84 34.4C115.933 34.76 116.1 35.0333 116.34 35.22C116.58 35.3933 116.92 35.5067 117.36 35.56C117.813 35.6133 118.4 35.64 119.12 35.64ZM122.44 31.34H127.28C127.267 30.7533 127.213 30.2867 127.12 29.94C127.027 29.5933 126.86 29.3333 126.62 29.16C126.38 28.9867 126.04 28.8733 125.6 28.82C125.16 28.7667 124.58 28.74 123.86 28.74H122.44V31.34ZM115.7 31.34H120.52V28.74H119.12C118.4 28.74 117.82 28.7667 117.38 28.82C116.94 28.8733 116.6 28.9867 116.36 29.16C116.12 29.3333 115.953 29.5933 115.86 29.94C115.767 30.2867 115.713 30.7533 115.7 31.34ZM139.22 38.64C139.02 38.8 138.78 38.8733 138.5 38.86C138.233 38.8467 138.02 38.7333 137.86 38.52C137.713 38.3333 137.653 38.1333 137.68 37.92C137.72 37.6933 137.827 37.5067 138 37.36C138.96 36.5867 139.793 35.6733 140.5 34.62C141.22 33.5667 141.82 32.44 142.3 31.24C142.793 30.04 143.16 28.8333 143.4 27.62C143.2 27.3267 142.82 27.18 142.26 27.18H140.04C139.773 27.18 139.553 27.1 139.38 26.94C139.22 26.7667 139.14 26.56 139.14 26.32C139.14 26.08 139.22 25.88 139.38 25.72C139.553 25.5467 139.773 25.46 140.04 25.46H142.42C143.353 25.46 144.013 25.6333 144.4 25.98C144.8 26.3267 145.033 26.9533 145.1 27.86C145.22 29.1133 145.507 30.3133 145.96 31.46C146.413 32.5933 146.993 33.6467 147.7 34.62C148.42 35.58 149.22 36.44 150.1 37.2C150.287 37.36 150.387 37.5667 150.4 37.82C150.427 38.06 150.367 38.2733 150.22 38.46C150.047 38.66 149.827 38.78 149.56 38.82C149.293 38.8467 149.047 38.7733 148.82 38.6C147.82 37.7333 146.893 36.6667 146.04 35.4C145.2 34.12 144.56 32.6933 144.12 31.12C143.627 32.6 142.96 33.9933 142.12 35.3C141.293 36.6067 140.327 37.72 139.22 38.64ZM143.88 42.1C142.587 42.1 141.467 42.0333 140.52 41.9C139.573 41.78 138.767 41.5667 138.1 41.26C137.433 40.9667 136.847 40.5667 136.34 40.06C136.14 40.2067 135.88 40.3933 135.56 40.62C135.253 40.8467 134.953 41.0667 134.66 41.28C134.367 41.4933 134.147 41.6533 134 41.76C133.787 41.9067 133.547 41.96 133.28 41.92C133.013 41.88 132.807 41.7467 132.66 41.52C132.527 41.2933 132.487 41.0533 132.54 40.8C132.593 40.5467 132.733 40.36 132.96 40.24C133.12 40.1467 133.333 40.0267 133.6 39.88C133.88 39.72 134.173 39.5533 134.48 39.38C134.787 39.1933 135.053 39.0267 135.28 38.88V34.32C135.28 33.9733 135.213 33.7333 135.08 33.6C134.96 33.4667 134.727 33.4 134.38 33.4H133.18C132.927 33.4 132.72 33.32 132.56 33.16C132.413 32.9867 132.34 32.7867 132.34 32.56C132.34 32.3333 132.413 32.14 132.56 31.98C132.72 31.8067 132.927 31.72 133.18 31.72H134.98C135.687 31.72 136.2 31.8867 136.52 32.22C136.853 32.54 137.02 33.0533 137.02 33.76V38.56C137.473 39.0133 137.973 39.38 138.52 39.66C139.067 39.9267 139.76 40.12 140.6 40.24C141.453 40.36 142.547 40.42 143.88 40.42C145.08 40.42 146.16 40.4067 147.12 40.38C148.093 40.34 148.953 40.2933 149.7 40.24C150.007 40.2133 150.26 40.2867 150.46 40.46C150.66 40.62 150.76 40.8333 150.76 41.1C150.76 41.38 150.673 41.6067 150.5 41.78C150.34 41.9533 150.087 42.0467 149.74 42.06C149.22 42.06 148.62 42.06 147.94 42.06C147.26 42.0733 146.567 42.08 145.86 42.08C145.153 42.0933 144.493 42.1 143.88 42.1ZM136.18 28.62C135.967 28.3933 135.7 28.1467 135.38 27.88C135.073 27.6133 134.753 27.3467 134.42 27.08C134.1 26.8133 133.813 26.5933 133.56 26.42C133.373 26.2733 133.273 26.0867 133.26 25.86C133.26 25.6333 133.333 25.4333 133.48 25.26C133.627 25.0733 133.813 24.9667 134.04 24.94C134.267 24.9 134.48 24.9533 134.68 25.1C134.96 25.2867 135.267 25.5133 135.6 25.78C135.947 26.0467 136.28 26.3133 136.6 26.58C136.933 26.8333 137.207 27.06 137.42 27.26C137.607 27.4333 137.7 27.6467 137.7 27.9C137.713 28.1533 137.627 28.3733 137.44 28.56C137.267 28.7333 137.053 28.8333 136.8 28.86C136.56 28.8733 136.353 28.7933 136.18 28.62ZM161.48 41.26C161.307 41.0867 161.213 40.8733 161.2 40.62C161.2 40.3667 161.287 40.1533 161.46 39.98C162.033 39.3933 162.567 38.6867 163.06 37.86C163.553 37.0333 163.973 36.1733 164.32 35.28C163.667 35.0933 163.033 34.9467 162.42 34.84C161.807 34.7333 161.213 34.6533 160.64 34.6C160.107 35.6933 159.5 36.5867 158.82 37.28C158.14 37.9733 157.413 38.42 156.64 38.62C156.027 38.78 155.467 38.8067 154.96 38.7C154.453 38.58 154.047 38.3333 153.74 37.96C153.447 37.5867 153.3 37.1067 153.3 36.52C153.3 35.8533 153.507 35.2467 153.92 34.7C154.333 34.14 154.98 33.6933 155.86 33.36C156.753 33.0267 157.913 32.86 159.34 32.86H159.46C159.62 32.4467 159.773 32 159.92 31.52C160.067 31.04 160.2 30.5333 160.32 30C160.547 29.04 160.513 28.4067 160.22 28.1C159.94 27.78 159.36 27.6733 158.48 27.78C158.32 27.7933 158.113 27.82 157.86 27.86C157.607 27.8867 157.36 27.92 157.12 27.96C156.88 27.9867 156.693 28.0067 156.56 28.02C156.307 28.0333 156.087 27.96 155.9 27.8C155.713 27.64 155.607 27.4333 155.58 27.18C155.567 26.9267 155.64 26.7067 155.8 26.52C155.96 26.32 156.167 26.2133 156.42 26.2C156.673 26.1733 156.98 26.1467 157.34 26.12C157.7 26.08 158.02 26.0533 158.3 26.04C160.033 25.9333 161.193 26.2267 161.78 26.92C162.367 27.6133 162.473 28.7733 162.1 30.4C161.993 30.8533 161.873 31.3 161.74 31.74C161.62 32.1667 161.487 32.58 161.34 32.98C162.5 33.1267 163.667 33.3467 164.84 33.64C165.133 32.5733 165.287 31.5933 165.3 30.7C165.3 30.4467 165.387 30.2333 165.56 30.06C165.733 29.8867 165.947 29.8 166.2 29.8C166.453 29.7867 166.667 29.8667 166.84 30.04C167.027 30.2133 167.113 30.4267 167.1 30.68C167.087 31.24 167.033 31.8067 166.94 32.38C166.847 32.9533 166.727 33.5333 166.58 34.12C167.033 34.2533 167.48 34.4 167.92 34.56C168.36 34.7067 168.787 34.86 169.2 35.02C169.427 35.1133 169.587 35.28 169.68 35.52C169.787 35.7467 169.787 35.9733 169.68 36.2C169.587 36.44 169.42 36.6067 169.18 36.7C168.953 36.7933 168.727 36.7933 168.5 36.7C168.087 36.5267 167.673 36.3667 167.26 36.22C166.847 36.06 166.44 35.9133 166.04 35.78C165.64 36.8333 165.153 37.84 164.58 38.8C164.02 39.7467 163.413 40.56 162.76 41.24C162.587 41.4133 162.373 41.5 162.12 41.5C161.88 41.5133 161.667 41.4333 161.48 41.26ZM156.18 36.94C156.593 36.8333 157.013 36.58 157.44 36.18C157.867 35.78 158.28 35.2333 158.68 34.54C157.773 34.58 157.053 34.7 156.52 34.9C156 35.1 155.633 35.34 155.42 35.62C155.207 35.8867 155.1 36.1667 155.1 36.46C155.1 36.6733 155.187 36.8333 155.36 36.94C155.547 37.0333 155.82 37.0333 156.18 36.94ZM177.62 41.18C177.393 41.2733 177.16 41.2733 176.92 41.18C176.68 41.1 176.507 40.94 176.4 40.7C176.307 40.4733 176.3 40.24 176.38 40C176.473 39.76 176.633 39.5867 176.86 39.48C178.98 38.5333 180.78 37.38 182.26 36.02C183.753 34.6467 184.827 33.1533 185.48 31.54C185.773 30.8333 185.813 30.28 185.6 29.88C185.4 29.4667 184.873 29.26 184.02 29.26H176.28C176.027 29.26 175.807 29.1733 175.62 29C175.447 28.8133 175.36 28.5933 175.36 28.34C175.36 28.0733 175.447 27.8533 175.62 27.68C175.807 27.4933 176.027 27.4 176.28 27.4H184.02C185.1 27.4 185.933 27.6067 186.52 28.02C187.12 28.4333 187.48 29 187.6 29.72C187.72 30.44 187.587 31.2733 187.2 32.22C186.453 34.06 185.253 35.7533 183.6 37.3C181.96 38.8333 179.967 40.1267 177.62 41.18ZM201.26 41.66C201.033 41.66 200.84 41.58 200.68 41.42C200.52 41.26 200.44 41.0667 200.44 40.84C200.44 40.6133 200.52 40.4267 200.68 40.28C200.84 40.12 201.033 40.04 201.26 40.04C201.913 40.04 202.333 39.9467 202.52 39.76C202.707 39.5733 202.787 39.2533 202.76 38.8C202.747 38.4533 202.727 38.0333 202.7 37.54C202.687 37.0333 202.667 36.5067 202.64 35.96C202.067 36.5333 201.44 37.12 200.76 37.72C200.093 38.32 199.413 38.8867 198.72 39.42C198.04 39.94 197.38 40.3933 196.74 40.78C196.553 40.8867 196.347 40.9133 196.12 40.86C195.907 40.7933 195.747 40.66 195.64 40.46C195.533 40.26 195.507 40.0533 195.56 39.84C195.627 39.6267 195.753 39.4667 195.94 39.36C196.527 39 197.16 38.5667 197.84 38.06C198.533 37.5533 199.227 37 199.92 36.4C200.613 35.8 201.26 35.1933 201.86 34.58H196.8C196.587 34.58 196.4 34.5067 196.24 34.36C196.08 34.2 196 34.0133 196 33.8C196 33.5733 196.08 33.3867 196.24 33.24C196.4 33.08 196.587 33 196.8 33H202.5C202.487 32.5867 202.473 32.2267 202.46 31.92C202.447 31.6133 202.433 31.38 202.42 31.22C202.42 30.9933 202.493 30.8 202.64 30.64C202.787 30.48 202.973 30.3933 203.2 30.38C203.427 30.38 203.613 30.46 203.76 30.62C203.907 30.7667 203.987 30.9533 204 31.18C204 31.3267 204.007 31.56 204.02 31.88C204.033 32.2 204.047 32.5733 204.06 33H206.42C206.647 33 206.833 33.08 206.98 33.24C207.14 33.3867 207.22 33.5733 207.22 33.8C207.22 34.0133 207.14 34.2 206.98 34.36C206.833 34.5067 206.647 34.58 206.42 34.58H204.14C204.18 35.3533 204.22 36.1267 204.26 36.9C204.3 37.66 204.327 38.2733 204.34 38.74C204.393 39.82 204.18 40.5733 203.7 41C203.233 41.44 202.42 41.66 201.26 41.66ZM215.28 34.46C215.027 34.46 214.807 34.3733 214.62 34.2C214.447 34.0133 214.36 33.7933 214.36 33.54C214.36 33.2733 214.447 33.0533 214.62 32.88C214.807 32.7067 215.027 32.62 215.28 32.62H227.74C227.993 32.62 228.207 32.7067 228.38 32.88C228.567 33.0533 228.66 33.2733 228.66 33.54C228.66 33.7933 228.567 34.0133 228.38 34.2C228.207 34.3733 227.993 34.46 227.74 34.46H215.28ZM248.46 39.96C248.247 40.08 248.013 40.1 247.76 40.02C247.52 39.94 247.34 39.7933 247.22 39.58C247.087 39.34 246.893 39.04 246.64 38.68C246.4 38.32 246.127 37.9333 245.82 37.52C245.047 37.6533 244.167 37.7933 243.18 37.94C242.207 38.0733 241.2 38.2067 240.16 38.34C239.12 38.46 238.107 38.5733 237.12 38.68C236.133 38.7733 235.24 38.8533 234.44 38.92C234.187 38.9333 233.96 38.86 233.76 38.7C233.573 38.5267 233.473 38.3133 233.46 38.06C233.447 37.7933 233.52 37.5667 233.68 37.38C233.853 37.1933 234.067 37.0933 234.32 37.08C234.547 37.0533 234.793 37.0333 235.06 37.02C235.327 36.9933 235.607 36.9667 235.9 36.94C236.34 36.34 236.787 35.66 237.24 34.9C237.707 34.14 238.153 33.3533 238.58 32.54C239.007 31.7267 239.4 30.94 239.76 30.18C240.12 29.4067 240.42 28.72 240.66 28.12C240.753 27.88 240.913 27.7067 241.14 27.6C241.38 27.4933 241.62 27.4933 241.86 27.6C242.1 27.6933 242.273 27.86 242.38 28.1C242.487 28.3267 242.487 28.56 242.38 28.8C242.073 29.5467 241.693 30.38 241.24 31.3C240.787 32.2067 240.287 33.1333 239.74 34.08C239.207 35.0267 238.667 35.9133 238.12 36.74C239.227 36.6333 240.353 36.52 241.5 36.4C242.647 36.2667 243.687 36.1333 244.62 36C244.287 35.5733 243.947 35.1733 243.6 34.8C243.267 34.4133 242.967 34.0867 242.7 33.82C242.527 33.6333 242.44 33.4133 242.44 33.16C242.453 32.8933 242.553 32.6733 242.74 32.5C242.927 32.3267 243.147 32.2467 243.4 32.26C243.653 32.26 243.867 32.3533 244.04 32.54C244.347 32.86 244.72 33.2867 245.16 33.82C245.613 34.3533 246.08 34.9267 246.56 35.54C247.053 36.1533 247.5 36.74 247.9 37.3C248.313 37.86 248.627 38.3267 248.84 38.7C248.973 38.9133 249 39.1467 248.92 39.4C248.84 39.64 248.687 39.8267 248.46 39.96Z" fill="white"/>
</svg>
