<svg width="320" height="64" viewBox="0 0 320 64" fill="none" xmlns="http://www.w3.org/2000/svg">
<g clip-path="url(#clip0_13869_280)">
<path d="M187.161 3.15467V0.30957H190.422V3.15467H206.272V5.59201H171.386V3.15467H187.161ZM202.252 17.2289H203.845V31.4156C203.845 33.0411 203.352 33.9655 201.874 34.2238C200.964 34.3714 198.727 34.3714 197.134 34.2976L196.641 31.6001C197.78 31.6739 199.485 31.7108 199.941 31.6739C200.51 31.637 200.7 31.3787 200.7 30.899V19.6312H176.849V34.3345H173.739V17.2289H202.254H202.252ZM198.991 15.0867H178.592V7.73414H198.991V15.0867ZM183.785 21.8102H196.488V29.7901H183.785V31.6001H180.941V21.8102H183.785ZM181.663 12.9815H195.805V9.80431H181.663V12.9815ZM193.568 23.9911H183.785V27.6111H193.568V23.9911Z" fill="black"/>
<path d="M223.338 8.54792L220.569 9.4354C220.191 8.1051 219.508 6.7379 218.598 5.2231H215.981C214.769 6.99621 213.288 8.58482 211.62 10.0258L209.117 8.62172C211.961 6.36704 214.198 3.52379 215.374 0.346572L218.218 0.936995C217.952 1.60307 217.65 2.26729 217.347 2.93152H226.789V5.22125H221.632C222.391 6.40394 222.921 7.47593 223.338 8.54607M233.007 22.0317V18.8545H209.651V16.4541H225.084V13.1661H214.2V10.8008H225.084V8.73243H226.372L225.084 8.06635C227.813 5.96113 229.937 3.37434 231.074 0.344727L233.918 0.898248C233.653 1.59938 233.387 2.26545 233.045 2.92967H244.193V5.21941H238.505C239.378 6.3652 240.022 7.47409 240.514 8.50917L237.785 9.57931C237.215 8.21211 236.343 6.77111 235.207 5.21941H231.643C230.694 6.54971 229.596 7.7693 228.343 8.87819V10.7989H239.605V13.1643H228.343V16.4522H243.814V18.8526H236.231V22.0299H242.941V24.469H236.231V31.1187C236.231 32.8918 235.662 33.9269 233.955 34.1852C232.931 34.3328 230.201 34.3328 228.343 34.259L227.774 31.377C229.253 31.4877 231.453 31.4508 232.097 31.4139C232.78 31.377 233.007 31.0818 233.007 30.5283V24.469H210.712V22.0299H233.007V22.0317ZM219.395 24.6554C222.049 26.7256 224.096 28.7201 225.538 30.6408L222.845 32.2663C221.518 30.3087 219.545 28.2773 217.042 26.2071L219.394 24.6554H219.395Z" fill="black"/>
<path d="M263.156 22.3734V19.7497H264.407C266.039 18.6777 267.744 17.3843 269.186 16.1665H254.967V13.5798H273.168L275.102 14.7255C272.903 16.7957 269.566 19.27 266.38 21.3014V22.3734H281.964V25.0709H266.38V31.167C266.38 32.9401 265.773 33.9752 264.068 34.2335C262.97 34.3811 260.011 34.3442 258.001 34.3073L257.433 31.4622C259.064 31.5729 261.528 31.536 262.211 31.4991C262.933 31.4253 263.16 31.1301 263.16 30.5766V25.0727H247.386V22.3752H263.16L263.156 22.3734ZM254.511 7.92646C253.753 6.11644 252.616 4.19572 251.023 2.23626L253.563 0.905961C255.421 3.08499 256.748 5.04261 257.582 6.92827L255.27 7.92461H270.21L269.983 7.81391C272.144 5.30092 274.23 2.41892 275.329 0.424397L278.439 1.86355C277.264 3.60161 275.52 5.81754 273.661 7.92277H280.903V15.7551H277.603V10.5465H251.706V15.7551H248.521V7.92277H254.511V7.92646ZM263.005 0.317383C264.71 2.60896 265.887 4.67729 266.607 6.59801L263.573 7.8545C263.005 5.89688 261.905 3.79165 260.388 1.57388L263.005 0.317383Z" fill="black"/>
<path d="M295.391 1.60883H295.959C296.452 1.71953 296.908 1.86714 297.628 2.12545C296.377 5.81928 294.898 9.77327 293.344 13.8011C296.188 17.089 297.364 19.3049 297.364 21.781C297.364 24.4416 296.681 26.9527 294.369 27.4343C293.534 27.6188 291.676 27.6557 290.539 27.545L290.083 24.7737C290.803 24.8475 292.093 24.8844 292.661 24.8106C294.027 24.6261 294.369 23.3696 294.369 21.4858C294.369 19.3806 293.346 17.458 290.463 14.3564C291.715 10.8102 292.815 7.29903 293.686 4.26942H289.288V34.3423H286.292V1.60883H295.393H295.391ZM305.667 20.8935C304.984 27.1003 303.24 31.6798 296.757 34.3423L294.596 32.2352C300.701 30.0561 302.218 26.0284 302.672 20.7828L305.667 20.8935ZM312.151 29.058C312.151 30.5728 312.378 30.8311 313.251 30.868H315.98C316.89 30.8311 317.003 30.6466 317.043 27.4694L319.887 27.9122C319.622 33.1946 319.053 33.7869 316.246 33.8607C315.224 33.8976 313.743 33.8976 312.909 33.8607C309.838 33.7869 309.118 32.9732 309.118 29.058V19.3787H297.478V16.6812H320.002V19.3787H312.153V29.058H312.151ZM306.88 4.15687V0.31543H310.026V4.15872H319.278V11.1792H316.396V6.89311H300.697V11.1792H297.929V4.15687H306.878H306.88ZM315.79 12.8398H301.267V10.2161H315.79V12.8398Z" fill="black"/>
<path d="M35.5681 17.3271C35.5681 26.8975 27.6062 34.656 17.784 34.656C7.96184 34.656 0 26.8993 0 17.3271C0 7.75484 7.96369 0 17.784 0C25.5853 0 32.198 4.90051 34.5936 11.7107H26.0947C24.3359 8.84896 21.274 6.94854 17.7859 6.94854C12.3211 6.94854 7.89171 11.5963 7.89171 17.3289C7.89171 23.0616 12.3211 27.7074 17.7859 27.7074C21.5675 27.7074 24.8508 25.4804 26.5173 22.2073H16.04V15.1407H35.4149C35.4942 15.8344 35.5699 16.5798 35.5699 17.3289M56.5394 10.2734C54.62 9.23089 52.4145 8.63494 50.0614 8.63494C42.6939 8.63494 36.7234 14.4543 36.7234 21.6298C36.7234 28.8053 42.0959 34.6265 50.0614 34.6265C51.8738 34.6265 54.0442 33.918 56.1039 32.6928C56.2497 32.608 56.5394 32.7777 56.5394 32.9567V33.8755H64.0971V9.16632H56.5394V10.2734ZM57.0876 21.3788C57.0876 25.2166 54.1236 28.3274 50.4693 28.3274C46.815 28.3274 43.8547 25.2166 43.8547 21.3788C43.8547 17.5411 46.8132 14.4303 50.4693 14.4303C54.1254 14.4303 57.0876 17.5429 57.0876 21.3788ZM90.9872 9.16632H82.2465L74.604 19.412V1.51111H66.7381V33.8755H74.604V24.2461L81.2758 33.8275H90.3191L82.0177 21.3364L90.9872 9.16447V9.16632ZM116.028 9.16632H107.287L99.6448 19.412V1.51111H91.7753V33.8755H99.6448V24.2461L106.315 33.8275H115.36L107.059 21.3364L116.028 9.16447V9.16632ZM121.46 24.2092C122.32 27.01 124.616 29.0193 127.325 29.0193C129.34 29.0193 131.129 27.903 132.267 26.1797H140.187C138.223 31.1282 133.214 34.656 127.325 34.656C119.727 34.656 113.568 28.7942 113.568 21.567C113.568 14.3399 119.728 8.47626 127.325 8.47626C134.921 8.47626 141.084 14.3362 141.084 21.567C141.084 22.4748 140.977 23.3531 140.788 24.2092H121.46ZM121.666 18.7681H132.983C131.998 16.2809 129.839 14.5484 127.325 14.5484C124.811 14.5484 122.65 16.2791 121.668 18.7681M165.892 17.7773C165.892 12.6314 161.463 8.45965 155.998 8.45965C153.953 8.45965 152.052 9.04454 150.474 10.0483V9.16632H142.608V33.8755H150.474V19.5596C150.474 17.2643 152.231 15.4045 154.403 15.4045C156.576 15.4045 158.329 17.2643 158.329 19.5596V33.8755H165.892V17.7773Z" fill="black"/>
<path d="M24.4078 48.8781C24.4078 49.1161 24.286 49.3172 23.9556 49.4538C23.677 49.5718 23.5902 49.7582 23.4167 50.0294C22.2356 51.8394 20.9695 53.5812 19.4063 55.1034C17.8265 56.6938 15.9513 58.013 13.7809 58.7898C13.6425 58.8415 13.5207 58.8913 13.3823 58.8913C13.2771 58.8913 13.2088 58.8581 13.2088 58.7382C13.2088 58.6182 13.2956 58.5684 13.5041 58.4337C15.7262 57.0296 17.3577 55.5406 18.5739 54.1033C19.8418 52.5978 21.0913 50.9409 21.9938 48.9962C22.0288 48.9113 22.0455 48.8615 22.0455 48.8264C22.0455 48.7914 22.0104 48.7582 21.9587 48.7582C21.5416 48.8098 20.9695 48.9445 20.2054 49.0792C19.72 49.1641 19.5115 49.249 19.2679 49.249C19.0242 49.249 18.6607 49.1143 18.3137 48.9611C17.6548 49.808 16.959 50.5682 16.2485 51.2287C15.4493 51.9557 14.617 52.5645 13.7311 53.1052C13.4192 53.2915 13.2789 53.3598 13.1756 53.3598C13.0187 53.3598 12.967 53.2915 12.967 53.1734C12.967 53.0387 13.2107 52.869 13.6278 52.4631C14.2866 51.8044 15.0507 50.9741 15.7797 50.011C16.2651 49.3855 16.7339 48.7083 17.186 47.998C17.4813 47.5238 17.7582 46.9832 17.7582 46.6954C17.7582 46.4075 17.4629 46.2046 17.1325 46.0348C16.9756 45.95 16.924 45.9001 16.924 45.8319C16.924 45.747 17.1491 45.5625 17.4979 45.5625C17.7748 45.5625 18.417 45.6972 19.1996 46.1714C19.7385 46.4924 19.8418 46.712 19.8418 46.9648C19.8418 47.1511 19.6517 47.3707 19.4598 47.4888C19.3029 47.5902 19.183 47.7434 18.7474 48.3356C18.7991 48.3522 18.9209 48.3522 19.0076 48.3522C19.3546 48.3356 19.7717 48.2674 20.3623 48.1677C21.0747 48.0478 21.525 47.9482 21.7502 47.8965C21.8886 47.8633 21.9938 47.8116 22.1156 47.6936C22.2023 47.6087 22.3758 47.4574 22.5659 47.4574C22.983 47.4574 23.3651 47.6603 23.9722 48.2009C24.2325 48.4205 24.406 48.6917 24.406 48.8762L24.4078 48.8781Z" fill="black"/>
<path d="M35.5127 49.5552C36.5555 49.4372 37.995 49.3025 40.2005 49.0645C40.4257 49.0479 40.5825 48.9796 40.8077 48.8283C40.9461 48.7434 41.1381 48.6751 41.3116 48.6751C41.6235 48.6751 42.214 49.0645 42.6662 49.4704C43.0482 49.8099 43.0833 49.9612 43.0833 50.1641C43.0833 50.3505 42.8914 50.4686 42.7179 50.5534C42.4743 50.6715 42.3709 50.773 42.0922 51.2804C41.4149 52.5313 40.5124 53.7841 39.3848 55.0019C38.0836 56.406 36.035 58.0112 33.6911 58.9264C33.5527 58.978 33.4143 59.0278 33.3091 59.0278C33.2039 59.0278 33.1356 58.9596 33.1356 58.8581C33.1356 58.7732 33.274 58.705 33.3792 58.6201C35.4629 57.3009 36.956 55.7455 38.3955 53.9354C39.3682 52.7011 40.0455 51.5848 40.5659 50.3837C40.6176 50.2656 40.6877 50.0626 40.6877 50.0294C40.6877 49.9778 40.6527 49.9778 40.5659 49.9778C40.4958 49.9778 40.3758 49.9944 40.2891 50.011C38.4306 50.1807 37.0593 50.4003 35.3245 50.6881C34.6656 50.8062 34.4386 50.8911 34.2836 50.9759C34.0935 51.0774 33.9015 51.1457 33.7281 51.1457C33.4494 51.1457 33.2427 51.0608 32.7739 50.6051C32.27 50.0977 32.0966 49.6235 32.0966 49.3707C32.0966 49.0829 32.1833 48.8966 32.27 48.8966C32.3383 48.8966 32.3734 48.9298 32.5303 49.0663C33.0341 49.5239 33.2593 49.6918 33.9366 49.6918C34.1618 49.6918 34.9092 49.6235 35.5164 49.5571L35.5127 49.5552ZM36.3451 46.3245C36.9873 46.2397 37.6997 46.1216 38.4638 45.9537C38.8975 45.8522 39.071 45.7507 39.2445 45.6824C39.453 45.5976 39.7483 45.5293 39.9218 45.5293C40.6859 45.5293 41.4315 45.9186 41.4315 46.2913C41.4315 46.5109 41.3798 46.7655 41.0845 46.8485C40.7376 46.95 40.3039 47.0017 40.0252 47.0349C39.2962 47.1364 37.4211 47.3393 36.0498 47.4906C35.7028 47.5257 35.4241 47.5423 35.2174 47.5423C34.5918 47.5423 34.2448 47.3061 33.7244 46.5957C33.5158 46.3245 33.4807 46.105 33.4807 45.8688C33.4807 45.7507 33.5158 45.6824 33.5841 45.6824C33.6358 45.6824 33.6874 45.7341 33.776 45.8005C34.4349 46.2913 34.6619 46.3928 35.4075 46.3928C35.6862 46.3928 36.0147 46.3577 36.3451 46.3245Z" fill="black"/>
<path d="M62.484 52.8192C61.9451 52.8192 60.7658 52.7343 59.915 52.7343C58.5437 52.7343 55.5576 52.8026 53.4222 52.9872C52.5899 53.0555 51.9458 53.157 51.704 53.3083C51.5822 53.3932 51.4438 53.443 51.2352 53.443C50.7849 53.443 50.3844 53.037 49.8473 52.2766C49.5871 51.9204 49.517 51.7008 49.517 51.3631C49.517 51.0918 49.6203 50.957 49.7255 50.957C49.7772 50.957 49.8639 51.0253 49.9507 51.1102C50.5929 51.7193 50.9048 51.7525 51.4087 51.7525C51.8775 51.7525 52.2078 51.7359 53.2321 51.6676C55.3841 51.5329 57.6763 51.4295 59.3779 51.3963C60.0552 51.3797 60.5056 51.2782 60.7326 51.16C60.9061 51.0751 61.0795 51.0253 61.218 51.0253C61.4431 51.0253 61.7218 51.0752 61.9986 51.1951C62.6575 51.4646 63.1097 51.7193 63.1097 52.1419C63.1097 52.463 62.8845 52.8174 62.484 52.8174V52.8192Z" fill="black"/>
<path d="M80.377 48.8781C80.377 49.1161 80.2552 49.3172 79.9248 49.4538C79.648 49.5718 79.5612 49.7582 79.3877 50.0294C78.2066 51.8394 76.9405 53.5812 75.3773 55.1034C73.7975 56.6938 71.9224 58.013 69.752 58.7898C69.6135 58.8415 69.4917 58.8913 69.3533 58.8913C69.25 58.8913 69.1798 58.8581 69.1798 58.7382C69.1798 58.6182 69.2666 58.5684 69.4751 58.4337C71.6972 57.0296 73.3287 55.5406 74.5449 54.1033C75.8128 52.5978 77.0623 50.9409 77.9648 48.9962C77.9999 48.9113 78.0165 48.8615 78.0165 48.8264C78.0165 48.7914 77.9814 48.7582 77.9297 48.7582C77.5126 48.8098 76.9405 48.9445 76.1764 49.0792C75.691 49.1641 75.4825 49.249 75.2389 49.249C74.9953 49.249 74.6317 49.1143 74.2847 48.9611C73.6258 49.808 72.93 50.5682 72.2195 51.2287C71.4204 51.9557 70.588 52.5645 69.7021 53.1052C69.3902 53.2915 69.25 53.3598 69.1466 53.3598C68.9897 53.3598 68.938 53.2915 68.938 53.1734C68.938 53.0387 69.1817 52.869 69.5969 52.4631C70.2576 51.8044 71.0199 50.9741 71.7489 50.011C72.2361 49.3855 72.703 48.7083 73.1552 47.998C73.4505 47.5238 73.7273 46.9832 73.7273 46.6954C73.7273 46.4075 73.432 46.2046 73.1017 46.0348C72.9448 45.95 72.8931 45.9001 72.8931 45.8319C72.8931 45.747 73.1183 45.5625 73.4653 45.5625C73.7439 45.5625 74.3862 45.6972 75.1669 46.1714C75.7058 46.4924 75.8092 46.712 75.8092 46.9648C75.8092 47.1511 75.6172 47.3707 75.4271 47.4888C75.2702 47.5902 75.1484 47.7434 74.7147 48.3356C74.7664 48.3522 74.8882 48.3522 74.9749 48.3522C75.3219 48.3356 75.739 48.2674 76.3296 48.1677C77.042 48.0478 77.4923 47.9482 77.7193 47.8965C77.8577 47.8633 77.9629 47.8116 78.0829 47.6936C78.1697 47.6087 78.3431 47.4574 78.5351 47.4574C78.9522 47.4574 79.3342 47.6603 79.9414 48.2009C80.2016 48.4205 80.3751 48.6917 80.3751 48.8762L80.377 48.8781Z" fill="black"/>
<path d="M90.7011 47.7288C91.4486 46.8321 91.6553 46.6974 91.7771 46.6974C91.934 46.6974 92.1241 46.8321 92.8881 47.4077C93.2351 47.6956 93.3735 47.8303 93.3735 47.9502C93.3735 48.0701 93.3218 48.1199 93.1484 48.1199H87.0542C86.7073 48.1199 86.3419 48.1531 85.8731 48.2214L85.683 47.5959C86.2385 47.6974 86.6556 47.7306 87.0709 47.7306H90.6993L90.7011 47.7288ZM88.0804 58.6221V59.0963C88.0804 59.5354 87.7685 59.7402 87.1779 59.7402C86.6925 59.7402 86.4489 59.587 86.4489 59.1811C86.4489 58.6571 86.5172 58.0981 86.5172 55.9504C86.5172 55.1718 86.5006 54.395 86.4138 53.6164C87.2813 53.9725 87.4031 54.0223 88.2539 54.4614H90.3025C90.9281 53.7511 91.0665 53.6496 91.205 53.6496C91.3784 53.6496 91.5169 53.7511 92.1425 54.2419C92.4212 54.478 92.5246 54.5961 92.5246 54.7327C92.5246 54.8858 92.4027 55.0371 92.0041 55.2899V55.8821C92.0041 57.4541 92.0724 58.5889 92.0724 58.9431C92.0724 59.3822 91.7605 59.5686 91.1533 59.5686C90.6679 59.5686 90.4409 59.3989 90.4409 59.0446V58.6221H88.0804ZM89.6602 45.4962C90.4243 44.618 90.6328 44.4814 90.7546 44.4814C90.9115 44.4814 91.1016 44.6161 91.8823 45.1918C92.2293 45.4612 92.3677 45.5977 92.3677 45.7158C92.3677 45.8339 92.316 45.8855 92.1425 45.8855H87.6467C87.3348 45.8855 87.0395 45.9206 86.6224 45.987L86.4304 45.3615C86.9158 45.463 87.2813 45.4962 87.6467 45.4962H89.6602ZM89.9555 50.013C90.5978 49.2343 90.8063 49.0997 90.9281 49.0997C91.085 49.0997 91.2751 49.2343 91.9524 49.7417C92.2477 49.9798 92.3861 50.1144 92.3861 50.2325C92.3861 50.3506 92.3345 50.4023 92.161 50.4023H87.7168C87.4049 50.4023 87.0746 50.4355 86.6575 50.5038L86.4674 49.8764C86.9712 49.9779 87.3348 50.0111 87.7168 50.0111H89.9574L89.9555 50.013ZM89.9555 52.1957C90.5978 51.3839 90.8063 51.2473 90.9281 51.2473C91.085 51.2473 91.2751 51.382 91.969 51.9245C92.2643 52.144 92.4027 52.2953 92.4027 52.4153C92.4027 52.5352 92.3511 52.585 92.1776 52.585H87.75C87.4381 52.585 87.1244 52.6182 86.7091 52.6865L86.5172 52.061C87.0044 52.1625 87.3846 52.1957 87.75 52.1957H89.9555ZM90.4409 54.8489H88.0804V58.2328H90.4409V54.8489ZM98.8789 46.0036H94.7817C94.3997 46.0036 94.0176 46.0368 93.4972 46.1549L93.3071 45.4796C93.8977 45.5811 94.3314 45.6143 94.7651 45.6143H98.6888C99.3311 44.904 99.4695 44.8006 99.6079 44.8006C99.7814 44.8006 99.9383 44.8855 100.616 45.428C100.927 45.6641 101.033 45.7988 101.033 45.9354C101.033 46.0534 100.963 46.1549 100.494 46.4926V47.3561C100.494 49.6052 100.581 51.2289 100.581 51.7363C100.581 52.2437 100.234 52.43 99.6264 52.43C99.1225 52.43 98.8789 52.2437 98.8789 51.8728V51.1791H94.9903V57.0999C94.9903 57.7586 95.3723 57.8951 97.264 57.8951C98.9472 57.8951 99.5212 57.8102 99.798 57.5575C100.093 57.2862 100.302 56.8637 100.839 55.0703C100.856 54.9854 101.064 55.0205 101.064 55.1054C101.046 55.7308 100.994 56.5777 100.994 57.0003C100.994 57.3213 101.011 57.3379 101.306 57.4744C101.496 57.5759 101.636 57.7789 101.636 58.0316C101.636 58.5557 101.358 58.8933 100.595 59.0963C99.9013 59.2826 98.8235 59.3509 97.192 59.3509C94.2059 59.3509 93.3735 58.9782 93.3735 57.2364C93.3735 56.5095 93.4086 55.5629 93.4086 53.3304C93.4086 51.537 93.392 51.0813 93.3052 49.9133C94.1911 50.286 94.3295 50.3359 95.1803 50.7934H98.8771V46.0073L98.8789 46.0036Z" fill="black"/>
<path d="M104.237 51.3485C104.15 51.3835 104.063 51.1787 104.131 51.1455C106.128 50.1307 108.159 48.389 109.53 46.6804C110.259 45.7671 110.798 44.8704 111.039 44.0752C112.966 44.7689 113.332 44.9221 113.332 45.125C113.332 45.2782 113.142 45.3778 112.741 45.4461C113.836 46.5956 115.067 47.5273 116.421 48.186C117.724 48.8299 119.129 49.2525 120.605 49.472C120.692 49.4886 120.675 49.6584 120.589 49.675C120.033 49.7414 119.773 50.0126 119.513 50.8595C119.426 51.1289 119.356 51.2322 119.217 51.2322C119.044 51.2322 118.713 51.1141 118.315 50.9112C117.447 50.4721 116.179 49.6768 115.347 48.9997C114.323 48.1546 113.385 47.1048 112.448 45.5826C110.537 48.2211 107.465 50.3521 104.237 51.3503V51.3485ZM107.223 56.2195C107.223 57.7749 106.581 58.8413 105.486 58.8413C104.931 58.8413 104.549 58.5037 104.549 57.9612C104.549 57.5221 104.757 57.3025 105.329 57.0479C106.37 56.6752 106.719 56.1678 106.839 54.95C106.839 54.8652 107.064 54.8486 107.083 54.9334C107.169 55.391 107.221 55.8301 107.221 56.2195H107.223ZM114.74 51.0606C115.366 50.3835 115.504 50.282 115.642 50.282C115.816 50.282 115.954 50.3835 116.632 50.9075C116.943 51.1621 117.049 51.2802 117.049 51.4167C117.049 51.6197 116.892 51.7378 116.477 51.8909C115.991 52.7876 115.574 53.4814 115.122 54.1567C114.878 54.4279 114.74 54.4962 114.461 54.4962C113.924 54.4962 113.298 54.1751 113.298 53.9039C113.298 53.8024 113.369 53.6843 113.455 53.5496C113.959 52.974 114.409 52.2821 114.827 51.4518H108.559C107.847 51.4518 107.586 51.4684 107.083 51.5367L106.909 50.9093C107.448 51.0293 107.776 51.0625 108.505 51.0625H114.738L114.74 51.0606ZM110.174 57.7416C110.174 58.2324 110.417 58.2822 112.379 58.2822C113.439 58.2822 114.081 58.2656 114.515 58.0627C115.105 57.8099 115.295 57.2342 115.661 55.9648C115.677 55.88 115.869 55.9298 115.869 56.0165C115.853 56.4556 115.818 57.0147 115.818 57.3523C115.818 57.7749 115.818 57.7915 116.27 57.9963C116.443 58.0627 116.582 58.2841 116.582 58.5203C116.582 58.9096 116.322 59.1974 115.696 59.3653C115.002 59.5683 113.872 59.6531 112.119 59.6531C109.063 59.6531 108.577 59.3653 108.577 57.6918C108.577 57.4372 108.613 57.1678 108.613 56.1014C108.613 55.5257 108.594 54.9519 108.542 54.3762C110.453 54.5792 110.694 54.6308 110.694 54.867C110.694 55.0202 110.573 55.1198 110.174 55.3246V57.7435V57.7416ZM112.71 49.1657C113.317 48.4388 113.525 48.3041 113.647 48.3041C113.804 48.3041 114.013 48.4388 114.655 48.913C114.932 49.1325 115.072 49.2672 115.072 49.3872C115.072 49.5071 115.02 49.5569 114.847 49.5569H110.386C110.074 49.5569 109.779 49.592 109.362 49.6584L109.172 49.0329C109.641 49.1344 110.004 49.1676 110.353 49.1676H112.713L112.71 49.1657ZM113.022 56.8449C112.536 56.8449 112.414 56.6936 112.154 55.8135C111.946 55.1881 111.634 54.7637 110.973 54.1401C110.905 54.0884 110.973 54.0054 111.06 54.022C113.057 54.3947 113.889 54.9353 113.889 55.8818C113.889 56.4409 113.525 56.8449 113.022 56.8449ZM118.664 58.8081C118.16 58.8081 117.935 58.5037 117.744 57.4889C117.553 56.4741 117.241 55.7969 116.617 55.07C116.565 55.0036 116.652 54.8836 116.739 54.9187C118.649 55.7139 119.586 56.6254 119.586 57.7084C119.586 58.3524 119.221 58.8081 118.665 58.8081H118.664Z" fill="black"/>
<path d="M125.324 58.9422C125.324 59.433 125.012 59.6175 124.318 59.6175C123.831 59.6175 123.625 59.4478 123.625 59.0603C123.625 57.6064 123.728 56.1507 123.728 50.2999C123.728 48.3718 123.711 46.4271 123.641 44.4824C124.562 44.8717 124.7 44.9382 125.585 45.4622H136.28C136.974 44.702 137.114 44.6005 137.252 44.6005C137.426 44.6005 137.564 44.702 138.242 45.2776C138.537 45.547 138.64 45.667 138.64 45.8016C138.64 45.9714 138.502 46.1227 138.12 46.3441V48.4069C138.12 53.8701 138.225 57.6083 138.225 58.8611C138.225 59.3519 137.878 59.5548 137.184 59.5548C136.697 59.5548 136.472 59.3851 136.472 59.0124V58.5216H125.326V58.9441L125.324 58.9422ZM136.47 45.8515H125.324V58.1304H136.47V45.8515ZM129.855 51.7871H127.858C127.546 51.7871 127.216 51.8203 126.799 51.8885L126.607 51.2612C127.094 51.3627 127.441 51.3959 127.805 51.3959H129.853V48.2999H127.441C127.111 48.2999 126.782 48.3349 126.33 48.4014L126.138 47.7759C126.659 47.8774 127.041 47.9106 127.423 47.9106H133.203C133.897 47.1153 134.106 46.9807 134.227 46.9807C134.384 46.9807 134.593 47.1153 135.303 47.6412C135.615 47.8774 135.756 48.012 135.756 48.132C135.756 48.2519 135.704 48.3017 135.53 48.3017H131.485V51.3978H132.873C133.463 50.6025 133.672 50.4678 133.794 50.4678C133.951 50.4678 134.141 50.6025 134.801 51.1118C135.097 51.3479 135.235 51.5011 135.235 51.6192C135.235 51.7372 135.183 51.7889 135.01 51.7889H131.487V55.7816H133.639C134.246 54.92 134.454 54.7835 134.576 54.7835C134.733 54.7835 134.923 54.9181 135.617 55.4938C135.912 55.73 136.051 55.8831 136.051 56.0012C136.051 56.1193 135.999 56.171 135.826 56.171H127.162C126.851 56.171 126.52 56.2042 126.103 56.2724L125.913 55.647C126.398 55.7484 126.78 55.7816 127.146 55.7816H129.853V51.7889L129.855 51.7871ZM133.831 54.7982C133.5 54.7982 133.362 54.6635 133.188 54.206C132.911 53.4956 132.598 53.0214 132.096 52.5989C132.026 52.5491 132.096 52.4642 132.182 52.4808C133.866 52.7686 134.613 53.2428 134.613 53.9864C134.613 54.444 134.283 54.7982 133.832 54.7982H133.831Z" fill="black"/>
<path d="M143.651 56.642C143.651 58.0627 143.667 58.9244 143.667 59.1292C143.667 59.6698 143.321 59.8562 142.73 59.8562C142.226 59.8562 142.053 59.6698 142.053 59.2288C142.053 58.2491 142.123 55.356 142.123 50.6363C142.123 46.8982 142.106 45.9 142.053 44.5476C142.885 44.9369 143.007 44.9701 143.754 45.4092H145.369C145.941 44.7838 146.082 44.6823 146.22 44.6823C146.393 44.6823 146.515 44.7838 147.157 45.3926C147.436 45.662 147.54 45.7986 147.54 45.9332C147.54 46.0679 147.383 46.2045 147.001 46.3392C146.342 47.6584 145.369 49.1972 144.657 50.0607C145.663 51.0404 146.237 51.8541 146.497 52.8006C147.261 52.2249 147.99 51.533 148.616 50.7544C148.545 50.7876 148.477 50.8061 148.39 50.8061C148.078 50.8061 148.025 50.7544 147.818 50.1123C147.661 49.6732 147.523 49.4518 147.176 49.0975C146.812 49.4186 146.412 49.7396 145.962 50.0791C145.891 50.1289 145.771 49.961 145.823 49.8928C146.831 48.7082 147.682 47.2027 148.184 45.7986C148.376 45.2579 148.514 44.7506 148.601 44.2598C150.232 44.6823 150.511 44.8004 150.511 44.9701C150.511 45.1399 150.337 45.2395 149.955 45.2746C149.782 45.5956 149.625 45.9 149.47 46.1713H150.755C151.172 45.7487 151.31 45.6639 151.413 45.6639C151.517 45.6639 151.622 45.7321 152.194 46.1713C152.438 46.3576 152.506 46.424 152.506 46.5606C152.506 46.6787 152.454 46.7303 152.194 46.9148C151.273 49.688 149.503 51.6511 146.709 52.9703C146.639 53.0036 146.604 53.0202 146.552 53.0036C146.639 53.3744 146.674 53.7988 146.674 54.2379C146.674 54.9151 146.43 55.4723 146.048 55.845C145.718 56.1494 145.303 56.3192 144.815 56.3192C144.59 56.3192 144.485 56.2177 144.468 55.9483C144.417 55.4243 144.26 55.1697 143.653 54.9169V56.642H143.651ZM143.651 54.6291C143.998 54.6641 144.258 54.6641 144.502 54.6641C144.675 54.6641 144.814 54.6291 144.919 54.5626C145.144 54.3763 145.214 53.987 145.214 53.1936C145.214 51.8578 144.935 51.0293 144.225 50.1492C144.886 48.4407 145.406 46.6491 145.458 45.8022H143.653V54.6328L143.651 54.6291ZM149.59 56.2712C148.617 57.5572 147.576 58.3856 145.875 59.2491C145.805 59.2823 145.685 59.1144 145.753 59.0628C146.534 58.3192 147.263 57.3542 147.767 56.4409C148.027 55.9667 148.235 55.476 148.339 55.07C149.745 55.476 150.301 55.7306 150.301 55.9169C150.301 56.1365 150.144 56.2048 149.588 56.2712H149.59ZM152.731 56.7103C152.731 57.3192 152.766 57.9465 152.766 58.5554C152.766 58.9096 152.663 59.2141 152.454 59.417C152.159 59.7049 151.709 59.8562 151.065 59.8562C150.718 59.8562 150.683 59.8045 150.544 59.3137C150.406 58.8229 150.092 58.6716 148.948 58.3672C148.861 58.3506 148.861 58.1476 148.948 58.1476C149.607 58.1993 150.354 58.2491 150.978 58.2491C151.135 58.2491 151.203 58.1974 151.203 58.0627V54.1549H148.981C148.531 54.1549 148.062 54.1899 147.453 54.2564L147.263 53.6309C147.957 53.7324 148.46 53.7656 148.981 53.7656H154.728C155.387 52.987 155.595 52.8523 155.717 52.8523C155.874 52.8523 156.083 52.987 156.777 53.4943C157.089 53.7305 157.229 53.8671 157.229 53.9851C157.229 54.1032 157.177 54.1549 157.004 54.1549H152.733V56.7085L152.731 56.7103ZM148.981 50.1474C148.981 50.2138 148.981 50.2655 148.964 50.3337C149.311 49.8762 149.607 49.402 149.885 48.913C149.799 48.9813 149.677 49.0311 149.538 49.0311C149.261 49.0311 149.175 48.9462 148.999 48.4222C148.826 47.9315 148.791 47.8466 148.566 47.5754C148.2 48.0661 147.785 48.5237 147.333 48.9629C148.427 49.1492 148.983 49.5551 148.983 50.1474H148.981ZM149.241 46.5624C149.068 46.8318 148.894 47.0864 148.721 47.3576C149.623 47.544 150.127 47.8982 150.127 48.389V48.4573C150.439 47.8152 150.683 47.1731 150.804 46.5624H149.241ZM152.506 51.4666C153.062 50.8227 153.27 50.688 153.392 50.688C153.549 50.688 153.755 50.8227 154.278 51.2452C154.521 51.4482 154.676 51.5662 154.676 51.6843C154.676 51.8024 154.625 51.8541 154.451 51.8541H151.135C150.753 51.8541 150.371 51.8891 149.85 51.9556L149.66 51.3301C150.232 51.4316 150.649 51.4648 151.083 51.4648H152.506V51.4666ZM155.492 45.9868C156.031 45.4111 156.169 45.3115 156.308 45.3115C156.481 45.3115 156.62 45.4129 157.227 45.9369C157.506 46.1897 157.609 46.3096 157.609 46.4443C157.609 46.6307 157.487 46.7137 156.95 46.9185C156.238 47.8816 155.527 48.5754 154.676 49.1344C155.527 50.0145 156.655 50.7249 158.08 51.2157C158.166 51.2507 158.131 51.3688 158.045 51.402C157.541 51.6382 157.437 51.7581 157.229 52.4851C157.159 52.7379 157.107 52.8061 156.985 52.8061C156.828 52.8061 156.587 52.6714 156.256 52.4334C155.18 51.6548 154.329 50.6068 153.669 49.4739C153.078 48.4075 152.574 47.0218 152.368 45.5329C152.351 45.3631 152.297 45.2635 152.194 45.1602C152.107 45.0753 152.072 45.0089 152.072 44.9406C152.072 44.8723 152.384 44.7708 152.679 44.7708C152.836 44.7708 152.923 44.8041 152.923 44.8723C152.923 44.9572 152.785 45.1085 152.785 45.2432C152.785 45.3613 152.801 45.5144 152.855 45.7008C153.063 46.4941 153.635 47.7636 154.123 48.4573C154.209 48.5754 154.28 48.6769 154.383 48.7783C154.903 47.9831 155.304 47.103 155.494 46.3761H154.575C154.263 46.3761 153.949 46.4093 153.534 46.5108L153.342 45.8502C153.827 45.9517 154.209 45.9849 154.575 45.9849H155.494L155.492 45.9868ZM156.325 58.9594C155.872 58.9594 155.664 58.7399 155.439 58.096C154.986 56.7767 154.588 56.1513 153.667 55.3228C153.597 55.2712 153.667 55.1531 153.754 55.1697C155.854 55.7952 157.173 56.8948 157.173 57.9945C157.173 58.5517 156.81 58.9576 156.323 58.9576L156.325 58.9594Z" fill="black"/>
<path d="M167.239 45.2599C167.239 45.0071 167.223 44.651 167.153 44.2617C169.323 44.4481 169.532 44.6326 169.532 44.8189C169.532 44.9887 169.306 45.14 168.924 45.2931V46.3079H173.16C174.114 45.2931 174.323 45.1584 174.444 45.1584C174.601 45.1584 174.775 45.2931 175.591 45.9536C175.956 46.2581 176.094 46.4094 176.094 46.5293C176.094 46.6492 176.043 46.6991 175.869 46.6991H161.946C161.583 46.6991 161.217 46.7323 160.732 46.8005L160.542 46.1751C161.097 46.2765 161.514 46.3097 161.93 46.3097H167.241V45.2617L167.239 45.2599ZM173.28 52.5147C173.87 51.8892 174.009 51.7878 174.147 51.7878C174.321 51.7878 174.459 51.8892 175.12 52.3966C175.415 52.6494 175.52 52.7693 175.52 52.904C175.52 53.0904 175.382 53.2251 174.965 53.428V54.2565C174.965 56.9632 175.017 57.6219 175.017 58.4171C175.017 59.0776 174.843 59.3821 174.358 59.6515C174.027 59.8378 173.645 59.9393 173.247 59.9393C173.022 59.9393 172.935 59.8876 172.848 59.4651C172.745 58.9061 172.518 58.7215 171.32 58.3322C171.233 58.299 171.233 58.1293 171.32 58.1293C172.119 58.1975 172.604 58.2308 173.177 58.2308C173.35 58.2308 173.402 58.1809 173.402 58.0112V52.904H163.004V59.1791C163.004 59.7031 162.725 59.9061 162.031 59.9061C161.511 59.9061 161.337 59.7363 161.337 59.264C161.337 58.3341 161.389 57.4023 161.389 53.6476C161.389 52.9871 161.372 52.3284 161.337 51.6697C162.188 52.0073 162.326 52.059 163.126 52.5147H173.282H173.28ZM165.277 51.0608V51.1955C165.277 51.6346 164.966 51.821 164.34 51.821C163.871 51.821 163.679 51.6697 163.679 51.2287C163.679 50.7877 163.714 50.3837 163.714 48.6917C163.714 48.2342 163.698 47.7784 163.679 47.3208C164.513 47.6585 164.633 47.7268 165.397 48.1327H170.849C171.386 47.4887 171.527 47.3891 171.665 47.3891C171.839 47.3891 171.995 47.4906 172.619 47.9648C172.914 48.1843 173.018 48.3043 173.018 48.439C173.018 48.5737 172.896 48.7083 172.549 48.8965V49.2526C172.549 50.1992 172.584 50.8597 172.584 51.0627C172.584 51.5867 172.324 51.7896 171.63 51.7896C171.143 51.7896 170.969 51.6365 170.969 51.1973V51.0627H165.276L165.277 51.0608ZM166.318 57.1846V57.5905C166.318 58.0647 166.075 58.2326 165.397 58.2326C164.912 58.2326 164.772 58.0979 164.772 57.6754C164.772 57.3045 164.807 56.9152 164.807 55.358C164.807 54.7989 164.788 54.2251 164.737 53.6494C165.517 53.9705 165.639 54.0221 166.438 54.393H169.788C170.309 53.8524 170.449 53.7509 170.587 53.7509C170.761 53.7509 170.899 53.8524 171.508 54.3432C171.768 54.5628 171.874 54.6808 171.874 54.8174C171.874 54.9705 171.787 55.0886 171.421 55.3248V55.6458C171.421 56.5075 171.473 57.0997 171.473 57.2861C171.473 57.7252 171.213 57.9134 170.587 57.9134C170.118 57.9134 169.91 57.7935 169.91 57.4226V57.1864H166.317L166.318 57.1846ZM170.971 48.5238H165.277V50.6715H170.971V48.5238ZM169.914 54.7823H166.32V56.7953H169.914V54.7823Z" fill="black"/>
<path d="M182.163 46.7138C181.295 47.915 180.253 48.8283 179.16 49.3873C179.09 49.4224 178.968 49.3191 179.022 49.2526C179.786 48.3891 180.48 47.3245 180.948 46.2581C181.244 45.5643 181.469 44.8872 181.555 44.2451C183.292 44.7359 183.656 44.889 183.656 45.1068C183.656 45.2931 183.482 45.3946 182.943 45.4463C182.788 45.7507 182.613 46.0385 182.423 46.3264H184.662C185.32 45.5662 185.529 45.4297 185.651 45.4297C185.808 45.4297 186.014 45.5643 186.692 46.0717C186.987 46.2913 187.125 46.4278 187.125 46.5459C187.125 46.664 187.074 46.7157 186.9 46.7157H183.082C184.331 47.0718 184.835 47.4943 184.835 48.1198C184.835 48.6106 184.488 48.9814 184.003 48.9814C183.517 48.9814 183.431 48.8633 183.274 47.9832C183.117 47.3411 183.014 47.0533 182.7 46.7138H182.163ZM188.482 46.7138C188.048 47.2563 187.528 47.712 186.972 48.1179C187.72 48.236 187.858 48.3541 187.858 48.4556C187.858 48.6087 187.755 48.7434 187.373 48.8781V49.6899H190.411C191.175 48.8615 191.383 48.7268 191.503 48.7268C191.66 48.7268 191.85 48.8615 192.544 49.4021C192.839 49.6401 192.978 49.7914 192.978 49.9095C192.978 50.0276 192.926 50.0792 192.753 50.0792H187.371V52.1088H191.763C192.596 51.1955 192.804 51.059 192.926 51.059C193.083 51.059 193.273 51.1937 194.037 51.8025C194.368 52.0553 194.506 52.2084 194.506 52.3265C194.506 52.4446 194.454 52.4963 194.281 52.4963H180.444C180.133 52.4963 179.837 52.5295 179.42 52.5978L179.23 51.9723C179.699 52.0738 180.046 52.107 180.393 52.107H185.775V50.0774H182.303C181.991 50.0774 181.696 50.1124 181.279 50.1789L181.089 49.5534C181.541 49.6549 181.888 49.6881 182.235 49.6881H185.776V49.5183C185.776 48.9943 185.76 48.4869 185.706 47.9611C186.053 47.9961 186.332 48.0294 186.574 48.046C187.026 47.319 187.354 46.6437 187.598 45.9666C187.806 45.426 187.945 44.8835 188.067 44.2746C189.473 44.5791 190.064 44.8319 190.064 45.0699C190.064 45.2728 189.874 45.3743 189.351 45.4592C189.178 45.7636 188.988 46.0514 188.796 46.3208H192.042C192.79 45.4407 192.996 45.306 193.118 45.306C193.275 45.306 193.482 45.4407 194.264 46.0164C194.63 46.2876 194.768 46.4223 194.768 46.5404C194.768 46.6585 194.716 46.7101 194.543 46.7101H189.768C190.931 46.998 191.453 47.4039 191.453 48.0128C191.453 48.4869 191.055 48.8929 190.619 48.8929C190.184 48.8929 190.012 48.7065 189.874 47.9113C189.752 47.3873 189.578 46.998 189.283 46.7101H188.484L188.482 46.7138ZM190.566 56.7436C190.566 57.2842 190.601 58.1145 190.601 58.5869C190.601 58.9762 190.462 59.2806 190.202 59.5168C189.872 59.8046 189.335 59.9559 188.606 59.9559C188.327 59.9559 188.31 59.9227 188.224 59.467C188.12 58.943 187.703 58.6201 186.313 58.3009C186.227 58.2843 186.227 58.0629 186.313 58.0629C187.094 58.1145 188.032 58.1976 188.692 58.1976C188.901 58.1976 188.969 58.1459 188.969 57.9263V54.8321H180.533C180.221 54.8321 179.926 54.8654 179.509 54.9336L179.319 54.3081C179.769 54.4096 180.118 54.4428 180.465 54.4428H188.971V54.1384C188.971 53.5959 188.954 53.3598 188.868 52.7841C190.846 53.0037 191.038 53.0369 191.038 53.2915C191.038 53.4262 190.935 53.4945 190.569 53.6476V54.4428H191.835C192.583 53.6144 192.791 53.4779 192.911 53.4779C193.068 53.4779 193.258 53.6125 193.952 54.1532C194.248 54.3912 194.386 54.5425 194.386 54.6624C194.386 54.7823 194.334 54.8321 194.161 54.8321H190.567V56.7436H190.566ZM184.837 58.3009C184.368 58.3009 184.265 58.1828 183.899 57.1163C183.621 56.3728 183.292 55.882 182.77 55.5093C182.7 55.4576 182.77 55.3395 182.857 55.358C184.645 55.6108 185.756 56.3728 185.756 57.3027C185.756 57.895 185.391 58.3009 184.835 58.3009H184.837Z" fill="black"/>
<path d="M207.624 47.9832C207.99 47.426 208.388 46.7138 208.735 46.0201C208.996 45.4628 209.223 44.9222 209.361 44.4813C210.924 45.175 211.426 45.461 211.426 45.6824C211.426 45.8854 211.218 46.0035 210.627 46.0035C209.985 46.6621 208.996 47.4758 208.232 47.9814H210.922C211.635 47.2378 211.773 47.1363 211.912 47.1363C212.085 47.1363 212.207 47.2378 213.006 48.0164C213.353 48.3725 213.458 48.5072 213.458 48.6438C213.458 48.9131 213.372 48.9648 212.711 49.0146C212.434 49.0312 212.416 49.0312 212.294 49.1493C211.912 49.487 211.218 49.9113 210.662 50.1991C210.592 50.2324 210.47 50.1475 210.505 50.0645C210.695 49.6253 210.887 49.1179 211.061 48.3725H200.021C200.142 49.8098 199.603 50.7065 198.666 50.7065C198.127 50.7065 197.763 50.3357 197.763 49.8098C197.763 49.4371 197.902 49.201 198.302 48.998C199.223 48.5589 199.448 48.2194 199.603 47.1548C199.622 47.0699 199.76 47.0533 199.777 47.1382C199.864 47.4426 199.932 47.7138 199.967 47.9832H207.623H207.624ZM204.535 53.5812C204.535 53.0221 204.535 52.8542 204.483 52.3118C205.09 52.4132 205.543 52.4815 205.871 52.5313C206.722 51.7693 207.139 51.2804 207.643 50.5866H201.966C201.671 50.5866 201.375 50.6198 200.977 50.7213L200.785 50.0608C201.237 50.1622 201.565 50.1955 201.912 50.1955H207.676C208.388 49.5681 208.527 49.4685 208.665 49.4685C208.839 49.4685 208.977 49.57 209.655 50.1622C209.95 50.4169 210.053 50.5349 210.053 50.6696C210.053 50.9058 209.863 50.9907 209.202 51.0073C208.04 51.8191 207.346 52.225 206.443 52.6476C206.774 52.7324 206.774 52.8007 206.774 52.9188C206.774 53.0885 206.617 53.2066 206.166 53.4096V53.9336H210.402C211.288 52.8671 211.496 52.7324 211.618 52.7324C211.775 52.7324 211.965 52.8671 212.886 53.5609C213.303 53.8985 213.442 54.0351 213.442 54.1531C213.442 54.2712 213.39 54.3229 213.216 54.3229H206.168V56.1163C206.185 57.0462 206.22 57.4872 206.22 58.1293C206.22 58.5868 206.115 58.9577 205.908 59.2289C205.596 59.6515 205.022 59.8563 204.155 59.8563C203.824 59.8563 203.789 59.788 203.721 59.4171C203.634 58.8083 203.13 58.5204 201.742 58.1828C201.656 58.1662 201.672 57.9466 201.759 57.9466C202.713 58.013 203.618 58.0647 204.241 58.0647C204.45 58.0647 204.537 57.9983 204.537 57.8119V54.3284H199.052C198.721 54.3284 198.393 54.3635 197.959 54.4299L197.767 53.8044C198.252 53.9059 198.618 53.9391 198.982 53.9391H204.537V53.5849L204.535 53.5812ZM202.036 47.7803C201.567 47.7803 201.394 47.5607 201.202 46.7138C201.028 46.0201 200.716 45.3946 200.264 44.937C200.213 44.8706 200.281 44.7507 200.368 44.7673C202.208 45.2747 202.972 45.9001 202.972 46.7968C202.972 47.3559 202.573 47.7784 202.034 47.7784L202.036 47.7803ZM205.681 47.4924C205.177 47.4924 205.055 47.3227 204.882 46.4094C204.725 45.6658 204.43 45.0735 203.944 44.5329C203.893 44.4647 203.944 44.3466 204.031 44.3798C205.854 44.9721 206.652 45.6308 206.652 46.5625C206.652 47.1197 206.235 47.4924 205.679 47.4924H205.681Z" fill="black"/>
<path d="M219.945 50.4852C219.945 53.5462 220.014 58.1478 220.014 59.349C220.014 59.7715 219.667 59.9412 219.111 59.9412C218.659 59.9412 218.434 59.8065 218.434 59.4504C218.434 58.5888 218.556 55.0868 218.572 52.0093C217.914 53.7178 217.236 54.7658 216.142 55.8655C216.09 55.9319 215.933 55.8322 215.968 55.764C216.993 53.9041 217.914 51.1126 218.296 48.6438H217.548C217.201 48.6438 216.854 48.6771 216.402 48.7453L216.212 48.1198C216.716 48.2213 217.098 48.2545 217.478 48.2545H218.467V46.5294C218.467 45.7176 218.451 45.057 218.38 44.3651C220.237 44.4998 220.551 44.6013 220.551 44.8559C220.551 45.0423 220.394 45.177 219.944 45.3633V48.2564H220.22C220.724 47.3929 220.933 47.2582 221.055 47.2582C221.212 47.2582 221.367 47.3929 221.941 47.9519C222.166 48.1881 222.304 48.3579 222.304 48.4759C222.304 48.594 222.252 48.6457 222.079 48.6457H219.944V49.5424C221.158 49.9649 221.835 50.6089 221.835 51.3008C221.835 51.7749 221.488 52.1642 221.071 52.1642C220.759 52.1642 220.567 51.9613 220.516 51.572C220.429 50.8616 220.256 50.321 219.944 49.8985V50.4908L219.945 50.4852ZM220.623 59.7715C220.536 59.7881 220.414 59.6368 220.484 59.6017C222.603 58.5537 224.373 57.1662 225.623 55.5592C225.015 54.6459 224.511 53.6145 224.164 52.4982C224.094 52.2602 224.059 52.227 223.956 52.1772C223.818 52.1107 223.766 52.0425 223.766 51.9576C223.766 51.8229 224.096 51.6698 224.391 51.6698C224.513 51.6698 224.6 51.7196 224.6 51.8211C224.6 51.8893 224.462 52.0923 224.462 52.1421C224.462 52.2085 224.497 52.3119 224.548 52.4299C224.844 53.1569 225.467 54.037 226.18 54.799C226.492 54.2916 226.77 53.7842 226.996 53.2602C227.274 52.5997 227.481 51.9059 227.621 51.2306C229.011 51.738 229.653 52.0757 229.653 52.3137C229.653 52.5 229.583 52.5499 229.028 52.703C228.542 53.8193 227.933 54.8341 227.204 55.7142C228.714 56.847 230.451 57.5242 232.342 57.8452C232.429 57.8618 232.429 57.9799 232.342 58.015C231.787 58.2345 231.595 58.539 231.353 59.2844C231.283 59.5556 231.215 59.6571 231.076 59.6571C230.938 59.6571 230.521 59.5224 230.017 59.2844C228.629 58.6423 227.431 57.7105 226.407 56.5777C224.862 58.1164 222.9 59.1995 220.627 59.7752L220.623 59.7715ZM225.154 49.7749C223.904 51.4668 222.967 52.262 221.387 53.0222C221.317 53.0573 221.23 52.9373 221.282 52.8691C222.081 52.0738 222.826 50.9576 223.347 49.8579C223.572 49.3671 223.764 48.8597 223.886 48.404C225.604 49.1476 225.778 49.2509 225.778 49.487C225.778 49.69 225.656 49.7398 225.152 49.7749H225.154ZM229.389 47.5091C230.222 46.5626 230.43 46.4261 230.552 46.4261C230.709 46.4261 230.882 46.5608 231.646 47.1862C231.977 47.4575 232.115 47.6088 232.115 47.7287C232.115 47.8486 232.064 47.8984 231.89 47.8984H223.297C223.002 47.8984 222.69 47.9316 222.289 47.9999L222.099 47.3744C222.585 47.4759 222.932 47.5091 223.297 47.5091H225.589V46.0552C225.589 45.3283 225.589 44.9389 225.519 44.3633C227.533 44.533 227.725 44.7028 227.725 44.8707C227.725 45.0386 227.551 45.1751 227.204 45.2932V47.5091H229.391H229.389ZM230.639 52.2104C230.222 52.2104 230.153 52.1255 229.528 50.9428C229.042 50.0627 228.487 49.4372 227.618 48.7951C227.547 48.7435 227.601 48.6088 227.688 48.6254C229.91 49.0147 231.49 50.0627 231.49 51.1624C231.49 51.738 231.108 52.2104 230.639 52.2104Z" fill="black"/>
<path d="M257.33 56.2361C257.85 57.0996 258.18 57.4022 258.979 57.6568C259.83 57.9115 261.131 58.0462 262.92 58.0462C265.055 58.0462 266.652 57.9447 269.638 57.6236C269.724 57.607 269.724 57.7768 269.654 57.81C269.237 58.0129 269.047 58.2491 268.977 58.7565C268.925 59.2805 268.89 59.3322 268.56 59.3654C267.639 59.4835 265.574 59.5185 264.289 59.5185C261.46 59.5185 259.742 59.299 258.612 58.6384C257.745 58.131 257.223 57.3358 256.84 56.1513C256.285 57.083 255.8 57.7067 254.844 58.6901C254.895 59.3322 254.808 59.4687 254.548 59.4687C254.288 59.4687 253.906 58.8598 253.264 57.4041C253.646 57.3026 254.079 57.1513 254.513 56.9649C254.947 56.762 255.381 56.5424 255.711 56.3062V51.7895H254.513C254.218 51.7895 253.941 51.8227 253.559 51.9242L253.369 51.2471C253.819 51.3651 254.168 51.4002 254.515 51.4002H255.609C256.217 50.7249 256.355 50.6216 256.495 50.6216C256.669 50.6216 256.807 50.7231 257.45 51.2139C257.745 51.4519 257.848 51.57 257.848 51.7046C257.848 51.8227 257.796 51.8744 257.328 52.2452V56.2361H257.33ZM256.322 48.0496C255.923 48.0496 255.715 47.8466 255.471 47.0016C255.281 46.3595 254.88 45.5292 254.36 45.0218C254.29 44.9554 254.412 44.852 254.498 44.8705C256.529 45.3613 257.276 46.1731 257.276 47.0348C257.276 47.6104 256.929 48.0496 256.322 48.0496ZM262.625 46.8484H259.153C258.876 46.8484 258.597 46.8816 258.234 46.9499L258.042 46.3226C258.494 46.424 258.823 46.4573 259.153 46.4573H262.625V45.9C262.625 45.0033 262.625 44.8502 262.573 44.2266C264.291 44.4111 264.657 44.4959 264.657 44.7506C264.657 44.8853 264.535 44.9867 264.153 45.1565V46.4591H266.583C267.296 45.6307 267.504 45.4941 267.624 45.4941C267.781 45.4941 267.99 45.6288 268.719 46.1713C269.049 46.424 269.187 46.5606 269.187 46.6787C269.187 46.7967 269.136 46.8484 268.962 46.8484H264.153V48.4555H266.375C266.879 47.8798 267.017 47.7802 267.155 47.7802C267.329 47.7802 267.486 47.8817 268.058 48.3208C268.318 48.5237 268.422 48.6418 268.422 48.7784C268.422 48.9149 268.335 49.0145 268.004 49.2691V49.9297C268.004 51.6382 268.075 52.8209 268.075 53.2102C268.075 53.5995 267.728 53.8541 267.189 53.8541C266.703 53.8541 266.495 53.6678 266.495 53.3301V53.2619H264.169C264.186 53.6512 264.186 54.463 264.186 55.0885H266.79C267.641 54.1918 267.849 54.0571 267.971 54.0571C268.126 54.0571 268.302 54.1918 269.031 54.7841C269.342 55.0368 269.483 55.19 269.483 55.3081C269.483 55.4261 269.431 55.4778 269.258 55.4778H264.188C264.204 56.1716 264.204 56.6956 264.204 57.0332C264.204 57.4557 263.892 57.6753 263.302 57.6753C262.816 57.6753 262.573 57.5055 262.573 57.1845C262.573 56.845 262.573 56.2878 262.591 55.476H259.171C258.86 55.476 258.529 55.5092 258.112 55.5774L257.922 54.952C258.426 55.0534 258.789 55.0867 259.171 55.0867H262.591C262.591 54.4778 262.591 53.8689 262.608 53.26H260.334V53.4298C260.334 53.8523 260.039 54.0571 259.448 54.0571C258.98 54.0571 258.789 53.8874 258.789 53.4814C258.789 52.9907 258.86 52.5017 258.86 50.5201C258.86 49.5902 258.841 48.6603 258.789 47.7304C259.57 48.0348 259.675 48.1012 260.421 48.4573H262.626V46.8503L262.625 46.8484ZM260.332 48.8448V50.5533H262.606C262.623 49.9776 262.623 49.4204 262.623 48.8448H260.33H260.332ZM262.606 50.9426H260.332V52.8707H262.606V50.9426ZM264.151 50.5533H266.495V48.8448H264.151V50.5533ZM266.495 52.8707V50.9426H264.169V52.8707H266.495Z" fill="black"/>
<path d="M275.795 52.0259C276.505 51.8229 277.182 51.6199 277.705 51.417C277.792 51.3819 277.843 51.5867 277.773 51.6366C277.149 52.0757 276.489 52.5167 275.795 52.9041V54.4263C275.795 56.7271 275.846 57.6921 275.846 58.2327C275.846 58.5888 275.795 58.8748 275.689 59.1128C275.429 59.6884 274.839 59.9578 274.058 59.9578C273.814 59.9578 273.763 59.8397 273.728 59.6036C273.641 58.8932 273.416 58.7069 272.286 58.3692C272.199 58.3526 272.199 58.1331 272.286 58.1331C272.842 58.1847 273.502 58.2179 273.988 58.2179C274.213 58.2179 274.265 58.1681 274.265 57.9485V53.7196C273.969 53.8728 273.657 54.0075 273.346 54.1422C273.294 54.5647 273.189 54.751 272.98 54.751C272.79 54.751 272.685 54.5647 272.129 52.7879C272.46 52.7547 272.893 52.6864 273.414 52.5849C273.674 52.5333 273.969 52.4668 274.265 52.4152V48.5922H273.432C273.154 48.5922 272.893 48.6254 272.53 48.6937L272.34 48.0682C272.773 48.1697 273.104 48.2029 273.434 48.2029H274.266V46.308C274.266 45.6493 274.231 45.0054 274.18 44.3633C276.158 44.5995 276.367 44.6511 276.367 44.8707C276.367 45.022 276.193 45.1401 275.795 45.3098V48.201H275.863C276.35 47.4575 276.557 47.3209 276.679 47.3209C276.836 47.3209 276.974 47.4556 277.443 47.9298C277.616 48.1162 277.755 48.3025 277.755 48.4206C277.755 48.5387 277.703 48.5903 277.529 48.5903H275.795V52.024V52.0259ZM281.35 54.1901C280.898 57.1496 279.44 58.8083 275.933 59.8231C275.846 59.8397 275.76 59.6534 275.83 59.6202C278.26 58.3526 279.388 56.7456 279.632 54.1901H278.485C278.122 54.1901 277.705 54.2067 277.393 54.2584L277.236 53.6495C277.618 53.751 277.982 53.8027 278.417 53.8027H283.07C283.66 53.2455 283.799 53.144 283.937 53.144C284.111 53.144 284.249 53.2455 284.823 53.7012C285.067 53.9041 285.17 54.0222 285.17 54.1569C285.17 54.3617 284.997 54.478 284.509 54.6477C284.423 55.037 284.353 55.3415 284.284 55.5942H285.707C286.246 55.002 286.385 54.9005 286.523 54.9005C286.696 54.9005 286.835 55.002 287.409 55.4429C287.652 55.6459 287.756 55.764 287.756 55.8987C287.756 56.0168 287.704 56.0684 287.339 56.3729C287.269 57.05 287.182 57.6091 287.043 58.0648C286.8 58.9264 286.436 59.4523 285.932 59.7235C285.637 59.8748 285.238 59.9431 284.735 59.9431C284.509 59.9431 284.439 59.8582 284.404 59.587C284.353 59.0796 284.074 58.7751 282.703 58.3176C282.616 58.2843 282.668 58.098 282.754 58.1146C283.64 58.2327 284.299 58.3342 284.941 58.3342C285.237 58.3342 285.41 58.1644 285.567 57.5389C285.654 57.1847 285.724 56.6773 285.827 55.9835H284.177L284.039 56.4577C283.952 56.7456 283.727 56.8304 283.101 56.8304C282.703 56.8304 282.494 56.729 282.494 56.4909C282.494 56.3562 282.546 56.1367 282.632 55.9319C282.858 55.3396 283.066 54.6127 283.118 54.1901H281.348H281.35ZM282.374 46.7305C282.531 46.4095 282.704 45.9353 282.878 45.5128C283.016 45.0902 283.103 44.7341 283.138 44.4463C284.84 44.8006 285.203 44.9371 285.203 45.1234C285.203 45.3264 284.995 45.4445 284.578 45.4943C284.057 45.9851 283.483 46.4076 282.981 46.7305H285.515C286.158 45.9519 286.366 45.8172 286.488 45.8172C286.645 45.8172 286.818 45.9519 287.442 46.4593C287.702 46.6788 287.841 46.832 287.841 46.9501C287.841 47.0682 287.789 47.1198 287.616 47.1198H283.624V48.4723H285.065C285.604 47.7951 285.812 47.6604 285.932 47.6604C286.089 47.6604 286.279 47.7951 286.87 48.2361C287.114 48.4224 287.252 48.5737 287.252 48.6937C287.252 48.8136 287.2 48.8634 287.027 48.8634H283.624V50.2657H285.082C285.637 49.5719 285.846 49.4372 285.967 49.4372C286.124 49.4372 286.298 49.5719 286.887 50.0129C287.13 50.1992 287.269 50.369 287.269 50.4871C287.269 50.6052 287.217 50.6568 287.043 50.6568H283.624V52.179H285.656C286.349 51.334 286.558 51.1993 286.68 51.1993C286.837 51.1993 287.027 51.334 287.721 51.8746C288.033 52.1126 288.171 52.2805 288.171 52.3986C288.171 52.5167 288.119 52.5683 287.946 52.5683H280.012V52.7381C280.012 53.1772 279.716 53.3303 279.161 53.3303C278.676 53.3303 278.467 53.1956 278.467 52.7897C278.467 52.5019 278.537 51.6052 278.537 49.7952V48.7306C278.085 49.2047 277.6 49.6107 277.096 49.9815C277.026 50.0332 276.906 49.9483 276.957 49.88C277.756 48.7804 278.415 47.6143 278.884 46.463C279.179 45.7526 279.388 45.0589 279.526 44.4002C281.141 44.7046 281.556 44.8559 281.556 45.0939C281.556 45.2452 281.348 45.3633 280.949 45.4482C280.672 45.9058 280.412 46.3283 280.134 46.7342H282.372L282.374 46.7305ZM282.166 48.4741V47.1217H280.014V48.4741H282.166ZM280.014 50.2657H282.166V48.8634H280.014V50.2657ZM280.014 52.1772H282.166V50.655H280.014V52.1772Z" fill="black"/>
<path d="M294.573 50.4852C294.573 53.5462 294.644 58.1478 294.644 59.349C294.644 59.7715 294.297 59.9412 293.741 59.9412C293.289 59.9412 293.064 59.8065 293.064 59.4504C293.064 58.5888 293.186 55.0868 293.202 52.0093C292.541 53.7178 291.866 54.7658 290.771 55.8655C290.72 55.9319 290.563 55.8322 290.598 55.764C291.622 53.9041 292.541 51.1126 292.923 48.6438H292.178C291.831 48.6438 291.484 48.6771 291.032 48.7453L290.842 48.1198C291.345 48.2213 291.728 48.2545 292.11 48.2545H293.099V46.5294C293.099 45.7176 293.082 45.057 293.012 44.3651C294.871 44.4998 295.182 44.6013 295.182 44.8559C295.182 45.0423 295.026 45.177 294.575 45.3633V48.2564H294.854C295.358 47.3929 295.566 47.2582 295.686 47.2582C295.843 47.2582 295.998 47.3929 296.572 47.9519C296.797 48.1881 296.938 48.3579 296.938 48.4759C296.938 48.594 296.886 48.6457 296.712 48.6457H294.577V49.5424C295.791 49.9649 296.469 50.6089 296.469 51.3008C296.469 51.7749 296.122 52.1642 295.705 52.1642C295.393 52.1642 295.201 51.9613 295.149 51.572C295.062 50.8616 294.889 50.321 294.577 49.8985V50.4908L294.573 50.4852ZM295.251 59.7715C295.164 59.7881 295.042 59.6368 295.112 59.6017C297.231 58.5537 299.001 57.1662 300.25 55.5592C299.643 54.6459 299.139 53.6145 298.792 52.4982C298.722 52.2602 298.689 52.227 298.584 52.1772C298.445 52.1107 298.392 52.0425 298.392 51.9576C298.392 51.8229 298.722 51.6698 299.018 51.6698C299.139 51.6698 299.226 51.7196 299.226 51.8211C299.226 51.8893 299.088 52.0923 299.088 52.1421C299.088 52.2085 299.123 52.3119 299.174 52.4299C299.47 53.1569 300.095 54.037 300.806 54.799C301.118 54.2916 301.397 53.7842 301.622 53.2602C301.899 52.5997 302.107 51.9059 302.247 51.2306C303.635 51.738 304.277 52.0757 304.277 52.3137C304.277 52.5 304.207 52.5499 303.652 52.703C303.166 53.8193 302.559 54.8341 301.828 55.7142C303.34 56.847 305.075 57.5242 306.966 57.8452C307.053 57.8618 307.053 57.9799 306.966 58.015C306.411 58.2345 306.221 58.539 305.977 59.2844C305.907 59.5556 305.839 59.6571 305.699 59.6571C305.558 59.6571 305.143 59.5224 304.639 59.2844C303.249 58.6423 302.052 57.7105 301.027 56.5777C299.483 58.1164 297.521 59.1995 295.247 59.7752L295.251 59.7715ZM299.782 49.7749C298.532 51.4668 297.595 52.262 296.015 53.0222C295.945 53.0573 295.858 52.9373 295.911 52.8691C296.711 52.0738 297.456 50.9576 297.977 49.8579C298.202 49.3671 298.394 48.8597 298.516 48.404C300.234 49.1476 300.407 49.2509 300.407 49.487C300.407 49.69 300.285 49.7398 299.782 49.7749ZM304.017 47.5091C304.851 46.5626 305.058 46.4261 305.18 46.4261C305.337 46.4261 305.51 46.5608 306.273 47.1862C306.603 47.4575 306.741 47.6088 306.741 47.7287C306.741 47.8486 306.69 47.8984 306.516 47.8984H297.923C297.628 47.8984 297.316 47.9316 296.917 47.9999L296.725 47.3744C297.211 47.4759 297.56 47.5091 297.923 47.5091H300.215V46.0552C300.215 45.3283 300.215 44.9389 300.145 44.3633C302.159 44.533 302.351 44.7028 302.351 44.8707C302.351 45.0386 302.177 45.1751 301.83 45.2932V47.5091H304.017ZM305.267 52.2104C304.85 52.2104 304.781 52.1255 304.156 50.9428C303.67 50.0627 303.115 49.4372 302.245 48.7951C302.175 48.7435 302.229 48.6088 302.316 48.6254C304.538 49.0147 306.118 50.0627 306.118 51.1624C306.118 51.738 305.735 52.2104 305.267 52.2104Z" fill="black"/>
<path d="M319.66 40.7062H0.339558C0.155 40.7062 0.00366211 40.5567 0.00366211 40.3721C0.00366211 40.1876 0.153154 40.0381 0.339558 40.0381H319.66C319.845 40.0381 319.994 40.1876 319.994 40.3721C319.994 40.5567 319.845 40.7062 319.66 40.7062Z" fill="black"/>
<path d="M319.66 64.0001H0.339558C0.155 64.0001 0.00366211 63.8506 0.00366211 63.6661C0.00366211 63.4815 0.153154 63.332 0.339558 63.332H319.66C319.845 63.332 319.994 63.4815 319.994 63.6661C319.994 63.8506 319.845 64.0001 319.66 64.0001Z" fill="black"/>
</g>
<defs>
<clipPath id="clip0_13869_280">
<rect width="320" height="64" fill="white"/>
</clipPath>
</defs>
</svg>
