<svg width="291" height="92" viewBox="0 0 291 92" fill="none" xmlns="http://www.w3.org/2000/svg">
<path d="M58.3972 25.29C58.2272 25.29 58.0722 25.235 57.9322 25.125C57.8022 25.015 57.7322 24.865 57.7222 24.675C57.7222 24.505 57.7822 24.355 57.9022 24.225C58.0222 24.095 58.1972 24.025 58.4272 24.015C58.9572 23.995 59.2972 23.89 59.4472 23.7C59.6072 23.5 59.6872 23.155 59.6872 22.665C59.6872 22.525 59.6772 22.39 59.6572 22.26C59.6472 22.12 59.6172 21.985 59.5672 21.855C58.9772 21.925 58.4022 21.995 57.8422 22.065C57.2922 22.125 56.8272 22.175 56.4472 22.215C56.2672 22.225 56.1172 22.18 55.9972 22.08C55.8772 21.98 55.8072 21.84 55.7872 21.66C55.7672 21.49 55.8072 21.35 55.9072 21.24C56.0072 21.12 56.1522 21.05 56.3422 21.03C56.6622 21.01 57.0522 20.975 57.5122 20.925C57.9722 20.875 58.4522 20.82 58.9522 20.76C58.9122 20.72 58.8722 20.68 58.8322 20.64C58.8022 20.6 58.7622 20.56 58.7122 20.52C58.5822 20.4 58.5322 20.26 58.5622 20.1C58.5922 19.93 58.6672 19.795 58.7872 19.695C58.9072 19.605 59.0422 19.565 59.1922 19.575C59.3522 19.575 59.4972 19.63 59.6272 19.74L59.6572 19.77C59.7972 19.68 59.9322 19.59 60.0622 19.5C60.1922 19.41 60.2772 19.345 60.3172 19.305C60.4372 19.225 60.4872 19.15 60.4672 19.08C60.4572 19 60.3722 18.96 60.2122 18.96H58.5022C58.2122 19.2 57.9172 19.425 57.6172 19.635C57.3172 19.845 57.0122 20.045 56.7022 20.235C56.5522 20.325 56.3922 20.365 56.2222 20.355C56.0622 20.335 55.9322 20.25 55.8322 20.1C55.7522 19.96 55.7222 19.81 55.7422 19.65C55.7722 19.49 55.8572 19.37 55.9972 19.29C56.5872 18.95 57.1522 18.565 57.6922 18.135C58.2322 17.705 58.7372 17.25 59.2072 16.77H56.3122C56.1522 16.77 56.0222 16.72 55.9222 16.62C55.8222 16.51 55.7722 16.38 55.7722 16.23C55.7722 16.08 55.8222 15.95 55.9222 15.84C56.0222 15.73 56.1522 15.675 56.3122 15.675H58.6822V14.205H56.9122C56.7522 14.205 56.6222 14.155 56.5222 14.055C56.4222 13.945 56.3722 13.815 56.3722 13.665C56.3722 13.515 56.4222 13.39 56.5222 13.29C56.6222 13.18 56.7522 13.125 56.9122 13.125H58.6822V11.985C58.6822 11.785 58.7422 11.625 58.8622 11.505C58.9922 11.385 59.1472 11.325 59.3272 11.325C59.5072 11.325 59.6572 11.385 59.7772 11.505C59.9072 11.625 59.9722 11.785 59.9722 11.985V13.125H60.9472C61.1172 13.125 61.2472 13.18 61.3372 13.29C61.4372 13.39 61.4872 13.515 61.4872 13.665C61.4872 13.815 61.4372 13.945 61.3372 14.055C61.2472 14.155 61.1172 14.205 60.9472 14.205H59.9722V15.675H60.1822C61.0322 14.645 61.7022 13.615 62.1922 12.585C62.2722 12.395 62.3972 12.275 62.5672 12.225C62.7372 12.175 62.9072 12.19 63.0772 12.27C63.2372 12.34 63.3372 12.455 63.3772 12.615C63.4272 12.775 63.4122 12.94 63.3322 13.11C63.1022 13.54 62.8472 13.975 62.5672 14.415C62.2972 14.845 62.0022 15.265 61.6822 15.675H62.6422C62.8122 15.675 62.9422 15.73 63.0322 15.84C63.1322 15.95 63.1822 16.08 63.1822 16.23C63.1822 16.38 63.1322 16.51 63.0322 16.62C62.9422 16.72 62.8122 16.77 62.6422 16.77H60.7822C60.4522 17.15 60.0972 17.52 59.7172 17.88H60.9172C61.3072 17.88 61.5972 17.99 61.7872 18.21C61.9872 18.42 62.0672 18.675 62.0272 18.975C61.9872 19.265 61.8072 19.53 61.4872 19.77C61.3572 19.87 61.1822 19.995 60.9622 20.145C60.7522 20.295 60.5472 20.44 60.3472 20.58V20.595C60.8372 20.535 61.2972 20.475 61.7272 20.415C62.1572 20.355 62.5172 20.305 62.8072 20.265C62.9672 20.245 63.1022 20.275 63.2122 20.355C63.3322 20.435 63.4022 20.555 63.4222 20.715C63.4422 20.875 63.4122 21.015 63.3322 21.135C63.2622 21.255 63.1472 21.33 62.9872 21.36C62.7172 21.4 62.3922 21.45 62.0122 21.51C61.6422 21.57 61.2372 21.63 60.7972 21.69C60.8772 22.04 60.9172 22.405 60.9172 22.785C60.9172 23.625 60.7172 24.25 60.3172 24.66C59.9272 25.08 59.2872 25.29 58.3972 25.29ZM62.5972 24.96C62.4072 25.04 62.2222 25.055 62.0422 25.005C61.8722 24.965 61.7472 24.86 61.6672 24.69C61.5772 24.5 61.5672 24.325 61.6372 24.165C61.7072 24.015 61.8322 23.905 62.0122 23.835C62.7622 23.545 63.4222 23.18 63.9922 22.74C64.5722 22.29 65.0672 21.79 65.4772 21.24C65.1372 20.64 64.8522 20.01 64.6222 19.35C64.4022 18.68 64.2372 17.98 64.1272 17.25C64.0172 17.44 63.9022 17.63 63.7822 17.82C63.6722 18.01 63.5572 18.19 63.4372 18.36C63.3372 18.51 63.1972 18.605 63.0172 18.645C62.8472 18.685 62.6872 18.655 62.5372 18.555C62.3972 18.465 62.3072 18.335 62.2672 18.165C62.2372 17.995 62.2722 17.845 62.3722 17.715C62.7522 17.205 63.0972 16.625 63.4072 15.975C63.7272 15.315 64.0022 14.635 64.2322 13.935C64.4622 13.225 64.6322 12.555 64.7422 11.925C64.7822 11.725 64.8672 11.58 64.9972 11.49C65.1372 11.4 65.3022 11.375 65.4922 11.415C65.6622 11.445 65.7922 11.525 65.8822 11.655C65.9722 11.785 65.9972 11.945 65.9572 12.135C65.8872 12.555 65.7972 12.975 65.6872 13.395C65.5772 13.805 65.4522 14.21 65.3122 14.61H69.1222C69.3022 14.61 69.4422 14.665 69.5422 14.775C69.6522 14.885 69.7072 15.025 69.7072 15.195C69.7072 15.355 69.6522 15.495 69.5422 15.615C69.4422 15.725 69.3022 15.78 69.1222 15.78H68.4922C68.3022 18.03 67.7922 19.855 66.9622 21.255C67.3022 21.715 67.6872 22.145 68.1172 22.545C68.5472 22.945 69.0172 23.32 69.5272 23.67C69.6972 23.78 69.7922 23.925 69.8122 24.105C69.8422 24.295 69.7972 24.465 69.6772 24.615C69.5572 24.775 69.3972 24.865 69.1972 24.885C69.0072 24.905 68.8322 24.855 68.6722 24.735C68.1822 24.375 67.7322 23.995 67.3222 23.595C66.9122 23.185 66.5372 22.76 66.1972 22.32C65.7372 22.87 65.2072 23.36 64.6072 23.79C64.0172 24.22 63.3472 24.61 62.5972 24.96ZM66.2122 20.055C66.5322 19.425 66.7772 18.755 66.9472 18.045C67.1172 17.325 67.2222 16.57 67.2622 15.78H65.1022C65.1722 17.37 65.5422 18.795 66.2122 20.055ZM80.7172 24.585C79.7272 24.585 79.0222 24.35 78.6022 23.88C78.1822 23.4 78.0422 22.645 78.1822 21.615C78.2322 21.285 78.1822 21.04 78.0322 20.88C77.8822 20.71 77.6822 20.635 77.4322 20.655C77.1922 20.665 76.9472 20.785 76.6972 21.015C76.2672 21.425 75.8422 21.835 75.4222 22.245C75.0022 22.645 74.6172 23.01 74.2672 23.34C73.9172 23.67 73.6372 23.925 73.4272 24.105C73.2872 24.225 73.1222 24.28 72.9322 24.27C72.7522 24.27 72.5972 24.205 72.4672 24.075C72.3372 23.935 72.2722 23.77 72.2722 23.58C72.2822 23.39 72.3572 23.235 72.4972 23.115C72.6772 22.965 72.9222 22.75 73.2322 22.47C73.5422 22.19 73.8822 21.875 74.2522 21.525C74.6322 21.165 75.0172 20.8 75.4072 20.43C75.7972 20.05 76.1672 19.69 76.5172 19.35C76.8672 19 77.1722 18.69 77.4322 18.42C77.7022 18.15 77.8972 17.95 78.0172 17.82C78.3972 17.39 78.5122 17.055 78.3622 16.815C78.2222 16.565 77.8772 16.48 77.3272 16.56C77.1972 16.58 76.9872 16.615 76.6972 16.665C76.4172 16.715 76.1122 16.765 75.7822 16.815C75.4522 16.865 75.1472 16.915 74.8672 16.965C74.5972 17.005 74.4022 17.035 74.2822 17.055C74.1022 17.075 73.9322 17.035 73.7722 16.935C73.6222 16.825 73.5322 16.68 73.5022 16.5C73.4722 16.31 73.5122 16.14 73.6222 15.99C73.7322 15.84 73.8822 15.75 74.0722 15.72C74.2122 15.7 74.4072 15.67 74.6572 15.63C74.9072 15.59 75.1822 15.55 75.4822 15.51C75.7922 15.46 76.0922 15.415 76.3822 15.375C76.6822 15.335 76.9372 15.3 77.1472 15.27C77.7972 15.18 78.3272 15.205 78.7372 15.345C79.1472 15.485 79.4472 15.725 79.6372 16.065C79.8072 16.385 79.8622 16.75 79.8022 17.16C79.7422 17.57 79.5222 18.01 79.1422 18.48C79.0422 18.61 78.9022 18.77 78.7222 18.96C78.5422 19.14 78.3472 19.345 78.1372 19.575C78.6072 19.605 78.9722 19.795 79.2322 20.145C79.5022 20.485 79.6022 20.98 79.5322 21.63C79.4922 22.06 79.4972 22.39 79.5472 22.62C79.6072 22.85 79.7322 23.01 79.9222 23.1C80.1122 23.18 80.3872 23.22 80.7472 23.22C80.9872 23.22 81.2872 23.2 81.6472 23.16C82.0072 23.11 82.4022 23.05 82.8322 22.98C83.0122 22.94 83.1772 22.975 83.3272 23.085C83.4872 23.185 83.5822 23.33 83.6122 23.52C83.6522 23.71 83.6172 23.88 83.5072 24.03C83.4072 24.18 83.2622 24.275 83.0722 24.315C82.1122 24.495 81.3272 24.585 80.7172 24.585ZM78.9622 14.22C78.5322 14.18 78.0772 14.115 77.5972 14.025C77.1272 13.925 76.6722 13.81 76.2322 13.68C75.8022 13.55 75.4322 13.42 75.1222 13.29C74.9522 13.21 74.8272 13.09 74.7472 12.93C74.6672 12.76 74.6622 12.59 74.7322 12.42C74.8022 12.24 74.9222 12.11 75.0922 12.03C75.2622 11.95 75.4322 11.95 75.6022 12.03C76.0922 12.23 76.6372 12.405 77.2372 12.555C77.8372 12.705 78.4572 12.81 79.0972 12.87C79.2772 12.88 79.4272 12.96 79.5472 13.11C79.6672 13.25 79.7172 13.415 79.6972 13.605C79.6872 13.795 79.6072 13.95 79.4572 14.07C79.3172 14.18 79.1522 14.23 78.9622 14.22ZM96.6622 24.195C95.5322 24.025 94.5922 23.695 93.8422 23.205C93.1022 22.715 92.5522 22.125 92.1922 21.435C91.8322 20.735 91.6522 20.005 91.6522 19.245C91.6522 18.375 91.8422 17.56 92.2222 16.8C92.6022 16.04 93.1522 15.4 93.8722 14.88C93.4622 14.93 92.9922 15 92.4622 15.09C91.9422 15.17 91.3972 15.26 90.8272 15.36C90.2672 15.45 89.7122 15.545 89.1622 15.645C88.6122 15.745 88.1072 15.84 87.6472 15.93C87.4672 15.97 87.2972 15.935 87.1372 15.825C86.9872 15.705 86.9022 15.55 86.8822 15.36C86.8522 15.18 86.8922 15.015 87.0022 14.865C87.1122 14.715 87.2622 14.625 87.4522 14.595C87.7222 14.545 88.1022 14.48 88.5922 14.4C89.0822 14.31 89.6322 14.215 90.2422 14.115C90.8522 14.015 91.4872 13.91 92.1472 13.8C92.8172 13.69 93.4722 13.585 94.1122 13.485C94.7522 13.375 95.3372 13.28 95.8672 13.2C96.3972 13.11 96.8322 13.035 97.1722 12.975C97.3522 12.945 97.5172 12.98 97.6672 13.08C97.8172 13.18 97.9122 13.32 97.9522 13.5C97.9922 13.68 97.9622 13.85 97.8622 14.01C97.7622 14.17 97.6222 14.265 97.4422 14.295C96.7122 14.415 96.0672 14.65 95.5072 15C94.9572 15.34 94.4972 15.745 94.1272 16.215C93.7572 16.685 93.4772 17.18 93.2872 17.7C93.0972 18.21 93.0022 18.705 93.0022 19.185C93.0022 20.245 93.3572 21.08 94.0672 21.69C94.7772 22.3 95.7072 22.69 96.8572 22.86C97.0472 22.88 97.1972 22.965 97.3072 23.115C97.4172 23.265 97.4622 23.435 97.4422 23.625C97.4122 23.815 97.3222 23.965 97.1722 24.075C97.0222 24.185 96.8522 24.225 96.6622 24.195ZM107.732 21.27C107.572 21.27 107.432 21.215 107.312 21.105C107.192 20.985 107.127 20.845 107.117 20.685C107.097 20.345 107.077 19.935 107.057 19.455C107.037 18.965 107.017 18.455 106.997 17.925C106.987 17.385 106.972 16.87 106.952 16.38C106.942 15.89 106.932 15.47 106.922 15.12C106.912 14.76 106.907 14.525 106.907 14.415V12.555C106.907 12.325 106.982 12.135 107.132 11.985C107.292 11.825 107.492 11.745 107.732 11.745C107.972 11.745 108.172 11.825 108.332 11.985C108.492 12.135 108.572 12.325 108.572 12.555V14.415C108.572 14.525 108.567 14.76 108.557 15.12C108.547 15.47 108.532 15.89 108.512 16.38C108.502 16.87 108.487 17.385 108.467 17.925C108.447 18.455 108.427 18.965 108.407 19.455C108.387 19.935 108.367 20.345 108.347 20.685C108.337 20.845 108.272 20.985 108.152 21.105C108.042 21.215 107.902 21.27 107.732 21.27ZM107.732 24.72C107.432 24.72 107.172 24.61 106.952 24.39C106.742 24.18 106.637 23.925 106.637 23.625C106.637 23.325 106.742 23.07 106.952 22.86C107.172 22.65 107.432 22.545 107.732 22.545C108.032 22.545 108.287 22.65 108.497 22.86C108.717 23.07 108.827 23.325 108.827 23.625C108.827 23.925 108.717 24.18 108.497 24.39C108.287 24.61 108.032 24.72 107.732 24.72ZM123.587 24.42C123.397 24.44 123.227 24.39 123.077 24.27C122.927 24.16 122.837 24.01 122.807 23.82C122.747 23.38 122.682 22.935 122.612 22.485C122.552 22.035 122.497 21.62 122.447 21.24C122.397 20.86 122.352 20.555 122.312 20.325C122.282 20.095 122.267 19.98 122.267 19.98L117.812 20.505C117.622 20.525 117.452 20.48 117.302 20.37C117.162 20.25 117.082 20.1 117.062 19.92C117.042 19.73 117.087 19.565 117.197 19.425C117.317 19.275 117.472 19.19 117.662 19.17L122.072 18.645L121.802 16.68C121.802 16.68 121.647 16.7 121.337 16.74C121.027 16.77 120.637 16.81 120.167 16.86C119.707 16.91 119.237 16.965 118.757 17.025C118.567 17.045 118.397 16.995 118.247 16.875C118.107 16.755 118.027 16.605 118.007 16.425C117.997 16.235 118.047 16.07 118.157 15.93C118.277 15.78 118.427 15.7 118.607 15.69C119.077 15.63 119.542 15.575 120.002 15.525C120.462 15.475 120.842 15.435 121.142 15.405C121.452 15.365 121.607 15.345 121.607 15.345C121.537 14.835 121.477 14.395 121.427 14.025C121.377 13.655 121.342 13.395 121.322 13.245C121.302 13.055 121.347 12.885 121.457 12.735C121.577 12.585 121.732 12.495 121.922 12.465C122.112 12.445 122.282 12.495 122.432 12.615C122.592 12.725 122.682 12.875 122.702 13.065C122.722 13.215 122.757 13.48 122.807 13.86C122.857 14.23 122.917 14.67 122.987 15.18C123.667 15.1 124.282 15.03 124.832 14.97C125.382 14.91 125.742 14.875 125.912 14.865C126.102 14.845 126.267 14.895 126.407 15.015C126.557 15.135 126.637 15.285 126.647 15.465C126.667 15.655 126.617 15.82 126.497 15.96C126.377 16.1 126.227 16.18 126.047 16.2C125.877 16.21 125.522 16.245 124.982 16.305C124.442 16.365 123.842 16.435 123.182 16.515L123.452 18.48L127.607 17.985C127.797 17.965 127.962 18.015 128.102 18.135C128.252 18.245 128.332 18.39 128.342 18.57C128.362 18.76 128.312 18.93 128.192 19.08C128.082 19.22 127.937 19.3 127.757 19.32L123.647 19.815C123.647 19.815 123.662 19.93 123.692 20.16C123.732 20.39 123.777 20.695 123.827 21.075C123.877 21.445 123.932 21.855 123.992 22.305C124.062 22.755 124.127 23.2 124.187 23.64C124.217 23.83 124.172 24 124.052 24.15C123.942 24.3 123.787 24.39 123.587 24.42ZM138.287 24.93C138.127 24.96 137.972 24.925 137.822 24.825C137.682 24.735 137.597 24.605 137.567 24.435C137.507 24.075 137.417 23.62 137.297 23.07C137.177 22.52 137.042 21.925 136.892 21.285C136.752 20.645 136.607 20.01 136.457 19.38C135.877 19.48 135.327 19.575 134.807 19.665C134.297 19.755 133.882 19.83 133.562 19.89C133.402 19.92 133.252 19.885 133.112 19.785C132.972 19.675 132.892 19.535 132.872 19.365C132.852 19.195 132.892 19.045 132.992 18.915C133.092 18.775 133.222 18.695 133.382 18.675C133.652 18.635 134.037 18.575 134.537 18.495C135.047 18.405 135.592 18.31 136.172 18.21C136.072 17.83 135.977 17.475 135.887 17.145C135.807 16.815 135.732 16.53 135.662 16.29C135.622 16.12 135.642 15.96 135.722 15.81C135.802 15.66 135.922 15.565 136.082 15.525C136.252 15.475 136.407 15.49 136.547 15.57C136.697 15.65 136.792 15.775 136.832 15.945C136.912 16.215 136.992 16.525 137.072 16.875C137.162 17.225 137.252 17.6 137.342 18C137.802 17.92 138.242 17.845 138.662 17.775C139.082 17.695 139.452 17.625 139.772 17.565C141.192 17.315 142.007 17.73 142.217 18.81C142.347 19.45 142.182 20.005 141.722 20.475C141.272 20.935 140.567 21.34 139.607 21.69C139.447 21.74 139.287 21.73 139.127 21.66C138.977 21.59 138.877 21.475 138.827 21.315C138.767 21.155 138.772 21 138.842 20.85C138.922 20.69 139.042 20.585 139.202 20.535C139.772 20.325 140.187 20.135 140.447 19.965C140.707 19.795 140.862 19.635 140.912 19.485C140.972 19.325 140.987 19.18 140.957 19.05C140.927 18.89 140.847 18.785 140.717 18.735C140.587 18.685 140.342 18.69 139.982 18.75C139.322 18.88 138.537 19.02 137.627 19.17C137.777 19.8 137.922 20.435 138.062 21.075C138.212 21.705 138.347 22.295 138.467 22.845C138.597 23.385 138.697 23.84 138.767 24.21C138.807 24.37 138.777 24.52 138.677 24.66C138.587 24.8 138.457 24.89 138.287 24.93ZM151.502 24.375C151.342 24.475 151.167 24.495 150.977 24.435C150.797 24.385 150.657 24.275 150.557 24.105C150.467 23.935 150.447 23.76 150.497 23.58C150.557 23.4 150.672 23.26 150.842 23.16C151.472 22.81 152.002 22.425 152.432 22.005C152.872 21.575 153.222 21.08 153.482 20.52C153.742 19.95 153.927 19.285 154.037 18.525C154.157 17.755 154.217 16.855 154.217 15.825C154.217 15.385 154.212 14.935 154.202 14.475C154.192 14.005 154.162 13.61 154.112 13.29C154.082 13.1 154.127 12.93 154.247 12.78C154.367 12.63 154.522 12.54 154.712 12.51C154.902 12.49 155.072 12.54 155.222 12.66C155.372 12.77 155.457 12.92 155.477 13.11C155.517 13.33 155.542 13.595 155.552 13.905C155.572 14.215 155.582 14.525 155.582 14.835C155.582 15.145 155.582 15.415 155.582 15.645C155.582 15.725 155.582 15.785 155.582 15.825C155.582 16.925 155.517 17.905 155.387 18.765C155.257 19.625 155.037 20.395 154.727 21.075C154.417 21.745 153.997 22.35 153.467 22.89C152.947 23.43 152.292 23.925 151.502 24.375ZM150.242 19.395C150.052 19.375 149.897 19.295 149.777 19.155C149.657 19.015 149.602 18.85 149.612 18.66C149.622 18.4 149.622 18.045 149.612 17.595C149.602 17.145 149.582 16.67 149.552 16.17C149.532 15.66 149.502 15.185 149.462 14.745C149.432 14.305 149.402 13.975 149.372 13.755C149.342 13.565 149.377 13.39 149.477 13.23C149.577 13.07 149.727 12.975 149.927 12.945C150.117 12.915 150.292 12.95 150.452 13.05C150.622 13.15 150.717 13.3 150.737 13.5C150.767 13.78 150.802 14.16 150.842 14.64C150.882 15.11 150.917 15.61 150.947 16.14C150.977 16.67 150.997 17.17 151.007 17.64C151.027 18.1 151.027 18.465 151.007 18.735C150.997 18.955 150.917 19.125 150.767 19.245C150.617 19.355 150.442 19.405 150.242 19.395ZM164.882 24.48C164.732 24.59 164.562 24.63 164.372 24.6C164.182 24.58 164.032 24.49 163.922 24.33C163.802 24.18 163.757 24.01 163.787 23.82C163.817 23.63 163.907 23.48 164.057 23.37C164.787 22.83 165.382 22.18 165.842 21.42C166.302 20.66 166.612 19.835 166.772 18.945C166.932 18.045 166.927 17.125 166.757 16.185C166.717 15.995 166.752 15.825 166.862 15.675C166.972 15.515 167.122 15.42 167.312 15.39C167.502 15.35 167.672 15.385 167.822 15.495C167.982 15.605 168.082 15.755 168.122 15.945L168.212 16.575C169.172 16.525 169.912 16.44 170.432 16.32C170.962 16.2 171.327 16.06 171.527 15.9C171.727 15.74 171.827 15.575 171.827 15.405C171.827 15.145 171.747 14.95 171.587 14.82C171.437 14.68 171.107 14.61 170.597 14.61H162.587C162.397 14.61 162.232 14.545 162.092 14.415C161.962 14.275 161.897 14.11 161.897 13.92C161.897 13.72 161.962 13.555 162.092 13.425C162.232 13.285 162.397 13.215 162.587 13.215H170.597C172.377 13.215 173.267 13.92 173.267 15.33C173.267 15.92 173.082 16.395 172.712 16.755C172.352 17.105 171.802 17.365 171.062 17.535C170.322 17.705 169.382 17.82 168.242 17.88C168.212 18.75 168.057 19.595 167.777 20.415C167.497 21.235 167.112 21.995 166.622 22.695C166.132 23.385 165.552 23.98 164.882 24.48ZM178.457 22.155C178.457 22.155 178.397 22.125 178.277 22.065C178.167 21.995 178.052 21.91 177.932 21.81C177.822 21.7 177.767 21.58 177.767 21.45C177.767 21.26 177.832 21.1 177.962 20.97C178.102 20.83 178.267 20.76 178.457 20.76H183.692C184.352 20.76 184.852 20.705 185.192 20.595C185.532 20.475 185.762 20.245 185.882 19.905C186.012 19.565 186.077 19.05 186.077 18.36C186.077 17.67 186.012 17.155 185.882 16.815C185.762 16.465 185.532 16.235 185.192 16.125C184.852 16.015 184.357 15.96 183.707 15.96H178.622C178.622 15.96 178.562 15.93 178.442 15.87C178.332 15.8 178.217 15.715 178.097 15.615C177.987 15.505 177.932 15.385 177.932 15.255C177.932 15.065 177.997 14.905 178.127 14.775C178.267 14.635 178.432 14.565 178.622 14.565H183.707C184.667 14.565 185.422 14.675 185.972 14.895C186.522 15.115 186.907 15.5 187.127 16.05C187.357 16.6 187.472 17.37 187.472 18.36C187.472 19.34 187.357 20.11 187.127 20.67C186.897 21.22 186.507 21.605 185.957 21.825C185.417 22.045 184.662 22.155 183.692 22.155H178.457ZM193.067 19.035C192.877 19.035 192.712 18.97 192.572 18.84C192.442 18.7 192.377 18.535 192.377 18.345C192.377 18.145 192.442 17.98 192.572 17.85C192.712 17.72 192.877 17.655 193.067 17.655H202.412C202.602 17.655 202.762 17.72 202.892 17.85C203.032 17.98 203.102 18.145 203.102 18.345C203.102 18.535 203.032 18.7 202.892 18.84C202.762 18.97 202.602 19.035 202.412 19.035H193.067ZM210.362 24C210.212 24.12 210.042 24.165 209.852 24.135C209.662 24.105 209.512 24.015 209.402 23.865C209.282 23.705 209.237 23.53 209.267 23.34C209.297 23.15 209.387 23 209.537 22.89C210.237 22.37 210.822 21.72 211.292 20.94C211.772 20.15 212.112 19.3 212.312 18.39H206.927C206.737 18.39 206.577 18.325 206.447 18.195C206.317 18.065 206.252 17.905 206.252 17.715C206.252 17.525 206.317 17.365 206.447 17.235C206.577 17.105 206.737 17.04 206.927 17.04H212.507C212.527 16.73 212.532 16.415 212.522 16.095C212.512 15.775 212.482 15.46 212.432 15.15C211.802 15.25 211.167 15.34 210.527 15.42C209.887 15.49 209.302 15.545 208.772 15.585C208.582 15.595 208.417 15.535 208.277 15.405C208.147 15.265 208.077 15.1 208.067 14.91C208.057 14.71 208.117 14.545 208.247 14.415C208.387 14.275 208.552 14.2 208.742 14.19C209.262 14.17 209.822 14.13 210.422 14.07C211.022 14.01 211.622 13.93 212.222 13.83C212.822 13.72 213.387 13.605 213.917 13.485C214.447 13.355 214.907 13.22 215.297 13.08C215.477 13.01 215.652 13.015 215.822 13.095C216.002 13.175 216.127 13.305 216.197 13.485C216.267 13.665 216.257 13.845 216.167 14.025C216.087 14.195 215.957 14.315 215.777 14.385C215.507 14.475 215.197 14.565 214.847 14.655C214.497 14.745 214.127 14.83 213.737 14.91C213.837 15.63 213.867 16.34 213.827 17.04H218.417C218.607 17.04 218.767 17.105 218.897 17.235C219.027 17.365 219.092 17.525 219.092 17.715C219.092 17.905 219.027 18.065 218.897 18.195C218.767 18.325 218.607 18.39 218.417 18.39H213.662C213.442 19.54 213.047 20.605 212.477 21.585C211.917 22.565 211.212 23.37 210.362 24ZM224.087 23.205C223.907 23.275 223.732 23.27 223.562 23.19C223.392 23.11 223.272 22.98 223.202 22.8C223.132 22.62 223.137 22.445 223.217 22.275C223.307 22.095 223.442 21.97 223.622 21.9C224.442 21.6 225.262 21.245 226.082 20.835C226.902 20.415 227.687 19.965 228.437 19.485C229.197 18.995 229.882 18.49 230.492 17.97C231.112 17.45 231.627 16.94 232.037 16.44C232.157 16.29 232.312 16.21 232.502 16.2C232.692 16.18 232.862 16.23 233.012 16.35C233.162 16.47 233.247 16.625 233.267 16.815C233.287 17.005 233.237 17.175 233.117 17.325C232.717 17.815 232.177 18.34 231.497 18.9C230.817 19.46 230.062 20.015 229.232 20.565C228.402 21.105 227.542 21.605 226.652 22.065C225.772 22.525 224.917 22.905 224.087 23.205ZM225.617 17.385C225.377 17.175 225.102 16.955 224.792 16.725C224.492 16.495 224.187 16.275 223.877 16.065C223.577 15.855 223.302 15.675 223.052 15.525C222.892 15.425 222.787 15.285 222.737 15.105C222.687 14.915 222.712 14.74 222.812 14.58C222.912 14.41 223.057 14.3 223.247 14.25C223.437 14.2 223.612 14.23 223.772 14.34C224.022 14.5 224.317 14.705 224.657 14.955C225.007 15.195 225.347 15.44 225.677 15.69C226.007 15.93 226.272 16.13 226.472 16.29C226.622 16.41 226.707 16.565 226.727 16.755C226.757 16.945 226.712 17.115 226.592 17.265C226.482 17.415 226.327 17.505 226.127 17.535C225.937 17.565 225.767 17.515 225.617 17.385ZM238.847 24.24C238.667 24.32 238.487 24.325 238.307 24.255C238.137 24.185 238.012 24.06 237.932 23.88C237.852 23.71 237.847 23.535 237.917 23.355C237.987 23.175 238.112 23.045 238.292 22.965C239.982 22.225 241.452 21.295 242.702 20.175C243.962 19.045 244.942 17.755 245.642 16.305C245.812 15.935 245.837 15.655 245.717 15.465C245.607 15.275 245.302 15.18 244.802 15.18H242.627C242.147 15.82 241.602 16.455 240.992 17.085C240.382 17.705 239.772 18.225 239.162 18.645C239.002 18.755 238.827 18.795 238.637 18.765C238.447 18.735 238.297 18.64 238.187 18.48C238.087 18.32 238.052 18.145 238.082 17.955C238.112 17.765 238.207 17.615 238.367 17.505C238.957 17.095 239.522 16.62 240.062 16.08C240.602 15.54 241.087 14.975 241.517 14.385C241.957 13.795 242.302 13.22 242.552 12.66C242.632 12.49 242.762 12.37 242.942 12.3C243.122 12.23 243.297 12.235 243.467 12.315C243.637 12.385 243.757 12.515 243.827 12.705C243.897 12.885 243.892 13.06 243.812 13.23C243.772 13.33 243.727 13.43 243.677 13.53C243.627 13.62 243.572 13.72 243.512 13.83H244.802C245.902 13.83 246.642 14.1 247.022 14.64C247.412 15.17 247.367 15.925 246.887 16.905C246.127 18.465 245.052 19.88 243.662 21.15C242.272 22.41 240.667 23.44 238.847 24.24ZM248.987 14.835C248.877 14.935 248.742 14.98 248.582 14.97C248.432 14.95 248.312 14.885 248.222 14.775C247.922 14.415 247.597 14.075 247.247 13.755C247.147 13.665 247.092 13.555 247.082 13.425C247.072 13.285 247.117 13.165 247.217 13.065C247.327 12.955 247.447 12.905 247.577 12.915C247.717 12.915 247.842 12.96 247.952 13.05C248.102 13.16 248.277 13.315 248.477 13.515C248.687 13.705 248.867 13.88 249.017 14.04C249.127 14.15 249.177 14.285 249.167 14.445C249.157 14.595 249.097 14.725 248.987 14.835ZM250.232 13.59C250.132 13.69 250.002 13.74 249.842 13.74C249.692 13.73 249.567 13.67 249.467 13.56C249.317 13.39 249.152 13.22 248.972 13.05C248.802 12.88 248.632 12.725 248.462 12.585C248.362 12.505 248.302 12.4 248.282 12.27C248.262 12.13 248.302 12.005 248.402 11.895C248.502 11.785 248.617 11.73 248.747 11.73C248.887 11.73 249.017 11.77 249.137 11.85C249.287 11.95 249.467 12.095 249.677 12.285C249.897 12.475 250.087 12.65 250.247 12.81C250.357 12.91 250.407 13.04 250.397 13.2C250.397 13.35 250.342 13.48 250.232 13.59Z" fill="black"/>
<g clip-path="url(#clip0_0_1)">
<g clip-path="url(#clip1_0_1)">
<g clip-path="url(#clip2_0_1)">
<path d="M65.2333 86.7989C64.5347 86.8827 63.906 86.7151 63.3472 86.2959C62.7884 85.8768 62.467 85.318 62.3832 84.6194C62.2994 83.9208 62.467 83.2921 62.8861 82.7333C63.3053 82.1745 63.8641 81.8532 64.5627 81.7693C68.0275 81.3502 70.8077 80.6377 72.9033 79.6318C75.027 78.6259 76.5358 77.4104 77.43 75.9853C78.352 74.5323 78.7572 72.9537 78.6454 71.2492C78.5058 69.0138 77.7373 67.3932 76.3402 66.3872C74.9432 65.3534 72.7496 64.9483 69.7599 65.1718C68.5583 65.2556 67.2171 65.4232 65.7362 65.6747C64.2553 65.8982 62.7324 66.1637 61.1677 66.4711C59.6309 66.7784 58.15 67.0998 56.7249 67.4351C55.2999 67.7704 54.0285 68.0917 52.9108 68.3991C52.2402 68.5947 51.5976 68.5248 50.9828 68.1895C50.396 67.8262 50.0049 67.3093 49.8093 66.6387C49.6137 65.9401 49.6835 65.2836 50.0188 64.6688C50.3821 64.054 50.899 63.649 51.5696 63.4533C52.7711 63.118 54.1263 62.7967 55.6352 62.4893C57.144 62.154 58.7088 61.8467 60.3294 61.5672C61.978 61.2599 63.5847 60.9944 65.1494 60.7709C66.7142 60.5474 68.1392 60.3937 69.4246 60.3099C73.9232 59.9745 77.3461 60.7429 79.6933 62.6151C82.0404 64.4872 83.3536 67.2394 83.6331 70.8719C83.8287 73.4705 83.2698 75.8876 81.9566 78.1229C80.6712 80.3304 78.6315 82.2024 75.8373 83.7392C73.071 85.2481 69.5364 86.268 65.2333 86.7989ZM110.541 87.6791C109.843 87.8467 109.186 87.749 108.571 87.3857C107.957 87.0224 107.565 86.5055 107.398 85.8349C107.23 85.1643 107.328 84.5356 107.691 83.9488C108.054 83.3341 108.571 82.9429 109.242 82.7752C112.344 81.965 114.621 80.6516 116.074 78.8354C117.555 77.0192 118.295 74.714 118.295 71.9198C118.295 70.1594 117.904 68.5807 117.122 67.1836C116.339 65.7865 115.222 64.6549 113.769 63.7886C112.344 62.9224 110.625 62.3916 108.613 62.1959C108.11 66.8902 107.258 70.9558 106.057 74.3926C104.883 77.8015 103.486 80.442 101.865 82.3142C100.273 84.1584 98.596 85.0805 96.8357 85.0805C95.3548 85.0805 93.9995 84.6474 92.7701 83.7812C91.5407 82.9149 90.5627 81.6716 89.8362 80.0509C89.1376 78.4302 88.7884 76.4883 88.7884 74.225C88.7884 71.9058 89.2215 69.7403 90.0877 67.7285C90.9818 65.6887 92.2392 63.9004 93.8599 62.3636C95.4805 60.8267 97.3806 59.6253 99.56 58.7591C101.767 57.8928 104.184 57.4598 106.811 57.4598C109.996 57.4598 112.819 58.0745 115.277 59.3039C117.764 60.5055 119.72 62.1959 121.145 64.3754C122.57 66.5269 123.283 69.0417 123.283 71.9198C123.283 75.9714 122.193 79.3523 120.014 82.0627C117.862 84.7452 114.705 86.6173 110.541 87.6791ZM96.8776 79.9252C97.3806 79.9252 97.9534 79.506 98.596 78.6678C99.2667 77.8015 99.9373 76.586 100.608 75.0213C101.278 73.4566 101.893 71.6124 102.452 69.4888C103.011 67.3373 103.43 64.9622 103.709 62.3636C101.53 62.7827 99.6997 63.593 98.2188 64.7945C96.7379 65.9681 95.6202 67.3792 94.8658 69.0278C94.1113 70.6484 93.7202 72.3528 93.6922 74.1412C93.6922 76.0412 93.9856 77.4803 94.5724 78.4582C95.1872 79.4361 95.9555 79.9252 96.8776 79.9252ZM141.968 88.2575C141.129 88.2575 140.392 87.9557 139.755 87.3521C139.151 86.7486 138.849 86.0277 138.849 85.1894C138.849 84.3176 139.151 83.58 139.755 82.9764C140.392 82.3729 141.129 82.0711 141.968 82.0711C143.51 82.0711 144.516 81.8532 144.985 81.4173C145.455 80.9478 145.69 79.9922 145.69 78.5504V64.6185H132.411C131.573 64.6185 130.852 64.3335 130.249 63.7635C129.679 63.1599 129.394 62.439 129.394 61.6008C129.394 60.7625 129.679 60.0584 130.249 59.4884C130.852 58.8848 131.573 58.583 132.411 58.583H145.69V53.1511C145.69 52.2793 145.991 51.5584 146.595 50.9884C147.198 50.3848 147.919 50.0831 148.758 50.0831C149.629 50.0831 150.35 50.3848 150.92 50.9884C151.524 51.5584 151.826 52.2793 151.826 53.1511V58.583H164.249C165.087 58.583 165.791 58.8848 166.361 59.4884C166.965 60.0584 167.266 60.7625 167.266 61.6008C167.266 62.439 166.965 63.1599 166.361 63.7635C165.791 64.3335 165.087 64.6185 164.249 64.6185H151.826V78.9025C151.826 82.3226 151.071 84.7368 149.562 86.1451C148.053 87.5533 145.522 88.2575 141.968 88.2575ZM131.808 81.9202C131.07 82.3561 130.282 82.4735 129.444 82.2723C128.639 82.0376 128.019 81.5514 127.583 80.8137C127.147 80.0425 127.047 79.2545 127.281 78.4498C127.516 77.6451 127.985 77.0248 128.69 76.5889C130.064 75.65 131.489 74.5771 132.965 73.37C134.44 72.1629 135.731 70.939 136.838 69.6984C137.408 69.0613 138.095 68.6757 138.9 68.5416C139.704 68.3739 140.442 68.5248 141.113 68.9942C141.783 69.4972 142.186 70.1678 142.32 71.0061C142.487 71.8443 142.303 72.5988 141.766 73.2694C140.928 74.3423 139.939 75.4321 138.799 76.5386C137.693 77.6116 136.519 78.6175 135.278 79.5563C134.071 80.4616 132.914 81.2496 131.808 81.9202ZM169.027 80.8137C168.39 81.3837 167.635 81.6352 166.763 81.5681C165.925 81.5011 165.204 81.1658 164.601 80.5622C163.93 79.8916 163.109 79.1372 162.136 78.2989C161.197 77.4271 160.225 76.5889 159.219 75.7841C158.247 74.9459 157.358 74.2585 156.553 73.722C155.883 73.2526 155.464 72.6155 155.296 71.8108C155.162 70.9725 155.313 70.2013 155.749 69.4972C156.218 68.7931 156.872 68.3739 157.71 68.2398C158.548 68.0721 159.32 68.223 160.024 68.6925C160.896 69.2625 161.901 70.0001 163.042 70.9055C164.182 71.8108 165.305 72.7496 166.411 73.722C167.518 74.6609 168.473 75.5494 169.278 76.3877C169.882 76.9912 170.15 77.7457 170.083 78.651C170.049 79.5228 169.697 80.2437 169.027 80.8137ZM165.808 57.0239C164.4 57.0239 163.192 56.5377 162.187 55.5653C161.214 54.5594 160.728 53.3523 160.728 51.944C160.728 50.5693 161.214 49.3957 162.187 48.4233C163.192 47.4174 164.4 46.9144 165.808 46.9144C167.183 46.9144 168.356 47.4174 169.328 48.4233C170.334 49.3957 170.837 50.5693 170.837 51.944C170.837 53.3523 170.334 54.5594 169.328 55.5653C168.356 56.5377 167.183 57.0239 165.808 57.0239ZM165.808 54.157C166.378 54.157 166.881 53.9391 167.317 53.5032C167.753 53.0673 167.971 52.5476 167.971 51.944C167.971 51.3405 167.753 50.8375 167.317 50.4351C166.881 49.9992 166.378 49.7813 165.808 49.7813C165.204 49.7813 164.685 49.9992 164.249 50.4351C163.813 50.8375 163.595 51.3405 163.595 51.944C163.595 52.5476 163.813 53.0673 164.249 53.5032C164.685 53.9391 165.204 54.157 165.808 54.157ZM197.595 90.0178C196.756 90.0178 196.035 89.6993 195.432 89.0622C194.828 88.4587 194.527 87.7378 194.527 86.8995V66.7812C192.381 68.6589 190.168 70.4696 187.888 72.2132C185.608 73.9567 183.327 75.5494 181.047 76.9912C180.31 77.4271 179.522 77.5445 178.683 77.3433C177.879 77.1421 177.242 76.6727 176.772 75.935C176.336 75.1974 176.219 74.4094 176.42 73.5711C176.621 72.7329 177.091 72.0958 177.828 71.6599C179.941 70.3522 182.137 68.8266 184.417 67.083C186.731 65.3394 188.977 63.4785 191.157 61.5002C193.37 59.5219 195.398 57.5436 197.243 55.5653C199.12 53.5535 200.679 51.659 201.92 49.8819C202.423 49.1777 203.094 48.7419 203.932 48.5742C204.77 48.4065 205.541 48.5742 206.245 49.0772C206.95 49.5466 207.386 50.2172 207.553 51.089C207.721 51.9272 207.553 52.6984 207.05 53.4026C205.307 55.7497 203.194 58.2142 200.713 60.796V86.8995C200.713 87.7378 200.411 88.4587 199.808 89.0622C199.204 89.6993 198.466 90.0178 197.595 90.0178ZM224.352 85.8433C223.547 86.1451 222.742 86.1115 221.938 85.7427C221.167 85.3739 220.63 84.7871 220.328 83.9823C220.027 83.1776 220.06 82.3896 220.429 81.6184C220.798 80.8137 221.384 80.2605 222.189 79.9587C224.872 79.0198 227.571 77.863 230.287 76.4883C233.036 75.1135 235.652 73.6214 238.133 72.012C240.648 70.369 242.928 68.6925 244.973 66.9824C247.052 65.2388 248.745 63.5623 250.053 61.9528C250.623 61.2822 251.327 60.8966 252.165 60.796C253.037 60.6955 253.792 60.9302 254.429 61.5002C255.099 62.0367 255.485 62.7408 255.586 63.6126C255.686 64.4509 255.451 65.2053 254.881 65.8759C253.507 67.5524 251.679 69.3463 249.399 71.2575C247.119 73.1352 244.571 74.9962 241.754 76.8404C238.938 78.6845 236.037 80.3946 233.053 81.9705C230.069 83.5464 227.169 84.8374 224.352 85.8433ZM228.677 66.0268C227.403 64.9538 225.978 63.8473 224.402 62.7073C222.826 61.5337 221.401 60.5781 220.127 59.8404C219.389 59.371 218.92 58.7339 218.719 57.9292C218.518 57.0909 218.635 56.303 219.071 55.5653C219.54 54.8276 220.177 54.3582 220.982 54.157C221.82 53.9223 222.608 54.0397 223.346 54.5091C224.251 55.0791 225.274 55.7832 226.414 56.6215C227.588 57.4262 228.711 58.231 229.784 59.0357C230.89 59.8404 231.796 60.5278 232.5 61.0978C233.17 61.6343 233.556 62.3384 233.657 63.2102C233.791 64.0485 233.59 64.8029 233.053 65.4735C232.517 66.1441 231.812 66.5465 230.941 66.6806C230.102 66.7812 229.348 66.5633 228.677 66.0268ZM270.473 89.9675C269.635 89.9675 268.914 89.6657 268.31 89.0622C267.707 88.4587 267.405 87.7378 267.405 86.8995V52.1452C267.405 51.2734 267.707 50.5525 268.31 49.9825C268.914 49.3789 269.635 49.0772 270.473 49.0772C271.345 49.0772 272.083 49.3789 272.686 49.9825C273.29 50.5525 273.591 51.2734 273.591 52.1452V64.2664C274.027 63.5958 274.631 63.1599 275.402 62.9588C276.173 62.724 276.928 62.7911 277.665 63.1599C279.644 64.1994 281.655 65.3897 283.701 66.7309C285.78 68.0721 287.574 69.3798 289.082 70.654C289.753 71.1905 290.122 71.9114 290.189 72.8167C290.29 73.6885 290.055 74.4597 289.485 75.1303C288.948 75.7674 288.244 76.1362 287.372 76.2368C286.501 76.3039 285.729 76.0692 285.059 75.5327C284.12 74.795 283.03 74.007 281.79 73.1688C280.582 72.3305 279.359 71.5258 278.118 70.7546C276.911 69.9499 275.804 69.2625 274.798 68.6925C274.262 68.3907 273.86 68.0219 273.591 67.586V86.8995C273.591 87.7378 273.29 88.4587 272.686 89.0622C272.083 89.6657 271.345 89.9675 270.473 89.9675Z" fill="black"/>
</g>
</g>
</g>
<path d="M27.8333 91.94C24.9999 91.94 23.5833 90.2684 23.5833 86.925V78.935H5.39326C1.99327 78.935 0.293265 77.7734 0.293265 75.45C0.293265 74.1467 0.434932 73.0134 0.718265 72.05C1.0016 71.0867 1.4266 70.095 1.99327 69.075L21.7133 35.585C22.3933 34.3384 23.1866 33.46 24.0933 32.95C25.0566 32.44 26.2466 32.185 27.6633 32.185C30.6666 32.185 32.1683 33.8567 32.1683 37.2V70.945H35.4833C38.8266 70.945 40.4983 72.2767 40.4983 74.94C40.4983 77.6034 39.2799 78.935 36.8433 78.935H32.1683V86.925C32.1683 90.2684 30.7233 91.94 27.8333 91.94ZM9.38827 70.945H23.5833V46.635L9.38827 70.945Z" fill="black"/>
<defs>
<clipPath id="clip0_0_1">
<rect width="241" height="45.04" fill="white" transform="translate(49.4951 45.9)"/>
</clipPath>
<clipPath id="clip1_0_1">
<rect width="241" height="45.04" fill="white" transform="translate(49.4951 45.9)"/>
</clipPath>
<clipPath id="clip2_0_1">
<rect width="241" height="45.0565" fill="white" transform="translate(49.4951 45.8918)"/>
</clipPath>
</defs>
</svg>
