<svg width="120" height="120" viewBox="0 0 120 120" fill="none" xmlns="http://www.w3.org/2000/svg">
<circle cx="60" cy="60" r="60" fill="#FFE8EA"/>
<mask id="mask0_13967_9158" style="mask-type:alpha" maskUnits="userSpaceOnUse" x="0" y="0" width="120" height="120">
<circle cx="60" cy="60" r="60" fill="#D9D9D9"/>
</mask>
<g mask="url(#mask0_13967_9158)">
<path fill-rule="evenodd" clip-rule="evenodd" d="M56.8899 12.81C56.8899 12.81 56.8799 12.77 56.8699 12.75H58.0499C58.0499 12.75 58.0399 12.79 58.0299 12.81H56.8899Z" fill="#D68D6D"/>
<path fill-rule="evenodd" clip-rule="evenodd" d="M76.6899 100.56C76.8299 100.95 76.7299 101.35 76.7499 101.74C76.5799 101.81 76.4799 101.94 76.5099 102.12C76.6399 103.14 76.5199 104.17 76.5599 105.19C76.5599 105.41 76.51 105.51 76.27 105.56C75.38 105.75 74.49 105.86 73.59 105.87C71.58 105.88 69.5899 105.72 67.6099 105.37C65.7799 105.04 63.94 104.76 62.09 104.55C60.42 104.35 58.76 104.18 57.08 104.31C56.31 104.37 55.54 104.47 54.78 104.57C53.27 104.77 51.7799 105.09 50.3599 105.64C48.3399 106.41 46.4299 107.4 44.4499 108.24C44.2999 108.3 44.19 108.4 44.15 108.56C44.03 108.63 43.91 108.69 43.78 108.76C43.27 106.99 42.76 105.22 42.84 103.33C42.92 103.3 43.0299 103.33 43.1299 103.36C44.0799 103.61 45.0499 103.64 46.0099 103.52C46.2899 103.48 46.6499 103.52 46.7599 103.13C46.9799 102.8 46.9599 102.39 47.1599 102.05C47.3399 102.02 47.4099 101.9 47.4299 101.73C47.5199 101.07 47.6199 100.42 47.7199 99.7599C47.8799 98.7599 48.0599 97.7699 48.1999 96.7599C48.4999 94.5799 48.7899 92.3999 48.9999 90.2099C49.2299 87.8699 49.47 85.5299 49.71 83.1899C49.9 81.2799 50.0699 79.3699 50.2499 77.4699C50.4299 75.5699 50.5799 73.6699 50.6099 71.7599C50.6399 69.0999 50.5099 66.4499 50.2499 63.7999C50.0999 62.3099 49.8899 60.8399 49.6599 59.3699C49.4599 58.0399 49.0399 56.7399 49.1199 55.3699C49.1199 55.3099 49.0699 55.2499 49.0499 55.1899C49.1699 54.6799 49.1199 54.1499 49.2599 53.6499C49.9599 54.1399 50.4299 54.7899 50.5699 55.6499C50.4599 55.7999 50.3499 55.9499 50.2299 56.0899C50.0899 56.2399 49.9899 56.4099 50.1799 56.5699C50.3799 56.7299 50.5199 56.5599 50.6299 56.4099C50.8599 56.1099 50.9899 55.7699 51.1299 55.4199C51.4199 54.7199 51.6499 53.9999 51.8599 53.2699C51.8899 53.2299 51.94 53.1899 51.96 53.1399C52.52 51.8899 52.67 50.5999 52.34 49.2499C52.25 48.8899 52.0799 48.5499 52.0699 48.1699C53.1099 49.2099 54.3199 49.8899 55.7999 50.0799C56.1899 50.1299 56.59 50.1799 56.96 50.0099C57.13 49.9299 57.2899 49.7899 57.1699 49.5699C57.0599 49.3599 56.8899 49.3999 56.7199 49.4999C56.3799 49.2199 56.24 48.8299 56.14 48.4199C56.3 48.3499 56.45 48.2699 56.39 48.0599C56.33 47.8699 56.1699 47.8899 56.0099 47.8899C54.9599 47.8599 53.64 46.9699 53.84 45.3699C53.95 44.4699 54.3199 43.6599 54.6599 42.8399C54.7399 42.6399 54.8099 42.6099 55.0099 42.7099C55.5199 42.9799 56.0299 43.2399 56.5999 43.3799C57.7999 43.6799 58.9999 43.5399 60.1899 43.3499C60.3999 43.3199 60.4499 43.3399 60.4499 43.5499C60.4 45.5699 60.43 47.5799 60.64 49.5899C60.71 50.2599 60.8099 50.9299 60.9099 51.5899C60.9599 51.9099 61.1399 51.9699 61.4099 51.8099C61.9899 51.8499 62.5699 51.9099 63.1599 51.8799C63.4299 51.8699 63.6999 51.8399 63.9699 51.8399C64.5699 51.8399 65.1399 51.7399 65.6899 51.4999C66.2299 51.8999 66.7999 52.2399 67.3799 52.5799C67.3299 52.7399 67.4099 52.9099 67.2999 53.0599C67.0499 53.0599 66.9699 53.2099 66.9799 53.4499C66.9899 54.7399 66.8399 56.0199 66.6999 57.2899C66.4699 59.2899 66.0199 61.2499 65.5699 63.2099C64.6499 67.2199 63.93 71.2599 63.59 75.3699C63.38 77.9199 63.22 80.4799 63.14 83.0399C63.04 86.3999 63.04 89.7599 63.14 93.1099C63.18 94.3799 63.23 95.6599 63.28 96.9299C63.35 98.5799 63.34 100.24 63.28 101.9C63.25 102.66 63.1899 103.42 63.1199 104.18C63.0999 104.37 63.1699 104.52 63.3799 104.52C63.5599 104.52 63.63 104.38 63.64 104.2C63.65 104 63.6599 103.81 63.6699 103.61C63.7899 103.56 63.89 103.45 64.03 103.45C64.15 103.65 64.31 103.72 64.52 103.61C65.66 103.01 66.9299 102.83 68.1699 102.59C69.9499 102.25 71.7499 102.06 73.5499 101.8C74.3099 101.69 75.07 101.56 75.83 101.42C76.17 101.35 76.2099 101.22 76.0699 100.92C76.2099 100.7 76.4599 100.67 76.6599 100.55L76.6899 100.56Z" fill="#C889BF"/>
<path fill-rule="evenodd" clip-rule="evenodd" d="M67.3299 53.0601C67.4299 52.9101 67.3599 52.7401 67.4099 52.5801C68.1899 52.9801 68.9499 53.3901 69.7699 53.6901C69.9499 53.7601 70.1299 53.8701 70.3199 53.7101C70.3999 53.6401 70.3999 53.5601 70.3699 53.4701C70.2899 53.2501 70.0699 53.2901 69.8999 53.2501C70.2899 52.3801 70.6699 51.5101 70.8799 50.5801C71.2299 50.4801 71.2799 50.3601 71.0799 50.0501C70.7199 49.4701 70.3799 48.8601 69.9899 48.3101C69.3199 47.3801 69.2199 46.3901 69.4699 45.3001C69.7299 44.1501 69.8399 42.9701 69.8199 41.8001C69.8199 41.3101 69.7399 40.8301 69.6999 40.3401C69.9099 40.3401 70.0199 40.5201 70.1699 40.6301C70.3999 40.7901 70.6099 40.9901 70.8299 41.1701C70.7799 41.5101 71.0299 41.6701 71.2499 41.8601C73.0299 43.3901 74.7799 44.9501 76.4299 46.6101C77.6199 47.8201 78.6299 49.1401 79.2199 50.7501C79.4799 51.4601 79.8099 52.1301 80.0999 52.8301C81.4299 56.0201 82.4899 59.3001 83.3499 62.6501C84.0099 65.2001 84.6699 67.7501 85.1299 70.3401C85.4099 71.9401 85.3299 73.5001 84.6899 75.0201C84.2299 76.1001 83.7999 77.1901 83.3299 78.2701C81.5399 82.3801 79.6499 86.4601 77.5999 90.4501C77.4199 90.8001 77.2399 91.1401 77.0599 91.4901C76.9699 91.6601 76.9299 91.8601 77.1299 91.9501C77.3399 92.0401 77.3199 92.1701 77.3199 92.3401C77.2899 94.6701 77.3399 97.0101 77.4199 99.3401C77.4199 99.5201 77.4699 99.6801 77.5699 99.8301C77.3299 100.13 77.0399 100.39 76.7099 100.59C76.5099 100.71 76.2599 100.74 76.1199 100.96C75.9899 100.92 75.8699 100.92 75.7399 100.95C74.8199 101.14 73.9199 101.36 72.9899 101.51C71.3299 101.77 69.6799 102.01 68.0199 102.26C66.8299 102.44 65.6599 102.65 64.5199 103.04C64.2899 103.12 64.0999 103.22 64.0899 103.5C63.9499 103.5 63.8499 103.6 63.7299 103.66C63.7899 102.11 63.7799 100.57 63.7499 99.0201C63.6899 96.4001 63.5599 93.7901 63.5099 91.1701C63.4399 87.1301 63.4799 83.0801 63.7399 79.0401C63.8699 77.0501 64.0199 75.0601 64.2299 73.0801C64.5799 69.9201 65.1899 66.8001 65.8799 63.6901C66.3199 61.7101 66.7699 59.7401 67.0499 57.7301C67.2399 56.3401 67.2799 54.9301 67.5899 53.5501C67.6399 53.3401 67.5399 53.1901 67.3499 53.1001L67.3299 53.0601ZM72.2499 83.0601C72.2299 83.2401 72.2799 83.4101 72.4799 83.4201C72.6999 83.4201 72.7499 83.2501 72.7699 83.0601C72.8799 81.7801 72.9699 80.5001 73.1199 79.2201C73.4599 76.3001 73.6599 73.3601 73.9599 70.4301C74.0399 69.6901 74.0399 68.9301 74.2899 68.2101C74.8499 66.5901 75.3099 64.9501 75.7099 63.2901C76.4499 60.2201 77.0499 57.1201 77.4899 53.9901C77.5099 53.8201 77.5499 53.6501 77.5499 53.4701C77.5499 53.2601 77.4599 53.0901 77.2299 53.1001C76.9999 53.1001 76.9699 53.2901 76.9699 53.4801C76.9699 53.6101 76.9699 53.7401 76.9699 53.8701C76.9599 55.2801 76.6799 56.6601 76.4399 58.0501C75.8499 61.4901 74.9299 64.8501 73.7399 68.1301C73.6499 68.3801 73.4999 68.6301 73.4999 68.9101C73.4999 69.4401 73.4599 69.9801 73.4199 70.5101C73.3399 71.7701 73.2699 73.0301 73.1799 74.3001C73.0999 75.2901 72.9899 76.2701 72.8899 77.2601C72.7799 78.5001 72.6899 79.7301 72.5199 80.9701C72.4299 81.6701 72.3299 82.3701 72.2399 83.0701L72.2499 83.0601ZM82.3499 70.1801C82.3499 69.9601 82.1799 69.7901 81.9899 69.8601C81.6299 69.9901 81.2599 70.0501 80.8999 70.1901C78.4899 71.1801 76.3899 72.6401 74.4499 74.3501C74.2499 74.5201 74.0799 74.7201 73.9199 74.9201C73.7999 75.0701 73.7599 75.2501 73.9499 75.3801C74.1299 75.5001 74.2499 75.3801 74.3499 75.2401C74.5599 74.9101 74.8399 74.6301 75.1199 74.3501C76.5499 72.9201 78.2499 71.8901 80.0399 71.0001C80.6499 70.6901 81.2899 70.4401 82.0099 70.4801C82.2199 70.4901 82.3299 70.3701 82.3599 70.1901L82.3499 70.1801ZM69.5299 85.3601C69.4499 85.3601 69.3799 85.4101 69.3399 85.4901C69.2699 85.6401 69.3399 85.7701 69.4299 85.8801C69.8799 86.4001 70.2999 86.9401 70.7199 87.4901C72.3299 89.5801 74.0299 91.6001 75.4599 93.8201C75.4799 93.8501 75.4999 93.8701 75.5199 93.9001C75.6499 94.0501 75.8199 94.1101 75.9699 93.9601C76.1299 93.8101 76.0699 93.6501 75.9299 93.5101C75.7899 93.3701 75.6399 93.2401 75.5199 93.0901C74.7599 92.2201 74.0599 91.3001 73.3799 90.3701C72.1999 88.7501 70.7899 87.3101 69.8099 85.5401C69.7599 85.4401 69.6699 85.3701 69.5299 85.3701V85.3601Z" fill="#CD594D"/>
<path fill-rule="evenodd" clip-rule="evenodd" d="M49.2899 53.66C49.1499 54.16 49.1999 54.69 49.0799 55.2C48.9499 55.12 48.8199 55.08 48.6899 55.18C48.5599 55.29 48.5499 55.45 48.5799 55.6C48.7199 56.3 48.8499 57.01 48.9999 57.71C49.8099 61.51 50.1499 65.35 50.2599 69.22C50.3799 73.23 49.9699 77.21 49.5599 81.18C49.1999 84.68 48.9099 88.19 48.4999 91.68C48.2299 93.97 47.9299 96.26 47.5499 98.54C47.3799 99.53 47.1299 100.5 46.9399 101.48C46.8899 101.71 46.8599 101.95 47.1699 102.03C46.9599 102.36 46.99 102.78 46.77 103.11C46.69 102.88 46.5499 102.8 46.3199 102.9C45.9099 103.07 45.4699 103.11 45.0399 103.12C43.4799 103.16 42.0299 102.75 40.6299 102.11C38.6199 101.19 36.88 99.87 35.15 98.52C35 98.4 34.9899 98.29 35.0399 98.13C35.8399 95.44 36.4899 92.71 37.1999 89.99C37.3199 89.55 37.4099 89.1 37.6699 88.71C37.8299 88.48 37.8099 88.31 37.5699 88.17C37.6499 87.98 37.6799 87.76 37.8499 87.62C38.0699 88.16 38.1899 88.72 38.3499 89.27C38.3699 89.35 38.3899 89.44 38.4199 89.52C38.4799 89.68 38.5899 89.8 38.7599 89.73C38.9299 89.67 38.96 89.52 38.9 89.35C38.87 89.26 38.8299 89.17 38.7999 89.07C37.7599 86.15 36.8199 83.19 35.7399 80.29C35.4899 79.63 35.2299 78.97 34.9699 78.31C34.4199 76.95 34.36 75.53 34.52 74.1C34.97 70 35.6199 65.92 36.3199 61.85C36.5599 60.45 36.8499 59.05 37.3799 57.72C37.4799 57.47 37.59 57.22 37.77 57C37.92 56.82 37.9399 56.6 37.9499 56.38C38.1799 53.16 39.0599 50.11 40.3599 47.17C40.8099 46.14 41.3599 45.16 42.1199 44.32C42.2399 44.19 42.2399 44.05 42.1999 43.89C42.6099 43.43 43.1199 43.08 43.5999 42.69C43.6499 42.65 43.7299 42.53 43.8099 42.67C43.7899 42.78 43.7699 42.88 43.7399 42.99C43.1799 44.95 42.8399 46.93 43.0099 48.99C43.0999 50.1 43.2399 51.2 43.5799 52.26C43.6399 52.43 43.7099 52.6 43.9199 52.59C44.1499 52.58 44.1199 52.37 44.1599 52.22C44.8599 51.8 45.6199 51.86 46.3899 51.92C46.6499 51.94 46.8399 52.19 47.1199 52.09C47.1499 52.46 47.17 52.82 47.21 53.19C47.23 53.36 47.33 53.52 47.53 53.48C47.74 53.44 47.75 53.27 47.71 53.1C47.69 52.98 47.63 52.88 47.65 52.75C48.28 52.91 48.8299 53.21 49.2999 53.66H49.2899ZM43.9099 69.41H43.8899C43.8499 70.23 43.83 71.04 43.77 71.86C43.67 73.19 43.5599 74.53 43.2399 75.84C43.1699 76.13 43.2699 76.28 43.5499 76.38C44.3799 76.67 44.5499 77 44.3299 77.85C44.2099 78.3 44.0599 78.75 44.1199 79.23C44.2599 80.34 44.6 81.42 44.78 82.52C44.8 82.64 44.89 82.74 45.03 82.75C45.15 82.75 45.24 82.69 45.28 82.58C45.32 82.47 45.3 82.36 45.28 82.26C45.17 81.8 45.0599 81.33 44.9399 80.87C44.6799 79.87 44.5399 78.89 44.8699 77.86C45.1699 76.94 44.93 76.49 44.09 76.03C43.89 75.92 43.82 75.8 43.84 75.57C44.05 73.38 44.1999 71.19 44.2599 68.99C44.2599 68.57 44.3299 68.14 44.4399 67.73C44.4799 67.58 44.5499 67.44 44.4099 67.31C44.3199 67.23 44.2099 67.21 44.1099 67.26C43.9399 67.34 43.9199 67.51 43.9199 67.68V69.44L43.9099 69.41ZM45.3299 84.23C45.3299 84.12 45.2599 84.03 45.1599 83.98C45.0299 83.91 44.9099 83.96 44.8099 84.06C44.5699 84.3 44.3399 84.55 44.0999 84.78C41.9799 86.9 40.1299 89.23 38.3599 91.64C38.2399 91.8 38.1199 92 38.3699 92.14C38.5999 92.27 38.7 92.07 38.78 91.9C38.96 91.5 39.1899 91.13 39.4399 90.78C40.3999 89.4 41.4899 88.12 42.5999 86.87C43.3699 86 44.1 85.08 45.15 84.51C45.25 84.45 45.3099 84.36 45.3199 84.24L45.3299 84.23ZM41.0399 57.54C40.8199 57.55 40.6999 57.76 40.8099 57.99C40.9199 58.23 41.07 58.47 41.21 58.7C42.49 60.95 44.0899 63.01 45.1299 65.4C45.1799 65.52 45.2999 65.58 45.4299 65.53C45.5799 65.48 45.6299 65.36 45.5999 65.22C45.5799 65.14 45.5299 65.06 45.4899 64.99C44.3799 63.36 43.4299 61.63 42.3699 59.97C41.9399 59.29 41.4899 58.62 41.3299 57.8C41.2999 57.65 41.2099 57.55 41.0499 57.55L41.0399 57.54ZM41.7299 76.81C41.8899 76.79 42.0599 76.75 42.1599 76.58C42.2299 76.45 42.2299 76.33 42.1299 76.22C42.0399 76.12 41.9099 76.08 41.8099 76.17C41.5299 76.41 41.2399 76.29 40.9799 76.17C39.5999 75.56 38.2699 74.87 37.1399 73.86C36.9999 73.73 36.8399 73.63 36.6899 73.81C36.5399 73.99 36.6699 74.14 36.8199 74.24C38.1599 75.08 39.5099 75.89 40.9299 76.58C41.1799 76.7 41.4399 76.77 41.7199 76.81H41.7299Z" fill="#CD594D"/>
<path fill-rule="evenodd" clip-rule="evenodd" d="M47.1099 52.09C46.8399 52.19 46.6399 51.94 46.3799 51.92C45.6099 51.86 44.8499 51.8 44.1499 52.22C44.0999 52.11 44.0399 52.01 43.9999 51.89C43.3099 49.91 43.1699 47.86 43.4699 45.8C43.7699 43.72 44.4299 41.73 45.5099 39.91C45.9199 39.22 46.3799 38.58 47.0799 38.15C47.5899 37.83 47.6999 37.63 47.5499 37.04C47.2699 35.97 47.1799 34.87 47.1199 33.78C47.0099 31.95 47.2299 30.15 47.6099 28.36C48.4099 24.64 49.7999 21.16 51.7499 17.89C52.6299 16.42 53.6299 15.06 55.0499 14.05C56.5099 13.01 58.4399 12.99 59.9099 14.05C60.1899 14.25 60.3299 14.21 60.4799 13.88C60.7399 13.88 60.9999 13.82 61.2499 13.93C61.2899 14.22 61.4999 14.29 61.7399 14.31C62.0699 14.35 62.3699 14.45 62.6699 14.59C63.6899 15.08 64.4599 15.87 65.1299 16.75C66.5599 18.63 67.6299 20.71 68.5399 22.88C69.5499 25.28 70.1899 27.79 70.5599 30.36C70.6899 31.25 70.7499 32.14 70.6799 33.03C70.5499 34.57 70.0099 35.97 69.1799 37.27C69.0399 37.49 69.0399 37.67 69.2399 37.84C69.1899 38.05 69.1399 38.25 69.0999 38.46C68.9599 38.41 68.8199 38.39 68.7199 38.54C68.6299 38.68 68.6799 38.81 68.7499 38.94C69.1399 39.66 69.3499 40.44 69.4299 41.24C69.5799 42.75 69.3399 44.24 68.9699 45.7C68.7899 46.42 68.7999 47.09 69.1499 47.76C69.6099 48.65 70.1699 49.48 70.6599 50.36C70.7099 50.46 70.7999 50.52 70.8899 50.59C70.6799 51.52 70.2999 52.39 69.9099 53.26C67.8699 52.73 66.1599 51.6 64.7199 50.11C62.6499 47.98 62.0799 45.38 62.7799 42.5C62.8299 42.29 62.8099 42.1 62.5899 42.05C62.3699 42 62.2699 42.15 62.2499 42.38C62.1699 43.41 62.0799 44.44 62.1999 45.48C62.3499 46.81 62.7399 48.05 63.4899 49.17C64.0999 50.09 64.8799 50.84 65.7399 51.51C65.1899 51.76 64.6199 51.86 64.0199 51.85C63.7499 51.85 63.4799 51.88 63.2099 51.89C62.6299 51.91 62.0399 51.86 61.4599 51.82C61.5399 51.68 61.4999 51.55 61.4599 51.41C61.2299 50.47 61.0999 49.51 61.0099 48.54C60.8599 46.83 60.8199 45.11 60.9199 43.38C61.0099 41.75 61.4299 40.21 61.9299 38.67C62.3899 37.26 63.1099 35.96 63.7199 34.61C63.8899 34.23 63.8399 34.1 63.4399 34.02C63.3399 33.82 63.4699 33.6 63.3599 33.41C63.3999 33.35 63.4299 33.28 63.4799 33.22C64.3199 32.05 64.9699 30.79 65.3699 29.41C65.7199 28.18 65.7399 26.92 65.7799 25.66C65.7899 25.23 65.7599 24.78 65.8899 24.36C65.9999 24.03 65.9699 23.72 65.9199 23.38C65.5099 20.84 64.4699 18.58 62.8999 16.55C62.7799 16.4 62.6499 16.28 62.4699 16.44C62.3099 16.59 62.3499 16.76 62.4999 16.89C63.4799 17.71 64.0599 18.81 64.5699 19.94C65.0699 21.07 65.3999 22.25 65.5699 23.48C65.4099 23.53 65.2999 23.43 65.1799 23.37C64.6999 23.14 64.2299 22.89 63.6799 22.82C63.5799 22.36 63.5599 21.89 63.5199 21.43C63.3999 20.06 62.9199 18.79 62.4299 17.52C62.3799 17.4 62.3199 17.28 62.1599 17.28C62.0499 17.28 61.9699 17.32 61.9199 17.42C61.8399 17.56 61.8899 17.68 61.9899 17.77C62.2499 18.02 62.3899 18.33 62.5199 18.66C63.0099 19.96 63.3299 21.3 63.2099 22.71C62.7899 22.56 62.3499 22.6 61.9199 22.51C61.8999 22.14 61.8699 21.77 61.8599 21.4C61.8099 20.06 61.4299 18.79 61.1599 17.49C61.1299 17.36 61.0499 17.25 60.8999 17.23C60.7899 17.22 60.6999 17.27 60.6499 17.36C60.5799 17.48 60.6199 17.6 60.6999 17.69C60.8799 17.89 60.9399 18.13 61.0099 18.37C61.1799 18.92 61.2899 19.49 61.3699 20.06C61.4899 20.87 61.6099 21.67 61.4899 22.49C61.0999 22.49 60.7199 22.51 60.3299 22.49C60.1099 22.49 59.8999 22.65 59.6799 22.51C59.6799 22.46 59.6799 22.4 59.6899 22.35C59.9999 20.73 59.8899 19.1 59.8299 17.47C59.8299 17.34 59.7799 17.23 59.6599 17.18C59.5599 17.14 59.4699 17.16 59.3899 17.23C59.2899 17.33 59.2999 17.44 59.3499 17.56C59.4099 17.7 59.4799 17.84 59.4899 17.99C59.6499 19.55 59.6299 21.1 59.2899 22.63C58.7999 22.74 58.3099 22.85 57.8499 23.05C57.4199 23.24 56.9899 23.42 56.5599 23.61C56.5199 23.13 56.5299 22.65 56.6199 22.18C56.9199 20.46 57.1099 18.71 58.1399 17.21C58.2399 17.07 58.1999 16.93 58.0499 16.85C57.8899 16.76 57.7499 16.8 57.6799 16.98C57.6299 17.1 57.6199 17.23 57.5599 17.35C56.8499 18.98 56.4599 20.69 56.2599 22.45C56.1999 22.94 56.0499 23.43 56.0899 23.93C55.4599 24.24 54.9199 24.67 54.3799 25.11C54.3599 24.35 54.4599 23.6 54.5999 22.85C54.9899 20.8 55.2899 18.71 56.7399 17.05C56.8399 16.93 56.8099 16.8 56.6999 16.7C56.5899 16.6 56.4599 16.6 56.3499 16.72C56.2599 16.83 56.1699 16.94 56.1099 17.07C55.5999 18.14 55.0999 19.21 54.7699 20.36C54.2999 22.05 54.1799 23.78 53.9099 25.5C53.4599 25.8 52.9299 26.01 52.7999 26.62C52.6999 26.62 52.5999 26.62 52.4999 26.62C52.4599 26.44 52.3299 26.31 52.2299 26.16C52.2499 25.88 52.0999 25.75 51.8399 25.69C51.4299 25.6 51.0499 25.87 50.9299 26.34C50.8199 26.76 50.8399 27.18 50.9299 27.6C51.1799 28.81 51.9499 29.67 52.8299 30.45C52.9199 30.53 53.0299 30.56 53.1299 30.49C53.2699 30.4 53.3199 30.49 53.3699 30.6C53.7199 31.46 54.2699 32.18 54.8299 32.9C54.7299 33.2 54.8399 33.51 54.7599 33.81C54.4999 33.91 54.4699 34.11 54.5299 34.35C54.7099 35.13 54.8599 35.92 55.1099 36.69C55.3599 37.48 55.4899 38.3 55.4499 39.13C55.3799 40.41 54.8999 41.56 54.3399 42.69C53.9899 43.38 53.6899 44.09 53.5199 44.85C53.3199 45.72 53.3399 46.57 53.9399 47.3C54.5199 47.99 55.2899 48.34 56.1799 48.42C56.2799 48.83 56.4199 49.22 56.7599 49.5C56.6099 49.63 56.4199 49.66 56.2399 49.65C55.3199 49.6 54.4299 49.45 53.6199 48.95C52.1199 48.03 51.3099 46.74 51.3799 44.95C51.3799 44.78 51.4299 44.61 51.4199 44.43C51.4199 44.24 51.2999 44.09 51.0899 44.11C50.8899 44.13 50.8399 44.29 50.8599 44.48C50.8699 44.6 50.9099 44.72 50.9099 44.84C50.9599 46.08 51.2699 47.22 52.1099 48.17C52.1099 48.55 52.2899 48.89 52.3799 49.25C52.7099 50.59 52.5499 51.88 51.9999 53.14C51.9799 53.19 51.9399 53.22 51.8999 53.27C51.8199 53.21 51.8699 53.13 51.8699 53.06C51.8999 52.15 52.0199 51.23 51.7599 50.33C51.5699 49.65 51.3399 48.98 51.1299 48.31C51.0999 48.21 51.0599 48.13 50.9799 48.06C50.8699 47.96 50.7699 47.97 50.6499 48.04C50.5399 48.11 50.5199 48.21 50.5499 48.32C50.5799 48.4 50.6299 48.48 50.6599 48.56C51.1699 49.8 51.7699 51.01 51.5799 52.41C51.5499 52.62 51.5399 52.82 51.5099 53.03C51.3499 53.96 51.1299 54.86 50.5999 55.66C50.4599 54.8 49.9899 54.15 49.2899 53.66C48.8199 53.21 48.2699 52.91 47.6399 52.75C47.6199 52.72 47.5999 52.7 47.5899 52.67C47.2999 51.06 47.2899 49.43 47.5399 47.82C47.9499 45.14 48.7999 42.62 50.2099 40.3C50.4299 39.94 50.5299 39.57 50.4399 39.18C50.2199 38.19 50.0899 37.18 50.0299 36.17C49.9599 34.88 49.7399 33.58 50.1099 32.3C50.1499 32.17 50.0899 32.06 49.9899 31.98C49.8999 31.9 49.7799 31.91 49.6799 31.97C49.5399 32.06 49.5299 32.2 49.5299 32.35C49.5499 33.07 49.5699 33.79 49.5999 34.51C49.6599 35.75 49.7499 36.99 49.8999 38.22C49.9799 38.87 50.0699 39.53 49.7199 40.17C48.9199 41.65 48.3499 43.23 47.8599 44.84C47.4099 46.34 47.1099 47.86 47.0499 49.42C47.0099 50.31 47.0499 51.21 47.1099 52.1V52.09ZM64.2399 43.42C64.0299 43.46 63.9299 43.56 63.9799 43.77C64.0099 43.89 64.0499 44 64.0699 44.12C64.3499 45.34 64.6999 46.54 65.2699 47.66C65.9799 49.06 67.0599 50.14 68.2399 51.14C68.5599 51.41 68.9099 51.63 69.2599 51.84C69.4199 51.93 69.5799 51.95 69.6799 51.77C69.7799 51.59 69.6499 51.49 69.5199 51.39C69.4799 51.36 69.4199 51.34 69.3799 51.31C66.7599 49.89 65.1999 47.7 64.5699 44.81C64.4999 44.48 64.5199 44.14 64.4999 43.8C64.4799 43.63 64.4599 43.44 64.2399 43.42Z" fill="#D68D6D"/>
<path fill-rule="evenodd" clip-rule="evenodd" d="M67.0699 154.34C67.1099 154.45 66.9999 154.53 67.0099 154.63C66.9599 154.63 66.8999 154.64 66.8499 154.64C65.7999 154.66 64.8099 154.34 63.8099 154.08C63.2199 153.93 62.6199 153.8 62.1299 153.4C61.9799 153.28 61.8399 153.34 61.7299 153.47C61.6499 153.2 61.3899 153.18 61.1899 153.07C61.1899 150.64 61.1899 148.21 61.1899 145.77C61.1899 140.98 61.1799 136.2 61.0699 131.41C61.0399 130.11 61.1399 128.82 61.2199 127.53C61.2799 126.66 61.3499 125.8 61.1299 124.93C60.5099 122.59 60.0799 120.21 59.8899 117.79C59.6699 114.98 59.6199 112.17 59.7299 109.36C59.7799 108.05 59.7699 106.72 60.0199 105.42C60.0599 105.2 59.9499 105.07 59.7499 104.99C59.6399 104.91 59.6999 104.8 59.6999 104.69C59.8499 104.69 59.9999 104.69 60.1599 104.69C61.9399 104.86 63.7199 105.09 65.4899 105.38C67.2599 105.68 69.0199 106.02 70.7999 106.19C70.7999 106.25 70.7999 106.31 70.7499 106.35C70.4899 106.47 70.5299 106.7 70.5299 106.93C70.5299 107.98 70.4499 109.02 70.3699 110.06C70.2199 112.03 69.9899 113.98 69.7299 115.94C69.5199 117.47 69.2699 119 69.0499 120.53C68.7899 122.31 68.5399 124.09 68.2899 125.86C68.1899 126.6 68.0799 127.34 68.2799 128.09C68.5499 129.12 68.6499 130.17 68.5299 131.23C68.4599 131.8 68.3999 132.38 68.4099 132.96C68.4299 134.44 68.3299 135.92 68.2399 137.4C68.1099 139.76 67.9599 142.12 67.7999 144.48C67.6999 145.93 67.5899 147.37 67.4599 148.81C67.3099 150.49 67.1299 152.17 66.9599 153.85C66.9399 154.03 66.9599 154.17 67.0899 154.3L67.0699 154.34Z" fill="#4893B3"/>
<path fill-rule="evenodd" clip-rule="evenodd" d="M45.3599 108.49C45.3599 108.49 45.3099 108.44 45.2899 108.42C45.3299 108.4 45.3599 108.37 45.3999 108.35C47.4599 107.29 49.5599 106.32 51.7699 105.61C53.0299 105.21 54.3199 104.99 55.6299 104.86C55.7299 104.99 55.6799 105.13 55.6899 105.27C55.5299 105.34 55.3899 105.44 55.4299 105.64C55.6499 106.58 55.5999 107.55 55.6099 108.5C55.6499 111.49 55.6499 114.47 55.4899 117.46C55.4199 118.8 55.3599 120.14 55.2699 121.48C55.1599 123.04 55.0299 124.61 54.9599 126.17C54.9399 126.55 55.0099 126.9 55.2299 127.23C55.3999 127.48 55.4899 127.78 55.5599 128.08C55.6899 128.62 55.6499 129.19 55.7199 129.73C55.8599 130.77 56.2099 131.76 56.4599 132.78C56.9399 134.73 57.2399 136.7 57.4099 138.7C57.5299 140.08 57.5799 141.46 57.6399 142.84C57.6899 144.11 57.8099 145.39 57.6599 146.66C57.6199 146.99 57.7699 147.08 58.1299 146.99C58.3099 147.19 58.3399 147.45 58.4599 147.68C58.3999 147.76 58.3299 147.83 58.2699 147.91C58.1899 147.91 58.1199 147.91 58.0799 147.83C58.0799 147.42 57.8999 147.32 57.5499 147.5C57.3999 147.58 57.2499 147.67 57.0999 147.76C56.5099 148.13 55.8799 148.37 55.1899 148.47C54.5299 148.55 53.8699 148.58 53.2099 148.52C53.1299 148.49 53.0599 148.44 53.0399 148.35C52.8899 147.89 52.6599 147.46 52.5299 146.98C51.6999 143.89 50.8599 140.81 50.1099 137.69C49.4799 135.07 48.7299 132.48 47.7899 129.94C47.4499 129.04 47.0699 128.14 46.8999 127.18C46.5799 125.39 46.5199 123.56 46.3799 121.75C46.2399 119.88 46.1299 118.01 46.0299 116.14C45.8999 113.73 45.5999 111.32 45.7299 108.9C45.7499 108.61 45.6299 108.47 45.3399 108.48L45.3599 108.49Z" fill="#4893B3"/>
<path fill-rule="evenodd" clip-rule="evenodd" d="M56.5499 23.62C56.9799 23.43 57.4199 23.25 57.8399 23.06C58.2999 22.85 58.7899 22.75 59.2799 22.64C59.2599 22.85 59.1799 23.03 59.0499 23.2C58.9599 23.32 58.8999 23.44 58.9999 23.58C59.0599 23.66 59.1399 23.69 59.2299 23.67C59.3899 23.64 59.4499 23.52 59.4799 23.37C59.5399 23.08 59.5499 22.79 59.6599 22.52C59.8799 22.67 60.0999 22.5 60.3099 22.5C60.6999 22.5 61.0899 22.5 61.4699 22.5C61.4499 22.58 61.4299 22.65 61.4099 22.72C61.3799 22.88 61.4199 23.01 61.5899 23.05C61.7699 23.09 61.8399 22.95 61.8799 22.81C61.8999 22.72 61.8899 22.62 61.8999 22.52C62.3299 22.61 62.7699 22.57 63.1899 22.72C63.1199 22.83 63.1499 22.95 63.1399 23.07C63.1199 23.23 63.2199 23.29 63.3399 23.32C63.4699 23.35 63.5599 23.3 63.6199 23.17C63.6699 23.07 63.6499 22.96 63.6699 22.85C64.2099 22.92 64.6799 23.17 65.1699 23.4C65.2899 23.46 65.3999 23.56 65.5599 23.51C65.5899 23.67 65.5699 23.81 65.4499 23.93C65.3699 24 65.3499 24.1 65.3699 24.2C65.5099 25.1 65.4099 26 65.3799 26.91C65.3099 29.65 64.2299 31.98 62.3899 33.97C61.1799 35.29 59.4499 35.56 57.8399 34.76C54.9799 33.34 53.4299 30.98 52.9299 27.88C52.8599 27.47 52.9599 27.05 52.7799 26.66C52.9199 26.05 53.4499 25.84 53.8899 25.54C53.9399 25.69 54.0299 25.8 54.1999 25.75C54.3399 25.71 54.3799 25.58 54.3699 25.44C54.3699 25.34 54.3599 25.24 54.3499 25.15C54.8899 24.71 55.4299 24.27 56.0599 23.97C56.1399 24.08 56.2399 24.16 56.3899 24.08C56.5699 23.99 56.5199 23.81 56.5399 23.65L56.5499 23.62ZM59.4299 31.93C60.3299 31.91 61.1299 31.88 61.8799 31.52C62.0599 31.43 62.2399 31.33 62.1199 31.11C61.9999 30.87 61.8099 30.93 61.6199 31.06C61.5599 31.1 61.4999 31.15 61.4299 31.18C60.4699 31.74 59.4799 31.63 58.4799 31.29C58.3499 31.25 58.2299 31.15 58.0899 31.25C57.9999 31.31 57.9499 31.39 57.9699 31.5C57.9999 31.68 58.1499 31.75 58.2999 31.78C58.6999 31.86 59.0999 31.99 59.4299 31.93ZM60.5299 26.08C60.5299 25.87 60.4599 25.74 60.2699 25.74C60.0499 25.74 59.9799 25.9 59.9899 26.1C60.0399 27.12 60.1399 28.14 60.2799 29.15C60.2999 29.27 60.3499 29.38 60.4799 29.42C60.5699 29.45 60.6599 29.42 60.7199 29.36C60.8199 29.26 60.7899 29.14 60.7299 29.03C60.6099 28.81 60.5499 28.57 60.5199 28.32C60.4299 27.57 60.2999 26.81 60.5299 26.09V26.08ZM57.5299 27.11C57.5299 26.89 57.5399 26.67 57.4399 26.47C57.3499 26.31 57.2199 26.2 57.0199 26.21C56.8199 26.22 56.6899 26.34 56.6399 26.52C56.5199 26.93 56.4699 27.35 56.6699 27.76C56.7499 27.93 56.8699 28.05 57.0699 28.04C57.2699 28.04 57.3899 27.91 57.4499 27.73C57.5199 27.53 57.5299 27.33 57.5299 27.12V27.11ZM62.4999 26.75C62.4999 26.87 62.4999 27 62.5199 27.13C62.5499 27.36 62.6299 27.57 62.8999 27.59C63.1599 27.61 63.2899 27.43 63.3599 27.21C63.4599 26.87 63.4999 26.53 63.4299 26.18C63.3499 25.8 63.0599 25.7 62.7599 25.93C62.4699 26.14 62.5599 26.46 62.5099 26.75H62.4999ZM57.4599 24.31C56.8099 24.34 56.3199 24.48 55.8699 24.77C55.7599 24.85 55.5799 24.94 55.6899 25.1C55.8199 25.28 55.9199 25.09 56.0299 25.01C56.5999 24.6 57.1899 24.31 57.8899 24.72C57.9999 24.78 58.1099 24.79 58.1599 24.66C58.2199 24.53 58.1199 24.45 58.0099 24.42C57.7899 24.35 57.5699 24.3 57.4499 24.31H57.4599ZM64.1199 24.31C64.1199 24.23 64.0699 24.15 63.9699 24.11C63.3099 23.84 62.6399 23.84 61.9799 24.12C61.8699 24.16 61.7799 24.25 61.8599 24.37C61.9199 24.48 62.0299 24.43 62.1199 24.39C62.6999 24.12 63.2899 23.99 63.8699 24.42C63.9999 24.51 64.0899 24.45 64.1299 24.32L64.1199 24.31Z" fill="white"/>
<path fill-rule="evenodd" clip-rule="evenodd" d="M63.4299 34.0299C63.3799 34.1099 63.3099 34.1899 63.2699 34.2799C62.6399 36.0699 61.7699 37.7799 61.2299 39.6099C60.9799 40.4699 60.7599 41.3299 60.6599 42.2199C60.6199 42.5099 60.5399 42.7099 60.2299 42.8099C58.5199 43.3399 56.8699 43.3099 55.2999 42.3199C55.0799 42.1799 55.0599 42.0599 55.1699 41.8299C55.7699 40.5499 56.0699 39.2099 55.7499 37.7999C55.5799 37.0099 55.4399 36.2199 55.1999 35.4499C55.0899 35.0699 55.0399 34.6799 55.0699 34.2899C55.0899 34.0499 55.0099 33.8799 54.7599 33.8199C54.8399 33.5199 54.7299 33.1999 54.8299 32.9099C54.9099 32.9799 54.9899 33.0499 55.0599 33.1299C55.7799 33.8699 56.5899 34.4899 57.4999 34.9699C59.5199 36.0299 61.4699 35.6399 62.9299 33.8899C63.0599 33.7299 63.1999 33.5799 63.3299 33.4199C63.4399 33.6099 63.3199 33.8399 63.4099 34.0299H63.4299Z" fill="white"/>
<path fill-rule="evenodd" clip-rule="evenodd" d="M52.4899 26.6199C52.2799 26.8999 52.4899 27.1599 52.5199 27.4299C52.5199 27.4999 52.5899 27.5899 52.5299 27.6499C52.4499 27.7299 52.3699 27.6499 52.2999 27.6099C52.1899 27.5699 52.0799 27.5099 51.9699 27.4699C51.8399 27.4299 51.6999 27.4499 51.6399 27.5999C51.5699 27.7599 51.6499 27.9199 51.7999 27.9299C52.0999 27.9599 52.2799 28.2799 52.5999 28.2399C52.7199 28.2199 52.6799 28.3499 52.6899 28.4099C52.8099 28.9499 52.9499 29.4799 53.1599 30.0799C52.9899 29.9699 52.8699 29.9099 52.7699 29.8299C51.8299 29.0299 51.1799 28.0799 51.2899 26.7599C51.2999 26.5999 51.3399 26.4599 51.4099 26.3299C51.4899 26.1899 51.5899 26.1099 51.7499 26.2299C51.9299 26.3599 52.0799 26.2799 52.2199 26.1599C52.3199 26.3099 52.4399 26.4399 52.4899 26.6199Z" fill="white"/>
<path fill-rule="evenodd" clip-rule="evenodd" d="M33.9599 75.5199C34.0399 75.4899 34.0199 75.4199 34.0199 75.3599C34.1099 73.6399 34.3999 71.9399 34.6399 70.2399C34.9799 67.8699 35.3399 65.5 35.7299 63.14C35.9999 61.51 36.2199 59.8699 36.6399 58.2699C36.7899 57.6899 36.9799 57.13 37.2699 56.6C37.4099 56.34 37.4299 56.02 37.4899 55.72C37.8699 53.97 38.1999 52.2 38.7199 50.48C39.4099 48.21 40.3899 46.07 41.5999 44.03C41.7699 43.74 41.8699 43.72 42.1799 43.9C42.2199 44.06 42.2099 44.1999 42.0999 44.3299C41.3399 45.1699 40.7899 46.15 40.3399 47.18C39.0399 50.12 38.1599 53.17 37.9299 56.39C37.9199 56.61 37.8899 56.83 37.7499 57.01C37.5799 57.22 37.4699 57.47 37.3599 57.73C36.8299 59.06 36.5399 60.4599 36.2999 61.8599C35.5999 65.9299 34.9399 69.9999 34.4999 74.1099C34.3499 75.5399 34.3999 76.96 34.9499 78.32C35.2099 78.98 35.4699 79.6399 35.7199 80.2999C36.7999 83.2099 37.7399 86.1599 38.7799 89.0799C38.8099 89.1699 38.8499 89.2699 38.8799 89.3599C38.9399 89.5299 38.9099 89.6799 38.7399 89.7399C38.5599 89.8099 38.4499 89.7 38.3999 89.53C38.3699 89.45 38.3599 89.36 38.3299 89.28C38.1699 88.73 38.0499 88.16 37.8299 87.63C37.2799 85.89 36.7499 84.15 36.0899 82.45C35.5699 81.11 35.0199 79.77 34.4999 78.42C34.2399 77.74 34.0599 77.0399 34.0099 76.2999C34.0099 76.2499 34.0099 76.19 33.9399 76.17V75.5199H33.9599Z" fill="#2F1909" stroke="#2F1909" stroke-width="0.32" stroke-linecap="round" stroke-linejoin="round"/>
<path fill-rule="evenodd" clip-rule="evenodd" d="M77.5599 99.7999C77.4599 99.6499 77.4199 99.4899 77.4099 99.3099C77.3199 96.9799 77.2799 94.6499 77.3099 92.3099C77.3099 92.1499 77.3299 92.01 77.1199 91.92C76.9199 91.84 76.9599 91.6299 77.0499 91.4599C77.2299 91.1099 77.4099 90.76 77.5899 90.42C79.6399 86.43 81.5299 82.3499 83.3199 78.2399C83.7899 77.1599 84.2299 76.0699 84.6799 74.9899C85.3199 73.4699 85.3999 71.9199 85.1199 70.3099C84.6599 67.7099 83.9999 65.1599 83.3399 62.6199C82.4699 59.2799 81.4199 55.9899 80.0899 52.7999C79.7999 52.1099 79.4699 51.43 79.2099 50.72C78.6199 49.1 77.6099 47.7799 76.4199 46.5799C74.7699 44.9099 73.0199 43.3499 71.2399 41.8299C71.0299 41.6499 70.7799 41.49 70.8199 41.14C71.0399 40.95 71.2299 41 71.4199 41.19C73.3599 43.08 75.3699 44.89 77.2899 46.79C78.4799 47.97 79.2499 49.37 79.8499 50.91C80.7099 53.13 81.6199 55.33 82.3299 57.6C83.2699 60.63 84.1299 63.68 84.8199 66.79C85.0799 67.99 85.3599 69.19 85.6199 70.39C85.9899 72.08 85.8099 73.6999 85.0999 75.2699C84.5299 76.5399 83.9399 77.7999 83.3899 79.0799C81.7099 82.9999 79.7499 86.79 78.0299 90.69C77.8099 91.2 77.7399 91.7399 77.6999 92.2799C77.5599 93.9699 77.6199 95.66 77.7299 97.35C77.7699 98.05 77.8099 98.7399 77.9399 99.4299C77.9999 99.7199 77.8399 99.8299 77.5599 99.7999Z" fill="#2F1909" stroke="#2F1909" stroke-width="0.32" stroke-linecap="round" stroke-linejoin="round"/>
<path fill-rule="evenodd" clip-rule="evenodd" d="M67.0699 154.34C66.9499 154.21 66.9299 154.06 66.9399 153.89C67.1099 152.21 67.2899 150.53 67.4399 148.85C67.5699 147.4 67.6799 145.96 67.7799 144.52C67.9399 142.16 68.0899 139.8 68.2199 137.44C68.2999 135.96 68.4099 134.48 68.3899 133C68.3799 132.42 68.4499 131.85 68.5099 131.27C68.6299 130.21 68.5299 129.15 68.2599 128.13C68.0599 127.37 68.1699 126.64 68.2699 125.9C68.5199 124.12 68.7699 122.34 69.0299 120.57C69.2499 119.04 69.4999 117.51 69.7099 115.98C69.9799 114.03 70.2099 112.07 70.3499 110.1C70.4299 109.06 70.5099 108.01 70.5099 106.97C70.5099 106.73 70.4699 106.51 70.7299 106.39C71.0099 106.44 71.1099 106.63 71.0699 106.89C70.7499 108.88 70.6899 110.9 70.4399 112.9C70.1599 115.16 69.8899 117.42 69.5399 119.66C69.2599 121.46 69.0699 123.26 68.8499 125.07C68.7099 126.24 68.6399 127.41 68.8899 128.58C69.1599 129.82 69.0699 131.07 68.9499 132.32C68.8399 133.38 68.7999 134.45 68.7599 135.51C68.7099 136.94 68.5299 138.35 68.4599 139.78C68.4099 140.93 68.3099 142.08 68.2299 143.24C68.0999 145.05 67.9499 146.87 67.8199 148.68C67.7099 150.12 67.6199 151.57 67.5099 153.02C67.4899 153.34 67.4599 153.65 67.4499 153.97C67.4499 154.24 67.3299 154.38 67.0499 154.35L67.0699 154.34Z" fill="#2F1909" stroke="#2F1909" stroke-width="0.32" stroke-linecap="round" stroke-linejoin="round"/>
<path fill-rule="evenodd" clip-rule="evenodd" d="M60.4699 13.8801C60.3199 14.2101 60.1799 14.25 59.8999 14.05C58.4299 13 56.4999 13.02 55.0399 14.05C53.6199 15.06 52.6199 16.4201 51.7399 17.8901C49.7999 21.1501 48.3999 24.64 47.5999 28.36C47.2199 30.14 46.9999 31.9501 47.1099 33.7801C47.1699 34.8701 47.2599 35.9701 47.5399 37.0401C47.6899 37.6301 47.5799 37.8401 47.0699 38.1501C46.3699 38.5801 45.9099 39.2301 45.4999 39.9101C44.4199 41.7301 43.7499 43.71 43.4599 45.8C43.1699 47.8601 43.3099 49.9101 43.9899 51.8901C44.0299 52.0001 44.0899 52.1101 44.1399 52.2201C44.0999 52.3701 44.1399 52.5801 43.8999 52.5901C43.6799 52.6001 43.6099 52.4301 43.5599 52.2601C43.2099 51.2001 43.0799 50.1001 42.9899 48.9901C42.8199 46.93 43.1599 44.9601 43.7199 42.9901C43.7499 42.8901 43.7699 42.7801 43.7899 42.6701C44.2299 41.4501 44.7899 40.2901 45.4299 39.1701C45.7599 38.5801 46.1699 38.0601 46.7399 37.6901C47.0199 37.5101 47.0599 37.2901 47.0099 37.0001C46.9199 36.4001 46.8299 35.7901 46.7799 35.1901C46.6599 33.7001 46.6599 32.2101 46.8399 30.7201C47.0999 28.5401 47.6099 26.4201 48.3399 24.3501C49.2599 21.7601 50.4099 19.2701 51.8899 16.9501C52.5699 15.8801 53.3599 14.9201 54.3099 14.0901C55.0399 13.4401 55.8699 12.9501 56.8699 12.8201H58.0099C58.8499 12.8801 59.5499 13.3101 60.2899 13.6601C60.3899 13.7101 60.3599 13.8401 60.4499 13.8901L60.4699 13.8801Z" fill="#2F1909" stroke="#2F1909" stroke-width="0.32" stroke-linecap="round" stroke-linejoin="round"/>
<path fill-rule="evenodd" clip-rule="evenodd" d="M45.3599 108.49C45.6599 108.47 45.7699 108.62 45.7499 108.91C45.6199 111.33 45.9199 113.74 46.0499 116.15C46.1499 118.02 46.26 119.89 46.4 121.76C46.54 123.57 46.5999 125.39 46.9199 127.19C47.0899 128.15 47.4799 129.04 47.8099 129.95C48.7499 132.49 49.4999 135.07 50.1299 137.7C50.8799 140.81 51.7099 143.9 52.5499 146.99C52.6799 147.47 52.9099 147.89 53.0599 148.36C52.6999 148.6 52.5199 148.54 52.3699 148.08C52.0099 146.94 51.76 145.77 51.46 144.61C50.94 142.57 50.38 140.53 49.9 138.48C49.39 136.31 48.81 134.16 48.09 132.05C47.64 130.74 47.0799 129.46 46.5599 128.17C46.4199 127.83 46.34 127.49 46.33 127.13C46.21 124.55 46.07 121.97 45.89 119.4C45.74 117.23 45.6199 115.05 45.4799 112.87C45.3999 111.57 45.2899 110.26 45.1799 108.96C45.1599 108.77 45.1999 108.62 45.3499 108.5L45.3599 108.49Z" fill="#2F1909" stroke="#2F1909" stroke-width="0.32" stroke-linecap="round" stroke-linejoin="round"/>
<path fill-rule="evenodd" clip-rule="evenodd" d="M55.6199 104.85C54.3099 104.99 53.0199 105.2 51.7599 105.6C49.5499 106.31 47.4499 107.28 45.3899 108.34C45.3499 108.36 45.3199 108.39 45.2799 108.41C45.0699 108.51 44.8699 108.6 44.6699 108.71C44.4299 108.85 44.2599 108.81 44.1499 108.55C44.1899 108.39 44.2999 108.3 44.4499 108.23C46.4299 107.4 48.3499 106.4 50.3599 105.63C51.7899 105.08 53.2699 104.76 54.7799 104.56C55.5399 104.46 56.3099 104.36 57.0799 104.3C58.7599 104.17 60.4199 104.34 62.0899 104.54C63.9399 104.76 65.7799 105.04 67.6099 105.36C69.5899 105.71 71.5799 105.88 73.5899 105.86C74.4899 105.86 75.3899 105.74 76.2699 105.55C76.5099 105.5 76.5599 105.4 76.5599 105.18C76.5199 104.16 76.6399 103.13 76.5099 102.11C76.4799 101.92 76.5799 101.8 76.7499 101.73C77.0599 101.79 77.1199 101.99 77.0699 102.27C76.8999 103.21 76.9299 104.15 76.9999 105.1C76.9999 105.23 76.9999 105.35 77.1799 105.39C77.3199 105.42 77.3899 105.54 77.3699 105.69C77.3499 105.84 77.2499 105.91 77.1099 105.94C75.8199 106.22 74.5199 106.35 73.1999 106.3C72.3999 106.27 71.5899 106.23 70.7899 106.2C68.9999 106.03 67.2399 105.69 65.4799 105.39C63.7099 105.09 61.9299 104.87 60.1499 104.7C59.9999 104.69 59.8499 104.7 59.6899 104.7C59.5999 104.68 59.4999 104.65 59.4099 104.65C58.1399 104.65 56.8799 104.7 55.6199 104.85Z" fill="#2F1909" stroke="#2F1909" stroke-width="0.32" stroke-linecap="round" stroke-linejoin="round"/>
<path fill-rule="evenodd" clip-rule="evenodd" d="M37.5699 88.1799C37.8099 88.3199 37.8299 88.4899 37.6699 88.7199C37.4099 89.0999 37.3099 89.5599 37.1999 89.9999C36.4899 92.7199 35.8399 95.45 35.0399 98.14C34.9899 98.3 35 98.4199 35.15 98.5299C36.88 99.8699 38.6199 101.2 40.6299 102.12C42.0299 102.76 43.4899 103.18 45.0399 103.13C45.4799 103.12 45.9099 103.08 46.3199 102.91C46.5499 102.81 46.6899 102.89 46.7699 103.12C46.6499 103.51 46.2899 103.47 46.0199 103.51C45.0499 103.63 44.0899 103.6 43.1399 103.35C43.0399 103.32 42.9299 103.3 42.8499 103.32C42.7699 105.21 43.2699 106.98 43.7899 108.75C43.8399 108.92 43.8799 109.08 43.9399 109.25C44.0099 109.45 44.0699 109.66 43.8199 109.74C43.5599 109.82 43.4799 109.6 43.4299 109.41C43.1599 108.39 42.9099 107.37 42.7499 106.32C42.6299 105.5 42.4499 104.69 42.3099 103.88C42.2599 103.62 42.2399 103.38 42.6199 103.26C40.8199 102.65 39.17 101.9 37.65 100.85C36.6899 100.19 35.7199 99.5599 34.7299 98.9399C34.3699 98.7199 34.3099 98.5399 34.4599 98.1499C35.5699 95.3599 36.2099 92.4399 36.9399 89.5399C37.0199 89.2099 37.08 88.8799 37.15 88.5499C37.1999 88.3099 37.3299 88.1899 37.5699 88.1799Z" fill="#2F1909" stroke="#2F1909" stroke-width="0.32" stroke-linecap="round" stroke-linejoin="round"/>
<path fill-rule="evenodd" clip-rule="evenodd" d="M69.2299 37.85C69.0299 37.68 69.0299 37.5 69.1699 37.28C69.9999 35.98 70.5399 34.58 70.6699 33.04C70.7399 32.15 70.6699 31.26 70.5499 30.37C70.1799 27.79 69.5399 25.29 68.5299 22.89C67.6199 20.72 66.5499 18.64 65.1199 16.76C64.4499 15.88 63.6899 15.09 62.6599 14.6C62.3599 14.46 62.0599 14.35 61.7299 14.32C61.4899 14.29 61.2799 14.22 61.2399 13.94C61.3099 13.71 61.4499 13.67 61.6699 13.73C62.7699 13.98 63.6699 14.56 64.4499 15.35C65.4599 16.38 66.1899 17.6 66.9099 18.83C68.6899 21.89 69.9299 25.16 70.6299 28.63C70.9599 30.25 71.1799 31.89 71.0099 33.56C70.8499 35.02 70.2899 36.35 69.5999 37.63C69.5199 37.77 69.3899 37.84 69.2299 37.85Z" fill="#2F1909" stroke="#2F1909" stroke-width="0.32" stroke-linecap="round" stroke-linejoin="round"/>
<path fill-rule="evenodd" clip-rule="evenodd" d="M70.8799 50.5801C70.7899 50.5201 70.6999 50.4501 70.6499 50.3501C70.1699 49.4701 69.6099 48.6401 69.1399 47.7501C68.7899 47.0801 68.7799 46.4101 68.9599 45.6901C69.3299 44.2301 69.5699 42.7401 69.4199 41.2301C69.3399 40.4301 69.1199 39.6501 68.7399 38.9301C68.6699 38.8001 68.6199 38.6701 68.7099 38.5301C68.8099 38.3801 68.9499 38.4001 69.0899 38.4501C69.4099 38.9401 69.4799 39.5101 69.6299 40.0601C69.6499 40.1401 69.6699 40.2301 69.6899 40.3101C69.7299 40.8001 69.8099 41.2801 69.8099 41.7701C69.8199 42.9501 69.7099 44.1201 69.4599 45.2701C69.2099 46.3601 69.3199 47.3501 69.9799 48.2801C70.3799 48.8401 70.7099 49.4401 71.0699 50.0201C71.2599 50.3301 71.2199 50.4501 70.8699 50.5501L70.8799 50.5801Z" fill="#2F1909" stroke="#2F1909" stroke-width="0.32" stroke-linecap="round" stroke-linejoin="round"/>
<path fill-rule="evenodd" clip-rule="evenodd" d="M67.3299 53.0601C67.5199 53.1501 67.6199 53.3001 67.5699 53.5101C67.2599 54.8901 67.2199 56.3001 67.0299 57.6901C66.7499 59.7001 66.2999 61.6701 65.8599 63.6501C65.1699 66.7601 64.5599 69.8801 64.2099 73.0401C63.9899 75.0201 63.8399 77.0101 63.7199 79.0001C63.4599 83.0401 63.4199 87.0901 63.4899 91.1301C63.5399 93.7501 63.6699 96.3601 63.7299 98.9801C63.7599 100.53 63.7699 102.07 63.7099 103.62C63.6999 103.82 63.6899 104.01 63.6799 104.21C63.6799 104.38 63.6099 104.53 63.4199 104.53C63.2099 104.53 63.1399 104.38 63.1599 104.19C63.2299 103.43 63.2899 102.67 63.3199 101.91C63.3799 100.25 63.3899 98.5901 63.3199 96.9401C63.2599 95.6701 63.2099 94.3901 63.1799 93.1201C63.0799 89.7601 63.0799 86.4 63.1799 83.05C63.2599 80.49 63.4199 77.9401 63.6299 75.3801C63.9699 71.2701 64.6899 67.2301 65.6099 63.2201C66.0599 61.2601 66.5099 59.3 66.7399 57.3C66.8799 56.02 67.0299 54.7401 67.0199 53.4601C67.0199 53.2201 67.0899 53.0801 67.3399 53.0701L67.3299 53.0601Z" fill="#2F1909" stroke="#2F1909" stroke-width="0.32" stroke-linecap="round" stroke-linejoin="round"/>
<path fill-rule="evenodd" clip-rule="evenodd" d="M47.1799 102.05C46.8599 101.97 46.8999 101.74 46.9499 101.5C47.1399 100.52 47.3899 99.5499 47.5599 98.5599C47.9399 96.2799 48.2399 93.99 48.5099 91.7C48.9099 88.2 49.2099 84.7 49.5699 81.2C49.9799 77.22 50.3899 73.2499 50.2699 69.2399C50.1499 65.3699 49.8099 61.52 49.0099 57.73C48.8599 57.03 48.7299 56.3199 48.5899 55.6199C48.5599 55.4599 48.5599 55.31 48.6999 55.2C48.8299 55.09 48.9599 55.1299 49.0899 55.2199C49.1099 55.2799 49.1599 55.3399 49.1599 55.3999C49.0799 56.7699 49.4999 58.0699 49.6999 59.3999C49.9199 60.8699 50.1399 62.3499 50.2899 63.8299C50.5499 66.4799 50.6699 69.1299 50.6499 71.7899C50.6299 73.6999 50.4799 75.5999 50.2899 77.4999C50.1099 79.4099 49.9299 81.3199 49.7499 83.2199C49.5199 85.5599 49.2799 87.8999 49.0399 90.2399C48.8299 92.4299 48.5399 94.6099 48.2399 96.7899C48.0999 97.7899 47.9199 98.7899 47.7599 99.7899C47.6599 100.45 47.5599 101.1 47.4699 101.76C47.4499 101.93 47.3799 102.05 47.1999 102.08L47.1799 102.05Z" fill="#2F1909" stroke="#2F1909" stroke-width="0.32" stroke-linecap="round" stroke-linejoin="round"/>
<path fill-rule="evenodd" clip-rule="evenodd" d="M63.4299 34.0301C63.8299 34.1101 63.8799 34.2401 63.7099 34.6201C63.1099 35.9701 62.3799 37.2701 61.9199 38.6801C61.4199 40.2201 60.9999 41.7601 60.9099 43.3901C60.8099 45.1101 60.8499 46.8301 60.9999 48.5501C61.0899 49.5101 61.2199 50.4701 61.4499 51.4201C61.4899 51.5601 61.5299 51.6901 61.4499 51.8301C61.1799 51.9901 60.9999 51.9201 60.9499 51.6101C60.8399 50.9501 60.7499 50.2801 60.6799 49.6101C60.4699 47.6001 60.4299 45.5901 60.4899 43.5701C60.4899 43.3501 60.4499 43.3301 60.2299 43.3701C59.0399 43.5601 57.8399 43.7001 56.6399 43.4001C56.0699 43.2601 55.5599 43.0101 55.0499 42.7301C54.8599 42.6301 54.7899 42.6601 54.6999 42.8601C54.3599 43.6801 53.9999 44.4901 53.8799 45.3901C53.6799 46.9901 54.9999 47.8801 56.0499 47.9101C56.2099 47.9101 56.3699 47.9001 56.4299 48.0801C56.4899 48.2901 56.3399 48.3701 56.1799 48.4401C55.2899 48.3601 54.5199 48.0101 53.9399 47.3201C53.3399 46.6001 53.3199 45.7401 53.5199 44.8701C53.6899 44.1101 54 43.4001 54.34 42.7101C54.9 41.5801 55.3799 40.4301 55.4499 39.1501C55.4999 38.3201 55.3699 37.5001 55.1099 36.7101C54.8599 35.9401 54.72 35.1501 54.53 34.3701C54.48 34.1401 54.4999 33.9301 54.7599 33.8301C55.0099 33.8901 55.0799 34.0601 55.0699 34.3001C55.0399 34.6901 55.0899 35.0801 55.1999 35.4601C55.4299 36.2301 55.5699 37.0301 55.7499 37.8101C56.0699 39.2201 55.7599 40.5601 55.1699 41.8401C55.0599 42.0701 55.0799 42.1901 55.2999 42.3301C56.8699 43.3101 58.5099 43.3401 60.2299 42.8201C60.5399 42.7201 60.6199 42.5201 60.6599 42.2301C60.7699 41.3401 60.9799 40.4801 61.2299 39.6201C61.7699 37.7901 62.6399 36.0801 63.2699 34.2901C63.2999 34.2001 63.3699 34.1301 63.4299 34.0401V34.0301Z" fill="#2F1909" stroke="#2F1909" stroke-width="0.32" stroke-linecap="round" stroke-linejoin="round"/>
<path fill-rule="evenodd" clip-rule="evenodd" d="M65.7199 51.51C64.8599 50.83 64.0799 50.08 63.4699 49.17C62.7199 48.05 62.3199 46.81 62.1799 45.48C62.0699 44.44 62.1499 43.41 62.2299 42.38C62.2499 42.16 62.3499 42 62.5699 42.05C62.7899 42.1 62.8099 42.29 62.7599 42.5C62.0699 45.38 62.6299 47.97 64.6999 50.11C66.1399 51.59 67.8499 52.72 69.8899 53.26C70.0599 53.31 70.2799 53.26 70.3599 53.48C70.3899 53.57 70.3899 53.65 70.3099 53.72C70.1199 53.88 69.9399 53.77 69.7599 53.7C68.9399 53.4 68.1799 52.98 67.3999 52.59C66.8199 52.26 66.2499 51.91 65.7099 51.51H65.7199Z" fill="#2F1909" stroke="#2F1909" stroke-width="0.32" stroke-linecap="round" stroke-linejoin="round"/>
<path fill-rule="evenodd" clip-rule="evenodd" d="M64.0699 103.47C64.0699 103.19 64.2699 103.08 64.4999 103.01C65.6399 102.62 66.8099 102.41 67.9999 102.23C69.6599 101.98 71.3199 101.75 72.9699 101.48C73.8999 101.33 74.7999 101.12 75.7199 100.92C75.8499 100.89 75.9799 100.89 76.0999 100.93C76.2499 101.23 76.1999 101.37 75.8599 101.43C75.0999 101.57 74.3399 101.7 73.5799 101.81C71.7899 102.08 69.9799 102.26 68.1999 102.6C66.9599 102.84 65.6899 103.02 64.5499 103.62C64.3399 103.73 64.1699 103.66 64.0599 103.46L64.0699 103.47Z" fill="#2F1909" stroke="#2F1909" stroke-width="0.32" stroke-linecap="round" stroke-linejoin="round"/>
<path fill-rule="evenodd" clip-rule="evenodd" d="M52.1099 48.1801C51.2699 47.2301 50.9599 46.0901 50.9099 44.8501C50.9099 44.7301 50.8699 44.6101 50.8599 44.4901C50.8399 44.3101 50.8899 44.1501 51.0899 44.1201C51.2999 44.1001 51.4099 44.2401 51.4199 44.4401C51.4199 44.6101 51.3799 44.7901 51.3799 44.9601C51.3099 46.7501 52.1199 48.0401 53.6199 48.9601C54.4299 49.4601 55.3199 49.6001 56.2399 49.6601C56.4299 49.6701 56.6099 49.6401 56.7599 49.5101C56.9299 49.4101 57.0999 49.3701 57.2099 49.5801C57.3199 49.8001 57.1699 49.9301 56.9999 50.0201C56.6299 50.2001 56.2299 50.1401 55.8399 50.0901C54.3699 49.9001 53.1499 49.2201 52.1099 48.1801Z" fill="#2F1909" stroke="#2F1909" stroke-width="0.32" stroke-linecap="round" stroke-linejoin="round"/>
<path fill-rule="evenodd" clip-rule="evenodd" d="M50.5999 55.6601C51.1299 54.8601 51.3499 53.9501 51.5099 53.0301C51.5399 52.8301 51.5499 52.6201 51.5799 52.4101C51.7799 51.0101 51.1799 49.7901 50.6599 48.5601C50.6299 48.4801 50.5799 48.4101 50.5499 48.3201C50.5099 48.2101 50.5499 48.1001 50.6499 48.0401C50.7699 47.9701 50.8699 47.9601 50.9799 48.0601C51.0499 48.1301 51.0999 48.2201 51.1299 48.3101C51.3399 48.9801 51.5699 49.6501 51.7599 50.3301C52.0199 51.2301 51.8899 52.1501 51.8699 53.0601C51.8699 53.1301 51.8299 53.2101 51.8999 53.2701C51.6899 54.0001 51.4599 54.7201 51.1699 55.4201C51.0299 55.7601 50.8899 56.1101 50.6699 56.4101C50.5599 56.5601 50.4199 56.7301 50.2199 56.5701C50.0299 56.4101 50.1299 56.2501 50.2699 56.0901C50.3899 55.9501 50.4899 55.8001 50.6099 55.6501L50.5999 55.6601Z" fill="#2F1909" stroke="#2F1909" stroke-width="0.32" stroke-linecap="round" stroke-linejoin="round"/>
<path fill-rule="evenodd" clip-rule="evenodd" d="M72.2499 83.0601C72.3399 82.3601 72.4399 81.6601 72.5299 80.9601C72.6999 79.7301 72.7799 78.4901 72.8999 77.2501C72.9899 76.2601 73.1099 75.2801 73.1899 74.2901C73.2899 73.0301 73.3499 71.7701 73.4299 70.5001C73.4599 69.9701 73.5099 69.4401 73.5099 68.9001C73.5099 68.6201 73.6599 68.3801 73.7499 68.1201C74.9399 64.8401 75.8499 61.4801 76.4499 58.0401C76.6899 56.6501 76.9599 55.2701 76.9799 53.8601C76.9799 53.7301 76.9799 53.6001 76.9799 53.4701C76.9799 53.2801 77.0099 53.1001 77.2399 53.0901C77.4699 53.0901 77.5599 53.2601 77.5599 53.4601C77.5599 53.6301 77.5199 53.8001 77.4999 53.9801C77.0599 57.1101 76.4599 60.2101 75.7199 63.2801C75.3199 64.9401 74.8599 66.5901 74.2999 68.2001C74.0499 68.9301 74.0499 69.6801 73.9699 70.4201C73.6699 73.3501 73.4699 76.2801 73.1299 79.2101C72.9799 80.4901 72.8999 81.7701 72.7799 83.0501C72.7599 83.2401 72.7099 83.4201 72.4899 83.4101C72.2899 83.4101 72.2299 83.2301 72.2599 83.0501L72.2499 83.0601Z" fill="#2F1909" stroke="#2F1909" stroke-width="0.32" stroke-linecap="round" stroke-linejoin="round"/>
<path fill-rule="evenodd" clip-rule="evenodd" d="M82.3499 70.1799C82.3199 70.3599 82.2099 70.4899 81.9999 70.4699C81.2899 70.4299 80.6399 70.6899 80.0299 70.9899C78.2399 71.8799 76.5399 72.9099 75.1099 74.3399C74.8299 74.6199 74.5599 74.8999 74.3399 75.2299C74.2399 75.3799 74.1099 75.4899 73.9399 75.3699C73.7499 75.2399 73.7899 75.0599 73.9099 74.9099C74.0799 74.7099 74.2499 74.5099 74.4399 74.3399C76.3799 72.6299 78.4799 71.1699 80.8899 70.1799C81.2499 70.0399 81.6199 69.9699 81.9799 69.8499C82.1699 69.7799 82.3499 69.95 82.3399 70.17L82.3499 70.1799Z" fill="#2F1909" stroke="#2F1909" stroke-width="0.32" stroke-linecap="round" stroke-linejoin="round"/>
<path fill-rule="evenodd" clip-rule="evenodd" d="M69.5299 85.3601C69.6699 85.3601 69.7599 85.4301 69.8099 85.5301C70.7799 87.3001 72.1999 88.7501 73.3799 90.3601C74.0599 91.2901 74.7599 92.2101 75.5199 93.0801C75.6499 93.2301 75.7899 93.3601 75.9299 93.5001C76.0799 93.6401 76.1299 93.8001 75.9699 93.9501C75.8099 94.1001 75.6499 94.0401 75.5199 93.8901C75.4999 93.8701 75.4799 93.8401 75.4599 93.8101C74.0299 91.5901 72.3299 89.5701 70.7199 87.4801C70.2999 86.9401 69.8799 86.3901 69.4299 85.8701C69.3299 85.7601 69.2699 85.6301 69.3399 85.4801C69.3799 85.4001 69.4499 85.3501 69.5299 85.3501V85.3601Z" fill="#2F1909" stroke="#2F1909" stroke-width="0.32" stroke-linecap="round" stroke-linejoin="round"/>
<path fill-rule="evenodd" clip-rule="evenodd" d="M47.1099 52.0901C47.0499 51.2001 47.0199 50.3001 47.0499 49.4101C47.1199 47.8501 47.4099 46.3201 47.8599 44.8301C48.3499 43.2201 48.9199 41.6401 49.7199 40.1601C50.0599 39.5201 49.9799 38.8601 49.8999 38.2101C49.7499 36.9801 49.6499 35.7401 49.5999 34.5001C49.5699 33.7801 49.5499 33.0601 49.5299 32.3401C49.5299 32.1901 49.5299 32.0501 49.6799 31.9601C49.7799 31.9001 49.8899 31.8901 49.9899 31.9701C50.0899 32.0501 50.1399 32.1501 50.1099 32.2901C49.7399 33.5701 49.9599 34.8701 50.0299 36.1601C50.0899 37.1701 50.2199 38.1701 50.4399 39.1701C50.5299 39.5701 50.4299 39.9301 50.2099 40.2901C48.7999 42.6101 47.9499 45.1401 47.5399 47.8101C47.2899 49.4201 47.3099 51.0501 47.5899 52.6601C47.5899 52.6901 47.6199 52.7101 47.6399 52.7401C47.6199 52.8601 47.6799 52.9701 47.6999 53.0901C47.7399 53.2601 47.7299 53.4401 47.5199 53.4701C47.3199 53.5101 47.2199 53.3501 47.1999 53.1801C47.1599 52.8201 47.1399 52.4501 47.1099 52.0801V52.0901Z" fill="#2F1909" stroke="#2F1909" stroke-width="0.32" stroke-linecap="round" stroke-linejoin="round"/>
<path fill-rule="evenodd" clip-rule="evenodd" d="M43.9099 69.4099V67.6499C43.9099 67.4799 43.9199 67.3099 44.0999 67.2299C44.2099 67.1799 44.3099 67.1999 44.3999 67.2799C44.5399 67.4099 44.4699 67.5599 44.4299 67.6999C44.3099 68.1099 44.2599 68.5399 44.2499 68.9599C44.1899 71.1599 44.0399 73.3499 43.8299 75.5399C43.8099 75.7699 43.8799 75.8899 44.0799 75.9999C44.9099 76.4599 45.1599 76.9199 44.8599 77.8299C44.5199 78.8699 44.6599 79.8499 44.9299 80.8399C45.0499 81.2999 45.1599 81.7699 45.2699 82.2299C45.2999 82.3399 45.3199 82.4499 45.2699 82.5499C45.2299 82.6599 45.1499 82.7299 45.0199 82.7199C44.8799 82.7199 44.7899 82.6199 44.7699 82.4899C44.5899 81.3799 44.2499 80.3099 44.1099 79.1999C44.0499 78.7199 44.2099 78.2699 44.3199 77.8199C44.5299 76.9699 44.3699 76.6499 43.5399 76.3499C43.2599 76.2499 43.1599 76.0999 43.2299 75.8099C43.5499 74.5099 43.6599 73.1699 43.7599 71.8299C43.8199 71.0099 43.8399 70.1999 43.8799 69.3799H43.8999L43.9099 69.4099Z" fill="#2F1909" stroke="#2F1909" stroke-width="0.32" stroke-linecap="round" stroke-linejoin="round"/>
<path fill-rule="evenodd" clip-rule="evenodd" d="M45.3299 84.2301C45.3199 84.3601 45.2599 84.4501 45.1599 84.5001C44.1099 85.0701 43.3799 86.0001 42.6099 86.8601C41.4999 88.1201 40.4099 89.4001 39.4499 90.7701C39.1999 91.1301 38.9699 91.4901 38.7899 91.8901C38.7099 92.0601 38.6099 92.2501 38.3799 92.1301C38.1199 91.9901 38.2499 91.8001 38.3699 91.6301C40.1399 89.2201 41.9899 86.8901 44.1099 84.7701C44.3499 84.5301 44.5799 84.2901 44.8199 84.0501C44.9199 83.9501 45.0399 83.9001 45.1699 83.9701C45.2699 84.0201 45.3399 84.1101 45.3399 84.2201L45.3299 84.2301Z" fill="#2F1909" stroke="#2F1909" stroke-width="0.32" stroke-linecap="round" stroke-linejoin="round"/>
<path fill-rule="evenodd" clip-rule="evenodd" d="M41.0399 57.54C41.1899 57.54 41.2899 57.64 41.3199 57.79C41.4799 58.6 41.9299 59.28 42.3599 59.96C43.4199 61.62 44.3799 63.34 45.4799 64.98C45.5299 65.05 45.5699 65.13 45.5899 65.21C45.6199 65.35 45.5699 65.47 45.4199 65.52C45.2899 65.57 45.1699 65.51 45.1199 65.39C44.0799 63 42.4699 60.94 41.1999 58.69C41.0699 58.45 40.9199 58.22 40.7999 57.98C40.6899 57.75 40.7999 57.55 41.0299 57.53L41.0399 57.54Z" fill="#2F1909" stroke="#2F1909" stroke-width="0.32" stroke-linecap="round" stroke-linejoin="round"/>
<path fill-rule="evenodd" clip-rule="evenodd" d="M41.7299 76.8101C41.4399 76.7701 41.1799 76.7001 40.9399 76.5801C39.5099 75.9001 38.1599 75.0801 36.8299 74.2401C36.6699 74.1401 36.5499 73.9901 36.6999 73.8101C36.8499 73.6301 36.9999 73.7301 37.1499 73.8601C38.2899 74.8701 39.6199 75.5601 40.9899 76.1701C41.2399 76.2801 41.5399 76.4101 41.8199 76.1701C41.9199 76.0901 42.0499 76.1201 42.1399 76.2201C42.2399 76.3301 42.2499 76.4601 42.1699 76.5801C42.0699 76.7501 41.8999 76.7901 41.7399 76.8101H41.7299Z" fill="#2F1909" stroke="#2F1909" stroke-width="0.32" stroke-linecap="round" stroke-linejoin="round"/>
<path fill-rule="evenodd" clip-rule="evenodd" d="M63.3499 33.42C63.2099 33.57 63.0799 33.73 62.9499 33.89C61.4899 35.64 59.5399 36.0399 57.5199 34.9699C56.6099 34.4899 55.7999 33.87 55.0799 33.13C55.0099 33.05 54.9199 32.9799 54.8499 32.91C54.2899 32.1899 53.7299 31.4599 53.3899 30.6099C53.3499 30.4999 53.2899 30.4199 53.1499 30.4999C53.0499 30.5699 52.9299 30.5299 52.8499 30.4599C51.9699 29.6799 51.1999 28.8199 50.9499 27.6099C50.8599 27.1899 50.8399 26.77 50.9499 26.35C51.0699 25.88 51.4499 25.62 51.8599 25.7C52.1199 25.76 52.2699 25.89 52.2499 26.17C52.1099 26.29 51.9599 26.3699 51.7799 26.2399C51.6199 26.1199 51.5299 26.1999 51.4399 26.3399C51.3599 26.4699 51.3299 26.6099 51.3199 26.7699C51.2199 28.0799 51.8599 29.0299 52.7999 29.8399C52.8999 29.9199 53.0199 29.9799 53.1899 30.0899C52.9799 29.4899 52.8399 28.95 52.7199 28.42C52.7099 28.36 52.7499 28.2299 52.6299 28.2499C52.2999 28.2999 52.1299 27.9699 51.8299 27.9399C51.6799 27.9299 51.5999 27.7699 51.6699 27.6099C51.7299 27.4599 51.8599 27.44 51.9999 27.48C52.1099 27.52 52.2199 27.5799 52.3299 27.6199C52.4099 27.6499 52.4899 27.7399 52.5599 27.6599C52.6199 27.5999 52.5599 27.5199 52.5499 27.4399C52.5199 27.1699 52.3199 26.91 52.5199 26.63C52.6199 26.63 52.7199 26.63 52.8199 26.63C52.9999 27.02 52.8999 27.44 52.9699 27.85C53.4799 30.96 55.0299 33.32 57.8799 34.73C59.4799 35.52 61.2099 35.2499 62.4299 33.9399C64.2599 31.9499 65.3399 29.62 65.4199 26.88C65.4499 25.98 65.5499 25.07 65.4099 24.17C65.3999 24.07 65.4099 23.9699 65.4899 23.8999C65.6199 23.7799 65.6299 23.64 65.5999 23.48C65.4299 22.26 65.0999 21.0699 64.5999 19.9399C64.0899 18.7999 63.5099 17.71 62.5299 16.89C62.3799 16.76 62.3299 16.5799 62.4999 16.4399C62.6799 16.2799 62.8099 16.3999 62.9299 16.5499C64.4899 18.5799 65.5399 20.84 65.9499 23.38C65.9999 23.72 66.0299 24.0299 65.9199 24.3599C65.7799 24.7799 65.8199 25.2199 65.8099 25.6599C65.7699 26.9199 65.7499 28.1899 65.3999 29.4099C64.9999 30.7999 64.3399 32.0499 63.5099 33.2199C63.4699 33.2799 63.4299 33.35 63.3899 33.41L63.3499 33.42Z" fill="#2F1909" stroke="#2F1909" stroke-width="0.32" stroke-linecap="round" stroke-linejoin="round"/>
<path fill-rule="evenodd" clip-rule="evenodd" d="M64.2399 43.4199C64.4599 43.4499 64.4799 43.6299 64.4999 43.7999C64.5299 44.1299 64.4999 44.4699 64.5699 44.8099C65.1899 47.6999 66.7599 49.8899 69.3799 51.3099C69.4299 51.3399 69.48 51.3499 69.52 51.3899C69.65 51.4799 69.7799 51.5899 69.6799 51.7699C69.5799 51.9499 69.4099 51.9299 69.2599 51.8399C68.8999 51.6299 68.5499 51.4099 68.2399 51.1399C67.0599 50.1399 65.99 49.0699 65.27 47.6599C64.7 46.5299 64.3399 45.3399 64.0699 44.1199C64.0399 43.9999 63.9999 43.8899 63.9799 43.7699C63.9399 43.5699 64.0399 43.4599 64.2399 43.4199Z" fill="#2F1909" stroke="#2F1909" stroke-width="0.32" stroke-linecap="round" stroke-linejoin="round"/>
<path fill-rule="evenodd" clip-rule="evenodd" d="M54.3599 25.1101C54.3599 25.2101 54.3599 25.3001 54.3799 25.4001C54.3899 25.5401 54.3499 25.6701 54.2099 25.7101C54.0399 25.7601 53.9499 25.6601 53.8999 25.5001C54.1699 23.7801 54.2999 22.0501 54.7599 20.3601C55.0799 19.2101 55.5799 18.1401 56.0999 17.0701C56.1599 16.9501 56.2499 16.8301 56.3399 16.7201C56.4399 16.6001 56.5799 16.6001 56.6899 16.7001C56.7999 16.8001 56.8299 16.9301 56.7299 17.0501C55.2799 18.7101 54.9799 20.8001 54.5899 22.8501C54.4499 23.5901 54.3399 24.3501 54.3699 25.1101H54.3599Z" fill="#2F1909" stroke="#2F1909" stroke-width="0.32" stroke-linecap="round" stroke-linejoin="round"/>
<path fill-rule="evenodd" clip-rule="evenodd" d="M56.5499 23.62C56.5299 23.77 56.5899 23.95 56.3999 24.05C56.2499 24.13 56.1599 24.05 56.0699 23.94C56.0299 23.44 56.1799 22.95 56.2399 22.46C56.4399 20.7 56.8399 18.99 57.5399 17.36C57.5899 17.24 57.6099 17.11 57.6599 16.99C57.7299 16.81 57.8699 16.78 58.0299 16.86C58.1799 16.94 58.2099 17.08 58.1199 17.22C57.0899 18.72 56.8999 20.47 56.5999 22.19C56.5199 22.66 56.4999 23.14 56.5399 23.62H56.5499Z" fill="#2F1909" stroke="#2F1909" stroke-width="0.32" stroke-linecap="round" stroke-linejoin="round"/>
<path fill-rule="evenodd" clip-rule="evenodd" d="M59.6699 22.5101C59.5699 22.7801 59.5499 23.0801 59.4899 23.3601C59.4599 23.5101 59.3999 23.6301 59.2399 23.6601C59.1499 23.6801 59.0699 23.6501 59.0099 23.5701C58.9099 23.4301 58.9699 23.3001 59.0599 23.1901C59.1899 23.0201 59.2699 22.8401 59.2899 22.6301C59.6299 21.1001 59.6499 19.5501 59.4899 17.9901C59.4799 17.8401 59.3999 17.7001 59.3499 17.5601C59.2999 17.4401 59.2899 17.3301 59.3899 17.2301C59.4699 17.1501 59.5599 17.1301 59.6599 17.1801C59.7799 17.2401 59.8199 17.3401 59.8299 17.4701C59.8899 19.1001 59.9999 20.7301 59.6899 22.3501C59.6799 22.4001 59.6899 22.4601 59.6799 22.5101H59.6699Z" fill="#2F1909" stroke="#2F1909" stroke-width="0.32" stroke-linecap="round" stroke-linejoin="round"/>
<path fill-rule="evenodd" clip-rule="evenodd" d="M63.6799 22.82C63.6599 22.93 63.6799 23.03 63.6299 23.14C63.5699 23.27 63.4799 23.33 63.3499 23.29C63.2299 23.26 63.1299 23.2 63.1499 23.04C63.1699 22.93 63.1299 22.8 63.1999 22.69C63.3199 21.28 62.9999 19.95 62.5099 18.64C62.3799 18.31 62.2399 18 61.9799 17.75C61.8799 17.65 61.8299 17.54 61.9099 17.4C61.9599 17.3 62.0399 17.26 62.1499 17.26C62.3099 17.26 62.3699 17.38 62.4199 17.5C62.9099 18.77 63.3899 20.04 63.5099 21.41C63.5499 21.87 63.5699 22.34 63.6699 22.8L63.6799 22.82Z" fill="#2F1909" stroke="#2F1909" stroke-width="0.32" stroke-linecap="round" stroke-linejoin="round"/>
<path fill-rule="evenodd" clip-rule="evenodd" d="M61.9099 22.4999C61.9099 22.5999 61.91 22.6999 61.89 22.7899C61.86 22.9299 61.7899 23.0699 61.5999 23.0299C61.4299 22.9899 61.3799 22.8699 61.4199 22.6999C61.4299 22.6199 61.4599 22.5499 61.4799 22.4799C61.6099 21.6599 61.4799 20.8499 61.3599 20.0499C61.2799 19.4799 61.1599 18.9199 60.9999 18.3599C60.9299 18.1199 60.8699 17.8799 60.6899 17.6799C60.6099 17.5899 60.57 17.4699 60.64 17.3499C60.69 17.2599 60.77 17.1999 60.89 17.2199C61.04 17.2399 61.12 17.3399 61.15 17.4799C61.42 18.7799 61.7999 20.0599 61.8499 21.3899C61.8699 21.7599 61.8899 22.1299 61.9099 22.4999Z" fill="#2F1909" stroke="#2F1909" stroke-width="0.32" stroke-linecap="round" stroke-linejoin="round"/>
<path fill-rule="evenodd" clip-rule="evenodd" d="M58.4699 147.67C58.6199 147.7 58.7799 147.71 58.8399 147.89C59.0899 148.67 59.6899 149.19 60.2299 149.76C60.3799 149.91 60.5499 150.05 60.7099 150.2C60.8299 150.14 60.7799 150.04 60.7799 149.96C60.8899 145.85 60.8399 141.74 60.7899 137.63C60.7599 135.39 60.5599 133.17 60.6299 130.93C60.6699 129.6 60.6299 128.27 60.7299 126.94C60.8099 125.81 60.5399 124.71 60.3299 123.61C59.5599 119.48 59.2799 115.31 59.3399 111.12C59.3699 109.24 59.4799 107.35 59.4199 105.46C59.4199 105.22 59.4999 105.06 59.7499 105.01C59.9399 105.09 60.0599 105.21 60.0199 105.44C59.7699 106.74 59.7799 108.06 59.7299 109.38C59.6299 112.2 59.6699 115.01 59.8899 117.81C60.0799 120.23 60.5099 122.6 61.1299 124.95C61.3599 125.82 61.2799 126.68 61.2199 127.55C61.1299 128.84 61.0299 130.14 61.0699 131.43C61.1799 136.22 61.1999 141 61.1899 145.79C61.1899 148.22 61.1899 150.66 61.1899 153.09C61.1399 153.26 61.0499 153.41 60.8499 153.36C60.6399 153.31 60.6299 153.14 60.6399 152.95C60.6799 152.31 60.7099 151.67 60.7299 151.03C60.7299 150.95 60.7799 150.85 60.6699 150.8C60.5799 150.76 60.5399 150.85 60.4899 150.9C60.2399 151.1 59.9699 151.26 59.6699 151.37C59.2299 151.53 58.7899 151.68 58.3499 151.82C58.1499 151.88 57.9399 151.93 57.7799 151.73C57.7599 151.42 57.9499 151.35 58.1999 151.33C58.8499 151.28 59.4399 151.03 59.9499 150.62C60.1099 150.5 60.1399 150.4 59.9899 150.21C59.4899 149.61 58.9399 149.05 58.4899 148.41C58.3799 148.26 58.2799 148.11 58.2799 147.91C58.3399 147.83 58.3999 147.76 58.4699 147.68V147.67Z" fill="#2F1909" stroke="#2F1909" stroke-width="0.32" stroke-linecap="round" stroke-linejoin="round"/>
<path fill-rule="evenodd" clip-rule="evenodd" d="M55.6899 105.26C55.9599 105.29 56.0599 105.45 56.0499 105.71C55.9199 108.54 55.9999 111.38 55.9599 114.21C55.9199 116.59 55.7499 118.96 55.6699 121.33C55.6199 122.88 55.4199 124.41 55.4999 125.96C55.5199 126.3 55.5699 126.62 55.7499 126.92C56.0299 127.42 56.1999 127.97 56.2099 128.54C56.2399 130 56.6099 131.4 56.9099 132.82C57.4199 135.28 57.7699 137.77 57.9399 140.28C58.0499 142.05 58.1699 143.82 58.2099 145.6C58.2199 146.05 58.2699 146.51 58.1599 146.97C57.7999 147.06 57.6499 146.97 57.6899 146.64C57.8399 145.36 57.7199 144.09 57.6699 142.82C57.6199 141.44 57.5599 140.06 57.4399 138.68C57.2699 136.68 56.9699 134.71 56.4899 132.76C56.2399 131.75 55.8899 130.76 55.7499 129.71C55.6799 129.16 55.7199 128.6 55.5899 128.06C55.5199 127.76 55.4299 127.47 55.2599 127.21C55.0399 126.89 54.9799 126.53 54.9899 126.15C55.0699 124.58 55.1999 123.02 55.2999 121.46C55.3899 120.12 55.4499 118.78 55.5199 117.44C55.6799 114.46 55.6799 111.47 55.6399 108.48C55.6299 107.53 55.6799 106.56 55.4599 105.62C55.4099 105.42 55.5499 105.32 55.7199 105.25L55.6899 105.26Z" fill="#2F1909" stroke="#2F1909" stroke-width="0.32" stroke-linecap="round" stroke-linejoin="round"/>
<path fill-rule="evenodd" clip-rule="evenodd" d="M59.4299 31.9301C59.0999 31.9801 58.6999 31.8501 58.2999 31.7801C58.1499 31.7501 58.0099 31.6801 57.9699 31.5001C57.9499 31.3901 57.9999 31.3101 58.0899 31.2501C58.2299 31.1501 58.3499 31.2501 58.4799 31.2901C59.4799 31.6301 60.4699 31.7401 61.4299 31.1801C61.4999 31.1401 61.5599 31.1001 61.6199 31.0601C61.7999 30.9401 61.9999 30.87 62.1199 31.11C62.2399 31.34 62.0599 31.4401 61.8799 31.5201C61.1299 31.8801 60.3299 31.9101 59.4299 31.9301Z" fill="#2F1909" stroke="#2F1909" stroke-width="0.32" stroke-linecap="round" stroke-linejoin="round"/>
<path fill-rule="evenodd" clip-rule="evenodd" d="M60.5299 26.08C60.2899 26.8 60.4199 27.55 60.5199 28.31C60.5499 28.56 60.6199 28.8 60.7299 29.02C60.7899 29.13 60.8099 29.25 60.7199 29.35C60.6599 29.42 60.5799 29.44 60.4799 29.41C60.3499 29.37 60.2999 29.26 60.2799 29.14C60.1399 28.13 60.0399 27.11 59.9899 26.09C59.9799 25.89 60.0499 25.73 60.2699 25.73C60.4599 25.73 60.5299 25.86 60.5299 26.07V26.08Z" fill="#2F1909" stroke="#2F1909" stroke-width="0.32" stroke-linecap="round" stroke-linejoin="round"/>
<path fill-rule="evenodd" clip-rule="evenodd" d="M57.53 27.1099C57.53 27.3199 57.5299 27.5199 57.4499 27.7199C57.3799 27.8999 57.2699 28.0199 57.0699 28.0299C56.8699 28.0299 56.7499 27.9299 56.6699 27.7499C56.4599 27.3399 56.5099 26.9299 56.6399 26.5099C56.6899 26.3299 56.8199 26.2199 57.0199 26.1999C57.2199 26.1899 57.3499 26.2899 57.4399 26.4599C57.5499 26.6599 57.54 26.8799 57.53 27.0999V27.1099Z" fill="#2F1909" stroke="#2F1909" stroke-width="0.32" stroke-linecap="round" stroke-linejoin="round"/>
<path fill-rule="evenodd" clip-rule="evenodd" d="M62.4999 26.7501C62.5499 26.4601 62.4599 26.15 62.7499 25.93C63.0499 25.7 63.3399 25.8 63.4199 26.18C63.4999 26.53 63.4599 26.87 63.3499 27.21C63.2799 27.43 63.1499 27.6101 62.8899 27.5901C62.6199 27.5701 62.5399 27.3601 62.5099 27.1301C62.4899 27.0001 62.4899 26.8701 62.4899 26.7501H62.4999Z" fill="#2F1909" stroke="#2F1909" stroke-width="0.32" stroke-linecap="round" stroke-linejoin="round"/>
<path fill-rule="evenodd" clip-rule="evenodd" d="M57.46 24.3101C57.58 24.3101 57.8 24.3501 58.02 24.4201C58.13 24.4501 58.2299 24.5301 58.1699 24.6601C58.1099 24.7901 58 24.7801 57.9 24.7201C57.2 24.3101 56.6099 24.6001 56.0399 25.0101C55.9299 25.0901 55.8299 25.2801 55.6999 25.1001C55.5899 24.9401 55.7699 24.8501 55.8799 24.7701C56.3299 24.4701 56.8199 24.3301 57.4699 24.3101H57.46Z" fill="#2F1909" stroke="#2F1909" stroke-width="0.32" stroke-linecap="round" stroke-linejoin="round"/>
<path fill-rule="evenodd" clip-rule="evenodd" d="M64.1199 24.31C64.0799 24.45 63.9799 24.51 63.8599 24.41C63.2799 23.98 62.6999 24.11 62.1099 24.38C62.0099 24.42 61.9099 24.4699 61.8499 24.3599C61.7799 24.2399 61.8699 24.1499 61.9699 24.1099C62.6299 23.8299 63.2999 23.83 63.9599 24.1C64.0699 24.14 64.1199 24.2199 64.1099 24.2999L64.1199 24.31Z" fill="#2F1909" stroke="#2F1909" stroke-width="0.32" stroke-linecap="round" stroke-linejoin="round"/>
</g>
</svg>
