<svg width="121" height="120" viewBox="0 0 121 120" fill="none" xmlns="http://www.w3.org/2000/svg">
<circle cx="60.6667" cy="60" r="60" fill="#BAE0E7"/>
<mask id="mask0_13967_9232" style="mask-type:alpha" maskUnits="userSpaceOnUse" x="0" y="0" width="121" height="120">
<circle cx="60.6667" cy="60" r="60" fill="#D9D9D9"/>
</mask>
<g mask="url(#mask0_13967_9232)">
<path fill-rule="evenodd" clip-rule="evenodd" d="M59.6514 95.892C59.9414 95.812 60.0014 95.632 59.8814 95.372C59.4514 94.392 59.1814 93.372 58.9714 92.332C58.9514 92.212 58.9114 92.092 58.9914 91.982C59.5014 91.232 59.6114 90.332 59.8414 89.482C60.1514 88.322 60.4114 87.152 60.6214 85.972C60.6414 85.852 60.6514 85.722 60.7614 85.562C60.8914 86.652 61.0414 87.702 61.1414 88.752C61.2014 89.352 61.3614 89.932 61.4214 90.532C61.6214 92.602 62.0614 94.622 62.4114 96.662C62.8114 98.982 63.3514 101.282 63.9114 103.562C64.1114 104.352 64.2014 104.422 65.0214 104.492C66.8114 104.642 68.6014 104.532 70.3814 104.392C71.1714 104.332 71.9714 104.262 72.7614 104.132C72.8314 104.122 72.9114 104.132 73.0014 104.132C72.8214 104.502 72.9114 104.872 72.9414 105.232C73.0714 106.612 73.1514 107.992 73.2014 109.382C73.3214 112.452 73.4214 115.512 73.4914 118.582C73.5714 122.192 73.6214 125.812 73.6314 129.422C73.6314 131.182 73.7214 132.932 73.7514 134.692C73.7714 135.682 73.7514 136.682 73.7614 137.672C73.7614 138.712 73.8114 139.742 73.7814 140.782C73.7214 142.712 73.7814 144.642 73.6314 146.572C73.5514 147.652 73.5014 148.732 73.4114 149.802C73.3814 150.122 73.3314 150.292 72.9314 150.292C71.5614 150.292 70.2114 150.492 68.9214 150.992C68.4614 151.172 68.0014 151.372 67.6414 151.712C66.7714 152.522 65.7314 152.662 64.6214 152.582C62.5814 152.432 60.5914 151.992 58.6214 151.452C57.3014 151.092 55.9814 150.762 54.7514 150.142C54.5514 150.042 54.3514 150.062 54.1514 150.112C54.1314 150.112 54.1114 150.102 54.0914 150.092C53.2814 149.942 53.2214 149.342 53.2214 148.692C53.3714 148.562 53.4314 148.402 53.4214 148.202C53.4114 147.892 53.4214 147.592 53.4114 147.282C53.3114 144.762 53.1814 142.242 53.0414 139.732C52.9114 137.332 52.6914 134.942 52.4614 132.552C52.2614 130.412 51.9814 128.282 51.7014 126.152C51.4114 123.862 51.0314 121.572 50.6914 119.292C50.2614 116.432 49.7214 113.592 49.2414 110.742C48.8614 108.502 48.5014 106.262 48.3914 103.992C48.3214 102.532 48.3114 101.062 48.3914 99.612C48.4714 97.782 48.6414 95.952 48.7714 94.122C48.8714 92.772 48.9714 91.422 49.0814 90.072C49.1414 89.312 49.2314 88.552 49.2814 87.792C49.3114 87.422 49.1914 87.302 48.8314 87.242C48.8514 87.112 48.8714 86.992 48.8814 86.862C49.1014 87.012 49.3614 86.972 49.6014 86.992C50.3214 87.042 51.0414 87.132 51.7614 87.052C52.0614 87.022 52.2114 87.092 52.1714 87.432C52.1514 87.612 52.1714 87.802 52.1714 87.992C52.1914 88.362 52.3414 88.502 52.7114 88.492C53.0014 88.492 53.2914 88.452 53.6014 88.432C52.9314 89.832 52.9314 91.332 52.7814 92.802C52.6614 94.032 52.5914 95.262 52.5114 96.492C52.4914 96.832 52.4914 97.172 52.4914 97.512C52.4914 97.702 52.5114 97.882 52.7014 97.992C52.9114 98.112 52.9914 97.882 53.1414 97.832C53.2014 97.852 53.2714 97.852 53.3214 97.892C53.8214 98.272 54.3814 98.492 55.0014 98.592C55.0914 98.822 55.1814 99.052 55.2914 99.272C55.3614 99.402 55.4814 99.502 55.6414 99.432C55.8014 99.362 55.8514 99.222 55.7914 99.052C55.7514 98.932 55.6614 98.822 55.7014 98.682C55.7414 98.572 55.8314 98.582 55.9214 98.582C56.2614 98.582 56.6114 98.602 56.9514 98.502C57.0514 98.682 57.1414 98.872 57.2514 99.042C57.3414 99.182 57.4614 99.282 57.6314 99.192C57.8014 99.102 57.8014 98.962 57.7514 98.802C57.6914 98.632 57.5414 98.492 57.5414 98.302C58.1114 97.872 58.6714 97.442 59.1714 96.932C59.3114 96.962 59.4614 97.042 59.5814 96.892C59.7014 96.742 59.6414 96.592 59.5514 96.452C59.5314 96.432 59.5314 96.392 59.5314 96.362C59.6014 96.202 59.7514 96.052 59.6614 95.842L59.6514 95.892Z" fill="#D9AD80"/>
<path fill-rule="evenodd" clip-rule="evenodd" d="M67.8314 34.3321C67.8714 34.5321 67.9514 34.7021 68.0514 34.8721C70.0214 37.8421 71.5314 41.0421 72.9514 44.3021C73.7814 46.2021 74.4914 48.1521 75.2214 50.0921C75.3214 50.3721 75.3913 50.6521 75.3813 50.9521C75.3813 52.4421 75.6414 53.9021 75.9514 55.3521C76.3614 57.2621 76.6113 59.2021 76.9113 61.1321C77.2013 63.0121 77.3813 64.9021 77.4913 66.7921C77.5313 67.4121 77.4114 67.9321 77.0114 68.4321C75.6014 70.1921 74.2714 72.0021 72.9014 73.7821C71.4914 75.6121 70.2613 77.5521 69.1313 79.5621C67.9713 81.6221 66.8313 83.7021 65.6813 85.7721C65.5613 85.9921 65.4513 86.2221 65.3513 86.4521C65.2813 86.6021 65.2114 86.6521 65.0514 86.5721C62.5014 85.4421 59.9814 84.2521 58.0614 82.1321C57.7414 81.7721 57.4214 81.4221 57.2514 80.9521C57.2014 80.8121 57.1014 80.7021 56.9314 80.7421C56.7614 80.7821 56.7213 80.9221 56.7113 81.0721C56.7113 81.1021 56.7113 81.1421 56.7113 81.1721C56.9713 81.6221 56.7214 82.0121 56.5514 82.4021C55.7614 84.1521 54.9513 85.8921 54.0713 87.6021C53.9813 87.7721 53.9114 87.8821 53.6814 87.8321C53.5214 87.8021 53.3313 87.8521 53.1613 87.8821C52.9013 87.9321 52.8014 87.8721 52.8014 87.5721C52.8014 86.3521 52.8014 85.1221 52.7814 83.9021C52.7614 82.1321 52.7114 80.3621 52.6814 78.6021C52.6214 75.4021 52.4814 72.2121 52.5514 69.0021C52.6114 66.2221 52.7013 63.4321 52.9113 60.6621C53.0713 58.5321 53.2813 56.3921 53.8813 54.3321C54.4513 52.3521 55.0914 50.3921 55.8414 48.4721C56.5214 46.7221 57.1414 44.9521 57.9314 43.2421C58.5014 42.0021 59.1014 40.7821 59.7014 39.5521C59.9114 39.1221 60.1414 38.7021 60.2614 38.2321C60.3314 37.9721 60.2914 37.7521 60.0114 37.6321C60.3714 37.0621 60.8514 36.5921 61.3014 36.0921C61.8014 35.5321 62.3313 35.0021 62.8513 34.4521C63.0913 34.6521 63.2713 34.5821 63.4313 34.3421C63.5013 34.2321 63.5714 34.1321 63.6514 34.0221C63.8014 34.0621 63.9314 33.9921 64.0614 33.9621C64.4814 33.8621 64.8913 33.6921 65.3213 33.6621C65.4613 33.8021 65.3213 33.8621 65.2413 33.9421C64.4113 34.8421 63.6814 35.8221 63.0914 36.9021C62.0614 38.7521 61.5913 40.7821 61.2713 42.8421C60.9313 45.0621 60.8914 47.3021 60.8314 49.5321C60.7614 52.5121 60.7914 55.4921 60.8614 58.4721C60.9214 60.8221 60.9013 63.1621 60.8213 65.5121C60.7413 67.8021 60.9214 70.0921 60.7614 72.3921C60.7514 72.6321 60.8314 72.8021 61.1214 72.7821C61.0914 73.1821 61.0113 73.5921 61.1613 73.9921C60.2013 75.1821 59.2514 76.3721 58.2914 77.5721C57.8914 78.0721 57.4614 78.5621 57.1214 79.1021C56.9914 79.3021 56.9314 79.5221 57.1814 79.6721C57.4214 79.8121 57.5514 79.6321 57.6714 79.4421C57.8514 79.1421 58.0313 78.8421 58.2413 78.5621C59.4313 77.0221 60.6113 75.4821 61.8213 73.9621C63.1313 72.3121 64.3213 70.6021 65.1613 68.6621C65.3713 68.1621 65.5513 67.6621 65.5213 67.1121C65.5113 66.8321 65.6114 66.6121 65.8014 66.4021C66.0714 66.1121 66.3314 65.8221 66.6414 65.5721C66.8114 65.4321 67.0014 65.2621 66.8114 65.0321C66.6114 64.8021 66.4214 64.9621 66.2514 65.1121C66.1714 65.1821 66.1114 65.2821 66.0014 65.3121C65.9214 65.2621 65.9314 65.1821 65.9214 65.1121C65.6614 63.1921 65.4213 61.2621 65.1313 59.3421C65.0313 58.6721 65.0413 58.0321 65.2713 57.3821C65.8313 55.8421 66.3413 54.2921 66.8813 52.7421C67.7813 50.1721 68.1813 47.4921 68.5213 44.8121C68.5413 44.6221 68.4713 44.4721 68.2713 44.4521C68.0713 44.4321 67.9713 44.5721 67.9613 44.7521C67.9513 44.9521 67.9613 45.1421 67.9613 45.3421C67.8813 48.2021 67.1614 50.9221 66.2014 53.6021C65.7114 54.9821 65.0913 56.3121 64.5713 57.6721C64.4113 58.0921 64.3514 58.5021 64.4414 58.9521C64.8114 60.7921 65.0714 62.6521 65.2314 64.5221C65.2614 64.9021 65.2014 65.3021 65.3714 65.6521C65.4514 65.8121 65.4513 65.9021 65.3213 66.0121C64.9713 66.3121 64.8614 66.7221 64.8714 67.1621C64.8714 67.4721 64.8414 67.7721 64.7314 68.0621C64.2414 69.3021 63.6214 70.4821 62.8914 71.6021C62.8514 71.6721 62.8314 71.7921 62.6914 71.7821C62.7314 70.1621 62.6013 68.5521 62.6313 66.9321C62.6513 65.4821 62.6814 64.0321 62.6514 62.5721C62.6014 59.9721 62.4614 57.3821 62.4414 54.7821C62.4114 50.2921 62.4014 45.8121 63.1514 41.3621C63.3914 39.9121 63.8314 38.5521 64.6214 37.3021C65.2014 36.3921 66.0114 35.7121 66.8014 35.0121C66.9414 34.8921 67.0514 34.7721 67.0414 34.5721C67.2914 34.5121 67.5413 34.4721 67.7713 34.3321C67.7713 34.3121 67.7914 34.3121 67.8114 34.3221L67.8314 34.3321Z" fill="#62A593"/>
<path fill-rule="evenodd" clip-rule="evenodd" d="M65.3414 33.6719C64.9014 33.7119 64.5014 33.8819 64.0814 33.9719C63.9414 34.0019 63.8114 34.0719 63.6714 34.0319C64.0514 33.2819 64.4314 32.5419 64.8114 31.7919C64.9614 31.5019 65.0514 31.1819 65.0314 30.8519C65.0314 30.6919 64.9414 30.5819 64.7714 30.5819C64.5914 30.5819 64.5214 30.6819 64.5014 30.8519C64.5014 31.0019 64.5014 31.1519 64.4614 31.3019C64.2714 32.0419 63.9514 32.7119 63.5214 33.3319C63.2914 33.6619 63.0114 33.9619 62.8414 34.3319C62.7714 34.3619 62.7114 34.4119 62.6414 34.4319C61.8914 34.6819 61.1614 34.9619 60.5214 35.4519C60.4814 35.4819 60.4314 35.6119 60.3614 35.4719C60.4514 35.0519 60.6714 34.6919 60.8714 34.3119C61.2414 33.6019 61.7014 32.9319 62.1114 32.2319C63.1414 30.5019 63.3914 28.6519 63.1414 26.7019C63.0414 25.8919 62.9014 25.0919 62.5314 24.3419C62.4314 24.1419 62.3214 23.9919 62.0814 23.9619C61.9914 23.8019 61.9014 23.6419 61.8114 23.4819C62.0014 23.3419 62.0814 23.1619 61.8814 22.9919C61.2014 22.3919 60.6214 21.6919 59.8914 21.1419C58.6314 20.1719 57.2614 19.3819 55.8814 18.6219C54.4914 17.8619 53.2114 16.9719 52.3014 15.6319C52.2814 15.5919 52.2514 15.5619 52.2114 15.5319C52.1114 15.4519 52.0014 15.4119 51.8814 15.4819C51.7614 15.5619 51.7514 15.6819 51.7814 15.8019C51.8214 15.9619 51.9314 16.0619 52.0314 16.1819C52.9514 17.1719 54.0214 17.9719 55.1914 18.6519C55.5014 18.8319 55.8414 18.9619 56.1014 19.2119C56.0714 19.2419 56.0414 19.2919 56.0114 19.2919C55.4814 19.2319 54.9413 19.1719 54.4114 19.1119C54.4114 18.8919 54.2814 18.8119 54.0914 18.7219C52.8914 18.1619 51.7714 17.5219 51.5014 16.0619C51.4714 15.9019 51.3514 15.8119 51.1914 15.8419C51.0314 15.8719 50.9514 15.9919 50.9614 16.1519C50.9614 16.2319 51.0114 16.3119 51.0414 16.4019C51.3314 17.1419 51.8814 17.6619 52.4614 18.1719C52.8214 18.4919 53.2514 18.7119 53.6114 19.0219C53.3114 19.2419 52.9314 19.2919 52.5914 19.4519C51.8014 18.8319 51.2014 18.0819 50.9814 17.0719C50.9514 16.9319 50.9114 16.8219 50.7714 16.7619C50.6714 16.7219 50.5814 16.7619 50.5114 16.8319C50.4014 16.9419 50.4214 17.0719 50.4714 17.2019C50.5014 17.2719 50.5414 17.3419 50.5814 17.4019C50.9514 18.0319 50.9714 18.0319 50.8414 18.7319C50.6514 19.7919 50.3414 20.8319 50.2014 21.9019C50.1814 22.0619 50.1114 22.0819 49.9814 21.9919C48.9714 21.2119 48.1214 20.3019 47.6414 19.1019C47.3414 18.3519 47.5414 17.6519 47.9414 16.9919C48.5214 16.0619 49.3614 15.4719 50.3514 15.0619C50.6214 14.9519 50.8914 14.9119 51.1814 14.9219C51.5914 14.9419 51.8014 14.6019 51.6014 14.2519C51.3914 13.8719 51.5414 13.5219 51.7114 13.1919C52.1614 12.3519 52.8814 11.8419 53.8014 11.6519C55.8814 11.2319 57.8514 11.6019 59.7514 12.4919C61.2214 13.1719 62.5314 14.0719 63.7014 15.1919C64.7414 16.1819 65.5714 17.3219 66.3314 18.5219C67.0214 19.6019 67.5514 20.7619 67.9614 21.9719C68.5414 23.6519 68.8514 25.3919 68.9414 27.1619C69.0214 28.7819 68.8314 30.3619 68.2014 31.8719C68.0814 32.1619 67.9414 32.4419 67.8114 32.7319C67.5214 32.8519 67.2314 32.9819 66.9514 33.1019C66.6214 33.2119 66.2914 33.3119 65.9614 33.4219C66.2914 32.7819 66.5514 32.1119 66.7714 31.4319C66.8414 31.2019 66.9014 30.9719 66.9514 30.7419C66.9814 30.5919 66.9114 30.4519 66.7414 30.4319C66.5614 30.4119 66.4414 30.5119 66.4314 30.6919C66.3414 31.6819 65.9414 32.5519 65.3714 33.3619C65.3114 33.4519 65.2814 33.5519 65.3014 33.6719H65.3414Z" fill="#D9AD80"/>
<path fill-rule="evenodd" clip-rule="evenodd" d="M66.0014 33.4321C66.3314 33.3221 66.6614 33.2221 66.9914 33.1121C67.2814 33.5121 67.6014 33.8821 67.8014 34.3421C67.5814 34.4721 67.3214 34.5221 67.0714 34.5821C66.8414 34.3021 66.6714 34.2921 66.4214 34.5221C66.1714 34.7621 65.9214 35.0121 65.6714 35.2521C64.4014 36.4821 63.4714 37.9221 63.0014 39.6421C62.6514 40.9321 62.4514 42.2521 62.3614 43.5721C62.1914 46.1721 62.0614 48.7821 62.0614 51.3921C62.0614 54.3821 62.0213 57.3721 62.1613 60.3721C62.2013 61.3521 62.1513 62.3321 62.1613 63.3221C62.1713 64.4721 62.1813 65.6121 62.1313 66.7621C62.0513 68.4021 62.0714 70.0321 62.0814 71.6721C62.0814 71.8621 62.1214 72.0521 62.3114 72.1421C62.4514 72.2121 62.4414 72.2721 62.3614 72.3921C61.9914 72.9421 61.6214 73.5021 61.1914 74.0121C61.0514 73.6121 61.1214 73.2021 61.1514 72.8021C61.3814 72.7021 61.4013 72.4921 61.4113 72.2821C61.4413 70.9621 61.5214 69.6421 61.4514 68.3221C61.4014 67.4721 61.3914 66.6221 61.4414 65.7721C61.5414 63.9921 61.5414 62.2121 61.5314 60.4321C61.5214 58.0521 61.4314 55.6721 61.4014 53.3021C61.3614 51.2521 61.3914 49.2021 61.5014 47.1521C61.5914 45.4321 61.6913 43.7121 62.0213 42.0121C62.5713 39.1421 63.5914 36.5021 65.7114 34.3921C65.8014 34.3021 65.9114 34.1821 65.8514 34.0821C65.7014 33.8021 65.9113 33.6521 66.0213 33.4521L66.0014 33.4321Z" fill="#D68D6D"/>
<path fill-rule="evenodd" clip-rule="evenodd" d="M49.3513 35.442C49.8713 35.152 50.4314 34.942 50.9214 34.582C51.4714 34.182 51.8713 33.652 52.2413 33.102C52.3413 32.962 52.3713 32.952 52.5213 33.052C52.9813 33.352 53.4814 33.562 54.0614 33.422C54.4414 33.332 54.8314 33.292 55.2214 33.222C55.3414 33.202 55.4214 33.222 55.5114 33.312C55.7114 33.522 55.8513 33.772 55.9613 34.032C56.5313 35.482 56.8613 36.992 57.0213 38.532C56.8713 38.502 56.7313 38.472 56.6613 38.662C56.5813 38.292 56.4713 38.242 56.1313 38.462C55.9313 38.442 55.7213 38.412 55.5213 38.392C55.2813 38.072 55.1814 38.062 54.9214 38.332C54.6214 38.262 54.3213 38.192 54.0213 38.112C54.5213 37.082 54.9514 36.022 55.1114 34.872C55.1414 34.652 55.1413 34.452 54.8813 34.422C54.6313 34.402 54.5814 34.612 54.5714 34.802C54.5613 35.082 54.5414 35.372 54.4814 35.642C54.2914 36.452 53.9913 37.222 53.4613 37.872C52.8713 37.672 52.2813 37.482 51.7713 37.102C52.4013 36.362 52.9313 35.562 53.2713 34.642C53.3513 34.442 53.4214 34.242 53.1714 34.152C52.9314 34.062 52.8214 34.242 52.7614 34.452C52.6714 34.782 52.5814 35.102 52.4214 35.402C52.1214 35.952 51.8314 36.522 51.2314 36.822C50.5314 36.462 49.8814 36.042 49.3714 35.432L49.3513 35.442Z" fill="#D9AD80"/>
<path fill-rule="evenodd" clip-rule="evenodd" d="M61.4113 85.4521C62.4413 85.9821 63.4114 86.4821 64.3914 86.9821C64.6014 87.0921 64.8214 87.1921 65.0514 87.2721C65.4714 87.4221 65.7014 87.3021 65.8914 86.9021C66.1114 86.4421 66.3314 85.9821 66.5414 85.5121C66.6614 85.2321 66.8214 85.0721 67.1514 84.9821C67.6514 84.8521 68.1414 84.6521 68.6414 84.5021C69.7414 84.1821 70.8614 83.9521 71.9814 83.6921C73.8614 83.2521 75.7313 82.7721 77.6013 82.3321C78.5913 82.1021 79.5714 81.8721 80.5414 81.5621C81.2914 81.3221 81.3114 81.2621 81.0814 80.5121C80.3214 78.0421 79.4114 75.6221 78.5414 73.1921C78.0814 71.9021 77.6714 70.5921 77.2314 69.2921C77.1614 69.0721 77.3114 68.9621 77.4314 68.9021C77.5914 68.8221 77.5813 69.0321 77.6313 69.1221C78.7813 71.6121 79.6813 74.1921 80.5613 76.7821C81.1413 78.4921 81.7213 80.2121 82.2513 81.9421C82.4813 82.6821 82.8414 83.3921 83.1114 84.1221C83.9114 86.2521 84.5714 88.4121 85.0214 90.6421C85.4014 92.5421 85.8314 94.4421 86.3014 96.3221C86.5514 97.3121 86.8714 98.2921 87.0114 99.3121C87.0114 99.3721 87.0314 99.4421 87.0414 99.5021C87.1214 99.9221 86.9614 100.182 86.5814 100.392C85.6314 100.922 84.5814 101.192 83.5514 101.502C81.2914 102.192 78.9714 102.712 76.6514 103.162C74.9114 103.502 73.1414 103.702 71.3714 103.872C69.6314 104.042 67.8814 104.072 66.1414 103.992C65.7314 103.972 65.3213 103.902 64.9113 103.832C64.7213 103.802 64.6314 103.702 64.5814 103.532C64.0814 101.912 63.6514 100.282 63.3314 98.6221C63.1914 97.8921 63.0413 97.1721 62.8813 96.4421C62.6413 95.3421 62.4314 94.2421 62.2514 93.1321C61.8714 90.7021 61.5414 88.2521 61.4214 85.7921C61.4214 85.6921 61.4214 85.5821 61.4214 85.4421L61.4113 85.4521ZM81.5414 82.4421C81.5514 82.2021 81.5114 82.0121 81.2714 81.9921C81.0314 81.9721 80.9813 82.1521 80.9413 82.3521C80.7413 83.5121 80.4713 84.6521 80.0013 85.7521C79.4913 86.9421 78.8514 88.0521 78.0914 89.1021C76.8814 90.7621 75.5514 92.3021 73.7514 93.3521C73.5714 93.4621 73.4114 93.6021 73.5314 93.8221C73.6614 94.0621 73.8814 94.0121 74.0714 93.8921C74.3314 93.7421 74.5914 93.5721 74.8414 93.3921C76.4814 92.1421 77.7213 90.5321 78.8813 88.8721C79.9913 87.2921 80.7514 85.5521 81.2114 83.6721C81.3114 83.2521 81.4214 82.8221 81.5114 82.4321L81.5414 82.4421ZM72.6514 93.8321C72.9214 93.8321 73.1014 93.7621 73.0914 93.5021C73.0814 93.2521 72.9014 93.2221 72.6914 93.2421C72.4014 93.2621 72.1214 93.1821 71.8614 93.0921C70.0414 92.4721 68.5314 91.3421 67.0914 90.1221C66.3714 89.5021 65.7614 88.7621 65.1414 88.0521C64.9714 87.8621 64.7814 87.5621 64.5014 87.8221C64.2314 88.0721 64.5114 88.2721 64.6714 88.4521C66.3314 90.3621 68.2914 91.9221 70.5014 93.1421C71.1814 93.5221 71.9214 93.7321 72.6514 93.8421V93.8321ZM74.3714 89.6421C73.5914 89.6421 72.7413 90.6321 72.8513 91.4021C72.9513 92.1121 73.9114 92.5921 74.4214 92.1721C74.8714 91.8021 75.1814 91.3321 75.2814 90.7421C75.3814 90.1421 74.9514 89.6321 74.3714 89.6421Z" fill="#D68D6D"/>
<path fill-rule="evenodd" clip-rule="evenodd" d="M54.6914 40.112C54.3814 42.152 53.7414 44.092 53.0014 46.012C52.0514 48.482 51.0714 50.952 50.1914 53.442C49.9214 54.202 49.9514 54.952 50.0314 55.732C50.3814 58.992 50.5214 62.262 50.3114 65.532C50.2614 66.342 50.2914 67.142 50.2814 67.952C50.2814 69.442 50.1914 70.942 50.2814 72.432C50.3714 73.992 50.5613 75.542 50.7713 77.082C50.8913 77.992 51.0014 78.902 51.1414 79.802C51.1714 80.012 51.1914 80.282 51.5314 80.242C51.7414 80.922 51.8313 81.632 51.9913 82.322C52.0513 82.572 52.0313 82.862 52.2413 83.072C52.2913 84.152 52.1914 85.232 52.1914 86.312C52.1914 86.512 52.0613 86.512 51.9313 86.512C50.9213 86.572 49.9314 86.472 48.9414 86.252C47.4314 85.912 45.9613 85.392 44.4313 85.152C43.3413 84.982 42.2414 84.932 41.1414 85.102C40.7514 85.162 40.7413 85.152 40.7713 84.752C40.9113 83.102 41.2413 81.492 41.6013 79.882C42.2213 77.072 43.1413 74.332 44.0113 71.592C44.6113 69.692 45.1514 67.772 45.7514 65.862C46.3014 64.102 46.7514 62.312 47.1114 60.502C47.4214 58.952 47.6314 57.382 47.7814 55.812C47.8514 55.042 47.8914 54.262 47.8614 53.492C47.8214 52.582 48.1314 51.782 48.5014 50.982C49.1814 49.472 50.0613 48.082 50.9313 46.682C51.9913 44.972 52.9013 43.182 53.8513 41.422C54.1013 40.952 54.3913 40.502 54.6613 40.042C54.6813 40.062 54.7013 40.082 54.7113 40.102L54.6914 40.112Z" fill="#62A593"/>
<path fill-rule="evenodd" clip-rule="evenodd" d="M54.4214 19.1219C54.9514 19.1819 55.4914 19.2419 56.0214 19.3019C56.0514 19.3019 56.0814 19.2519 56.1114 19.2219C56.1414 19.2219 56.1814 19.2219 56.2114 19.2419C57.7814 20.1019 59.3114 21.0119 60.6214 22.2519C60.9514 22.5619 61.2714 22.8719 61.4514 23.2919C61.5214 23.4419 61.6414 23.5319 61.8214 23.5019C61.9114 23.6619 62.0014 23.8219 62.0914 23.9819C61.8714 24.1119 61.8414 24.2919 61.9814 24.5019C62.5314 25.3619 62.6814 26.3219 62.7314 27.3119C62.7614 27.7919 62.8214 28.2719 62.7414 28.7519C62.7114 28.9319 62.6814 29.0619 62.5314 29.1919C62.3014 29.3919 62.1414 29.6619 61.9214 29.8719C61.4114 30.3819 60.7914 30.7319 60.1514 31.0319C58.6314 31.7519 57.0614 32.3519 55.4214 32.7219C54.8414 32.8519 54.2614 32.9919 53.6414 32.9319C53.1114 32.8819 52.7414 32.5919 52.4514 32.2119C51.6514 31.1819 51.0514 30.0419 50.6014 28.8119C50.1814 27.6519 50.0514 26.4619 50.1514 25.2419C50.3414 23.0419 50.7014 20.8719 51.3314 18.7219C51.5414 18.9019 51.6514 19.1219 51.8014 19.3119C51.9214 19.4719 52.0314 19.6219 52.1614 19.7719C52.2814 19.9119 52.4214 20.0419 52.6114 19.9119C52.8114 19.7719 52.7114 19.6119 52.6114 19.4619C52.9414 19.3019 53.3214 19.2519 53.6314 19.0319C53.7514 19.0919 53.8714 19.1419 53.9814 19.2019C54.1614 19.3019 54.3114 19.3019 54.4314 19.1319L54.4214 19.1219ZM52.1814 26.0119C52.2814 26.5519 52.3814 27.1219 52.4914 27.6919C52.5214 27.8319 52.6314 27.9319 52.7814 27.8919C52.9514 27.8619 53.0014 27.7319 52.9814 27.5719C52.9614 27.4719 52.9314 27.3819 52.9214 27.2819C52.8414 26.6719 52.6814 26.0619 52.9714 25.4519C53.2114 24.9419 53.4414 24.4319 53.6214 23.8919C53.8914 23.0619 53.9314 22.2019 54.0714 21.3519C54.1014 21.1519 54.0314 20.9519 53.7914 20.9619C53.5314 20.9619 53.4914 21.1719 53.5114 21.3819C53.5214 21.5419 53.5614 21.7119 53.5514 21.8719C53.4914 23.1719 53.1514 24.3819 52.3814 25.4519C52.2714 25.6119 52.1614 25.7819 52.1814 26.0119ZM55.7114 29.7819C55.9014 29.7719 56.0114 29.7619 56.1214 29.7519C56.1514 29.7519 56.1914 29.7519 56.2214 29.7519C56.3914 29.7319 56.5214 29.6419 56.5014 29.4619C56.4814 29.2719 56.3414 29.2119 56.1614 29.2319C55.7114 29.2719 55.2614 29.3919 54.8014 29.3719C54.0814 29.3519 53.3614 29.3919 52.7314 28.9319C52.6114 28.8419 52.4714 28.8619 52.3814 28.9819C52.2714 29.1319 52.3014 29.2819 52.4314 29.3919C52.6214 29.5619 52.8714 29.6319 53.1214 29.6719C54.0114 29.8119 54.9114 29.6919 55.7214 29.7919L55.7114 29.7819ZM58.1214 23.8519C58.0914 23.5719 58.0514 23.2719 57.7114 23.2219C57.3714 23.1619 57.2814 23.4519 57.2014 23.7019C57.0914 24.0519 57.0014 24.4119 57.0214 24.7919C57.0314 25.0219 57.0914 25.2319 57.3514 25.2919C57.6314 25.3619 57.7814 25.1819 57.8714 24.9619C58.0314 24.6119 58.0614 24.2319 58.1114 23.8619L58.1214 23.8519ZM52.5314 23.3419C52.5314 23.0919 52.5014 22.8519 52.2114 22.7919C51.9314 22.7319 51.8014 22.9219 51.7014 23.1419C51.5414 23.5119 51.5014 23.8919 51.5214 24.2919C51.5214 24.5119 51.6114 24.6819 51.8414 24.7219C52.0714 24.7719 52.2114 24.6219 52.3014 24.4319C52.4714 24.0819 52.4714 23.6919 52.5314 23.3319V23.3419ZM56.4614 21.6819C56.3214 21.7019 56.1114 21.6119 56.1014 21.8419C56.1014 22.0419 56.2914 22.0419 56.4514 22.0519C56.4714 22.0519 56.4914 22.0519 56.5214 22.0519C56.8214 22.0419 57.1114 22.0819 57.3714 22.2319C57.4814 22.2919 57.6214 22.3319 57.6814 22.1819C57.7514 22.0119 57.6214 21.9319 57.4914 21.8919C57.1614 21.7819 56.8214 21.7219 56.4714 21.6719L56.4614 21.6819ZM51.7114 21.2719C51.7114 21.2719 51.5514 21.2719 51.4314 21.2919C51.3014 21.3119 51.2014 21.3919 51.2314 21.5319C51.2614 21.6619 51.3714 21.6919 51.4814 21.6619C51.6714 21.6019 51.8514 21.5919 52.0514 21.6419C52.1514 21.6719 52.2514 21.6019 52.2614 21.4919C52.2814 21.3819 52.2014 21.3019 52.0914 21.2919C51.9814 21.2719 51.8814 21.2819 51.6914 21.2719H51.7114Z" fill="white"/>
<path fill-rule="evenodd" clip-rule="evenodd" d="M52.2313 83.0919C52.0213 82.882 52.0413 82.6019 51.9813 82.3419C51.8213 81.652 51.7313 80.9419 51.5213 80.2619C51.7813 80.1219 51.7413 79.882 51.7013 79.6619C51.5813 78.952 51.4413 78.2519 51.3213 77.5419C51.1213 76.3219 50.9913 75.1019 50.8713 73.8719C50.7013 72.1519 50.7614 70.4219 50.8114 68.7019C50.8814 65.9819 50.9713 63.2619 50.9113 60.5519C50.8713 58.7419 50.7214 56.9319 50.5814 55.1319C50.5214 54.2819 50.7513 53.4919 51.0213 52.7019C52.1113 49.5219 53.3614 46.4019 54.5514 43.2619C54.9014 42.3419 55.4814 41.7519 56.1914 41.1919C56.3514 41.0619 56.4413 41.1119 56.5713 41.2319C56.9913 41.6019 57.2514 42.1119 57.6914 42.4619C57.8014 42.5519 57.7314 42.6419 57.6914 42.7219C56.3214 45.7419 55.1914 48.8619 54.0614 51.9819C53.6514 53.1119 53.2714 54.2419 52.9414 55.4019C52.7914 55.9419 52.7713 56.5219 52.7313 57.0919C52.5613 59.1419 52.3714 61.2019 52.3114 63.2619C52.2514 65.3719 52.1914 67.4719 52.1714 69.5819C52.1514 72.2319 52.1613 74.8819 52.2113 77.5319C52.2413 79.3919 52.2413 81.2419 52.2413 83.1019L52.2313 83.0919Z" fill="white"/>
<path fill-rule="evenodd" clip-rule="evenodd" d="M56.9514 98.5519C56.6114 98.6519 56.2714 98.6219 55.9214 98.6319C55.8414 98.6319 55.7414 98.6119 55.7014 98.7319C55.4514 98.4219 55.4014 98.0419 55.2514 97.6919C54.7314 96.4919 54.3314 95.2619 54.5614 93.9219C54.6114 93.6319 54.6214 93.3319 54.6314 93.0419C54.6314 92.8219 54.5714 92.6019 54.3014 92.6119C54.0314 92.6219 54.0314 92.8319 54.0514 93.0519C54.0914 93.3819 54.0814 93.7019 54.0414 94.0319C53.9114 95.0819 53.9014 96.1119 54.4214 97.0919C54.6814 97.5719 54.8114 98.1219 55.0014 98.6419C54.3814 98.5519 53.8214 98.3219 53.3214 97.9419C53.2714 97.9019 53.2014 97.9019 53.1414 97.8819C52.9314 97.3119 53.0114 96.7219 53.0514 96.1319C53.1414 94.4519 53.2814 92.7819 53.5314 91.1119C53.6714 90.1719 53.9014 89.2519 54.3114 88.3919C55.2214 86.4919 56.1414 84.5819 57.0614 82.6719C57.1314 82.5219 57.2114 82.3819 57.3014 82.2219C57.9214 82.8819 58.5314 83.5219 59.2514 84.0419C59.5514 84.2619 59.8614 84.4619 60.1714 84.6719C60.2414 84.7219 60.3714 84.7419 60.3114 84.8819C60.1014 85.3519 60.1014 85.8619 60.0014 86.3419C59.7014 87.8119 59.3414 89.2719 58.9014 90.7119C58.8114 91.0119 58.6914 91.3019 58.5014 91.5619C58.3214 91.8219 58.2814 92.1119 58.3614 92.4119C58.6414 93.4419 58.8914 94.4819 59.2714 95.4819C59.3414 95.6619 59.4114 95.8519 59.6514 95.8919C59.7414 96.1019 59.5914 96.2419 59.5214 96.4119C59.4514 96.3319 59.3814 96.2519 59.3214 96.1519C58.8114 95.2919 58.2414 94.4619 57.8814 93.5119C57.8114 93.3219 57.6714 93.1719 57.4614 93.2719C57.2314 93.3719 57.2714 93.5619 57.3714 93.7419C57.5714 94.1119 57.7714 94.4919 57.9814 94.8619C58.3714 95.5619 58.7714 96.2719 59.1614 96.9719C58.6614 97.4819 58.1014 97.9119 57.5314 98.3419C57.5114 98.3219 57.4814 98.3019 57.4614 98.2719C56.8314 96.9919 56.1414 95.7319 56.2914 94.2319C56.2914 94.1919 56.2914 94.1419 56.2914 94.1019C56.2714 93.8919 56.1714 93.7319 55.9414 93.7619C55.7214 93.7919 55.6814 93.9719 55.7214 94.1619C55.8014 94.5519 55.8014 94.9419 55.7914 95.3319C55.7814 95.7819 55.8814 96.1919 56.0614 96.5919C56.3614 97.2419 56.6514 97.9019 56.9414 98.5519H56.9514Z" fill="white"/>
<path fill-rule="evenodd" clip-rule="evenodd" d="M75.5714 71.082C75.7814 71.982 75.9014 72.802 76.0414 73.622C76.4814 76.232 76.7214 78.872 77.1814 81.482C77.2414 81.832 77.1414 81.892 76.8614 81.962C75.5314 82.282 74.2014 82.642 72.8614 82.942C71.0414 83.352 69.2214 83.742 67.4214 84.202C67.3814 84.212 67.3414 84.202 67.2914 84.212C69.5114 79.512 72.1614 75.112 75.5714 71.072V71.082Z" fill="#62A593"/>
<path fill-rule="evenodd" clip-rule="evenodd" d="M40.4714 66.9721C40.3114 67.2521 40.0914 67.4221 39.9714 67.6721C39.8714 67.8821 39.7914 68.0821 39.9414 68.2821C40.0814 68.4721 40.3014 68.4921 40.5114 68.4421C40.8014 68.3621 40.8414 68.4721 40.7914 68.7221C40.5414 69.9621 40.2814 71.2021 40.0814 72.4421C39.9714 73.1421 39.6314 73.5221 38.9414 73.6621C38.1214 73.8221 37.3214 73.8621 36.5514 73.4421C36.4114 73.3621 36.3013 73.2821 36.2713 73.1121C36.0413 71.4021 35.6813 69.7221 35.6013 67.9921C35.5913 67.7021 35.5714 67.4021 35.5714 67.1121C35.5714 66.9721 35.6214 66.9021 35.7914 66.9421C36.8514 67.1821 37.9314 67.1921 39.0114 67.1421C39.4814 67.1221 39.9514 67.0421 40.4814 66.9821L40.4714 66.9721Z" fill="#D9AD80"/>
<path fill-rule="evenodd" clip-rule="evenodd" d="M60.3614 35.472C60.4314 35.612 60.4813 35.472 60.5213 35.452C61.1513 34.962 61.8914 34.682 62.6414 34.432C62.7114 34.412 62.7714 34.362 62.8414 34.332C62.8514 34.372 62.8614 34.422 62.8714 34.462C62.3514 35.002 61.8213 35.542 61.3213 36.102C60.8813 36.602 60.4014 37.072 60.0314 37.642C59.8114 37.692 59.6214 37.812 59.4313 37.942C58.9114 38.312 58.3213 38.552 57.7713 38.842C57.5913 38.942 57.6314 38.742 57.6114 38.652C57.3814 37.332 57.1014 36.022 56.7514 34.732C56.6114 34.212 56.4514 33.682 56.1514 33.222C56.0214 33.032 56.0713 32.982 56.2713 32.922C57.4313 32.582 58.5613 32.152 59.6813 31.682C60.6714 31.272 61.6014 30.752 62.4514 30.072C62.3814 30.442 62.2613 30.792 62.1013 31.122C61.5113 32.372 60.7314 33.522 60.0514 34.732C59.8014 35.172 59.6214 35.632 59.4814 36.122C59.4214 36.332 59.4313 36.542 59.6813 36.602C59.9513 36.662 59.9814 36.442 60.0314 36.242C60.1014 35.972 60.1514 35.692 60.3614 35.482V35.472Z" fill="white"/>
<path fill-rule="evenodd" clip-rule="evenodd" d="M38.0514 66.7121C36.9114 66.7321 35.9114 66.5021 34.9414 66.0921C34.7114 65.9921 34.7414 65.8821 34.8414 65.7221C34.9514 65.5621 35.1114 65.4721 35.2914 65.4121C35.5714 65.3221 35.7414 65.1321 35.7714 64.8521C35.8214 64.2121 36.2114 63.8721 36.7814 63.7721C37.9414 63.5621 39.0914 63.5021 40.2314 63.9321C40.6314 64.0821 40.8314 64.3421 40.8314 64.7621C40.8314 65.1221 40.8614 65.4521 41.2914 65.5921C41.4614 65.6521 41.5114 65.8521 41.5114 66.0321C41.5114 66.2421 41.3214 66.2621 41.1914 66.3021C40.6514 66.4921 40.0914 66.5621 39.5314 66.6321C39.0114 66.7021 38.4914 66.7721 38.0614 66.7221L38.0514 66.7121ZM38.7914 65.3021C38.9714 65.2921 39.2514 65.2921 39.5314 65.2521C39.8314 65.2121 40.1414 65.1421 40.3514 64.8921C40.4614 64.7621 40.4914 64.6121 40.3514 64.4821C40.2214 64.3621 40.0814 64.3921 39.9814 64.5221C39.8914 64.6221 39.8014 64.7121 39.6714 64.7421C38.8014 64.9321 37.9214 64.9921 37.0714 64.6221C36.8714 64.5321 36.6714 64.4821 36.5814 64.7321C36.5014 64.9621 36.6814 65.0621 36.8714 65.1221C36.9514 65.1521 37.0414 65.1621 37.1314 65.1821C37.6414 65.2821 38.1714 65.2921 38.8014 65.3021H38.7914Z" fill="#62A593"/>
<path fill-rule="evenodd" clip-rule="evenodd" d="M40.4913 67.9019C40.5813 67.6819 40.7214 67.5419 40.8614 67.4019C40.9414 67.3219 41.0614 67.2519 41.0414 67.1419C41.0014 66.8119 41.2114 66.8019 41.4414 66.7619C42.0014 66.6419 42.1914 66.3019 42.0314 65.7419C42.0114 65.6619 41.9814 65.5819 41.9514 65.4719C42.5214 65.4119 43.0314 65.5619 43.5514 65.7419C44.0614 65.9219 44.5314 66.2219 45.0814 66.2919C45.2214 66.3119 45.1714 66.3919 45.1514 66.4519C44.8714 67.3619 44.5914 68.2619 44.3114 69.1719C44.2914 69.2519 44.2413 69.3019 44.1613 69.3319C43.2913 69.6019 42.5014 70.0919 41.6214 70.3519C41.4014 70.4119 41.1014 70.5819 40.9814 70.4519C40.8514 70.3119 40.9914 70.0119 41.0414 69.7719C41.1314 69.3619 41.2014 68.9419 41.3014 68.5219C41.3714 68.2119 41.5214 68.1619 41.8114 68.3019C42.1014 68.4419 42.4113 68.4219 42.7113 68.3719C42.8713 68.3419 42.9814 68.2219 42.9414 68.0319C42.9014 67.8619 42.7614 67.8119 42.6114 67.8419C42.3614 67.9119 42.1414 67.8819 41.9514 67.6919C41.8614 67.6019 41.7214 67.6519 41.6114 67.6719C41.2514 67.7419 40.8913 67.8119 40.4913 67.8819V67.9019Z" fill="white"/>
<path fill-rule="evenodd" clip-rule="evenodd" d="M56.6613 38.6619C56.7213 38.4719 56.8713 38.5019 57.0213 38.5319C57.2113 39.0619 57.0214 39.3719 56.5014 39.5519C56.2814 39.6219 56.1413 39.8019 56.2713 40.0319C56.4113 40.2919 56.6314 40.2219 56.8314 40.0919C57.5914 39.5919 58.3814 39.1719 59.1914 38.7619C59.2514 38.7319 59.3114 38.6519 59.3914 38.7119C59.4414 38.7619 59.3913 38.8119 59.3813 38.8619C58.9213 39.8819 58.4614 40.9019 58.0014 41.9419C57.6414 41.6519 57.4213 41.2819 57.1313 40.9719C56.4113 40.1719 56.3214 40.2719 55.6714 40.8619C55.4914 41.0319 55.2914 41.1819 55.0714 41.3219C55.2014 40.7519 55.1613 40.1419 55.6613 39.6919C56.0213 39.3719 56.3713 39.0419 56.6613 38.6619Z" fill="white"/>
<path fill-rule="evenodd" clip-rule="evenodd" d="M34.9914 67.092C35.2614 68.522 35.3014 69.972 35.5314 71.432C35.3014 71.302 35.2014 71.132 35.1914 70.902C35.1914 70.782 35.1714 70.662 35.1914 70.542C35.2814 70.092 35.1514 69.742 34.7914 69.442C34.5214 69.222 34.5114 68.992 34.7514 68.672C34.9814 68.372 35.0314 68.112 34.8014 67.792C34.6014 67.512 34.8414 67.312 34.9914 67.092Z" fill="white"/>
<path fill-rule="evenodd" clip-rule="evenodd" d="M55.5213 38.3921C55.7213 38.4121 55.9313 38.4421 56.1313 38.4621C55.8413 38.7821 55.5114 39.0621 55.1514 39.3121C55.2014 38.9621 55.5413 38.7521 55.5213 38.3921Z" fill="#62A593"/>
<path fill-rule="evenodd" clip-rule="evenodd" d="M54.6414 40.0621C54.6414 40.0621 54.7013 40.0121 54.7113 40.0221C54.7613 40.0521 54.7314 40.0921 54.7014 40.1221C54.6814 40.1021 54.6614 40.0821 54.6514 40.0621H54.6414Z" fill="#62A593"/>
<path fill-rule="evenodd" clip-rule="evenodd" d="M74.7214 90.652C74.6614 91.022 74.4614 91.372 74.1414 91.632C73.9914 91.762 73.7814 91.652 73.6214 91.582C73.4914 91.532 73.4613 91.392 73.4613 91.252C73.4613 90.862 73.8614 90.352 74.2314 90.252C74.5114 90.182 74.7114 90.322 74.7214 90.652Z" fill="#D68D6D"/>
<path fill-rule="evenodd" clip-rule="evenodd" d="M87.7714 100.262C87.4814 100.792 86.9414 100.972 86.4314 101.162C85.0814 101.652 83.6813 101.992 82.2813 102.322C80.5513 102.732 78.8214 103.142 77.0914 103.502C75.9314 103.742 74.7714 103.882 73.6014 104.062C73.5314 104.072 73.4514 104.062 73.3814 104.152C73.5614 104.302 73.5414 104.522 73.5514 104.742C73.6014 106.792 73.6614 108.842 73.7114 110.892C73.7914 113.792 73.8714 116.702 73.9314 119.602C74.0014 122.722 74.0614 125.852 74.1314 128.972C74.1714 130.992 74.1914 133.012 74.2214 135.032C74.2614 137.252 74.2414 139.462 74.2514 141.682C74.2614 144.272 74.1714 146.852 73.9514 149.432C73.9214 149.832 73.8314 150.242 73.9714 150.662C74.0514 150.892 73.8514 151.012 73.6114 151.002C73.1314 151.002 72.6514 150.982 72.1714 150.982C71.2114 150.982 70.2914 151.212 69.3414 151.512C69.5714 151.732 69.4614 151.982 69.4614 152.222C69.4614 153.682 69.7214 155.102 70.0814 156.512C70.2614 157.202 70.6014 157.802 70.9814 158.382C71.8414 159.712 72.2614 161.142 72.1114 162.722C72.0614 163.252 72.1114 163.792 72.0314 164.322C71.9814 164.702 71.8214 165.002 71.4914 165.202C71.1214 165.432 70.7414 165.652 70.3514 165.832C70.0514 165.972 69.7714 165.952 69.5414 165.722C69.3814 165.562 69.2214 165.572 69.0314 165.652C68.5114 165.852 68.0714 166.172 67.6614 166.522C67.2613 166.862 66.8714 167.212 66.4914 167.572C65.8414 168.212 65.0614 168.602 64.2314 168.912C63.0514 169.352 61.8514 169.742 60.6114 170.002C60.3114 170.062 60.0114 170.092 59.7014 170.132C59.2714 170.132 58.8514 170.132 58.4214 170.132C57.4614 170.022 56.5814 169.732 55.8714 169.032C55.2714 168.442 54.9114 167.342 55.6014 166.492C55.6414 166.472 55.6714 166.432 55.6314 166.402C55.5914 166.372 55.5414 166.382 55.4914 166.422C54.3714 166.782 53.2514 166.872 52.1514 166.332C51.6914 166.102 51.2514 165.842 50.9114 165.442C50.4014 164.842 50.3913 164.372 50.9114 163.792C51.6814 162.942 52.5414 162.182 53.3914 161.412C54.0714 160.802 54.8814 160.332 55.4514 159.602C56.1714 158.682 56.7314 157.652 57.2814 156.632C57.4114 156.382 57.5114 156.112 57.6514 155.872C58.1114 155.062 58.1614 154.202 58.0014 153.312C57.9314 152.862 57.7814 152.422 57.8614 151.962C57.8814 151.812 57.7314 151.842 57.6514 151.822C56.8514 151.612 56.0514 151.402 55.2714 151.132C54.9514 151.022 54.6414 150.882 54.3414 150.742C54.0114 150.592 53.9814 150.472 54.1514 150.152C54.3614 150.102 54.5614 150.082 54.7514 150.182C55.9814 150.802 57.3014 151.132 58.6214 151.492C60.5914 152.032 62.5814 152.472 64.6214 152.622C65.7314 152.702 66.7714 152.562 67.6414 151.752C68.0014 151.412 68.4514 151.212 68.9214 151.032C70.2114 150.532 71.5514 150.332 72.9314 150.332C73.3414 150.332 73.3913 150.162 73.4114 149.842C73.5014 148.762 73.5513 147.682 73.6314 146.612C73.7814 144.682 73.7214 142.752 73.7814 140.822C73.8114 139.782 73.7714 138.752 73.7614 137.712C73.7614 136.722 73.7614 135.722 73.7514 134.732C73.7114 132.972 73.6314 131.222 73.6314 129.462C73.6314 125.852 73.5814 122.232 73.4914 118.622C73.4214 115.552 73.3214 112.482 73.2014 109.422C73.1514 108.032 73.0614 106.652 72.9414 105.272C72.9014 104.902 72.8214 104.542 73.0014 104.172C72.9014 104.172 72.8314 104.152 72.7614 104.172C71.9714 104.302 71.1814 104.372 70.3814 104.432C68.5914 104.572 66.8114 104.682 65.0214 104.532C64.2014 104.462 64.1114 104.392 63.9114 103.602C63.3514 101.312 62.8113 99.022 62.4114 96.702C62.0613 94.662 61.6214 92.632 61.4214 90.572C61.3614 89.972 61.2114 89.392 61.1414 88.792C61.0314 87.742 60.8914 86.692 60.7614 85.602C60.6514 85.752 60.6414 85.882 60.6214 86.012C60.4014 87.192 60.1414 88.362 59.8414 89.522C59.6114 90.372 59.5114 91.262 58.9914 92.022C58.9114 92.132 58.9514 92.252 58.9714 92.372C59.1814 93.412 59.4514 94.432 59.8814 95.412C60.0014 95.672 59.9414 95.852 59.6514 95.932C59.4214 95.892 59.3514 95.702 59.2714 95.522C58.8814 94.522 58.6414 93.482 58.3614 92.452C58.2814 92.162 58.3214 91.862 58.5014 91.602C58.6814 91.342 58.8014 91.052 58.9014 90.752C59.3514 89.312 59.7014 87.852 60.0014 86.382C60.1014 85.892 60.1114 85.382 60.3114 84.922C60.3714 84.782 60.2414 84.762 60.1714 84.712C59.8714 84.502 59.5514 84.302 59.2514 84.082C58.5314 83.562 57.9214 82.922 57.3014 82.262C57.2114 82.422 57.1314 82.562 57.0614 82.712C56.1414 84.622 55.2314 86.522 54.3114 88.432C53.8914 89.292 53.6714 90.212 53.5314 91.152C53.2814 92.812 53.1414 94.492 53.0514 96.172C53.0214 96.752 52.9314 97.342 53.1414 97.922C52.9914 97.972 52.9114 98.202 52.7014 98.082C52.5114 97.972 52.4814 97.792 52.4914 97.602C52.4914 97.262 52.4914 96.922 52.5114 96.582C52.5914 95.352 52.6614 94.122 52.7814 92.892C52.9314 91.422 52.9214 89.922 53.6014 88.522C53.2814 88.542 53.0014 88.572 52.7114 88.582C52.3414 88.582 52.2014 88.452 52.1714 88.082C52.1714 87.902 52.1414 87.712 52.1714 87.522C52.2214 87.182 52.0714 87.112 51.7614 87.142C51.0414 87.222 50.3214 87.142 49.6014 87.082C49.3514 87.062 49.1014 87.102 48.8814 86.952C47.2514 86.482 45.6314 85.972 43.9414 85.742C42.8314 85.592 41.7514 85.622 40.6714 85.912C40.4814 85.962 40.3214 85.942 40.1914 85.792C40.0714 85.652 40.1114 85.502 40.1514 85.332C40.2814 84.692 40.3914 84.042 40.4914 83.402C41.0014 79.912 41.9614 76.542 43.0314 73.202C43.3514 72.202 43.6314 71.202 44.0014 70.222C44.0314 70.152 44.0614 70.082 44.0214 69.972C43.3814 70.232 42.7514 70.492 42.1314 70.762C41.7714 70.922 41.3914 71.042 41.0114 71.112C40.8114 71.152 40.7814 71.242 40.7514 71.402C40.6614 71.982 40.5714 72.562 40.4414 73.142C40.3314 73.602 40.0814 73.892 39.6214 74.022C38.4214 74.352 37.2314 74.512 36.0514 73.922C35.8614 73.822 35.7614 73.712 35.7314 73.512C35.7014 73.262 35.6814 73.012 35.6614 72.762C35.6314 72.432 35.6614 72.142 35.2214 71.972C34.8014 71.802 34.5614 71.372 34.6214 70.862C34.6714 70.412 34.6114 70.032 34.2314 69.702C33.8614 69.382 34.0014 68.952 34.1914 68.582C34.3114 68.352 34.3514 68.162 34.2214 67.922C34.0314 67.562 34.2114 67.252 34.4314 66.962C34.5614 66.802 34.6514 66.682 34.4114 66.482C34.0514 66.182 34.0514 65.702 34.4614 65.372C34.9214 65.002 35.2814 64.612 35.4814 64.032C35.6314 63.592 36.1214 63.432 36.5714 63.352C37.8114 63.122 39.0414 63.172 40.2714 63.482C40.9014 63.642 41.3814 63.942 41.3714 64.692C41.3714 64.852 41.3814 64.962 41.6614 64.962C42.3814 64.962 43.0914 65.012 43.7714 65.322C44.2214 65.532 44.7114 65.662 45.1714 65.852C45.3514 65.922 45.3314 65.812 45.3514 65.732C45.5814 64.832 45.8114 63.942 46.0314 63.042C46.2614 62.042 46.5114 61.052 46.6814 60.042C46.9314 58.572 47.1714 57.092 47.2114 55.592C47.2314 54.852 47.2714 54.112 47.2114 53.372C47.1614 52.752 47.2914 52.162 47.5514 51.592C48.2814 50.022 49.1214 48.512 50.0914 47.062C51.2414 45.342 52.1814 43.512 53.1514 41.692C53.6814 40.702 54.2214 39.722 54.7514 38.732C54.8114 38.622 54.8514 38.492 54.9014 38.372C55.1714 38.112 55.2614 38.112 55.5014 38.432C55.5214 38.792 55.1814 39.002 55.1314 39.352C55.4914 39.112 55.8214 38.832 56.1114 38.502C56.4514 38.292 56.5614 38.332 56.6414 38.702C56.3514 39.082 56.0014 39.412 55.6414 39.732C55.1414 40.182 55.1814 40.782 55.0514 41.362C55.2714 41.222 55.4714 41.072 55.6514 40.902C56.3014 40.312 56.3914 40.212 57.1114 41.012C57.3914 41.322 57.6114 41.692 57.9814 41.982C58.4514 40.942 58.9114 39.922 59.3614 38.902C59.3814 38.852 59.4214 38.802 59.3714 38.752C59.2914 38.682 59.2314 38.772 59.1714 38.802C58.3614 39.202 57.5614 39.632 56.8114 40.132C56.6114 40.262 56.3914 40.332 56.2514 40.072C56.1214 39.842 56.2714 39.662 56.4814 39.592C57.0014 39.422 57.1914 39.102 57.0014 38.572C56.8514 37.022 56.5114 35.522 55.9414 34.072C55.8414 33.812 55.7014 33.562 55.4914 33.352C55.4114 33.262 55.3214 33.232 55.2014 33.262C54.8214 33.332 54.4214 33.372 54.0414 33.462C53.4614 33.602 52.9614 33.392 52.5014 33.092C52.3414 32.992 52.3114 33.002 52.2214 33.142C51.8514 33.692 51.4514 34.222 50.9014 34.622C50.4114 34.982 49.8514 35.192 49.3314 35.482C49.0814 35.542 48.8214 35.602 48.5614 35.652C48.3614 35.682 48.1314 35.652 48.1114 35.402C48.0814 35.132 48.3014 35.112 48.5114 35.092C49.9314 34.922 51.4414 34.072 51.8514 32.602C51.8814 32.482 51.8814 32.412 51.8214 32.312C51.0814 31.062 50.4214 29.782 50.0014 28.382C49.6514 27.232 49.6514 26.062 49.7714 24.882C49.8314 24.282 49.9214 23.692 50.0014 23.092C50.0214 22.942 49.9814 22.852 49.8614 22.742C48.8914 21.842 47.9614 20.892 47.3514 19.712C46.9314 18.892 46.8914 18.062 47.3714 17.182C48.0414 15.952 49.0614 15.192 50.3214 14.692C50.7014 14.542 50.9714 14.442 51.0014 13.862C51.0814 12.582 51.9314 11.792 53.1014 11.362C54.6814 10.782 56.2614 10.982 57.8314 11.382C60.5214 12.062 62.7313 13.572 64.6614 15.512C65.7414 16.602 66.5314 17.912 67.2814 19.242C68.2814 21.032 68.8614 22.972 69.2114 24.972C69.5314 26.732 69.6814 28.522 69.2714 30.302C69.0814 31.142 68.8614 31.972 68.4514 32.742C68.2714 33.102 68.0414 33.102 67.8414 32.782C67.9714 32.492 68.1114 32.212 68.2314 31.922C68.8614 30.412 69.0514 28.832 68.9714 27.212C68.8814 25.442 68.5714 23.702 67.9914 22.022C67.5814 20.812 67.0414 19.652 66.3614 18.572C65.6014 17.372 64.7614 16.232 63.7314 15.242C62.5614 14.122 61.2514 13.222 59.7814 12.542C57.8814 11.662 55.9014 11.292 53.8314 11.702C52.9114 11.892 52.1814 12.392 51.7414 13.242C51.5714 13.572 51.4214 13.922 51.6314 14.302C51.8214 14.652 51.6114 14.992 51.2114 14.972C50.9214 14.962 50.6514 15.002 50.3814 15.112C49.3914 15.522 48.5414 16.112 47.9714 17.042C47.5614 17.702 47.3614 18.402 47.6714 19.152C48.1514 20.352 49.0014 21.272 50.0114 22.042C50.1314 22.132 50.2014 22.112 50.2314 21.952C50.3814 20.882 50.6914 19.842 50.8714 18.782C51.0014 18.082 50.9814 18.082 50.6114 17.452C50.5714 17.382 50.5314 17.322 50.5014 17.252C50.4514 17.122 50.4314 17.002 50.5414 16.882C50.6114 16.802 50.7014 16.772 50.8014 16.812C50.9414 16.872 50.9714 16.982 51.0114 17.122C51.2314 18.132 51.8314 18.882 52.6214 19.502C52.7214 19.652 52.8214 19.822 52.6214 19.952C52.4314 20.082 52.2914 19.952 52.1714 19.812C52.0414 19.662 51.9314 19.502 51.8114 19.352C51.6614 19.162 51.5514 18.942 51.3414 18.762C50.7114 20.912 50.3514 23.082 50.1614 25.282C50.0513 26.502 50.1814 27.692 50.6114 28.852C51.0614 30.082 51.6614 31.222 52.4614 32.252C52.7514 32.632 53.1314 32.912 53.6514 32.972C54.2614 33.032 54.8514 32.892 55.4314 32.762C57.0714 32.392 58.6514 31.802 60.1614 31.072C60.8013 30.772 61.4214 30.422 61.9314 29.912C62.1414 29.692 62.3114 29.432 62.5414 29.232C62.6914 29.102 62.7314 28.972 62.7514 28.792C62.8214 28.312 62.7614 27.832 62.7414 27.352C62.6814 26.362 62.5414 25.402 61.9914 24.542C61.8514 24.332 61.8814 24.152 62.1014 24.022C62.3414 24.052 62.4514 24.202 62.5514 24.402C62.9214 25.152 63.0513 25.942 63.1614 26.762C63.4114 28.722 63.1614 30.572 62.1314 32.292C61.7214 32.982 61.2614 33.652 60.8914 34.372C60.6914 34.742 60.4714 35.112 60.3814 35.532C60.1714 35.742 60.1214 36.022 60.0514 36.292C60.0014 36.492 59.9614 36.712 59.7014 36.652C59.4514 36.592 59.4514 36.382 59.5014 36.172C59.6414 35.692 59.8214 35.222 60.0714 34.782C60.7514 33.582 61.5314 32.432 62.1214 31.172C62.2814 30.832 62.4014 30.492 62.4714 30.122C61.6214 30.802 60.6814 31.312 59.7014 31.732C58.5814 32.202 57.4514 32.632 56.2914 32.972C56.0914 33.032 56.0414 33.072 56.1714 33.272C56.4714 33.732 56.6314 34.262 56.7714 34.782C57.1314 36.072 57.4014 37.382 57.6314 38.702C57.6414 38.792 57.6114 38.982 57.7914 38.892C58.3514 38.602 58.9414 38.362 59.4514 37.992C59.6414 37.862 59.8314 37.742 60.0514 37.692C60.3314 37.812 60.3714 38.022 60.3014 38.292C60.1814 38.762 59.9514 39.182 59.7414 39.612C59.1414 40.832 58.5414 42.062 57.9714 43.302C57.1814 45.012 56.5614 46.782 55.8814 48.532C55.1314 50.452 54.4914 52.412 53.9214 54.392C53.3214 56.452 53.1214 58.592 52.9514 60.722C52.7414 63.502 52.6514 66.282 52.5914 69.062C52.5214 72.262 52.6614 75.462 52.7214 78.662C52.7514 80.432 52.8014 82.202 52.8214 83.962C52.8314 85.182 52.8514 86.412 52.8414 87.632C52.8414 87.922 52.9414 87.992 53.2014 87.942C53.3714 87.912 53.5514 87.862 53.7214 87.892C53.9514 87.942 54.0214 87.832 54.1114 87.662C54.9814 85.952 55.8014 84.212 56.5914 82.462C56.7614 82.072 57.0114 81.682 56.7514 81.232C56.7414 81.202 56.7414 81.172 56.7514 81.132C56.7514 80.982 56.8014 80.852 56.9714 80.802C57.1414 80.762 57.2414 80.872 57.2914 81.012C57.4614 81.472 57.7814 81.832 58.1014 82.192C60.0214 84.312 62.5414 85.502 65.0914 86.632C65.2514 86.702 65.3214 86.662 65.3914 86.512C65.4914 86.282 65.6014 86.052 65.7214 85.832C66.8714 83.762 68.0114 81.682 69.1714 79.622C70.3014 77.612 71.5414 75.672 72.9414 73.842C74.3114 72.062 75.6414 70.242 77.0514 68.492C77.4514 67.992 77.5714 67.472 77.5314 66.852C77.4214 64.952 77.2414 63.072 76.9514 61.192C76.6514 59.262 76.4014 57.322 75.9914 55.412C75.6814 53.952 75.4114 52.502 75.4214 51.012C75.4214 50.712 75.3614 50.422 75.2614 50.152C74.5414 48.212 73.8214 46.262 72.9914 44.362C71.5714 41.102 70.0614 37.902 68.0914 34.932C67.9814 34.762 67.9014 34.592 67.8714 34.392C67.8914 34.232 67.9514 34.082 68.1314 34.062C68.3114 34.032 68.4114 34.152 68.4914 34.292C69.6814 36.502 70.9014 38.712 71.9714 40.982C73.3614 43.952 74.5614 47.002 75.8914 50.002C75.9814 50.202 76.0714 50.412 76.0614 50.622C76.0314 52.602 76.4114 54.522 76.7314 56.462C77.0614 58.482 77.3614 60.512 77.6414 62.542C77.8414 63.982 78.0014 65.422 78.1314 66.862C78.1714 67.342 78.2314 67.822 77.9714 68.272C77.9314 68.332 77.9614 68.392 77.9714 68.452C78.6314 70.202 79.2614 71.972 79.9514 73.702C80.7014 75.562 81.3314 77.462 82.0514 79.332C82.3114 80.002 82.5013 80.692 82.7513 81.372C83.1613 82.492 83.5414 83.622 83.9314 84.752C84.4414 86.212 84.8414 87.702 85.2114 89.202C85.6314 90.922 86.0014 92.662 86.3914 94.392C86.6814 95.652 87.0814 96.892 87.4214 98.142C87.5514 98.632 87.6614 99.112 87.7114 99.612C87.7114 99.662 87.7113 99.722 87.7813 99.732V100.322L87.7714 100.262ZM52.2314 83.092C52.2314 81.232 52.2314 79.382 52.2014 77.522C52.1514 74.872 52.1514 72.222 52.1614 69.572C52.1714 67.462 52.2314 65.362 52.3014 63.252C52.3614 61.192 52.5514 59.132 52.7214 57.082C52.7714 56.522 52.7814 55.932 52.9314 55.392C53.2614 54.242 53.6514 53.102 54.0514 51.972C55.1814 48.852 56.3014 45.732 57.6814 42.712C57.7214 42.632 57.7914 42.542 57.6814 42.452C57.2414 42.102 56.9814 41.592 56.5614 41.222C56.4214 41.102 56.3414 41.062 56.1814 41.182C55.4714 41.742 54.8914 42.332 54.5414 43.252C53.3514 46.392 52.1014 49.512 51.0114 52.692C50.7414 53.482 50.5114 54.262 50.5714 55.122C50.7114 56.932 50.8514 58.732 50.9014 60.542C50.9714 63.262 50.8714 65.982 50.8014 68.692C50.7614 70.412 50.7014 72.142 50.8614 73.862C50.9814 75.092 51.1114 76.312 51.3114 77.532C51.4314 78.242 51.5714 78.952 51.6914 79.652C51.7314 79.882 51.7714 80.112 51.5114 80.252C51.1714 80.292 51.1514 80.022 51.1214 79.812C50.9914 78.902 50.8814 77.992 50.7514 77.092C50.5414 75.542 50.3514 74.002 50.2614 72.442C50.1814 70.942 50.2614 69.452 50.2614 67.962C50.2614 67.152 50.2414 66.342 50.2914 65.542C50.5114 62.262 50.3614 59.002 50.0114 55.742C49.9314 54.962 49.9014 54.212 50.1714 53.452C51.0514 50.952 52.0314 48.492 52.9814 46.022C53.7214 44.102 54.3614 42.162 54.6714 40.122C54.7014 40.092 54.7314 40.062 54.6814 40.022C54.6814 40.022 54.6414 40.052 54.6114 40.062C54.3414 40.522 54.0614 40.972 53.8014 41.442C52.8514 43.212 51.9314 44.992 50.8814 46.702C50.0114 48.102 49.1314 49.492 48.4514 51.002C48.0914 51.802 47.7814 52.602 47.8114 53.512C47.8414 54.282 47.8114 55.062 47.7314 55.832C47.5814 57.402 47.3714 58.972 47.0614 60.522C46.7014 62.332 46.2514 64.112 45.7014 65.882C45.1114 67.782 44.5714 69.712 43.9614 71.612C43.0914 74.362 42.1814 77.092 41.5514 79.902C41.1914 81.512 40.8614 83.122 40.7214 84.772C40.6914 85.172 40.7014 85.182 41.0914 85.122C42.1914 84.952 43.2914 85.002 44.3814 85.172C45.9114 85.412 47.3814 85.932 48.8914 86.272C49.8814 86.492 50.8714 86.592 51.8814 86.532C52.0114 86.532 52.1414 86.532 52.1414 86.332C52.1414 85.252 52.2314 84.172 52.1914 83.092H52.2314ZM61.4114 85.452C61.4114 85.592 61.4114 85.702 61.4114 85.802C61.5314 88.272 61.8614 90.712 62.2414 93.142C62.4114 94.252 62.6214 95.352 62.8714 96.452C63.0314 97.172 63.1914 97.902 63.3214 98.632C63.6314 100.292 64.0714 101.922 64.5714 103.542C64.6214 103.712 64.7114 103.812 64.9014 103.842C65.3114 103.912 65.7214 103.982 66.1314 104.002C67.8814 104.082 69.6214 104.052 71.3614 103.882C73.1314 103.712 74.9014 103.512 76.6414 103.172C78.9614 102.722 81.2714 102.192 83.5414 101.512C84.5714 101.202 85.6214 100.932 86.5714 100.402C86.9514 100.192 87.1113 99.932 87.0313 99.512C87.0213 99.452 87.0113 99.382 87.0013 99.322C86.8613 98.302 86.5314 97.332 86.2914 96.332C85.8214 94.452 85.3914 92.562 85.0114 90.652C84.5714 88.422 83.9014 86.262 83.1014 84.132C82.8214 83.402 82.4714 82.692 82.2414 81.952C81.7014 80.222 81.1314 78.512 80.5514 76.792C79.6714 74.202 78.7714 71.612 77.6214 69.132C77.5814 69.042 77.5814 68.832 77.4214 68.912C77.3014 68.972 77.1414 69.092 77.2214 69.302C77.6614 70.602 78.0714 71.912 78.5314 73.202C79.4014 75.632 80.3114 78.052 81.0714 80.522C81.3014 81.272 81.2913 81.332 80.5313 81.572C79.5613 81.872 78.5714 82.102 77.5914 82.342C75.7114 82.782 73.8414 83.262 71.9714 83.702C70.8614 83.962 69.7313 84.182 68.6314 84.512C68.1314 84.662 67.6414 84.862 67.1414 84.992C66.8114 85.082 66.6514 85.242 66.5314 85.522C66.3214 85.992 66.1014 86.452 65.8814 86.912C65.6914 87.312 65.4614 87.432 65.0414 87.282C64.8114 87.202 64.6014 87.102 64.3814 86.992C63.4014 86.492 62.4214 85.982 61.4014 85.462L61.4114 85.452ZM71.5214 162.352C71.5714 161.222 71.3314 160.192 70.8014 159.232C70.6914 159.042 70.6314 159.002 70.4314 159.122C69.5314 159.672 68.5914 160.172 67.6114 160.572C66.8414 160.892 66.1814 160.842 65.5114 160.302C65.0114 159.892 64.4214 159.582 63.7614 159.452C63.5314 159.412 63.3614 159.452 63.2014 159.662C62.1514 161.072 61.0814 162.462 60.0214 163.862C59.6114 164.412 59.1314 164.872 58.5114 165.192C57.7914 165.562 57.1314 166.032 56.4914 166.522C55.5714 167.232 55.8614 168.102 56.3614 168.612C56.5814 168.842 56.8514 169.002 57.1414 169.142C58.0214 169.572 58.9514 169.602 59.9014 169.492C61.2614 169.342 62.5214 168.842 63.8014 168.402C64.7614 168.072 65.5914 167.552 66.3314 166.862C66.7114 166.512 67.1014 166.182 67.4914 165.852C67.9314 165.492 68.3714 165.142 68.9314 164.962C69.2214 164.872 69.5313 164.822 69.7714 165.022C70.0114 165.232 70.2214 165.172 70.4514 165.052C70.6114 164.962 70.7714 164.852 70.9314 164.772C71.3014 164.592 71.4314 164.272 71.4514 163.892C71.4714 163.362 71.5614 162.832 71.5314 162.322L71.5214 162.352ZM75.5714 71.082C72.1514 75.112 69.5114 79.522 67.2914 84.222C67.3414 84.222 67.3814 84.222 67.4214 84.212C69.2214 83.742 71.0514 83.362 72.8614 82.952C74.2014 82.652 75.5314 82.292 76.8614 81.972C77.1414 81.902 77.2414 81.842 77.1814 81.492C76.7214 78.882 76.4814 76.242 76.0414 73.632C75.9014 72.812 75.7814 72.002 75.5714 71.092V71.082ZM57.5414 157.472C57.3414 157.652 57.2814 157.842 57.1814 158.002C56.4714 159.262 55.7214 160.452 54.4614 161.292C53.3014 162.072 52.3114 163.072 51.4214 164.152C51.1114 164.522 51.1014 164.722 51.4014 165.042C52.0814 165.782 52.9314 166.132 53.9414 166.102C54.5914 166.082 55.1714 165.862 55.7514 165.592C56.0814 165.442 56.4214 165.182 56.8114 165.472C56.8814 165.522 56.9714 165.432 57.0414 165.382C57.3814 165.162 57.7014 164.912 58.0614 164.732C58.8514 164.332 59.3814 163.682 59.9314 163.032C60.8014 161.992 61.5914 160.892 62.3914 159.802C62.7714 159.282 63.1114 158.722 63.4714 158.182C63.0114 158.282 62.5814 158.412 62.1514 158.492C61.6114 158.592 61.1614 158.492 60.8314 158.012C60.1714 157.072 59.2214 156.682 58.1014 156.622C58.0014 156.622 57.9314 156.622 57.8814 156.712C57.7414 156.962 57.6014 157.212 57.4414 157.512C58.0014 157.252 58.5614 157.382 59.0014 157.832C59.1514 157.982 59.2714 158.162 59.0914 158.342C58.9114 158.522 58.7614 158.392 58.6114 158.262C58.4214 158.092 58.2214 157.922 57.9514 157.942C57.6214 157.962 57.4914 157.832 57.5314 157.452L57.5414 157.472ZM63.8114 158.872C64.7114 159.032 65.3914 159.562 66.1014 159.992C66.4214 160.192 66.7414 160.232 67.1014 160.132C68.2114 159.802 69.1814 159.202 70.1614 158.592C70.3414 158.482 70.2914 158.382 70.2014 158.252C69.9014 157.832 69.6614 157.382 69.5514 156.872C69.1814 155.192 68.9114 153.502 68.8314 151.762C68.5614 151.842 68.3514 151.992 68.1514 152.162C67.3014 152.932 66.3014 153.302 65.1514 153.212C64.9314 153.192 64.8814 153.272 64.8914 153.482C64.9514 154.532 64.8914 155.582 64.8114 156.622C64.7614 157.242 64.6114 157.822 64.1914 158.312C64.0614 158.472 63.9514 158.652 63.8014 158.872H63.8114ZM40.4714 66.972C39.9414 67.032 39.4714 67.112 39.0014 67.132C37.9214 67.182 36.8414 67.172 35.7814 66.932C35.6114 66.892 35.5614 66.962 35.5614 67.102C35.5614 67.392 35.5814 67.692 35.5914 67.982C35.6714 69.712 36.0314 71.392 36.2614 73.102C36.2814 73.272 36.4014 73.362 36.5414 73.432C37.3114 73.842 38.1114 73.812 38.9314 73.652C39.6314 73.522 39.9614 73.132 40.0714 72.432C40.2714 71.182 40.5414 69.952 40.7814 68.712C40.8314 68.452 40.7914 68.352 40.5014 68.432C40.2914 68.492 40.0814 68.462 39.9314 68.272C39.7714 68.072 39.8614 67.862 39.9614 67.662C40.0814 67.422 40.3014 67.252 40.4614 66.962L40.4714 66.972ZM76.7514 69.662C76.4214 70.072 76.0614 70.352 76.1614 70.952C76.5414 73.182 76.8614 75.432 77.2114 77.662C77.4114 78.932 77.6514 80.192 77.8614 81.462C77.8814 81.592 77.9014 81.642 78.0614 81.602C78.8014 81.422 79.5414 81.232 80.2614 80.982C80.4214 80.922 80.5014 80.842 80.4514 80.632C80.2014 79.612 79.8714 78.602 79.5414 77.602C78.9214 75.762 78.2914 73.932 77.6614 72.102C77.3814 71.292 77.0714 70.492 76.7514 69.642V69.662ZM58.2014 155.982C58.3714 156.092 58.5014 156.092 58.6114 156.112C59.0414 156.192 59.4614 156.282 59.8714 156.462C60.4814 156.732 60.9214 157.192 61.3414 157.692C61.5014 157.882 61.6814 157.972 61.9414 157.942C62.5814 157.862 63.1614 157.642 63.6914 157.262C63.8314 157.162 63.8514 157.082 63.8014 156.912C63.4614 155.812 63.0014 154.732 62.8014 153.602C62.7014 153.042 62.4614 152.912 61.9714 152.832C60.8014 152.632 59.6714 152.252 58.4614 152.042C58.5014 152.392 58.5214 152.712 58.5714 153.032C58.7314 154.042 58.9914 155.062 58.2014 155.982ZM38.0514 66.712C38.4814 66.772 39.0114 66.692 39.5214 66.622C40.0814 66.552 40.6514 66.482 41.1814 66.292C41.3114 66.242 41.5014 66.232 41.5014 66.022C41.5014 65.842 41.4614 65.632 41.2814 65.582C40.8514 65.442 40.8214 65.112 40.8214 64.752C40.8214 64.332 40.6214 64.072 40.2214 63.922C39.0814 63.492 37.9314 63.552 36.7714 63.762C36.2014 63.862 35.8214 64.212 35.7614 64.842C35.7414 65.122 35.5714 65.322 35.2814 65.402C35.1014 65.462 34.9414 65.552 34.8314 65.712C34.7214 65.872 34.7014 65.982 34.9314 66.082C35.9014 66.492 36.9014 66.712 38.0414 66.702L38.0514 66.712ZM40.4914 67.902C40.8914 67.822 41.2514 67.762 41.6114 67.692C41.7314 67.672 41.8614 67.622 41.9514 67.712C42.1414 67.902 42.3614 67.922 42.6114 67.862C42.7614 67.822 42.9014 67.882 42.9414 68.052C42.9914 68.242 42.8714 68.362 42.7114 68.392C42.4114 68.442 42.1014 68.462 41.8114 68.322C41.5114 68.182 41.3714 68.232 41.3014 68.542C41.2014 68.952 41.1414 69.372 41.0414 69.792C40.9914 70.022 40.8414 70.322 40.9814 70.472C41.1014 70.602 41.4014 70.432 41.6214 70.372C42.5014 70.112 43.2914 69.622 44.1614 69.352C44.2414 69.322 44.2814 69.272 44.3114 69.192C44.5914 68.282 44.8714 67.382 45.1514 66.472C45.1714 66.412 45.2214 66.322 45.0814 66.312C44.5314 66.252 44.0614 65.942 43.5514 65.762C43.0414 65.582 42.5214 65.432 41.9514 65.492C41.9814 65.592 42.0114 65.672 42.0314 65.762C42.1914 66.312 42.0014 66.662 41.4414 66.782C41.2114 66.832 41.0014 66.842 41.0414 67.162C41.0514 67.262 40.9314 67.342 40.8614 67.422C40.7214 67.562 40.5814 67.692 40.4914 67.922V67.902ZM64.2114 156.222C64.3814 155.682 64.4114 154.542 64.2914 153.762C64.2014 153.182 64.2014 153.192 63.6214 153.102C63.3414 153.052 63.2814 153.132 63.3414 153.402C63.5414 154.352 63.8914 155.252 64.2114 156.232V156.222ZM34.9914 67.092C34.8514 67.312 34.6014 67.512 34.8014 67.792C35.0414 68.112 34.9814 68.372 34.7514 68.672C34.5014 69.002 34.5114 69.222 34.7914 69.442C35.1514 69.742 35.2814 70.092 35.1914 70.542C35.1714 70.662 35.1914 70.782 35.1914 70.902C35.1914 71.132 35.3114 71.302 35.5314 71.432C35.3014 69.972 35.2614 68.522 34.9914 67.092Z" fill="#231815" stroke="#231815" stroke-width="0.29" stroke-linecap="round" stroke-linejoin="round"/>
<path fill-rule="evenodd" clip-rule="evenodd" d="M48.8413 87.282C49.1913 87.332 49.3113 87.462 49.2913 87.832C49.2313 88.592 49.1513 89.352 49.0913 90.112C48.9813 91.462 48.8814 92.812 48.7814 94.162C48.6514 95.992 48.4813 97.812 48.4013 99.652C48.3313 101.112 48.3413 102.572 48.4013 104.032C48.5113 106.302 48.8714 108.542 49.2514 110.782C49.7314 113.632 50.2613 116.472 50.7013 119.332C51.0513 121.622 51.4213 123.902 51.7113 126.192C51.9813 128.322 52.2614 130.452 52.4714 132.592C52.7014 134.982 52.9114 137.372 53.0514 139.772C53.1914 142.292 53.3214 144.802 53.4214 147.322C53.4314 147.622 53.4213 147.932 53.4313 148.242C53.4313 148.442 53.3813 148.602 53.2313 148.732C52.9013 148.752 52.8213 148.562 52.8213 148.282C52.8413 146.862 52.8313 145.442 52.7713 144.022C52.6313 140.822 52.4713 137.632 52.2013 134.442C51.9813 131.862 51.6914 129.292 51.3614 126.732C50.9814 123.782 50.5013 120.842 49.9813 117.912C49.6113 115.842 49.3213 113.752 48.9613 111.682C48.7513 110.472 48.5614 109.252 48.3614 108.032C47.9414 105.482 47.8014 102.912 47.9414 100.332C48.0714 97.852 48.2914 95.372 48.4414 92.882C48.5414 91.162 48.6714 89.442 48.6414 87.712C48.6414 87.522 48.6713 87.362 48.8513 87.272L48.8413 87.282Z" fill="#231815" stroke="#231815" stroke-width="0.29" stroke-linecap="round" stroke-linejoin="round"/>
<path fill-rule="evenodd" clip-rule="evenodd" d="M51.2113 36.8319C51.8113 36.5319 52.1013 35.9619 52.4013 35.4119C52.5613 35.1119 52.6613 34.7919 52.7413 34.4619C52.7913 34.2519 52.9113 34.0719 53.1513 34.1619C53.4013 34.2519 53.3314 34.4519 53.2514 34.6519C52.9114 35.5719 52.3814 36.3719 51.7514 37.1119C51.5214 37.2119 51.3914 37.4219 51.2014 37.5619C51.0414 37.6719 50.8914 37.8019 50.7014 37.8719C50.5214 37.9419 50.3714 37.9219 50.2814 37.7519C50.1914 37.5619 50.3114 37.4419 50.4714 37.3619C50.7414 37.2219 51.0014 37.0619 51.2014 36.8319H51.2113Z" fill="#231815" stroke="#231815" stroke-width="0.29" stroke-linecap="round" stroke-linejoin="round"/>
<path fill-rule="evenodd" clip-rule="evenodd" d="M53.4514 37.882C53.9814 37.222 54.2814 36.462 54.4714 35.652C54.5414 35.372 54.5514 35.092 54.5614 34.812C54.5614 34.622 54.6214 34.412 54.8714 34.432C55.1414 34.452 55.1314 34.662 55.1014 34.882C54.9414 36.032 54.5114 37.082 54.0114 38.122C53.9214 38.252 53.8314 38.392 53.7214 38.512C53.6114 38.642 53.4514 38.662 53.3214 38.552C53.2014 38.442 53.2014 38.312 53.2914 38.172C53.3514 38.082 53.4414 38.012 53.4514 37.902V37.882Z" fill="#231815" stroke="#231815" stroke-width="0.29" stroke-linecap="round" stroke-linejoin="round"/>
<path fill-rule="evenodd" clip-rule="evenodd" d="M55.0114 98.6321C54.8214 98.1121 54.6914 97.5621 54.4314 97.0821C53.9014 96.1021 53.9214 95.0721 54.0514 94.0221C54.0914 93.6921 54.1014 93.3721 54.0614 93.0421C54.0414 92.8221 54.0414 92.6121 54.3114 92.6021C54.5814 92.6021 54.6514 92.8121 54.6414 93.0321C54.6314 93.3221 54.6214 93.6221 54.5714 93.9121C54.3414 95.2521 54.7414 96.4821 55.2614 97.6821C55.4114 98.0321 55.4614 98.4221 55.7114 98.7221C55.6714 98.8621 55.7614 98.9721 55.8014 99.0921C55.8614 99.2621 55.8014 99.4021 55.6514 99.4721C55.4914 99.5421 55.3714 99.442 55.3014 99.312C55.1914 99.0921 55.1114 98.8521 55.0114 98.6321Z" fill="#231815" stroke="#231815" stroke-width="0.29" stroke-linecap="round" stroke-linejoin="round"/>
<path fill-rule="evenodd" clip-rule="evenodd" d="M56.9514 98.5519C56.6614 97.9019 56.3714 97.2419 56.0714 96.5919C55.8914 96.1919 55.7814 95.7819 55.8014 95.3319C55.8114 94.9419 55.8014 94.5519 55.7314 94.1619C55.6914 93.9719 55.7314 93.7919 55.9514 93.7619C56.1814 93.7319 56.2814 93.8919 56.3014 94.1019C56.3014 94.1419 56.3014 94.1919 56.3014 94.2319C56.1514 95.7419 56.8414 97.0019 57.4714 98.2719C57.4814 98.3019 57.5114 98.3219 57.5414 98.3419C57.5414 98.5419 57.6914 98.6719 57.7514 98.8419C57.8014 99.0019 57.8013 99.1519 57.6313 99.2319C57.4613 99.3219 57.3314 99.2219 57.2514 99.0819C57.1414 98.9119 57.0514 98.7219 56.9514 98.5419V98.5519Z" fill="#231815" stroke="#231815" stroke-width="0.29" stroke-linecap="round" stroke-linejoin="round"/>
<path fill-rule="evenodd" clip-rule="evenodd" d="M59.1614 96.9819C58.7714 96.2819 58.3714 95.5719 57.9814 94.8719C57.7714 94.5019 57.5714 94.1219 57.3714 93.7519C57.2714 93.5719 57.2314 93.3819 57.4614 93.2819C57.6814 93.1819 57.8114 93.3319 57.8814 93.5219C58.2414 94.4619 58.8114 95.2919 59.3214 96.1619C59.3714 96.2519 59.4514 96.3319 59.5214 96.4219C59.5214 96.4519 59.5214 96.4819 59.5414 96.5119C59.6314 96.6519 59.6914 96.8019 59.5714 96.9519C59.4514 97.1019 59.3014 97.0219 59.1614 96.9919V96.9819Z" fill="#231815" stroke="#231815" stroke-width="0.29" stroke-linecap="round" stroke-linejoin="round"/>
<path fill-rule="evenodd" clip-rule="evenodd" d="M61.1813 74.0021C61.6113 73.4921 61.9813 72.9421 62.3513 72.3821C62.4313 72.2721 62.4414 72.2121 62.3014 72.1321C62.1114 72.0421 62.0713 71.8521 62.0713 71.6621C62.0613 70.0221 62.0314 68.3921 62.1214 66.7521C62.1714 65.6121 62.1614 64.4621 62.1514 63.3121C62.1514 62.3321 62.2014 61.3521 62.1514 60.3621C62.0114 57.3721 62.0514 54.3821 62.0514 51.3821C62.0514 48.7721 62.1813 46.1621 62.3513 43.5621C62.4413 42.2321 62.6413 40.9221 62.9913 39.6321C63.4613 37.9021 64.3913 36.4721 65.6613 35.2421C65.9113 35.0021 66.1613 34.7521 66.4113 34.5121C66.6613 34.2721 66.8314 34.2921 67.0614 34.5721C67.0714 34.7721 66.9613 34.8921 66.8213 35.0121C66.0313 35.7121 65.2214 36.3921 64.6414 37.3021C63.8414 38.5521 63.4114 39.9121 63.1714 41.3621C62.4314 45.8121 62.4313 50.3021 62.4613 54.7821C62.4813 57.3821 62.6214 59.9721 62.6714 62.5721C62.7014 64.0221 62.6714 65.4821 62.6514 66.9321C62.6213 68.5521 62.7613 70.1621 62.7113 71.7821C62.8513 71.7921 62.8713 71.6721 62.9113 71.6021C63.6413 70.4821 64.2614 69.3121 64.7514 68.0621C64.8614 67.7721 64.9014 67.4721 64.8914 67.1621C64.8814 66.7221 64.9914 66.3221 65.3414 66.0121C65.4714 65.9021 65.4714 65.8121 65.3914 65.6521C65.2214 65.3021 65.2814 64.9021 65.2514 64.5221C65.1014 62.6521 64.8413 60.7921 64.4613 58.9521C64.3713 58.5021 64.4214 58.0921 64.5914 57.6721C65.1214 56.3121 65.7314 54.9821 66.2214 53.6021C67.1714 50.9221 67.9014 48.2021 67.9814 45.3421C67.9814 45.1421 67.9614 44.9521 67.9814 44.7521C67.9914 44.5721 68.0913 44.4321 68.2913 44.4521C68.4913 44.4721 68.5613 44.6221 68.5413 44.8121C68.1913 47.5021 67.7914 50.1721 66.9014 52.7421C66.3614 54.2921 65.8413 55.8421 65.2913 57.3821C65.0613 58.0321 65.0513 58.6621 65.1514 59.3421C65.4413 61.2621 65.6814 63.1921 65.9414 65.1121C65.9414 65.1821 65.9413 65.2621 66.0213 65.3121C66.1313 65.2821 66.1913 65.1821 66.2713 65.1121C66.4413 64.9621 66.6314 64.7921 66.8314 65.0321C67.0214 65.2621 66.8313 65.4421 66.6613 65.5721C66.3513 65.8221 66.0813 66.1121 65.8213 66.4021C65.6313 66.6021 65.5313 66.8321 65.5413 67.1121C65.5713 67.6621 65.3913 68.1621 65.1813 68.6621C64.3413 70.6021 63.1414 72.3121 61.8414 73.9621C60.6314 75.4821 59.4514 77.0221 58.2614 78.5621C58.0514 78.8321 57.8714 79.1421 57.6914 79.4421C57.5714 79.6321 57.4414 79.8121 57.2014 79.6721C56.9514 79.5221 57.0114 79.3021 57.1414 79.1021C57.4914 78.5621 57.9114 78.0721 58.3114 77.5721C59.2714 76.3821 60.2213 75.1921 61.1813 73.9921V74.0021Z" fill="#231815" stroke="#231815" stroke-width="0.29" stroke-linecap="round" stroke-linejoin="round"/>
<path fill-rule="evenodd" clip-rule="evenodd" d="M66.0014 33.432C65.8914 33.622 65.6714 33.782 65.8314 34.062C65.8814 34.172 65.7814 34.282 65.6914 34.372C63.5814 36.482 62.5514 39.122 62.0014 41.992C61.6714 43.692 61.5814 45.412 61.4814 47.132C61.3714 49.182 61.3514 51.232 61.3814 53.282C61.4214 55.662 61.5014 58.042 61.5114 60.412C61.5114 62.192 61.5114 63.972 61.4214 65.752C61.3714 66.602 61.3914 67.452 61.4314 68.302C61.5014 69.622 61.4214 70.942 61.3914 72.262C61.3914 72.462 61.3614 72.682 61.1314 72.782C60.8514 72.802 60.7614 72.632 60.7714 72.392C60.9214 70.102 60.7514 67.802 60.8314 65.512C60.9114 63.162 60.9214 60.822 60.8714 58.472C60.8014 55.492 60.7614 52.512 60.8414 49.532C60.8914 47.292 60.9414 45.052 61.2814 42.842C61.6014 40.772 62.0714 38.752 63.1014 36.902C63.7014 35.832 64.4214 34.842 65.2514 33.942C65.3314 33.862 65.4714 33.802 65.3314 33.662C65.3014 33.552 65.3314 33.452 65.4014 33.352C65.9614 32.542 66.3614 31.672 66.4614 30.682C66.4814 30.502 66.5914 30.402 66.7714 30.422C66.9414 30.442 67.0114 30.582 66.9814 30.732C66.9414 30.962 66.8814 31.202 66.8014 31.422C66.5814 32.102 66.3114 32.772 65.9914 33.412L66.0014 33.432Z" fill="#231815" stroke="#231815" stroke-width="0.29" stroke-linecap="round" stroke-linejoin="round"/>
<path fill-rule="evenodd" clip-rule="evenodd" d="M62.8714 34.462C62.8714 34.462 62.8514 34.372 62.8414 34.332C63.0114 33.962 63.2913 33.672 63.5213 33.332C63.9513 32.702 64.2713 32.032 64.4613 31.302C64.5013 31.152 64.4914 31.002 64.5014 30.852C64.5114 30.692 64.5913 30.582 64.7713 30.582C64.9513 30.582 65.0214 30.692 65.0314 30.852C65.0514 31.192 64.9514 31.502 64.8114 31.792C64.4414 32.542 64.0514 33.292 63.6714 34.032C63.6014 34.132 63.5214 34.242 63.4514 34.352C63.2914 34.592 63.1114 34.662 62.8714 34.462Z" fill="#231815" stroke="#231815" stroke-width="0.29" stroke-linecap="round" stroke-linejoin="round"/>
<path fill-rule="evenodd" clip-rule="evenodd" d="M61.8114 23.492C61.6314 23.522 61.5114 23.432 61.4414 23.282C61.2614 22.862 60.9414 22.542 60.6114 22.242C59.3014 21.012 57.7714 20.092 56.2014 19.232C56.1714 19.212 56.1413 19.222 56.1013 19.212C55.8413 18.962 55.5014 18.832 55.1914 18.652C54.0214 17.982 52.9514 17.182 52.0314 16.182C51.9314 16.072 51.8114 15.962 51.7814 15.802C51.7514 15.682 51.7613 15.552 51.8813 15.482C52.0013 15.412 52.1113 15.442 52.2113 15.532C52.2413 15.562 52.2814 15.592 52.3014 15.632C53.2114 16.972 54.4913 17.852 55.8813 18.622C57.2713 19.382 58.6314 20.182 59.8914 21.142C60.6114 21.702 61.1913 22.402 61.8813 22.992C62.0713 23.162 62.0014 23.342 61.8114 23.482V23.492Z" fill="#231815" stroke="#231815" stroke-width="0.29" stroke-linecap="round" stroke-linejoin="round"/>
<path fill-rule="evenodd" clip-rule="evenodd" d="M54.4214 19.1222C54.2914 19.2922 54.1414 19.2922 53.9714 19.1922C53.8614 19.1322 53.7414 19.0822 53.6214 19.0222C53.2614 18.7122 52.8314 18.4922 52.4714 18.1722C51.8914 17.6622 51.3414 17.1322 51.0514 16.4022C51.0214 16.3222 50.9714 16.2422 50.9714 16.1522C50.9714 15.9922 51.0414 15.8722 51.2014 15.8422C51.3614 15.8122 51.4814 15.9022 51.5114 16.0622C51.7914 17.5222 52.9013 18.1622 54.1013 18.7222C54.2913 18.8122 54.4214 18.8922 54.4214 19.1122V19.1222Z" fill="#231815" stroke="#231815" stroke-width="0.29" stroke-linecap="round" stroke-linejoin="round"/>
<path fill-rule="evenodd" clip-rule="evenodd" d="M81.5414 82.442C81.4414 82.832 81.3414 83.252 81.2414 83.682C80.7814 85.562 80.0213 87.302 78.9113 88.882C77.7413 90.542 76.5014 92.152 74.8714 93.402C74.6314 93.592 74.3714 93.752 74.1014 93.902C73.9114 94.012 73.6914 94.072 73.5614 93.832C73.4414 93.612 73.5914 93.472 73.7814 93.362C75.5814 92.302 76.9114 90.772 78.1214 89.112C78.8814 88.062 79.5213 86.952 80.0313 85.762C80.4913 84.672 80.7713 83.532 80.9713 82.362C81.0113 82.162 81.0514 81.982 81.3014 82.002C81.5414 82.022 81.5814 82.212 81.5714 82.452L81.5414 82.442Z" fill="#231815" stroke="#231815" stroke-width="0.29" stroke-linecap="round" stroke-linejoin="round"/>
<path fill-rule="evenodd" clip-rule="evenodd" d="M72.6513 93.8321C71.9213 93.7321 71.1814 93.5121 70.5014 93.1321C68.2814 91.9121 66.3314 90.3521 64.6714 88.4421C64.5114 88.2621 64.2314 88.0621 64.5014 87.8121C64.7814 87.5521 64.9714 87.8621 65.1414 88.0421C65.7714 88.7521 66.3714 89.4921 67.0914 90.1121C68.5314 91.3421 70.0414 92.4621 71.8614 93.0821C72.1314 93.1721 72.4014 93.2521 72.6914 93.2321C72.9014 93.2121 73.0814 93.2521 73.0914 93.4921C73.1014 93.7521 72.9213 93.8121 72.6513 93.8221V93.8321Z" fill="#231815" stroke="#231815" stroke-width="0.29" stroke-linecap="round" stroke-linejoin="round"/>
<path fill-rule="evenodd" clip-rule="evenodd" d="M74.3713 89.6421C74.9513 89.6421 75.3914 90.1421 75.2814 90.7421C75.1814 91.3221 74.8714 91.8021 74.4214 92.1721C73.9014 92.5921 72.9413 92.1121 72.8513 91.4021C72.7513 90.6321 73.6013 89.6521 74.3713 89.6421ZM74.7214 90.6521C74.7214 90.3321 74.5113 90.1821 74.2313 90.2521C73.8613 90.3521 73.4613 90.8621 73.4613 91.2521C73.4613 91.3921 73.4913 91.5221 73.6213 91.5821C73.7813 91.6521 73.9914 91.7621 74.1414 91.6321C74.4514 91.3621 74.6614 91.0221 74.7214 90.6521Z" fill="#231815" stroke="#231815" stroke-width="0.29" stroke-linecap="round" stroke-linejoin="round"/>
<path fill-rule="evenodd" clip-rule="evenodd" d="M52.1814 26.0119C52.1614 25.7819 52.2714 25.6119 52.3814 25.4519C53.1514 24.3819 53.4914 23.1719 53.5514 21.8719C53.5514 21.7119 53.5214 21.5519 53.5114 21.3819C53.4914 21.1619 53.5314 20.9619 53.7914 20.9619C54.0314 20.9619 54.1014 21.1519 54.0714 21.3519C53.9314 22.2019 53.8814 23.0619 53.6214 23.8919C53.4414 24.4319 53.2114 24.9419 52.9714 25.4519C52.6814 26.0619 52.8514 26.6719 52.9214 27.2819C52.9314 27.3819 52.9614 27.4719 52.9814 27.5719C53.0114 27.7319 52.9514 27.8619 52.7814 27.8919C52.6314 27.9219 52.5214 27.8319 52.4914 27.6919C52.3814 27.1219 52.2814 26.5619 52.1814 26.0119Z" fill="#231815" stroke="#231815" stroke-width="0.29" stroke-linecap="round" stroke-linejoin="round"/>
<path fill-rule="evenodd" clip-rule="evenodd" d="M55.7114 29.7821C54.9014 29.6821 54.0014 29.8021 53.1114 29.6621C52.8614 29.6221 52.6114 29.5621 52.4214 29.3821C52.3014 29.2721 52.2614 29.1221 52.3714 28.9721C52.4614 28.8521 52.6114 28.8321 52.7214 28.9221C53.3414 29.3921 54.0714 29.3421 54.7914 29.3621C55.2514 29.3721 55.7014 29.2521 56.1514 29.2221C56.3214 29.2121 56.4714 29.2621 56.4914 29.4521C56.5114 29.6321 56.3814 29.7221 56.2114 29.7421C56.1814 29.7421 56.1514 29.7421 56.1114 29.7421C56.0014 29.7421 55.8914 29.7521 55.7014 29.7721L55.7114 29.7821Z" fill="#231815" stroke="#231815" stroke-width="0.29" stroke-linecap="round" stroke-linejoin="round"/>
<path fill-rule="evenodd" clip-rule="evenodd" d="M58.1214 23.8521C58.0814 24.2221 58.0414 24.6021 57.8814 24.9521C57.7814 25.1721 57.6314 25.3521 57.3614 25.2821C57.1114 25.2221 57.0414 25.0121 57.0314 24.7821C57.0114 24.4021 57.1014 24.0521 57.2114 23.6921C57.2914 23.4421 57.3714 23.1521 57.7214 23.2121C58.0514 23.2721 58.0914 23.5621 58.1314 23.8421L58.1214 23.8521Z" fill="#231815" stroke="#231815" stroke-width="0.29" stroke-linecap="round" stroke-linejoin="round"/>
<path fill-rule="evenodd" clip-rule="evenodd" d="M52.5314 23.3419C52.4714 23.7019 52.4614 24.0919 52.3014 24.4419C52.2114 24.6319 52.0714 24.7719 51.8414 24.7319C51.6214 24.6919 51.5314 24.5119 51.5214 24.3019C51.5014 23.9019 51.5314 23.5219 51.7014 23.1519C51.8014 22.9219 51.9414 22.7419 52.2114 22.8019C52.5014 22.8619 52.5314 23.0919 52.5314 23.3519V23.3419Z" fill="#231815" stroke="#231815" stroke-width="0.29" stroke-linecap="round" stroke-linejoin="round"/>
<path fill-rule="evenodd" clip-rule="evenodd" d="M56.4613 21.6821C56.8113 21.7221 57.1514 21.7921 57.4814 21.9021C57.6114 21.9421 57.7414 22.0221 57.6714 22.1921C57.6114 22.3421 57.4714 22.3021 57.3614 22.2421C57.0914 22.0921 56.8114 22.0521 56.5114 22.0621C56.4914 22.0621 56.4714 22.0621 56.4414 22.0621C56.2914 22.0421 56.0914 22.0521 56.0914 21.8521C56.0914 21.6221 56.3214 21.7121 56.4514 21.6921L56.4613 21.6821Z" fill="#231815" stroke="#231815" stroke-width="0.29" stroke-linecap="round" stroke-linejoin="round"/>
<path fill-rule="evenodd" clip-rule="evenodd" d="M51.7114 21.272C51.8914 21.272 52.0014 21.272 52.1114 21.292C52.2214 21.312 52.2914 21.382 52.2814 21.492C52.2714 21.602 52.1714 21.672 52.0714 21.642C51.8714 21.592 51.6914 21.612 51.5014 21.662C51.3914 21.692 51.2714 21.662 51.2514 21.532C51.2214 21.382 51.3214 21.312 51.4514 21.292C51.5714 21.272 51.6914 21.272 51.7314 21.272H51.7114Z" fill="#231815" stroke="#231815" stroke-width="0.29" stroke-linecap="round" stroke-linejoin="round"/>
<path fill-rule="evenodd" clip-rule="evenodd" d="M38.7914 65.302C38.1614 65.302 37.6414 65.282 37.1214 65.182C37.0314 65.162 36.9514 65.152 36.8614 65.122C36.6714 65.062 36.4914 64.952 36.5714 64.732C36.6614 64.482 36.8614 64.532 37.0614 64.622C37.9114 64.992 38.7814 64.932 39.6614 64.742C39.8014 64.712 39.8814 64.622 39.9714 64.522C40.0814 64.402 40.2214 64.372 40.3414 64.482C40.4814 64.612 40.4514 64.752 40.3414 64.892C40.1314 65.142 39.8214 65.212 39.5214 65.252C39.2414 65.282 38.9514 65.292 38.7814 65.302H38.7914Z" fill="#231815" stroke="#231815" stroke-width="0.29" stroke-linecap="round" stroke-linejoin="round"/>
<path d="M55.1817 26.0798C56.1818 27.5796 59.1819 28.0794 60.1819 26.0794C61.1819 24.0796 60.0819 21.9795 57.6819 21.5795C54.6819 21.0795 54.5614 25.1497 55.1817 26.0798Z" stroke="#231815" stroke-width="0.6"/>
<path d="M49.1836 25.0797C49.8892 26.6149 51.6838 26.58 52.4233 25.7294C53.6819 23.5796 53.3772 21.4901 51.684 21.0804C48.9114 20.4096 48.746 24.1276 49.1836 25.0797Z" stroke="#231815" stroke-width="0.6"/>
<path d="M52.9997 24.1749C53.4997 23.5 54.4997 23.9012 54.9997 24.5001" stroke="#231815" stroke-width="0.6" stroke-linecap="round"/>
</g>
</svg>
