<svg width="121" height="120" viewBox="0 0 121 120" fill="none" xmlns="http://www.w3.org/2000/svg">
<circle cx="60.3333" cy="60" r="60" fill="#FFEAC4"/>
<mask id="mask0_13967_9084" style="mask-type:alpha" maskUnits="userSpaceOnUse" x="0" y="0" width="121" height="120">
<circle cx="60.3333" cy="60" r="60" fill="#D9D9D9"/>
</mask>
<g mask="url(#mask0_13967_9084)">
<path fill-rule="evenodd" clip-rule="evenodd" d="M73.3656 97.4858C73.2656 97.9258 72.9556 98.1258 72.5556 98.2358C72.3856 97.9058 72.0257 97.9558 71.7557 97.8358C69.9757 97.0458 68.0856 96.7658 66.1656 96.6458C63.5756 96.4858 60.9856 96.4358 58.3956 96.4558C56.0256 96.4658 53.6656 96.5958 51.2956 96.4558C49.6956 96.3558 48.0756 96.3958 46.5156 95.8858C46.2756 95.8058 46.1156 95.9058 46.0856 96.1658C45.5956 96.2158 45.3856 96.1158 45.1956 95.6958C44.9456 95.1658 44.7156 94.6158 44.4756 94.0858C44.5956 93.9458 44.6056 93.8058 44.5156 93.6458C44.3056 93.2758 44.1656 92.8658 44.0456 92.4558C43.7656 91.5058 43.4756 90.5558 43.2256 89.6058C42.8656 88.2158 42.8056 86.8258 43.1356 85.4058C43.6556 83.1658 44.3056 80.9558 44.9056 78.7358C45.8156 75.3558 46.7157 71.9658 47.3157 68.5058C47.7757 65.8558 48.2057 63.2058 48.5057 60.5358C48.6757 59.0658 48.8456 57.5958 48.9056 56.1058C48.9656 54.7058 48.8656 53.2858 49.1356 51.8958C49.1656 51.7558 49.0957 51.6458 49.0057 51.5558C48.9857 51.3758 48.9356 51.1858 49.0756 51.0258C49.3656 50.9558 49.4857 50.8058 49.3757 50.4958C49.3357 50.3858 49.3456 50.2658 49.3456 50.1458C49.3256 48.4258 49.6856 46.7858 50.3056 45.1858C50.3956 44.9558 50.3957 44.7758 50.1857 44.6258C50.2957 44.4158 50.5156 44.3258 50.6656 44.1558C50.9156 44.2658 51.1157 44.4358 51.3157 44.6158C51.4157 44.7058 51.5156 44.7858 51.6556 44.7358C51.7556 44.7058 51.8156 44.6258 51.8056 44.5158C51.8056 44.3658 51.6857 44.3058 51.5657 44.2458C49.9557 43.3758 48.4056 42.3858 46.9256 41.3058C46.4956 40.9958 46.4856 40.8158 46.7756 40.3758C47.6156 39.0758 48.7456 38.0258 49.9056 37.0158C50.4556 36.5358 50.9956 36.0558 51.6956 35.8058C51.9556 35.7158 51.9756 35.5058 51.8356 35.2858C51.8856 35.1758 51.9656 35.1058 52.0756 35.0858C52.0956 35.1558 52.1156 35.2258 52.1356 35.2958C52.3856 36.3458 52.7056 37.3758 52.8856 38.4358C52.9256 38.6558 52.8556 38.6858 52.6656 38.6658C52.2256 38.6258 51.7956 38.5958 51.3556 38.5758C50.6456 38.5358 49.9256 38.5158 49.2156 38.6058C48.9556 38.6458 48.7056 38.6958 48.5256 38.9058C48.3956 39.0458 48.3657 39.2158 48.5057 39.3658C48.6557 39.5258 48.8156 39.4858 48.9456 39.3258C49.0356 39.2258 49.1456 39.1758 49.2656 39.1258C49.9656 38.8458 50.6856 38.9058 51.4156 38.9458C53.0756 39.0458 54.7356 39.1658 56.4056 38.9858C59.1556 38.6858 61.4756 37.5458 63.3556 35.5058C64.4456 34.3158 65.1556 32.8958 65.9256 31.5058C65.9556 31.4558 65.9756 31.3858 65.9856 31.3258C66.0056 31.1258 65.9056 30.9858 65.7156 30.9658C65.5256 30.9458 65.4156 31.0658 65.4156 31.2558C65.4156 31.5258 65.3356 31.7858 65.2156 32.0258C64.7056 33.0458 64.1556 34.0458 63.3956 34.9158C63.2356 35.1058 63.1057 35.3258 62.8157 35.4958C63.2357 33.9858 63.5556 32.5158 63.7056 31.0058C63.9756 31.1258 63.9757 31.1358 64.1257 31.0758C64.7757 30.8058 65.4456 30.7458 66.1356 30.7958C66.9056 30.8558 67.3357 31.0058 67.5057 31.9658C67.6057 32.5058 67.6757 33.0358 67.7457 33.5758C67.8357 34.2958 67.9856 35.0158 67.8956 35.7358C67.8656 36.0158 67.9557 36.1658 68.1857 36.2658C69.2657 36.7158 70.1656 37.4358 71.0456 38.1758C71.9256 38.9058 72.6656 39.7458 73.1656 40.7958C73.5556 41.6158 73.4456 42.4058 72.9656 43.1658C72.5456 42.8058 72.4756 42.7858 72.1556 43.0058C71.9356 42.9958 71.7456 42.9258 71.5956 42.7558C71.3056 42.4858 71.1756 42.4758 70.8956 42.8158C70.3156 43.5258 69.7257 44.2258 69.2457 45.0058C67.4357 47.8958 66.3556 51.0458 66.0156 54.4458C65.8456 56.1258 66.2957 57.6558 67.1257 59.0858C67.1757 59.1658 67.2356 59.2458 67.2956 59.3158C67.4156 59.4558 67.5556 59.5058 67.7156 59.3758C67.8656 59.3358 67.9157 59.4658 67.9957 59.5358C68.2857 59.8058 68.5756 60.0758 68.9056 60.3058C69.0856 61.7758 69.4856 63.2058 69.8556 64.6358C70.2756 66.2658 70.8756 67.8458 70.9756 69.5458C70.9756 69.5758 70.9757 69.6058 70.9957 69.6358C71.0457 69.7558 71.1257 69.8358 71.2557 69.8258C71.3957 69.8058 71.4656 69.7058 71.4556 69.5758C71.4556 69.4758 71.4256 69.3658 71.4056 69.2658C71.2256 68.5758 71.0257 67.8858 70.8757 67.1958C70.3057 64.6458 69.2056 62.2158 69.2856 59.5358C69.2856 59.2558 69.0757 59.1958 68.8157 59.3658C68.7057 59.4158 68.6657 59.3458 68.6257 59.2658C68.4957 59.0358 68.3456 58.8158 68.2256 58.5858C67.9556 58.0558 67.6656 57.5258 67.5956 56.9158C67.7156 56.8158 67.7256 56.6858 67.7256 56.5358C67.7256 56.2058 67.7256 55.8758 67.7756 55.5458C68.0056 54.0358 68.4457 52.5758 68.9357 51.1358C69.3757 49.8458 69.8856 48.5758 70.6556 47.4358C70.7356 47.3158 70.8056 47.1758 70.9656 47.1358C71.1056 47.0958 71.1856 47.0158 71.1956 46.8658C71.2056 46.6858 71.0756 46.6358 70.9456 46.5858C70.9456 46.4558 71.0256 46.3658 71.0956 46.2858C71.7456 45.5458 72.3456 44.7658 73.1456 44.1958C74.0856 45.1558 74.6956 46.3358 75.2856 47.5158C76.5056 49.9658 77.3857 52.5558 78.1857 55.1658C79.5957 59.7358 80.7256 64.3858 81.8956 69.0158C82.2956 70.6058 82.6256 72.2158 82.8256 73.8458C82.9356 74.7358 82.6156 75.2658 81.8856 75.6958C81.2156 76.0858 80.5856 76.5658 79.9856 77.0458C78.4856 78.2358 76.9656 79.3858 75.3656 80.4258C72.0556 82.5658 68.4656 84.0858 64.6156 84.9858C64.4256 85.0358 64.1957 85.0658 64.2457 85.3258C64.3057 85.6058 64.5356 85.5358 64.7356 85.4758C65.9356 85.0958 67.1456 84.7458 68.3256 84.3258C70.1256 83.6858 71.8656 82.9158 73.5456 81.9858C73.6856 82.2058 73.6356 82.4258 73.5856 82.6558C73.3656 82.7358 73.3356 82.9058 73.3856 83.0958C73.7456 84.5258 73.7856 85.9858 73.8256 87.4458C73.8756 89.2958 73.8256 91.1558 73.6956 93.0058C73.5956 94.3758 73.5056 95.7458 73.2156 97.0958C73.1756 97.2758 73.2357 97.4058 73.3757 97.5158L73.3656 97.4858ZM53.5856 47.4058C52.9856 47.3558 52.4456 47.2158 51.9156 46.9958C51.7356 46.9258 51.5356 46.8658 51.4656 47.1058C51.3956 47.3458 51.5856 47.4058 51.7856 47.4358C52.3856 47.5358 52.9856 47.6758 53.5856 47.7258C53.9656 47.7558 54.1156 47.9658 54.2056 48.2658C54.2556 48.4358 54.2756 48.6258 54.2756 48.8058C54.2856 49.0558 54.2656 49.3158 54.2756 49.5758C54.3556 51.9058 54.4456 54.2258 54.5156 56.5558C54.5656 58.5758 54.2656 60.5458 53.5756 62.4658C53.1856 63.5358 52.8057 64.6158 52.5057 65.7158C51.6257 68.9758 50.9857 72.2758 50.5057 75.6158C50.1357 78.2258 49.8857 80.8458 49.7557 83.4858C49.6357 85.7458 49.6756 88.0058 49.4656 90.2658C49.4456 90.4458 49.4956 90.6058 49.6956 90.6158C49.9256 90.6258 49.9756 90.4558 49.9656 90.2658C49.9656 90.0458 49.9356 89.8158 49.9256 89.5958C49.8756 88.3958 49.9656 87.2058 49.9856 86.0058C50.0156 83.7058 50.1556 81.4158 50.3856 79.1358C50.6756 76.2958 51.0856 73.4658 51.6556 70.6558C52.2156 67.8958 52.8656 65.1558 53.9256 62.5358C54.1556 61.9658 54.3356 61.3658 54.4656 60.7658C54.9156 58.6358 54.8657 56.4858 54.7557 54.3258C54.6757 52.7458 54.6056 51.1658 54.7056 49.5858C54.7356 49.0958 54.8456 48.6058 54.7056 48.1258C54.6356 47.9158 54.7056 47.8658 54.9056 47.8758C55.8056 47.9158 56.6656 47.7158 57.5156 47.4558C57.6356 47.4158 57.7656 47.3758 57.8556 47.2858C57.9856 47.1558 58.0156 47.0058 57.8856 46.8558C57.7456 46.7058 57.5956 46.7358 57.4756 46.8858C57.3156 47.0958 57.0856 47.1758 56.8556 47.2658C56.1356 47.5358 55.3957 47.6158 54.6257 47.5458C54.3257 47.5158 54.2056 47.3158 54.1356 47.1158C54.0656 46.9258 54.3056 46.8858 54.4256 46.7958C54.4956 46.7458 54.5756 46.7158 54.6456 46.6758C55.1056 46.4358 55.1556 46.2158 54.8056 45.8458C54.0756 45.0658 53.3357 44.2958 52.6257 43.5058C51.7457 42.5158 50.8556 41.5358 50.1556 40.4058C50.0356 40.2258 49.9056 40.0758 49.6956 40.2358C49.4956 40.3958 49.5856 40.5758 49.7256 40.7358C50.5156 41.6358 51.3056 42.5258 52.0956 43.4258C52.8056 44.2358 53.5356 45.0258 54.1956 45.8858C54.3556 46.0958 54.3856 46.2158 54.1156 46.3558C53.7056 46.5658 53.3856 46.8558 53.5956 47.4258L53.5856 47.4058ZM72.6857 69.4158C72.8357 69.3958 72.9656 69.4458 73.0956 69.4858C75.2256 70.1458 77.2656 70.9858 79.1356 72.2158C79.5856 72.5158 80.2256 72.1858 80.2956 71.6458C80.3156 71.4958 80.2656 71.3658 80.1156 71.3158C79.9656 71.2658 79.8756 71.3458 79.8056 71.4658C79.6523 71.7525 79.4289 71.8258 79.1356 71.6858C79.0456 71.6358 78.9456 71.5858 78.8456 71.5458C76.9156 70.5958 74.9456 69.7058 72.9156 68.9858C72.4456 68.8158 72.1256 68.9258 71.8356 69.3358C71.7156 69.5058 71.6056 69.6958 71.4756 69.8658C71.2656 70.1458 71.0756 70.4658 70.7356 70.5958C69.4156 71.1058 68.2156 71.8558 67.0156 72.5758C64.5356 74.0458 62.1456 75.6458 59.8556 77.4058C59.7956 77.4558 59.7357 77.4958 59.6857 77.5558C59.5757 77.6958 59.5456 77.8558 59.7156 77.9758C59.8656 78.0858 60.0056 78.0258 60.0956 77.8858C60.2356 77.6658 60.4357 77.5058 60.6257 77.3258C61.6657 76.3658 62.8656 75.6158 64.0356 74.8358C66.1956 73.3858 68.3956 71.9858 70.8656 71.1058C71.1556 71.0058 71.3856 70.8158 71.5756 70.5758C71.7956 70.2858 72.0056 69.9858 72.2256 69.7058C72.3456 69.5558 72.4557 69.3958 72.6857 69.4258V69.4158ZM68.3956 40.9558C66.3956 40.9758 64.6757 41.5358 63.0657 42.4858C61.8157 43.2358 60.7956 44.2458 59.8056 45.2858C59.7356 45.3658 59.6656 45.4458 59.6056 45.5358C59.5156 45.6758 59.5056 45.8258 59.6656 45.9258C59.8356 46.0258 59.9556 45.9258 60.0256 45.7758C60.1356 45.5258 60.2956 45.3158 60.4656 45.1158C60.9056 44.5858 61.4156 44.1358 61.9456 43.7058C63.8456 42.1758 65.9856 41.2558 68.4656 41.2958C69.6156 41.3158 70.7456 41.4558 71.6156 42.3558C71.7456 42.4958 71.9256 42.4558 72.0256 42.2958C72.1356 42.1258 72.0456 41.9858 71.8856 41.8958C71.6856 41.7958 71.4656 41.7258 71.2756 41.6158C70.3456 41.1058 69.3256 40.9558 68.3956 40.9458V40.9558ZM59.4357 76.8858C59.4557 76.7158 59.4856 76.5458 59.4856 76.3758C59.4856 76.2058 59.4056 76.0758 59.2256 76.0658C59.0456 76.0558 58.9456 76.1658 58.9456 76.3458C58.9456 76.5358 58.9556 76.7258 58.9856 76.9158C59.2056 78.3258 59.7156 79.6458 60.3356 80.9258C61.2356 82.7858 62.2557 84.5858 63.3757 86.3258C63.6357 86.7258 63.9157 87.1258 64.1257 87.5558C64.1757 87.6658 64.2456 87.7558 64.3856 87.7658C64.4756 87.7658 64.5556 87.7258 64.5956 87.6358C64.6556 87.4958 64.5756 87.3958 64.4856 87.2958C64.4156 87.2158 64.3356 87.1458 64.2756 87.0558C62.4656 84.4358 60.8756 81.6958 59.7656 78.6958C59.5456 78.1158 59.4156 77.5158 59.4256 76.8858H59.4357ZM73.0956 68.3658C73.1956 68.3558 73.2656 68.2958 73.3456 68.2258C74.8056 67.0358 76.4057 66.0958 78.2457 65.6258C78.4356 65.5758 78.5556 65.4558 78.4856 65.2458C78.4156 65.0558 78.2656 65.0358 78.0856 65.1058C78.0456 65.1258 78.0056 65.1458 77.9656 65.1658C76.2756 65.9158 74.6956 66.8658 73.1056 67.8058C73.0156 67.8558 72.9157 67.9158 72.8757 68.0158C72.7957 68.1958 72.9056 68.3758 73.1056 68.3758L73.0956 68.3658Z" fill="#D68D6D"/>
<path fill-rule="evenodd" clip-rule="evenodd" d="M56.3856 115.596C56.0856 116.116 55.9357 116.706 55.7457 117.266C55.5057 117.186 55.3557 117.256 55.3057 117.516C55.1957 118.196 55.0157 118.856 54.7857 119.496C51.9957 127.316 50.2957 135.386 49.0257 143.566C48.6757 145.806 48.4057 148.066 47.9057 150.286C47.8557 150.506 47.9356 150.636 48.1356 150.716C48.1256 151.516 48.0356 152.316 47.8856 153.096C47.3656 153.306 46.8257 153.416 46.2757 153.446C43.7857 153.586 41.3557 153.256 38.9757 152.546C38.7957 152.496 38.6457 152.496 38.5057 152.626C38.2957 152.406 38.0457 152.206 37.9857 151.866C37.9757 151.776 37.9857 151.706 38.0457 151.636C38.2357 151.566 38.2857 151.426 38.2857 151.236C38.2857 150.796 38.2557 150.356 38.2957 149.926C38.5657 146.846 38.8357 143.766 39.1257 140.686C39.4757 136.976 39.9256 133.286 40.4456 129.596C41.0656 125.166 41.7957 120.756 42.7457 116.386C43.9057 110.996 45.0357 105.596 46.5557 100.296C46.6557 99.9357 46.5857 99.8157 46.2257 99.7057C46.3057 99.3857 46.1857 99.0157 46.4357 98.7357C46.5357 98.7957 46.5557 98.9056 46.6057 99.0056C47.0257 99.7656 47.4157 100.556 47.9957 101.226C49.1857 102.606 50.6157 103.376 52.4957 103.116C53.2857 103.006 54.0757 102.876 54.8557 102.656C59.2857 101.396 63.6157 99.8656 67.7357 97.7856C67.9757 97.6656 68.3157 97.6656 68.3757 97.2856C68.3757 97.2256 68.4957 97.2557 68.5557 97.2657C69.3057 97.3457 70.0256 97.5056 70.6956 97.8456C70.6356 99.0756 70.5757 100.296 70.5057 101.526C70.5057 101.646 70.4557 101.776 70.4257 101.896C70.0457 101.816 69.9356 101.916 70.0156 102.286C70.1056 102.716 70.1257 103.156 70.1057 103.596C70.0257 105.886 69.9057 108.176 69.8557 110.476C69.7857 113.456 69.5956 116.426 69.6356 119.406C69.6556 120.496 69.6857 121.556 70.0957 122.606C70.3657 123.296 70.4656 124.086 69.9556 124.776C69.8856 124.866 69.8856 124.976 69.9556 125.076C70.0257 125.166 70.1157 125.216 70.2057 125.166C70.6057 124.956 71.0257 125.076 71.4357 125.076C71.9557 125.076 72.2057 125.256 72.2757 125.766C72.3757 126.546 72.8457 126.946 73.5257 127.196C74.5157 127.556 75.4557 127.986 76.3657 128.506C77.8557 129.366 79.0856 130.476 79.8856 132.036C80.1856 132.626 80.5557 133.186 80.9857 133.686C81.9057 134.746 82.8657 135.786 83.8157 136.826C85.1857 138.316 86.5756 139.796 87.9557 141.286C88.1357 141.486 88.2957 141.516 88.4957 141.356C88.6357 141.426 88.7657 141.496 88.9057 141.566C88.9457 141.836 89.0957 142.076 89.1057 142.366C89.2157 144.346 88.3957 145.876 86.8557 147.066C86.3357 147.466 85.7957 147.816 85.1257 147.936C84.8657 147.986 84.7457 148.186 84.7457 148.456C84.0757 148.666 83.3957 148.836 82.6857 148.856C82.6457 148.736 82.6057 148.626 82.5057 148.526C81.6457 147.726 80.8157 146.906 79.9357 146.116C78.0457 144.436 76.1857 142.726 74.2757 141.066C71.9457 139.036 69.5156 137.156 66.9456 135.436C64.7956 133.996 62.7456 132.426 60.9556 130.556C60.7356 130.326 60.5157 130.096 60.4057 129.776C59.7857 128.016 59.2956 126.216 58.8856 124.396C57.9256 120.156 56.8657 115.956 55.7557 111.756C55.4357 110.526 55.0856 109.306 55.0156 108.026C54.9856 107.516 54.8057 107.106 54.4757 106.726C53.7457 105.896 52.9357 105.126 52.1457 104.356C52.0357 104.246 51.9157 104.136 51.7857 104.046C51.6257 103.926 51.4557 103.936 51.3457 104.126C51.2457 104.296 51.3357 104.446 51.4957 104.526C52.4957 105.016 53.2056 105.826 53.8856 106.666C54.1956 107.046 54.4257 107.476 54.4857 107.986C54.5257 108.296 54.6057 108.596 54.6757 108.896C55.2557 111.136 55.8357 113.376 56.4157 115.616L56.3856 115.596ZM70.2357 126.176C70.2357 125.966 70.1757 125.836 69.9857 125.826C69.7757 125.826 69.7257 125.966 69.7157 126.146C69.6857 127.126 69.4557 128.066 69.0457 128.956C68.9157 129.236 68.7857 129.516 68.6457 129.796C68.5557 129.966 68.4857 130.156 68.7157 130.256C68.9457 130.356 69.0357 130.166 69.1157 129.996C69.1757 129.856 69.2257 129.716 69.2757 129.576C69.5857 128.686 69.7957 127.776 70.0457 126.866C70.1157 126.616 70.1757 126.376 70.2357 126.166V126.176ZM65.9657 127.626C66.1257 127.626 66.1957 127.526 66.2757 127.436C66.5357 127.116 66.8056 126.796 67.0756 126.476C67.5156 125.956 67.9457 125.426 68.4857 124.996C68.6157 124.896 68.6657 124.746 68.5257 124.616C68.3957 124.486 68.2557 124.546 68.1457 124.666C68.1157 124.706 68.0857 124.756 68.0557 124.796C67.3957 125.636 66.7857 126.506 65.9157 127.146C65.8557 127.186 65.7957 127.256 65.7857 127.316C65.7357 127.496 65.8257 127.596 65.9757 127.616L65.9657 127.626Z" fill="#2F1909"/>
<path fill-rule="evenodd" clip-rule="evenodd" d="M50.1357 19.3457C50.0057 19.2857 49.9357 19.1957 49.9757 19.0457C50.0557 19.0057 50.1557 18.9857 50.2157 18.9057C50.9857 17.9457 52.0057 17.3357 53.1057 16.8657C54.9257 16.0857 56.7557 16.1457 58.5757 16.8657C59.0157 17.0357 59.4157 17.2957 59.6357 17.7357C59.7957 18.0457 59.9157 18.0657 60.1657 17.7957C60.3157 17.8057 60.4657 17.7657 60.6057 17.8457C60.6057 18.1457 60.7657 18.2657 61.0457 18.2757C61.3357 18.2857 61.6057 18.3557 61.8757 18.4657C62.9257 18.9057 63.7557 19.6457 64.4957 20.4757C65.6657 21.7857 66.2957 23.3157 66.2757 25.1057C66.2557 26.6057 65.7757 27.9657 65.0857 29.2657C64.7857 29.5657 64.4657 29.8357 64.0657 30.0057C63.9857 30.0357 63.8957 30.1657 63.7957 30.0257C63.7757 29.6457 63.8757 29.2757 63.9757 28.9157C64.0557 28.9057 64.0757 28.9557 64.1157 28.9957C64.2457 29.1157 64.3957 29.1857 64.5257 29.0257C64.6657 28.8557 64.5657 28.7157 64.4057 28.6057C64.2157 28.4757 64.0657 28.3057 63.9357 28.1257C63.2957 27.2557 62.6457 26.3757 62.0157 25.4957C61.3557 24.5657 60.5857 23.7157 60.0457 22.7057C59.9057 22.4357 59.7457 22.4557 59.5557 22.7257C59.5157 22.5557 59.3857 22.4857 59.2457 22.4157C59.2657 22.2657 59.2157 22.1357 59.0757 22.0757C58.9257 22.0157 58.8457 22.1257 58.7357 22.1957C58.5557 22.3257 58.3757 22.4657 58.1857 22.5757C57.5257 22.9457 56.9257 23.4157 56.3757 23.9457C55.6657 24.6357 55.0057 25.3757 54.3557 26.1257C54.2857 26.0457 54.3057 25.9657 54.3257 25.8757C54.3957 25.5257 54.5757 25.1957 54.5857 24.8257V24.8457C54.6757 24.8257 54.6457 24.7557 54.6557 24.6957C54.7257 24.6057 54.7857 24.5057 54.8657 24.4157C55.6457 23.6057 56.4057 22.7857 57.5757 22.5457C57.7557 22.5057 57.8357 22.3757 57.7657 22.2157C57.6857 22.0057 57.5057 22.0057 57.3457 22.1057C56.6157 22.5657 55.8757 22.9957 55.2357 23.5957C53.4857 25.2657 52.4357 27.4057 51.3557 29.5157C51.3057 29.4757 51.2657 29.4257 51.2257 29.3857C51.2257 28.6157 51.3157 27.8557 51.4357 27.1057C51.5257 26.5457 51.5957 25.9857 51.9357 25.5057C52.0257 25.3857 52.0757 25.2657 51.9857 25.1257C51.9257 25.0357 51.8357 25.0157 51.7357 25.0257C51.5657 25.0457 51.5157 25.1857 51.4857 25.3157C51.2957 26.2357 51.0957 27.1457 51.0057 28.0757C50.9257 28.8957 50.9157 29.7057 50.9257 30.5257C50.6757 30.5857 50.6157 30.2857 50.3957 30.2757C50.3557 30.0857 50.2157 29.9857 50.0457 29.9057C49.7357 29.7557 49.4257 29.7557 49.0957 29.8457C49.0657 29.7957 49.0357 29.7357 48.9957 29.6857C49.1457 29.4257 49.0857 29.2557 48.8057 29.1257C48.7057 29.0857 48.6157 28.9857 48.5357 28.9057C47.6757 28.0457 47.3057 26.9757 47.2657 25.7857C47.2057 23.9657 47.9257 22.4157 49.0057 21.0157C49.8357 19.9357 50.8257 19.0357 52.0957 18.4957C52.3357 18.3957 52.5757 18.3257 52.8457 18.3957C52.9757 18.4357 53.0957 18.3957 53.1757 18.2757C53.2357 18.1857 53.2357 18.0857 53.1757 18.0057C53.0757 17.8657 52.9357 17.8757 52.7957 17.9157C52.3357 18.0557 51.8857 18.2057 51.4557 18.4357C50.9757 18.6957 50.5757 19.0557 50.1057 19.3257L50.1357 19.3457Z" fill="#2F1909"/>
<path fill-rule="evenodd" clip-rule="evenodd" d="M73.5856 82.6256C73.6356 82.3956 73.6857 82.1757 73.5457 81.9557C74.5857 81.3757 75.6257 80.7856 76.6057 80.0956C78.0357 79.0856 79.4657 78.0756 80.8557 77.0256C81.4657 76.5656 82.1356 76.1756 82.7856 75.7756C83.2356 75.4956 83.4056 75.1256 83.3856 74.5956C83.3556 73.8956 83.1957 73.2256 83.0657 72.5456C83.0457 72.4456 82.9757 72.3156 83.0657 72.2456C83.1457 72.1856 83.2657 72.2456 83.3757 72.2756C83.7757 72.4056 83.9057 72.7456 83.9857 73.1056C84.1657 73.9156 84.2157 74.7356 84.2357 75.5556C84.3157 78.0556 84.2656 80.5456 84.0756 83.0456C83.9056 85.3756 83.7157 87.7056 83.3557 90.0156C83.3257 90.2156 83.3056 90.4157 83.4656 90.5857C83.4056 90.9357 83.3357 91.2856 83.0557 91.5456C82.9557 91.5356 82.8557 91.4956 82.7457 91.4956C82.0057 91.5256 81.2857 91.3957 80.5457 91.3357C80.4157 91.3257 80.3957 91.2757 80.4257 91.1457C80.6857 89.9357 80.8657 88.7156 81.0057 87.4856C81.1957 85.8156 81.3356 84.1357 81.4156 82.4557C81.4956 80.8457 81.4656 79.2356 81.5956 77.6256C81.5956 77.5356 81.6056 77.4356 81.5856 77.3356C81.5456 77.1756 81.4456 77.0656 81.2656 77.0956C81.0856 77.1356 81.0357 77.2656 81.0557 77.4356C81.0757 77.5756 81.0957 77.7056 81.1057 77.8456C81.2157 79.0456 81.1657 80.2557 81.1157 81.4557C81.0157 83.7457 80.8756 86.0256 80.5256 88.2956C80.3556 89.3756 80.1856 90.4656 79.7856 91.4956C79.5756 92.0356 79.1856 92.3257 78.6356 92.4557C78.2056 92.5557 77.7656 92.5256 77.3256 92.5356C76.6256 92.5456 75.9156 92.4857 75.2156 92.5557C74.9556 92.5757 74.7957 92.6957 74.7557 92.9557C74.5057 92.9256 74.2357 93.0356 73.9957 92.9056C73.9957 92.8456 73.9857 92.7756 73.9957 92.7156C74.1457 90.9356 74.1357 89.1556 74.1157 87.3756C74.0957 85.9256 73.9056 84.4857 73.8956 83.0257C73.8956 82.8057 73.8257 82.6256 73.5557 82.5956L73.5856 82.6256ZM77.3456 85.2757C76.9256 85.3157 76.3156 85.3356 75.7156 85.3256C75.6856 85.3256 75.6557 85.3256 75.6157 85.3256C75.4857 85.3556 75.3657 85.4156 75.3657 85.5656C75.3657 85.7256 75.4656 85.8256 75.6356 85.8156C75.8256 85.8156 76.0156 85.8057 76.2056 85.7757C77.4756 85.5757 78.7456 85.4557 79.9756 85.9557C80.1556 86.0257 80.3057 85.9557 80.3557 85.7757C80.4057 85.5657 80.2756 85.4456 80.0756 85.4356C79.2256 85.3956 78.3856 85.2456 77.3456 85.2556V85.2757Z" fill="#2F1909"/>
<path fill-rule="evenodd" clip-rule="evenodd" d="M46.2756 97.2857C46.2756 96.9857 46.0356 96.6857 46.2256 96.3757C46.2656 96.3757 46.3057 96.3757 46.3557 96.3757C48.2357 96.6857 50.1356 96.7657 52.0256 96.8157C54.2156 96.8757 56.4056 96.7957 58.5856 96.7857C61.2056 96.7657 63.8356 96.7758 66.4456 97.0258C66.8756 97.0658 67.3257 97.0457 67.7957 97.1857C67.1757 97.5657 66.6356 97.9657 66.0256 98.2457C63.7156 99.3357 61.3257 100.216 58.9157 101.056C56.8457 101.786 54.7557 102.486 52.5657 102.756C51.2957 102.916 50.1257 102.696 49.1157 101.846C47.8057 100.756 47.0256 99.3357 46.5756 97.7257C46.5256 97.5357 46.4856 97.3557 46.2756 97.2657V97.2857Z" fill="white"/>
<path fill-rule="evenodd" clip-rule="evenodd" d="M47.1657 52.1456C47.1857 51.6456 47.3057 51.1557 47.3757 50.6557C47.3757 50.5957 47.4157 50.5356 47.4957 50.5356C47.4757 51.5356 47.6257 52.5357 47.6857 53.5257C47.6857 53.6857 47.7357 53.7957 47.9157 53.7957C48.0057 53.8757 48.0457 53.9757 48.0757 54.0957C48.2157 54.5757 48.2757 55.0856 48.5157 55.5356C48.6557 55.6856 48.5357 55.8457 48.5357 55.9957C48.4557 58.3657 48.1457 60.7156 47.8157 63.0556C47.3357 66.4756 46.7857 69.8857 45.9557 73.2357C45.2357 76.1657 44.4757 79.0856 43.6157 81.9656C43.4457 81.8256 43.5157 81.6256 43.5357 81.4656C43.5957 81.0056 43.5857 80.5457 43.5957 80.0857C43.5957 80.0357 43.6257 79.9856 43.6457 79.9456C43.7957 79.8556 43.8457 79.7257 43.8557 79.5457C44.0457 77.1957 44.4457 74.8756 44.8657 72.5656C45.3257 70.0456 45.7457 67.5257 45.7657 64.9657C45.7657 64.6557 45.7957 64.3257 46.1057 64.1057C46.2157 64.0257 46.2057 63.8856 46.2057 63.7556C46.2057 63.3356 46.1957 62.9256 46.1957 62.5056C46.1957 60.5556 46.3557 58.6056 46.5457 56.6656C46.6757 55.3056 46.8357 53.9557 47.2957 52.6557C47.3657 52.4457 47.3157 52.2856 47.1557 52.1456H47.1657Z" fill="#D68D6D"/>
<path fill-rule="evenodd" clip-rule="evenodd" d="M72.1557 43.0056C72.1357 43.2356 72.2457 43.3856 72.4257 43.5056C72.7057 43.6856 72.9357 43.9156 73.1457 44.1856C72.3357 44.7656 71.7357 45.5456 71.0957 46.2756C71.0257 46.3556 70.9357 46.4456 70.9457 46.5756C70.6957 46.5356 70.5657 46.6956 70.4757 46.8756C70.2657 47.2656 70.0657 47.6456 69.8757 48.0456C68.8557 50.1156 68.1657 52.2956 67.6357 54.5356C67.4757 55.1956 67.2857 55.8556 67.2357 56.5356C67.2157 56.8056 67.3157 56.9456 67.6057 56.9056C67.6757 57.5156 67.9657 58.0456 68.2357 58.5756C68.3557 58.8056 68.5057 59.0256 68.6357 59.2556C68.6857 59.3356 68.7157 59.4056 68.8257 59.3556C68.7257 59.6856 68.9457 59.9756 68.9157 60.2956C68.5857 60.0656 68.2957 59.7956 68.0057 59.5256C67.9257 59.4456 67.8657 59.3256 67.7257 59.3656C67.7757 59.2056 67.7457 59.0856 67.6357 58.9556C67.0657 58.2456 66.6957 57.4256 66.5157 56.5456C66.2857 55.4456 66.3457 54.3456 66.5257 53.2456C67.0857 49.8656 68.2857 46.7556 70.4157 44.0456C70.6957 43.6856 71.0057 43.3656 71.4057 43.1556C71.5757 43.0656 71.6057 42.9256 71.6157 42.7556C71.7657 42.9256 71.9557 42.9956 72.1757 43.0056H72.1557Z" fill="#2F1909"/>
<path fill-rule="evenodd" clip-rule="evenodd" d="M47.9157 53.8057C48.1957 53.7357 48.2056 53.5557 48.1356 53.3157C47.6356 51.4757 47.7657 49.6457 48.2057 47.8257C48.4257 46.9257 48.9357 46.2157 49.6857 45.5557C49.6257 46.1257 49.4957 46.6157 49.3757 47.1057C49.1257 48.1657 48.9957 49.2457 48.8957 50.3257C48.8757 50.5857 48.9057 50.8257 49.0657 51.0357C48.9257 51.1957 48.9757 51.3857 48.9957 51.5657C48.6157 51.5457 48.5757 51.5957 48.5857 51.9757C48.5857 53.0857 48.5857 54.1857 48.5857 55.2957C48.5857 55.3857 48.6157 55.4857 48.5157 55.5557C48.2757 55.1057 48.2157 54.5957 48.0757 54.1157C48.0457 53.9957 48.0057 53.8957 47.9157 53.8157V53.8057Z" fill="#2F1909"/>
<path fill-rule="evenodd" clip-rule="evenodd" d="M63.7357 28.6558C63.5457 28.6958 63.4157 28.7858 63.4457 29.0058C63.5557 29.7458 63.4157 30.4758 63.3457 31.2058C63.2257 32.5558 62.8957 33.8758 62.5457 35.1858C62.3657 35.8458 62.0257 36.3558 61.4457 36.7658C59.6557 37.9958 57.6757 38.6358 55.5157 38.7158C54.9057 38.7358 54.2957 38.7458 53.6957 38.7258C53.5057 38.7258 53.4257 38.6458 53.3657 38.4658C52.9357 37.1858 52.6357 35.8858 52.3257 34.5758C52.2757 34.3658 52.2857 34.1558 52.2957 33.9358C52.2957 33.7958 52.2757 33.6858 52.1357 33.6158C52.0257 33.5558 51.9257 33.5758 51.8457 33.6558C51.7357 33.7558 51.7457 33.8758 51.7757 34.0058C51.7957 34.0858 51.8657 34.1558 51.8357 34.2658C51.6757 34.2658 51.5357 34.1858 51.3957 34.1158C50.7257 33.7558 50.1157 33.2958 49.6057 32.7358C49.1557 32.2458 49.0057 31.6458 48.9857 30.9958C48.9857 30.7858 49.0457 30.5958 49.1757 30.4258C49.3657 30.1758 49.6557 30.1558 49.8857 30.3758C50.1357 30.6158 50.2457 30.5958 50.4057 30.2858C50.6157 30.2958 50.6857 30.5958 50.9357 30.5358C50.9357 30.7858 50.9257 31.0458 50.9357 31.2958C50.9357 31.4558 51.0057 31.6058 51.1957 31.5858C51.3857 31.5658 51.4257 31.4158 51.3757 31.2458C51.1957 30.6358 51.2357 30.0058 51.2457 29.3758C51.2857 29.4158 51.3357 29.4658 51.3757 29.5058C51.3957 29.6058 51.4057 29.7358 51.5457 29.7458C51.6757 29.7458 51.7457 29.6458 51.7857 29.5358C52.3957 27.9458 53.2857 26.5058 54.2857 25.1358C54.3757 25.0158 54.4257 24.8458 54.6057 24.8158C54.5957 25.1858 54.4157 25.5058 54.3457 25.8658C54.3257 25.9658 54.3057 26.0458 54.3757 26.1158C54.1957 26.3758 54.0257 26.6458 53.7957 26.8758C53.6957 26.9758 53.6257 27.0758 53.6957 27.2158C53.7357 27.2958 53.7957 27.3258 53.8757 27.3258C54.0357 27.3258 54.0957 27.2158 54.1357 27.0858C54.2057 26.8558 54.3457 26.6658 54.4857 26.4758C55.2657 25.4658 56.1357 24.5458 57.0857 23.7058C57.6357 23.2258 58.2157 22.7958 58.9457 22.6158C59.0757 22.5858 59.1757 22.5158 59.2557 22.3958C59.3957 22.4658 59.5257 22.5358 59.5657 22.7058C59.5657 22.8558 59.6657 22.9558 59.7557 23.0658C61.2157 24.8258 62.5757 26.6558 63.8157 28.5758C63.7957 28.5958 63.7657 28.6158 63.7457 28.6358L63.7357 28.6558ZM57.3157 34.7858C57.0957 34.7758 56.9557 34.7658 56.8257 34.7658C56.6557 34.7658 56.5057 34.8058 56.5157 34.9958C56.5157 35.1858 56.6657 35.2458 56.8357 35.2158C57.9457 35.0158 59.0757 34.9658 60.2057 34.8758C60.3757 34.8558 60.5457 34.8457 60.7157 34.8158C60.9157 34.7758 61.1157 34.7058 61.0557 34.4558C61.0057 34.2158 60.7957 34.2458 60.6157 34.2758C60.5857 34.2758 60.5557 34.2958 60.5257 34.3058C59.4657 34.6758 58.3457 34.6658 57.3257 34.7958L57.3157 34.7858ZM58.4757 28.6658C58.5257 28.8358 58.5757 29.0158 58.6357 29.1958C58.8957 30.0358 59.3357 30.7658 59.8757 31.4458C59.9657 31.5558 60.0757 31.6358 60.2357 31.5858C60.3257 31.5558 60.3757 31.4858 60.3857 31.3958C60.3957 31.2458 60.2757 31.1958 60.1757 31.1058C59.4757 30.4558 58.9657 29.7158 59.0357 28.7058C59.0457 28.5058 59.0057 28.3558 58.7957 28.3258C58.5857 28.3058 58.4957 28.4458 58.4757 28.6658ZM55.9557 30.8458C55.9357 30.4858 55.8957 30.1758 55.7757 29.8758C55.7057 29.6858 55.5657 29.5658 55.3557 29.6058C55.1457 29.6458 54.9457 29.7558 54.9457 29.9858C54.9457 30.4358 55.0057 30.8758 55.2457 31.2658C55.3357 31.4158 55.4757 31.4858 55.6557 31.4458C55.8157 31.4058 55.8957 31.2858 55.9257 31.1258C55.9457 31.0258 55.9457 30.9158 55.9457 30.8458H55.9557ZM61.2857 30.1258C61.2657 30.3558 61.2757 30.5958 61.3857 30.8058C61.4557 30.9458 61.5857 31.0358 61.7457 31.0258C61.8757 31.0258 61.9857 30.9458 62.0057 30.8258C62.0857 30.4458 62.1357 30.0658 62.0457 29.6858C61.9957 29.4758 61.8457 29.3858 61.6357 29.4058C61.4457 29.4258 61.3257 29.5358 61.3057 29.7358C61.2957 29.8658 61.2857 29.9858 61.2757 30.1158L61.2857 30.1258ZM50.0757 31.4558C49.9757 31.4558 49.8757 31.5058 49.8457 31.6258C49.8057 31.7558 49.8457 31.8658 49.9557 31.9258C50.1857 32.0458 50.3757 32.2058 50.5657 32.3858C50.6857 32.4958 50.8457 32.5258 50.9457 32.3658C51.0457 32.2258 50.9757 32.0958 50.8457 32.0158C50.6457 31.8858 50.4657 31.7458 50.3157 31.5758C50.2557 31.5058 50.1857 31.4758 50.0857 31.4658L50.0757 31.4558ZM62.3657 27.9158C62.3657 27.8158 62.3157 27.7558 62.2157 27.7458C61.6157 27.6358 61.0357 27.7558 60.4657 27.9458C60.3757 27.9758 60.3157 28.0458 60.3457 28.1458C60.3857 28.2658 60.4857 28.2558 60.5857 28.2258C60.6257 28.2058 60.6657 28.1958 60.7057 28.1758C61.1657 27.9958 61.6257 27.8458 62.1257 28.0558C62.2357 28.1058 62.3357 28.0658 62.3657 27.9258V27.9158ZM56.0357 27.7958C55.7557 27.7958 55.4257 27.8658 55.1057 27.9858C55.0057 28.0258 54.9257 28.0858 54.9757 28.1958C55.0257 28.3158 55.1257 28.2958 55.2157 28.2458C55.2757 28.2158 55.3257 28.1858 55.3857 28.1658C55.7757 28.0458 56.1757 27.8858 56.5757 28.1458C56.6857 28.2258 56.7857 28.2758 56.8657 28.1358C56.9357 27.9958 56.8357 27.9158 56.7257 27.8658C56.5257 27.7758 56.3157 27.7758 56.0357 27.7958Z" fill="white"/>
<path fill-rule="evenodd" clip-rule="evenodd" d="M54.5957 24.8458C54.5357 24.7558 54.6257 24.7358 54.6657 24.6958C54.6657 24.7558 54.6857 24.8258 54.5957 24.8458Z" fill="white"/>
<path fill-rule="evenodd" clip-rule="evenodd" d="M81.5756 66.0857C81.5156 65.8557 81.4456 65.6557 81.3956 65.4457C80.3256 61.2957 79.2857 57.1457 77.9257 53.0757C77.8857 52.9557 77.7857 52.7957 78.0557 52.8157C79.2757 52.8757 80.4757 53.0057 81.6157 53.4957C81.7557 53.5557 81.8957 53.6457 82.0357 53.7357C82.2657 53.8857 82.3957 54.0857 82.2957 54.3857C82.1857 54.7357 82.2257 55.0957 82.2157 55.4257C81.3957 55.4657 80.6257 55.3357 79.8557 55.1657C79.7057 55.1357 79.5757 55.1757 79.5357 55.3557C79.5057 55.5357 79.5856 55.6457 79.7656 55.6657C80.4956 55.7657 81.2156 55.8957 81.9456 55.9657C82.1556 55.9857 82.1657 56.0457 82.1557 56.1957C82.1157 56.7257 82.0756 57.2557 82.0256 57.7857C81.8956 59.1757 81.8356 60.5757 81.7756 61.9657C81.7256 63.2757 81.6956 64.5857 81.6456 65.8957C81.6456 65.9557 81.6756 66.0157 81.5756 66.0957V66.0857Z" fill="#2F1909"/>
<path fill-rule="evenodd" clip-rule="evenodd" d="M63.8057 28.5857C63.8057 28.5857 63.8457 28.6557 63.8357 28.6657C63.8057 28.7057 63.7657 28.6857 63.7357 28.6557C63.7557 28.6357 63.7857 28.6157 63.8057 28.5957V28.5857Z" fill="white"/>
<path fill-rule="evenodd" clip-rule="evenodd" d="M83.4857 90.5857C83.3257 90.4257 83.3457 90.2157 83.3757 90.0157C83.7357 87.7057 83.9157 85.3757 84.0957 83.0457C84.2857 80.5557 84.3357 78.0557 84.2557 75.5557C84.2357 74.7357 84.1757 73.9157 84.0057 73.1057C83.9257 72.7457 83.7957 72.4057 83.3957 72.2757C83.2957 72.2457 83.1757 72.1857 83.0857 72.2457C82.9857 72.3157 83.0557 72.4457 83.0857 72.5457C83.2157 73.2257 83.3757 73.8957 83.4057 74.5957C83.4257 75.1157 83.2557 75.4957 82.8057 75.7757C82.1557 76.1757 81.4857 76.5657 80.8757 77.0257C79.4757 78.0757 78.0457 79.0857 76.6257 80.0957C75.6557 80.7857 74.6057 81.3757 73.5657 81.9557C71.8857 82.8857 70.1457 83.6557 68.3457 84.2957C67.1657 84.7157 65.9457 85.0657 64.7557 85.4457C64.5557 85.5057 64.3257 85.5857 64.2657 85.2957C64.2057 85.0357 64.4357 85.0057 64.6357 84.9557C68.4857 84.0657 72.0757 82.5457 75.3857 80.3957C76.9857 79.3557 78.5057 78.2057 80.0057 77.0157C80.6057 76.5357 81.2357 76.0657 81.9057 75.6657C82.6457 75.2357 82.9557 74.7057 82.8457 73.8157C82.6457 72.1857 82.3157 70.5757 81.9157 68.9857C80.7457 64.3457 79.6157 59.7057 78.2057 55.1357C77.4057 52.5257 76.5157 49.9457 75.3057 47.4857C74.7157 46.3057 74.1057 45.1257 73.1657 44.1657C72.9657 43.9057 72.7257 43.6757 72.4457 43.4857C72.2657 43.3657 72.1557 43.2157 72.1757 42.9857C72.4957 42.7657 72.5657 42.7857 72.9857 43.1457C73.4557 42.3857 73.5757 41.6057 73.1857 40.7757C72.6857 39.7357 71.9457 38.8957 71.0657 38.1557C70.1857 37.4157 69.2757 36.6957 68.2057 36.2457C67.9757 36.1457 67.8857 36.0057 67.9157 35.7157C68.0057 34.9857 67.8557 34.2757 67.7657 33.5557C67.6957 33.0157 67.6257 32.4857 67.5257 31.9457C67.3557 30.9857 66.9257 30.8357 66.1557 30.7757C65.4757 30.7157 64.7957 30.7757 64.1457 31.0557C63.9957 31.1157 63.9957 31.1057 63.7257 30.9857C63.5757 32.4957 63.2557 33.9657 62.8357 35.4757C63.1257 35.3057 63.2557 35.0857 63.4157 34.8957C64.1657 34.0257 64.7257 33.0257 65.2357 32.0057C65.3557 31.7657 65.4357 31.5157 65.4357 31.2357C65.4357 31.0457 65.5457 30.9257 65.7357 30.9457C65.9357 30.9657 66.0257 31.1057 66.0057 31.3057C66.0057 31.3657 65.9757 31.4357 65.9457 31.4857C65.1757 32.8757 64.4657 34.2957 63.3757 35.4857C61.4957 37.5257 59.1757 38.6757 56.4257 38.9657C54.7657 39.1457 53.1057 39.0157 51.4357 38.9257C50.7157 38.8857 49.9857 38.8257 49.2857 39.1057C49.1657 39.1557 49.0557 39.2057 48.9657 39.3057C48.8357 39.4557 48.6757 39.5057 48.5257 39.3457C48.3857 39.1957 48.4157 39.0257 48.5457 38.8857C48.7257 38.6857 48.9757 38.6257 49.2357 38.5857C49.9457 38.4857 50.6657 38.5157 51.3757 38.5557C51.8157 38.5757 52.2457 38.6057 52.6857 38.6457C52.8757 38.6657 52.9457 38.6357 52.9057 38.4157C52.7157 37.3557 52.4057 36.3257 52.1557 35.2757C52.1357 35.2057 52.1157 35.1357 52.0957 35.0657C52.0757 34.9257 52.0357 34.8357 51.8857 34.7557C51.0557 34.2857 50.2357 33.7957 49.5457 33.1157C48.8957 32.4757 48.5857 31.7057 48.6057 30.7957C48.6157 30.3957 48.7857 30.0557 49.1257 29.8257C49.4457 29.7357 49.7657 29.7357 50.0757 29.8857C50.2457 29.9657 50.3757 30.0657 50.4257 30.2557C50.2757 30.5657 50.1557 30.5857 49.9057 30.3457C49.6757 30.1257 49.3857 30.1357 49.1957 30.3957C49.0757 30.5657 49.0057 30.7557 49.0057 30.9657C49.0257 31.6157 49.1757 32.2157 49.6257 32.7057C50.1457 33.2657 50.7457 33.7257 51.4157 34.0857C51.5557 34.1557 51.6957 34.2357 51.8557 34.2357C51.8957 34.1257 51.8257 34.0557 51.7957 33.9757C51.7557 33.8457 51.7557 33.7157 51.8657 33.6257C51.9457 33.5457 52.0557 33.5257 52.1557 33.5857C52.2857 33.6557 52.3157 33.7757 52.3157 33.9057C52.3057 34.1157 52.2957 34.3357 52.3457 34.5457C52.6557 35.8557 52.9557 37.1657 53.3857 38.4357C53.4457 38.6157 53.5257 38.6857 53.7157 38.6957C54.3257 38.7157 54.9357 38.7057 55.5357 38.6857C57.7057 38.6057 59.6757 37.9657 61.4657 36.7357C62.0457 36.3357 62.3857 35.8257 62.5657 35.1557C62.9157 33.8457 63.2457 32.5357 63.3657 31.1757C63.4357 30.4457 63.5757 29.7157 63.4657 28.9757C63.4357 28.7657 63.5657 28.6657 63.7557 28.6257C63.7857 28.6557 63.8257 28.6757 63.8557 28.6357C63.8557 28.6357 63.8357 28.5857 63.8257 28.5557C62.5857 26.6357 61.2257 24.8057 59.7657 23.0457C59.6757 22.9357 59.5757 22.8357 59.5757 22.6857C59.7657 22.4157 59.9257 22.3957 60.0657 22.6657C60.6057 23.6757 61.3757 24.5357 62.0357 25.4557C62.6657 26.3357 63.3157 27.2057 63.9557 28.0857C64.0857 28.2657 64.2357 28.4357 64.4257 28.5657C64.5857 28.6757 64.6857 28.8157 64.5457 28.9857C64.4157 29.1457 64.2657 29.0757 64.1357 28.9557C64.0957 28.9257 64.0757 28.8657 63.9957 28.8757C63.8957 29.2357 63.7957 29.6057 63.8157 29.9857C63.7957 30.1757 63.7657 30.3657 63.7457 30.5757C64.6657 30.3757 65.5757 30.3657 66.4857 30.4357C66.8057 30.4557 67.0857 30.5757 67.3657 30.6957C67.5857 30.7957 67.6657 31.0057 67.7457 31.2157C67.9757 31.8257 67.9757 32.4757 68.0457 33.1057C68.1257 33.8257 68.3057 34.5357 68.3857 35.2457C68.4457 35.7857 68.7557 36.0657 69.1557 36.3257C70.3957 37.1157 71.5657 37.9757 72.5157 39.1057C72.9157 39.5857 73.2657 40.0957 73.5157 40.6657C73.8457 41.4357 73.8757 42.2157 73.5957 43.0057C73.5257 43.1957 73.4657 43.3857 73.2357 43.4557C75.3157 45.9657 76.4557 48.9357 77.5457 51.9157C77.6157 52.1057 77.6757 52.1957 77.9257 52.2257C79.3257 52.4257 80.7457 52.5257 82.0657 53.1057C82.3357 53.2257 82.5757 53.3757 82.7357 53.6257C82.8957 53.8557 82.9557 54.1257 82.8557 54.3857C82.4957 55.3757 82.4357 56.4057 82.3457 57.4357C82.1457 59.7157 82.0657 61.9957 81.9857 64.2757C81.9457 65.4157 81.9857 66.5557 82.0957 67.6957C82.1857 68.7757 82.5557 69.8057 82.7457 70.8757C82.8157 71.3057 82.8957 71.6157 83.4557 71.7057C84.1857 71.8257 84.4457 72.4357 84.5257 73.1257C84.6757 74.4657 84.6257 75.8057 84.6257 77.1557C84.6257 80.0457 84.4457 82.9357 84.1957 85.8157C84.0757 87.1357 83.8757 88.4457 83.8657 89.7657C83.8657 89.9057 83.8657 90.0457 83.8657 90.1857C83.8657 90.4157 83.7757 90.5757 83.5057 90.5357L83.4857 90.5857ZM81.5757 66.0857C81.6657 66.0157 81.6457 65.9457 81.6457 65.8857C81.6857 64.5757 81.7257 63.2657 81.7757 61.9557C81.8257 60.5557 81.8957 59.1657 82.0257 57.7757C82.0757 57.2457 82.1157 56.7157 82.1557 56.1857C82.1657 56.0357 82.1557 55.9757 81.9457 55.9557C81.2157 55.8857 80.4857 55.7657 79.7657 55.6557C79.5857 55.6257 79.4957 55.5257 79.5357 55.3457C79.5657 55.1757 79.7057 55.1257 79.8557 55.1557C80.6257 55.3257 81.3957 55.4557 82.2157 55.4157C82.2257 55.0857 82.1957 54.7157 82.2957 54.3757C82.3857 54.0757 82.2657 53.8757 82.0357 53.7257C81.9057 53.6357 81.7657 53.5557 81.6157 53.4857C80.4757 52.9957 79.2757 52.8757 78.0557 52.8057C77.7857 52.7957 77.8857 52.9457 77.9257 53.0657C79.2857 57.1357 80.3357 61.2857 81.3957 65.4357C81.4457 65.6457 81.5157 65.8557 81.5757 66.0757V66.0857Z" fill="#2F1909" stroke="#2F1909" stroke-width="0.28" stroke-linecap="round" stroke-linejoin="round"/>
<path fill-rule="evenodd" clip-rule="evenodd" d="M88.4657 141.356C88.2557 141.506 88.1057 141.476 87.9257 141.286C86.5557 139.796 85.1657 138.326 83.7857 136.826C82.8257 135.796 81.8757 134.756 80.9557 133.686C80.5257 133.186 80.1557 132.626 79.8557 132.036C79.0657 130.476 77.8357 129.366 76.3357 128.506C75.4257 127.986 74.4757 127.546 73.4957 127.196C72.8157 126.946 72.3457 126.546 72.2457 125.766C72.1757 125.246 71.9257 125.076 71.4057 125.076C70.9957 125.076 70.5757 124.956 70.1757 125.166C70.0857 125.216 69.9957 125.166 69.9257 125.076C69.8457 124.976 69.8557 124.866 69.9257 124.776C70.4357 124.076 70.3357 123.296 70.0657 122.606C69.6557 121.556 69.6157 120.486 69.6057 119.406C69.5657 116.426 69.7457 113.456 69.8257 110.476C69.8757 108.186 70.0057 105.896 70.0757 103.596C70.0857 103.156 70.0757 102.726 69.9857 102.286C69.9057 101.926 70.0257 101.826 70.3957 101.896C70.4857 102.026 70.4957 102.176 70.4857 102.326C70.2757 105.936 70.1757 109.556 70.0657 113.166C70.0057 114.996 69.9057 116.836 69.9957 118.666C70.0557 119.926 70.0757 121.196 70.5557 122.406C70.7857 122.986 70.7557 123.626 70.6757 124.236C70.6457 124.446 70.7057 124.526 70.9157 124.526C71.1057 124.526 71.2957 124.556 71.4857 124.566C72.1757 124.596 72.5957 124.876 72.7157 125.556C72.8357 126.236 73.2357 126.556 73.8257 126.806C75.3257 127.446 76.7557 128.236 78.0657 129.216C78.6857 129.676 79.1657 130.246 79.6057 130.866C80.1657 131.656 80.6257 132.516 81.2157 133.286C81.9257 134.216 82.7257 135.056 83.4957 135.916C84.4757 137.006 85.4057 138.126 86.4257 139.176C86.9957 139.766 87.5857 140.336 88.2157 140.866C88.3657 140.986 88.4857 141.116 88.4557 141.326L88.4657 141.356Z" fill="#2F1909" stroke="#2F1909" stroke-width="0.28" stroke-linecap="round" stroke-linejoin="round"/>
<path fill-rule="evenodd" clip-rule="evenodd" d="M46.2156 99.7158C46.5656 99.8358 46.6457 99.9558 46.5457 100.306C45.0257 105.606 43.8957 111.006 42.7357 116.396C41.7957 120.766 41.0657 125.176 40.4357 129.606C39.9157 133.296 39.4657 136.986 39.1157 140.696C38.8257 143.776 38.5556 146.856 38.2856 149.936C38.2456 150.366 38.2656 150.806 38.2756 151.246C38.2756 151.446 38.2256 151.576 38.0356 151.646C37.8256 151.586 37.8056 151.426 37.8256 151.236C38.0656 149.256 38.1757 147.266 38.3557 145.276C38.5557 143.066 38.7656 140.856 38.9756 138.646C39.1956 136.366 39.4756 134.086 39.7656 131.816C40.1156 129.146 40.5056 126.476 40.9556 123.816C41.6356 119.736 42.4557 115.686 43.3757 111.656C44.1557 108.206 45.0157 104.776 45.7357 101.316C45.8157 100.906 45.8956 100.496 45.9456 100.086C45.9656 99.8858 46.0456 99.7658 46.2056 99.6958L46.2156 99.7158Z" fill="#2F1909" stroke="#2F1909" stroke-width="0.28" stroke-linecap="round" stroke-linejoin="round"/>
<path fill-rule="evenodd" clip-rule="evenodd" d="M46.2757 97.2858C46.4757 97.3658 46.5257 97.5558 46.5757 97.7458C47.0257 99.3658 47.8057 100.776 49.1157 101.866C50.1257 102.706 51.2957 102.926 52.5657 102.776C54.7657 102.506 56.8457 101.796 58.9157 101.076C61.3257 100.236 63.7157 99.3558 66.0257 98.2658C66.6357 97.9758 67.1757 97.5758 67.7957 97.2058C67.3157 97.0658 66.8757 97.0858 66.4457 97.0458C63.8257 96.7858 61.2057 96.7858 58.5857 96.8058C56.3957 96.8158 54.2057 96.8958 52.0257 96.8358C50.1257 96.7858 48.2357 96.6958 46.3557 96.3958C46.3157 96.3958 46.2757 96.3958 46.2257 96.3958C46.1857 96.3258 46.1357 96.2558 46.0857 96.1858C46.1157 95.9258 46.2757 95.8258 46.5157 95.9058C48.0657 96.4158 49.6857 96.3858 51.2957 96.4758C53.6657 96.6158 56.0257 96.4858 58.3957 96.4758C60.9857 96.4658 63.5757 96.5058 66.1657 96.6658C68.0957 96.7858 69.9757 97.0658 71.7557 97.8558C72.0257 97.9758 72.3857 97.9258 72.5557 98.2558C72.4757 98.5958 72.3557 98.6658 72.0457 98.5058C71.5957 98.2758 71.1457 98.0458 70.6757 97.8658C70.0057 97.5258 69.2757 97.3658 68.5357 97.2858C68.4757 97.2858 68.3657 97.2458 68.3557 97.3058C68.2957 97.6858 67.9557 97.6858 67.7157 97.8058C63.5957 99.8758 59.2657 101.416 54.8357 102.676C54.0657 102.896 53.2757 103.016 52.4757 103.136C50.5957 103.396 49.1657 102.626 47.9757 101.246C47.3957 100.576 47.0157 99.7858 46.5857 99.0258C46.5357 98.9358 46.5157 98.8258 46.4157 98.7558C46.2857 98.4258 46.1657 98.1058 46.0357 97.7758C45.9457 97.5358 45.9657 97.3558 46.2557 97.2958L46.2757 97.2858Z" fill="#2F1909" stroke="#2F1909" stroke-width="0.28" stroke-linecap="round" stroke-linejoin="round"/>
<path fill-rule="evenodd" clip-rule="evenodd" d="M43.6157 81.9856C44.4757 79.0956 45.2356 76.1756 45.9556 73.2556C46.7856 69.8956 47.3357 66.4956 47.8157 63.0756C48.1457 60.7356 48.4557 58.3856 48.5357 56.0156C48.5357 55.8656 48.6556 55.7056 48.5156 55.5556C48.6056 55.4856 48.5856 55.3856 48.5856 55.2956C48.5856 54.1856 48.5856 53.0856 48.5856 51.9756C48.5856 51.6056 48.6257 51.5556 48.9957 51.5656C49.0857 51.6656 49.1557 51.7756 49.1257 51.9056C48.8657 53.2956 48.9656 54.7156 48.8956 56.1156C48.8256 57.5956 48.6557 59.0656 48.4957 60.5456C48.1957 63.2156 47.7657 65.8656 47.3057 68.5156C46.7057 71.9756 45.8056 75.3656 44.8956 78.7456C44.2956 80.9656 43.6457 83.1756 43.1257 85.4156C42.7957 86.8356 42.8556 88.2256 43.2156 89.6156C43.4656 90.5756 43.7557 91.5256 44.0357 92.4656C44.1557 92.8756 44.2957 93.2756 44.5057 93.6556C44.5957 93.8156 44.5856 93.9556 44.4656 94.0956C44.2156 94.1456 44.1056 94.0056 44.0256 93.7856C43.5556 92.5056 43.2256 91.1856 42.8856 89.8656C42.7556 89.3456 42.5857 88.8456 42.4757 88.3256C42.3157 87.6256 42.4157 86.9456 42.5457 86.2656C42.8157 84.8156 43.2657 83.4156 43.6157 81.9856Z" fill="#2F1909" stroke="#2F1909" stroke-width="0.28" stroke-linecap="round" stroke-linejoin="round"/>
<path fill-rule="evenodd" clip-rule="evenodd" d="M47.1657 52.1458C47.3257 52.2858 47.3757 52.4458 47.3057 52.6558C46.8457 53.9558 46.6857 55.3058 46.5557 56.6658C46.3657 58.6058 46.2156 60.5558 46.2056 62.5058C46.2056 62.9258 46.2056 63.3358 46.2156 63.7558C46.2156 63.8858 46.2257 64.0258 46.1157 64.1058C45.8057 64.3158 45.7856 64.6458 45.7756 64.9658C45.7556 67.5358 45.3357 70.0558 44.8757 72.5658C44.4557 74.8858 44.0557 77.1958 43.8657 79.5458C43.8557 79.7158 43.8057 79.8558 43.6557 79.9458C43.3957 79.9058 43.3357 79.7458 43.3757 79.5058C43.7057 77.1958 44.0756 74.8958 44.4656 72.5958C44.7156 71.0858 45.0557 69.5858 45.1757 68.0558C45.2657 66.9858 45.2856 65.9058 45.2756 64.8258C45.2756 64.4358 45.3557 64.0758 45.6057 63.7458C45.8057 63.4858 45.7556 63.1258 45.7756 62.8158C45.9656 60.7658 46.0257 58.7058 46.2357 56.6558C46.3557 55.4958 46.4856 54.3458 46.7056 53.2058C46.7556 52.9658 46.7757 52.7258 46.7957 52.4758C46.8057 52.2258 46.9157 52.0958 47.1757 52.1258L47.1657 52.1458Z" fill="#2F1909" stroke="#2F1909" stroke-width="0.28" stroke-linecap="round" stroke-linejoin="round"/>
<path fill-rule="evenodd" clip-rule="evenodd" d="M74.7856 92.9857C74.8256 92.7257 74.9857 92.6157 75.2457 92.5857C75.9457 92.5157 76.6557 92.5857 77.3557 92.5657C77.7957 92.5657 78.2256 92.5857 78.6656 92.4857C79.2056 92.3557 79.6057 92.0657 79.8157 91.5257C80.2157 90.4957 80.3757 89.4157 80.5557 88.3257C80.9157 86.0557 81.0556 83.7757 81.1456 81.4857C81.1956 80.2857 81.2456 79.0757 81.1356 77.8757C81.1256 77.7357 81.0956 77.6057 81.0856 77.4657C81.0656 77.2957 81.1257 77.1657 81.2957 77.1257C81.4757 77.0857 81.5757 77.2057 81.6157 77.3657C81.6357 77.4557 81.6357 77.5557 81.6257 77.6557C81.4957 79.2657 81.5256 80.8757 81.4456 82.4857C81.3656 84.1657 81.2156 85.8457 81.0356 87.5157C80.8956 88.7457 80.7256 89.9657 80.4556 91.1757C80.4256 91.3057 80.4556 91.3457 80.5756 91.3657C81.3056 91.4257 82.0356 91.5557 82.7756 91.5257C82.8856 91.5257 82.9856 91.5657 83.0856 91.5757C83.1356 91.9557 83.0356 92.0857 82.6356 92.1157C82.1556 92.1457 81.6856 91.9857 81.2056 91.9657C80.9156 91.9557 80.6356 91.9257 80.3456 91.8957C80.2256 91.8857 80.1757 91.9457 80.1257 92.0357C79.7557 92.7857 79.0857 93.0357 78.3157 93.0757C77.8057 93.1057 77.2956 93.0757 76.7856 93.0757C76.2756 93.0757 75.7656 93.0957 75.2656 93.2157C75.0456 93.2757 74.8857 93.2157 74.7957 93.0057L74.7856 92.9857Z" fill="#2F1909" stroke="#2F1909" stroke-width="0.28" stroke-linecap="round" stroke-linejoin="round"/>
<path fill-rule="evenodd" clip-rule="evenodd" d="M47.9157 53.8057C47.7357 53.8057 47.6957 53.6957 47.6857 53.5357C47.6257 52.5357 47.4757 51.5457 47.4957 50.5457C47.5757 49.6857 47.6157 48.8257 47.8157 47.9857C48.0357 47.0657 48.4857 46.2657 49.0857 45.5457C49.2657 45.3257 49.4657 45.1157 49.6557 44.8957C49.7957 44.7357 49.9557 44.6257 50.1857 44.6457C50.3957 44.7957 50.3957 44.9757 50.3057 45.2057C49.6857 46.7957 49.3257 48.4457 49.3457 50.1657C49.3457 50.2857 49.3457 50.4057 49.3757 50.5157C49.4757 50.8157 49.3657 50.9757 49.0757 51.0457C48.9157 50.8357 48.8857 50.5957 48.9057 50.3357C49.0157 49.2557 49.1357 48.1757 49.3857 47.1157C49.4957 46.6257 49.6257 46.1357 49.6957 45.5657C48.9457 46.2157 48.4357 46.9357 48.2157 47.8357C47.7757 49.6557 47.6457 51.4957 48.1457 53.3257C48.2157 53.5657 48.1957 53.7457 47.9257 53.8157L47.9157 53.8057Z" fill="#2F1909" stroke="#2F1909" stroke-width="0.28" stroke-linecap="round" stroke-linejoin="round"/>
<path fill-rule="evenodd" clip-rule="evenodd" d="M51.8356 35.2958C51.9756 35.5158 51.9556 35.7258 51.6956 35.8158C50.9956 36.0658 50.4456 36.5458 49.9056 37.0258C48.7456 38.0358 47.6156 39.0758 46.7756 40.3858C46.4856 40.8358 46.4956 41.0058 46.9256 41.3158C48.4056 42.3958 49.9456 43.3858 51.5656 44.2558C51.6856 44.3158 51.7956 44.3758 51.8056 44.5258C51.8056 44.6358 51.7556 44.7158 51.6556 44.7458C51.5156 44.7958 51.4156 44.7158 51.3156 44.6258C51.1156 44.4458 50.9156 44.2758 50.6656 44.1658C49.7656 43.5958 48.8656 43.0258 47.9656 42.4658C47.4556 42.1458 46.9256 41.8358 46.4156 41.5158C46.0056 41.2658 45.9356 40.9158 46.2056 40.5158C47.0256 39.2858 48.0456 38.2258 49.1356 37.2358C49.8756 36.5558 50.7056 35.9858 51.4556 35.3258C51.5756 35.2258 51.7056 35.2258 51.8456 35.2858L51.8356 35.2958Z" fill="#2F1909" stroke="#2F1909" stroke-width="0.28" stroke-linecap="round" stroke-linejoin="round"/>
<path fill-rule="evenodd" clip-rule="evenodd" d="M65.0956 29.2757C65.7856 27.9757 66.2756 26.6157 66.2856 25.1157C66.3056 23.3257 65.6757 21.8057 64.5057 20.4857C63.7657 19.6557 62.9456 18.9157 61.8856 18.4757C61.6156 18.3657 61.3457 18.2957 61.0557 18.2857C60.7757 18.2757 60.6057 18.1557 60.6157 17.8557C60.7457 17.7057 60.9056 17.6957 61.0856 17.7657C63.7456 18.7557 65.5856 20.5557 66.3956 23.3157C66.7656 24.5557 66.6756 25.8257 66.3456 27.0757C66.1456 27.8457 65.9057 28.6057 65.6157 29.3557C65.5557 29.5057 65.4957 29.6457 65.3057 29.6257C65.1057 29.6057 65.0956 29.4457 65.0956 29.2857V29.2757Z" fill="#2F1909" stroke="#2F1909" stroke-width="0.28" stroke-linecap="round" stroke-linejoin="round"/>
<path fill-rule="evenodd" clip-rule="evenodd" d="M73.5856 82.6257C73.8456 82.6557 73.9157 82.8358 73.9257 83.0558C73.9457 84.5058 74.1356 85.9457 74.1456 87.4057C74.1656 89.1857 74.1757 90.9657 74.0257 92.7457C74.0257 92.8057 74.0257 92.8757 74.0257 92.9357C73.9257 94.3157 73.8257 95.6957 73.7257 97.0757C73.7057 97.3157 73.6557 97.4957 73.3657 97.4857C73.2257 97.3757 73.1656 97.2457 73.2056 97.0657C73.4956 95.7157 73.5857 94.3457 73.6857 92.9757C73.8257 91.1257 73.8657 89.2657 73.8157 87.4157C73.7757 85.9557 73.7357 84.4957 73.3757 83.0657C73.3257 82.8757 73.3556 82.7057 73.5756 82.6257H73.5856Z" fill="#2F1909" stroke="#2F1909" stroke-width="0.28" stroke-linecap="round" stroke-linejoin="round"/>
<path fill-rule="evenodd" clip-rule="evenodd" d="M50.1356 19.3457C50.6056 19.0757 51.0056 18.7057 51.4856 18.4557C51.9156 18.2257 52.3656 18.0757 52.8256 17.9357C52.9656 17.8957 53.1056 17.8857 53.2056 18.0257C53.2656 18.1057 53.2556 18.2057 53.2056 18.2957C53.1256 18.4257 53.0057 18.4557 52.8757 18.4157C52.6157 18.3457 52.3657 18.4157 52.1257 18.5157C50.8557 19.0557 49.8656 19.9557 49.0356 21.0357C47.9556 22.4357 47.2356 23.9857 47.2956 25.8057C47.3356 26.9957 47.6957 28.0657 48.5657 28.9257C48.6457 29.0057 48.7356 29.0957 48.8356 29.1457C49.1156 29.2657 49.1756 29.4457 49.0256 29.7057C48.7056 29.7257 48.5256 29.4957 48.3456 29.2857C47.1156 27.8757 46.7456 26.2457 47.0956 24.4357C47.4656 22.5157 48.5056 20.9657 49.8956 19.6357C49.9856 19.5457 50.1056 19.4857 50.1556 19.3557L50.1356 19.3457Z" fill="#2F1909" stroke="#2F1909" stroke-width="0.28" stroke-linecap="round" stroke-linejoin="round"/>
<path fill-rule="evenodd" clip-rule="evenodd" d="M60.1757 17.8057C59.9257 18.0757 59.8057 18.0557 59.6457 17.7457C59.4157 17.3057 59.0257 17.0457 58.5857 16.8757C56.7657 16.1457 54.9358 16.0957 53.1158 16.8757C52.0058 17.3457 50.9957 17.9557 50.2257 18.9157C50.1557 18.9957 50.0657 19.0157 49.9857 19.0557C49.6957 18.9557 49.6257 18.7757 49.8357 18.6057C51.7457 17.0257 53.7957 15.8057 56.4057 16.0257C57.4557 16.1157 58.4557 16.4057 59.3957 16.8857C59.7757 17.0757 60.0558 17.3857 60.1858 17.8057H60.1757Z" fill="#2F1909" stroke="#2F1909" stroke-width="0.28" stroke-linecap="round" stroke-linejoin="round"/>
<path fill-rule="evenodd" clip-rule="evenodd" d="M56.3856 115.596C55.8056 113.356 55.2256 111.116 54.6456 108.876C54.5656 108.576 54.4856 108.276 54.4556 107.966C54.3956 107.456 54.1657 107.026 53.8557 106.646C53.1757 105.806 52.4656 104.996 51.4656 104.506C51.3056 104.426 51.2157 104.286 51.3157 104.106C51.4157 103.916 51.5857 103.916 51.7557 104.026C51.8857 104.116 52.0057 104.226 52.1157 104.336C52.9057 105.116 53.7156 105.876 54.4456 106.706C54.7756 107.086 54.9557 107.496 54.9857 108.006C55.0557 109.276 55.3957 110.506 55.7257 111.736C56.8357 115.936 57.8957 120.146 58.8557 124.376C59.2657 126.196 59.7557 127.996 60.3757 129.756C60.4857 130.066 60.6957 130.306 60.9257 130.536C62.7257 132.406 64.7757 133.986 66.9157 135.416C69.4857 137.136 71.9157 139.016 74.2457 141.046C76.1557 142.706 78.0156 144.416 79.9056 146.096C80.7856 146.876 81.6157 147.706 82.4757 148.506C82.5757 148.596 82.6156 148.716 82.6556 148.836C82.4256 149.096 82.3257 149.106 82.0657 148.836C81.2457 148.046 80.4556 147.226 79.6356 146.426C77.7556 144.596 75.7956 142.856 73.8256 141.116C71.4056 138.976 68.8156 137.076 66.1356 135.286C64.2856 134.046 62.6157 132.566 60.8657 131.186C60.0357 130.536 59.7157 129.696 59.4757 128.766C58.8357 126.236 58.3457 123.676 57.7557 121.136C57.3257 119.276 56.8856 117.426 56.3956 115.586L56.3856 115.596Z" fill="#2F1909" stroke="#2F1909" stroke-width="0.28" stroke-linecap="round" stroke-linejoin="round"/>
<path fill-rule="evenodd" clip-rule="evenodd" d="M48.1257 150.716C47.9257 150.636 47.8557 150.506 47.8957 150.286C48.3957 148.066 48.6757 145.816 49.0157 143.566C50.2857 135.386 51.9857 127.306 54.7757 119.496C55.0057 118.856 55.1857 118.196 55.2957 117.516C55.3357 117.246 55.4957 117.186 55.7357 117.266C55.9657 117.476 55.8857 117.706 55.7957 117.936C54.4857 121.136 53.5257 124.446 52.5957 127.776C51.6357 131.226 50.9457 134.746 50.2957 138.266C49.6657 141.656 49.1557 145.076 48.5857 148.486C48.4857 149.096 48.4357 149.716 48.3757 150.326C48.3557 150.506 48.3157 150.666 48.1157 150.726L48.1257 150.716Z" fill="#2F1909" stroke="#2F1909" stroke-width="0.28" stroke-linecap="round" stroke-linejoin="round"/>
<path fill-rule="evenodd" clip-rule="evenodd" d="M53.5856 47.4058C53.3656 46.8358 53.6957 46.5458 54.1057 46.3358C54.3857 46.1958 54.3457 46.0758 54.1857 45.8658C53.5357 45.0058 52.8056 44.2158 52.0856 43.4058C51.2956 42.5058 50.5056 41.6158 49.7156 40.7158C49.5756 40.5558 49.4857 40.3758 49.6857 40.2158C49.8957 40.0558 50.0256 40.2058 50.1456 40.3858C50.8556 41.5158 51.7357 42.4958 52.6157 43.4858C53.3257 44.2858 54.0757 45.0458 54.7957 45.8258C55.1457 46.2058 55.0956 46.4158 54.6356 46.6558C54.5556 46.6958 54.4757 46.7258 54.4157 46.7758C54.2957 46.8658 54.0557 46.9058 54.1257 47.0958C54.2057 47.2958 54.3257 47.4958 54.6157 47.5258C55.3857 47.5958 56.1256 47.5158 56.8456 47.2458C57.0756 47.1558 57.3056 47.0758 57.4656 46.8658C57.5856 46.7158 57.7357 46.6858 57.8757 46.8358C58.0057 46.9758 57.9756 47.1358 57.8456 47.2658C57.7556 47.3558 57.6257 47.3958 57.5057 47.4358C56.6557 47.7058 55.7956 47.8958 54.8956 47.8558C54.6856 47.8558 54.6356 47.8858 54.6956 48.1058C54.8456 48.5858 54.7356 49.0858 54.6956 49.5658C54.6056 51.1458 54.6657 52.7258 54.7457 54.3058C54.8557 56.4658 54.8956 58.6158 54.4556 60.7458C54.3256 61.3558 54.1457 61.9458 53.9157 62.5158C52.8657 65.1358 52.2056 67.8758 51.6456 70.6358C51.0756 73.4358 50.6657 76.2658 50.3757 79.1158C50.1457 81.3958 50.0056 83.6858 49.9756 85.9858C49.9556 87.1858 49.8657 88.3758 49.9157 89.5758C49.9157 89.7958 49.9456 90.0258 49.9556 90.2458C49.9556 90.4358 49.9057 90.6058 49.6857 90.5958C49.4757 90.5958 49.4356 90.4258 49.4556 90.2458C49.6556 87.9858 49.6257 85.7258 49.7457 83.4658C49.8857 80.8358 50.1257 78.2158 50.4957 75.5958C50.9657 72.2558 51.6057 68.9558 52.4957 65.6958C52.7957 64.5958 53.1857 63.5158 53.5657 62.4458C54.2557 60.5358 54.5657 58.5658 54.5057 56.5358C54.4457 54.2058 54.3456 51.8858 54.2656 49.5558C54.2656 49.2958 54.2756 49.0458 54.2656 48.7858C54.2656 48.6058 54.2456 48.4158 54.1956 48.2458C54.1056 47.9458 53.9556 47.7458 53.5756 47.7058C52.9756 47.6558 52.3756 47.5158 51.7756 47.4158C51.5856 47.3858 51.3856 47.3258 51.4556 47.0858C51.5256 46.8458 51.7256 46.8958 51.9056 46.9758C52.4256 47.1858 52.9656 47.3358 53.5756 47.3858L53.5856 47.4058Z" fill="#2F1909" stroke="#2F1909" stroke-width="0.28" stroke-linecap="round" stroke-linejoin="round"/>
<path fill-rule="evenodd" clip-rule="evenodd" d="M72.6857 69.4158C72.4557 69.3758 72.3356 69.5358 72.2256 69.6958C72.0056 69.9858 71.7956 70.2858 71.5756 70.5658C71.3956 70.8058 71.1557 70.9958 70.8657 71.0958C68.3857 71.9758 66.1956 73.3758 64.0356 74.8258C62.8656 75.6058 61.6757 76.3558 60.6257 77.3158C60.4357 77.4858 60.2456 77.6558 60.0956 77.8758C59.9956 78.0158 59.8656 78.0758 59.7156 77.9658C59.5556 77.8458 59.5857 77.6858 59.6857 77.5458C59.7257 77.4858 59.7956 77.4458 59.8556 77.3958C62.1356 75.6358 64.5356 74.0358 67.0156 72.5658C68.2256 71.8458 69.4157 71.0958 70.7357 70.5858C71.0857 70.4558 71.2756 70.1358 71.4756 69.8558C71.6056 69.6858 71.7156 69.4958 71.8356 69.3258C72.1256 68.9158 72.4456 68.8058 72.9156 68.9758C74.9456 69.6958 76.9156 70.5858 78.8456 71.5358C78.9456 71.5858 79.0356 71.6358 79.1356 71.6758C79.4289 71.8158 79.6523 71.7425 79.8057 71.4558C79.8757 71.3258 79.9757 71.2558 80.1157 71.3058C80.2757 71.3558 80.3157 71.4858 80.2957 71.6358C80.2357 72.1858 79.5856 72.5058 79.1356 72.2058C77.2656 70.9758 75.2256 70.1258 73.0956 69.4758C72.9656 69.4358 72.8357 69.3858 72.6857 69.4058V69.4158Z" fill="#2F1909" stroke="#2F1909" stroke-width="0.28" stroke-linecap="round" stroke-linejoin="round"/>
<path fill-rule="evenodd" clip-rule="evenodd" d="M71.6057 42.7558C71.6057 42.9258 71.5657 43.0658 71.3957 43.1558C70.9957 43.3758 70.6857 43.6958 70.4057 44.0458C68.2757 46.7658 67.0757 49.8658 66.5157 53.2458C66.3357 54.3458 66.2757 55.4558 66.5057 56.5458C66.6957 57.4258 67.0557 58.2458 67.6257 58.9558C67.7357 59.0858 67.7657 59.2158 67.7157 59.3658C67.5557 59.4958 67.4157 59.4458 67.2957 59.3058C67.2357 59.2358 67.1757 59.1558 67.1257 59.0758C66.2957 57.6358 65.8557 56.1158 66.0157 54.4358C66.3557 51.0358 67.4357 47.8958 69.2457 44.9958C69.7357 44.2158 70.3157 43.5058 70.8957 42.8058C71.1757 42.4658 71.3057 42.4758 71.5957 42.7458L71.6057 42.7558Z" fill="#2F1909" stroke="#2F1909" stroke-width="0.28" stroke-linecap="round" stroke-linejoin="round"/>
<path fill-rule="evenodd" clip-rule="evenodd" d="M68.3957 40.9558C69.3257 40.9758 70.3357 41.1158 71.2757 41.6258C71.4757 41.7358 71.6857 41.7958 71.8857 41.9058C72.0457 41.9858 72.1257 42.1258 72.0257 42.3058C71.9257 42.4658 71.7557 42.5058 71.6157 42.3658C70.7457 41.4558 69.6157 41.3258 68.4657 41.3058C65.9857 41.2658 63.8457 42.1858 61.9457 43.7158C61.4157 44.1458 60.8957 44.5958 60.4657 45.1258C60.2957 45.3358 60.1357 45.5458 60.0257 45.7858C59.9557 45.9358 59.8357 46.0358 59.6657 45.9358C59.5057 45.8358 59.5157 45.6858 59.6057 45.5458C59.6657 45.4558 59.7357 45.3758 59.8057 45.2958C60.8057 44.2558 61.8157 43.2358 63.0657 42.4958C64.6757 41.5358 66.3957 40.9858 68.3957 40.9658V40.9558Z" fill="#2F1909" stroke="#2F1909" stroke-width="0.28" stroke-linecap="round" stroke-linejoin="round"/>
<path fill-rule="evenodd" clip-rule="evenodd" d="M59.4357 76.8858C59.4257 77.5158 59.5557 78.1158 59.7757 78.6958C60.8857 81.6958 62.4857 84.4358 64.2857 87.0558C64.3457 87.1458 64.4257 87.2158 64.4957 87.2958C64.5857 87.3958 64.6657 87.4958 64.6057 87.6358C64.5657 87.7158 64.4957 87.7658 64.3957 87.7658C64.2657 87.7658 64.1857 87.6758 64.1357 87.5558C63.9257 87.1258 63.6457 86.7358 63.3857 86.3258C62.2657 84.5858 61.2457 82.7858 60.3457 80.9258C59.7257 79.6458 59.2157 78.3258 58.9957 76.9158C58.9657 76.7258 58.9557 76.5358 58.9557 76.3458C58.9557 76.1758 59.0557 76.0558 59.2357 76.0658C59.4157 76.0758 59.4957 76.2058 59.4957 76.3758C59.4957 76.5458 59.4657 76.7158 59.4457 76.8858H59.4357Z" fill="#2F1909" stroke="#2F1909" stroke-width="0.28" stroke-linecap="round" stroke-linejoin="round"/>
<path fill-rule="evenodd" clip-rule="evenodd" d="M67.5857 56.9158C67.2957 56.9658 67.1957 56.8158 67.2157 56.5458C67.2657 55.8658 67.4657 55.2058 67.6157 54.5458C68.1457 52.3058 68.8357 50.1258 69.8557 48.0558C70.0457 47.6658 70.2457 47.2758 70.4557 46.8858C70.5557 46.7058 70.6857 46.5458 70.9257 46.5858C71.0557 46.6358 71.1857 46.6858 71.1757 46.8658C71.1757 47.0158 71.0757 47.0958 70.9457 47.1358C70.7857 47.1758 70.7157 47.3158 70.6357 47.4358C69.8757 48.5858 69.3657 49.8458 68.9157 51.1358C68.4257 52.5758 67.9858 54.0358 67.7558 55.5458C67.7058 55.8758 67.7057 56.2058 67.7057 56.5358C67.7057 56.6858 67.7057 56.8158 67.5757 56.9158H67.5857Z" fill="#2F1909" stroke="#2F1909" stroke-width="0.28" stroke-linecap="round" stroke-linejoin="round"/>
<path fill-rule="evenodd" clip-rule="evenodd" d="M68.8956 60.3057C68.9256 59.9857 68.7057 59.6857 68.8057 59.3657C69.0657 59.1957 69.2857 59.2557 69.2757 59.5357C69.1857 62.2157 70.2957 64.6557 70.8657 67.1957C71.0257 67.8957 71.2156 68.5758 71.3956 69.2658C71.4256 69.3658 71.4456 69.4758 71.4456 69.5758C71.4456 69.7058 71.3757 69.8058 71.2457 69.8258C71.1057 69.8458 71.0257 69.7558 70.9857 69.6358C70.9757 69.6058 70.9657 69.5758 70.9657 69.5458C70.8657 67.8458 70.2657 66.2658 69.8457 64.6358C69.4757 63.2058 69.0856 61.7757 68.8956 60.3057Z" fill="#2F1909" stroke="#2F1909" stroke-width="0.28" stroke-linecap="round" stroke-linejoin="round"/>
<path fill-rule="evenodd" clip-rule="evenodd" d="M73.0957 68.3656C72.9057 68.3656 72.7857 68.1857 72.8757 68.0157C72.9257 67.9157 73.0157 67.8656 73.1057 67.8056C74.6957 66.8656 76.2757 65.9156 77.9657 65.1656C78.0057 65.1456 78.0457 65.1256 78.0857 65.1056C78.2557 65.0356 78.4157 65.0556 78.4857 65.2456C78.5657 65.4556 78.4357 65.5757 78.2457 65.6257C76.4057 66.0957 74.8057 67.0356 73.3457 68.2256C73.2657 68.2856 73.1957 68.3456 73.0957 68.3656Z" fill="#2F1909" stroke="#2F1909" stroke-width="0.28" stroke-linecap="round" stroke-linejoin="round"/>
<path fill-rule="evenodd" clip-rule="evenodd" d="M54.5957 24.8258C54.4157 24.8658 54.3557 25.0258 54.2757 25.1458C53.2757 26.5158 52.3857 27.9558 51.7757 29.5458C51.7357 29.6558 51.6657 29.7658 51.5357 29.7558C51.4057 29.7558 51.3857 29.6258 51.3657 29.5158C52.4457 27.3958 53.4957 25.2658 55.2457 23.5958C55.8757 22.9958 56.6257 22.5558 57.3557 22.1058C57.5257 22.0058 57.6957 22.0058 57.7757 22.2158C57.8457 22.3858 57.7657 22.5158 57.5857 22.5458C56.4157 22.7858 55.6557 23.6158 54.8757 24.4158C54.7957 24.4958 54.7357 24.5958 54.6657 24.6958C54.6157 24.7358 54.5357 24.7558 54.5957 24.8458V24.8258Z" fill="#2F1909" stroke="#2F1909" stroke-width="0.28" stroke-linecap="round" stroke-linejoin="round"/>
<path fill-rule="evenodd" clip-rule="evenodd" d="M59.2557 22.4156C59.1857 22.5256 59.0756 22.6056 58.9456 22.6356C58.2156 22.8056 57.6357 23.2456 57.0857 23.7256C56.1357 24.5656 55.2657 25.4956 54.4857 26.4956C54.3457 26.6856 54.2056 26.8756 54.1356 27.1056C54.0956 27.2256 54.0257 27.3457 53.8757 27.3457C53.7957 27.3457 53.7256 27.3057 53.6956 27.2357C53.6256 27.0957 53.6957 26.9956 53.7957 26.8956C54.0257 26.6656 54.1957 26.3956 54.3757 26.1356C55.0157 25.3856 55.6757 24.6457 56.3957 23.9557C56.9457 23.4257 57.5356 22.9656 58.2056 22.5856C58.3956 22.4756 58.5757 22.3357 58.7557 22.2057C58.8557 22.1357 58.9457 22.0156 59.0957 22.0856C59.2357 22.1456 59.2856 22.2756 59.2656 22.4256L59.2557 22.4156Z" fill="#2F1909" stroke="#2F1909" stroke-width="0.28" stroke-linecap="round" stroke-linejoin="round"/>
<path fill-rule="evenodd" clip-rule="evenodd" d="M51.2357 29.3858C51.2257 30.0058 51.1757 30.6358 51.3657 31.2558C51.4157 31.4258 51.3757 31.5658 51.1857 31.5958C50.9957 31.6158 50.9257 31.4758 50.9257 31.3058C50.9257 31.0558 50.9257 30.7958 50.9257 30.5458C50.9257 29.7258 50.9257 28.9058 51.0057 28.0958C51.0957 27.1658 51.2957 26.2458 51.4857 25.3358C51.5157 25.1958 51.5657 25.0658 51.7357 25.0458C51.8357 25.0358 51.9357 25.0458 51.9857 25.1458C52.0757 25.2858 52.0157 25.4158 51.9357 25.5258C51.5957 26.0058 51.5257 26.5658 51.4357 27.1258C51.3157 27.8858 51.2256 28.6458 51.2256 29.4058L51.2357 29.3858Z" fill="#2F1909" stroke="#2F1909" stroke-width="0.28" stroke-linecap="round" stroke-linejoin="round"/>
<path fill-rule="evenodd" clip-rule="evenodd" d="M77.3457 85.2756C78.3857 85.2556 79.2257 85.4156 80.0757 85.4556C80.2757 85.4556 80.4057 85.5856 80.3557 85.7956C80.3057 85.9756 80.1557 86.0456 79.9757 85.9756C78.7357 85.4756 77.4757 85.5956 76.2057 85.7956C76.0157 85.8256 75.8257 85.8356 75.6357 85.8356C75.4757 85.8356 75.3757 85.7356 75.3657 85.5856C75.3657 85.4356 75.4857 85.3756 75.6157 85.3456C75.6457 85.3456 75.6757 85.3456 75.7157 85.3456C76.3257 85.3456 76.9257 85.3356 77.3457 85.2956V85.2756Z" fill="#2F1909" stroke="#2F1909" stroke-width="0.28" stroke-linecap="round" stroke-linejoin="round"/>
<path fill-rule="evenodd" clip-rule="evenodd" d="M57.3157 34.7856C58.3357 34.6556 59.4557 34.6657 60.5157 34.2957C60.5457 34.2857 60.5757 34.2757 60.6057 34.2657C60.7957 34.2257 60.9957 34.2056 61.0457 34.4456C61.1057 34.7056 60.9057 34.7757 60.7057 34.8057C60.5357 34.8357 60.3657 34.8456 60.1957 34.8656C59.0757 34.9656 57.9457 35.0057 56.8257 35.2057C56.6557 35.2357 56.5057 35.1857 56.5057 34.9857C56.5057 34.7957 56.6457 34.7456 56.8157 34.7556C56.9557 34.7556 57.0957 34.7657 57.3057 34.7757L57.3157 34.7856Z" fill="#2F1909" stroke="#2F1909" stroke-width="0.28" stroke-linecap="round" stroke-linejoin="round"/>
<path fill-rule="evenodd" clip-rule="evenodd" d="M58.4757 28.6656C58.4957 28.4456 58.5857 28.3056 58.7957 28.3256C59.0057 28.3456 59.0457 28.4956 59.0357 28.7056C58.9757 29.7156 59.4757 30.4656 60.1757 31.1056C60.2657 31.1956 60.3957 31.2456 60.3857 31.3956C60.3857 31.4856 60.3257 31.5556 60.2357 31.5856C60.0757 31.6356 59.9657 31.5556 59.8757 31.4456C59.3357 30.7656 58.8957 30.0356 58.6357 29.1956C58.5757 29.0156 58.5257 28.8256 58.4757 28.6656Z" fill="#2F1909" stroke="#2F1909" stroke-width="0.28" stroke-linecap="round" stroke-linejoin="round"/>
<path fill-rule="evenodd" clip-rule="evenodd" d="M55.9556 30.8458C55.9556 30.9158 55.9557 31.0158 55.9357 31.1258C55.9057 31.2758 55.8256 31.4058 55.6657 31.4458C55.4857 31.4858 55.3457 31.4158 55.2557 31.2658C55.0157 30.8758 54.9456 30.4358 54.9556 29.9858C54.9556 29.7558 55.1557 29.6458 55.3657 29.6058C55.5757 29.5658 55.7156 29.6858 55.7856 29.8758C55.9056 30.1758 55.9456 30.4858 55.9656 30.8458H55.9556Z" fill="#2F1909" stroke="#2F1909" stroke-width="0.28" stroke-linecap="round" stroke-linejoin="round"/>
<path fill-rule="evenodd" clip-rule="evenodd" d="M61.2856 30.1258C61.2956 29.9958 61.3057 29.8758 61.3157 29.7458C61.3357 29.5458 61.4556 29.4358 61.6456 29.4158C61.8456 29.3958 62.0057 29.4858 62.0557 29.6958C62.1457 30.0758 62.0956 30.4558 62.0156 30.8358C61.9956 30.9558 61.8757 31.0258 61.7557 31.0358C61.5957 31.0358 61.4656 30.9558 61.3956 30.8158C61.2856 30.6058 61.2757 30.3658 61.2957 30.1358L61.2856 30.1258Z" fill="#2F1909" stroke="#2F1909" stroke-width="0.28" stroke-linecap="round" stroke-linejoin="round"/>
<path fill-rule="evenodd" clip-rule="evenodd" d="M50.0757 31.4558C50.1757 31.4558 50.2558 31.4958 50.3058 31.5658C50.4558 31.7458 50.6457 31.8858 50.8357 32.0058C50.9657 32.0858 51.0358 32.2158 50.9358 32.3558C50.8258 32.5158 50.6758 32.4858 50.5558 32.3758C50.3658 32.2058 50.1757 32.0458 49.9457 31.9158C49.8357 31.8558 49.7957 31.7358 49.8357 31.6158C49.8757 31.5058 49.9658 31.4558 50.0658 31.4458L50.0757 31.4558Z" fill="#2F1909" stroke="#2F1909" stroke-width="0.28" stroke-linecap="round" stroke-linejoin="round"/>
<path fill-rule="evenodd" clip-rule="evenodd" d="M62.3657 27.9158C62.3357 28.0558 62.2357 28.0858 62.1257 28.0458C61.6257 27.8358 61.1657 27.9858 60.7057 28.1658C60.6657 28.1858 60.6257 28.1958 60.5857 28.2158C60.4857 28.2558 60.3857 28.2558 60.3457 28.1358C60.3157 28.0358 60.3757 27.9658 60.4657 27.9358C61.0357 27.7558 61.6157 27.6258 62.2157 27.7358C62.3057 27.7558 62.3657 27.8158 62.3657 27.9058V27.9158Z" fill="#2F1909" stroke="#2F1909" stroke-width="0.28" stroke-linecap="round" stroke-linejoin="round"/>
<path fill-rule="evenodd" clip-rule="evenodd" d="M56.0356 27.7957C56.3156 27.7757 56.5256 27.7757 56.7256 27.8657C56.8356 27.9157 56.9357 27.9957 56.8657 28.1357C56.7857 28.2757 56.6856 28.2257 56.5756 28.1457C56.1856 27.8757 55.7856 28.0457 55.3856 28.1657C55.3256 28.1857 55.2756 28.2157 55.2156 28.2457C55.1256 28.2957 55.0256 28.3157 54.9756 28.1957C54.9256 28.0857 55.0057 28.0157 55.1057 27.9857C55.4257 27.8657 55.7556 27.7857 56.0356 27.7957Z" fill="#2F1909" stroke="#2F1909" stroke-width="0.28" stroke-linecap="round" stroke-linejoin="round"/>
</g>
</svg>
