<svg width="100" height="100" viewBox="0 0 100 100" fill="none" xmlns="http://www.w3.org/2000/svg">
<path d="M59.4024 3.89413L62.3632 6.85492C64.8579 9.34958 68.2373 10.748 71.7678 10.748H75.9544C83.3002 10.748 89.252 16.6998 89.252 24.0456V28.2322C89.252 31.7583 90.6547 35.1421 93.1451 37.6368L96.1059 40.5976C101.298 45.7897 101.298 54.2103 96.1059 59.4025L93.1451 62.3632C90.6504 64.8579 89.252 68.2373 89.252 71.7678V75.9544C89.252 83.3002 83.3002 89.252 75.9544 89.252H71.7678C68.2417 89.252 64.8579 90.6547 62.3632 93.1451L59.4024 96.1059C54.2103 101.298 45.7897 101.298 40.5976 96.1059L37.6368 93.1451C35.1421 90.6504 31.7627 89.252 28.2322 89.252H24.0456C16.6998 89.252 10.748 83.3002 10.748 75.9544V71.7678C10.748 68.2417 9.34526 64.8579 6.85492 62.3632L3.89413 59.4025C-1.29804 54.2103 -1.29804 45.7897 3.89413 40.5976L6.85492 37.6368C9.34958 35.1421 10.748 31.7627 10.748 28.2322V24.0456C10.748 16.6998 16.6998 10.748 24.0456 10.748H28.2322C31.7583 10.748 35.1421 9.34526 37.6368 6.85492L40.5976 3.89413C45.7897 -1.29804 54.2103 -1.29804 59.4024 3.89413Z" fill="#CD594D"/>
<path d="M53.1533 17.0418L49.9983 11.582L46.8476 17.0418L41.4482 11.582V23.0713H43.3646H47.1929H52.8037H56.632H58.5483V11.582L53.1533 17.0418Z" fill="white" fill-opacity="0.5"/>
<path d="M50.3485 82.0186L51.7815 84.9276L54.9926 85.3937L52.6706 87.6596L53.2187 90.8534L50.3485 89.3428L47.4784 90.8534L48.0265 87.6596L45.7002 85.3937L48.9113 84.9276L50.3485 82.0186Z" fill="white" fill-opacity="0.5"/>
<path d="M73.4911 18.063L73.5818 21.5805L76.5339 23.5012L73.2149 24.6751L72.3042 28.0762L70.1592 25.2837L66.6416 25.465L68.6399 22.5646L67.3796 19.2758L70.7548 20.2771L73.4911 18.063Z" fill="white" fill-opacity="0.5"/>
<path d="M26.5047 18.063L26.4141 21.5805L23.4619 23.5012L26.7809 24.6751L27.6959 28.0762L29.8367 25.2837L33.3542 25.465L31.3602 22.5646L32.6162 19.2758L29.2411 20.2771L26.5047 18.063Z" fill="white" fill-opacity="0.5"/>
<path d="M68.3858 84.6995L68.4549 81.9977L70.7208 80.5216L68.1743 79.6196L67.4708 77.0127L65.8264 79.1578L63.1289 79.0153L64.6568 81.2424L63.69 83.7673L66.2839 82.999L68.3858 84.6995Z" fill="white" fill-opacity="0.5"/>
<path d="M32.3062 84.6995L32.2371 81.9977L29.9712 80.5216L32.5176 79.6196L33.2212 77.0127L34.8656 79.1578L37.5674 79.0153L36.0352 81.2424L37.002 83.7673L34.4081 82.999L32.3062 84.6995Z" fill="white" fill-opacity="0.5"/>
<path d="M34.9163 32.4571H36.7391V36.6236C36.7391 37.1904 36.8923 37.267 37.796 37.267C38.2096 37.267 39.9559 37.267 40.4614 37.267C41.2273 37.267 41.3498 37.0219 41.457 35.5054C41.84 35.7811 42.6212 36.0568 43.1114 36.1641C42.8816 38.3392 42.3455 38.906 40.5992 38.906C40.1397 38.906 38.0564 38.906 37.6122 38.906C35.4677 38.906 34.9163 38.3852 34.9163 36.6236V32.4571ZM40.8443 33.1005L42.2076 34.4331C40.5073 35.1378 38.2249 35.6892 36.2642 36.0568C36.1723 35.6586 35.9119 35.0458 35.7128 34.6935C37.5509 34.3106 39.6036 33.6979 40.8443 33.1005ZM34.8856 39.7944H42.3608V46.7488H40.538V41.3109H36.6166V46.8254H34.8856V39.7944ZM35.8047 42.2606H41.166V43.6852H35.8047V42.2606ZM35.7281 44.6962H41.166V46.1514H35.7281V44.6962ZM28.6052 40.254C30.0298 39.9476 32.159 39.4268 34.1504 38.906L34.3648 40.591C32.542 41.1118 30.5813 41.6173 29.0495 42.0155L28.6052 40.254ZM28.835 35.3216H34.1197V37.0372H28.835V35.3216ZM30.7498 32.4418H32.5573V44.8494C32.5573 45.7378 32.4041 46.1974 31.8833 46.4731C31.3625 46.7488 30.6272 46.8101 29.5396 46.7948C29.4937 46.3352 29.2486 45.5846 29.0341 45.1251C29.6315 45.1404 30.2596 45.1404 30.4587 45.1404C30.6732 45.1251 30.7498 45.0638 30.7498 44.8494V32.4418ZM47.0175 37.0678H55.4883V38.8141H47.0175V37.0678ZM51.2452 40.7441H56.4227V42.4598H51.2452V40.7441ZM50.2802 38.0788H52.2103V45.4774L50.2802 45.2476V38.0788ZM46.6192 39.6719L48.5493 39.871C48.151 42.9806 47.2013 45.4161 45.455 46.9173C45.1487 46.5956 44.3675 45.937 43.9386 45.6612C45.5929 44.4358 46.3588 42.3066 46.6192 39.6719ZM48.1051 41.5866C49.0854 44.4052 51.2299 44.8341 53.9565 44.8341C54.7684 44.8341 57.3265 44.8341 58.3528 44.8034C58.0924 45.2323 57.786 46.1208 57.7094 46.6722H53.8493C50.3109 46.6722 47.9212 45.9523 46.6039 42.0921L48.1051 41.5866ZM50.2496 32.4571H52.2103V35.2603H50.2496V32.4571ZM44.6738 34.0042H57.8473V37.849H55.9479V35.7505H46.4813V37.849H44.6738V34.0042ZM65.0927 34.571H73.6095V36.2713H65.0927V34.571ZM68.4167 32.4418H70.2089V35.3369H68.4167V32.4418ZM66.8849 36.3938L68.524 37.0985C67.85 38.4158 66.8696 39.7332 65.8586 40.5757C65.5829 40.2233 65.0008 39.6872 64.6026 39.3962C65.5216 38.6762 66.3948 37.4661 66.8849 36.3938ZM70.0558 37.1597L71.4803 36.3479C72.4147 37.3129 73.441 38.6149 73.8853 39.5493L72.3228 40.4531C71.9552 39.5493 70.9595 38.1554 70.0558 37.1597ZM68.0185 39.2736C69.0141 41.9849 71.0514 44.2367 73.9159 45.2323C73.5023 45.6153 72.9202 46.3659 72.6445 46.8714C69.5962 45.6 67.6202 43.0265 66.4254 39.7025L68.0185 39.2736ZM70.2396 39.1664L72.0777 39.534C71.0514 42.8734 69.0141 45.554 65.3072 46.8714C65.1234 46.4578 64.6791 45.7685 64.3728 45.4161C67.7121 44.3132 69.5503 41.9543 70.2396 39.1664ZM59.5936 35.5973H64.9242V37.3129H59.5936V35.5973ZM61.5543 32.4418H63.2546V46.8254H61.5543V32.4418ZM61.5236 36.7768L62.5653 37.1444C62.121 39.5953 61.202 42.5517 60.0837 44.1294C59.9152 43.6239 59.517 42.904 59.2412 42.4598C60.2369 41.1271 61.1407 38.7375 61.5236 36.7768ZM63.178 38.0022C63.5456 38.4311 64.8783 40.4531 65.1693 40.9126L64.1736 42.2913C63.7907 41.3416 62.8257 39.5493 62.3814 38.7681L63.178 38.0022ZM35.529 58.2933H42.4068V59.8404H35.529V58.2933ZM35.529 61.3109H42.4068V62.858H35.529V61.3109ZM35.3298 64.3898H43.0961V66.0595H35.3298V64.3898ZM38.3168 56.1334H40.0171V64.88H38.3168V56.1334ZM39.2819 52.4724L41.2273 52.8707C40.6911 54.2034 40.0325 55.6433 39.527 56.5623L37.9492 56.1641C38.4547 55.1684 39.0062 53.6213 39.2819 52.4724ZM35.7741 52.4112L37.5356 52.8554C36.8004 55.3675 35.5596 57.895 34.0891 59.4728C33.8593 59.0898 33.2772 58.2473 32.9249 57.849C34.1963 56.5777 35.2073 54.525 35.7741 52.4112ZM36.5246 55.245H42.805V56.8534H36.5246V66.8101H34.7631V56.1487L35.6668 55.245H36.5246ZM28.5899 60.2693C29.8766 60.0089 31.7914 59.534 33.6142 59.0745L33.8287 60.6982C32.159 61.1884 30.3821 61.6785 28.9729 62.0615L28.5899 60.2693ZM28.8963 55.3522H33.6295V57.0372H28.8963V55.3522ZM30.7038 52.4571H32.4654V64.7575C32.4654 65.6612 32.3122 66.1514 31.8067 66.4424C31.3012 66.7488 30.5659 66.8101 29.5243 66.8101C29.463 66.3199 29.2333 65.5234 29.0035 65.0179C29.6009 65.0485 30.2289 65.0485 30.4281 65.0485C30.6272 65.0485 30.7038 64.9719 30.7038 64.7575V52.4571ZM44.4594 53.2383H58.0924V54.6935H44.4594V53.2383ZM46.0524 55.7811H57.9545V57.0219H46.0524V55.7811ZM48.9322 60.9586H58.0311V62.1228H48.9322V60.9586ZM48.5952 62.6436H56.5759V63.8537H48.5952V62.6436ZM47.6762 52.4418H49.4837V55.4901H47.6762V52.4418ZM53.0681 52.4418H54.9063V55.4901H53.0681V52.4418ZM50.3262 55.0458H52.0571V56.2866H50.3262V55.0458ZM48.7331 56.6389H50.2802V59.6872H48.7331V56.6389ZM52.0724 56.6389H53.6349V59.6872H52.0724V56.6389ZM45.2253 55.7811H46.9256V59.1817C46.9256 61.3875 46.6958 64.6043 45.3785 66.6875C45.0568 66.4118 44.3062 65.9676 43.8773 65.7991C45.1027 63.869 45.2253 61.1118 45.2253 59.1664V55.7811ZM46.2822 57.6499H57.3418V60.4225H46.2822V59.3962H55.5496V58.6762H46.2822V57.6499ZM48.0744 60.0395L49.7441 60.2233C49.4684 61.51 49.0701 63.0572 48.7637 64.0682L47.1094 63.915C47.4311 62.904 47.8293 61.2956 48.0744 60.0395ZM56.147 62.6436H57.832C57.832 62.6436 57.8167 63.0265 57.8014 63.2257C57.6635 65.1098 57.4797 65.9676 57.1427 66.3352C56.867 66.6263 56.5453 66.7335 56.1623 66.7794C55.8407 66.8254 55.2586 66.8254 54.6305 66.7948C54.5999 66.3965 54.462 65.8297 54.2629 65.4621C54.7071 65.5234 55.1054 65.5234 55.3045 65.5234C55.5037 65.5234 55.6109 65.508 55.7181 65.3855C55.9019 65.1864 56.0398 64.5124 56.147 62.8427V62.6436ZM47.3085 64.0528L48.6412 64.6043C48.3195 65.4315 47.8447 66.2893 47.0941 66.856L45.8227 66.0442C46.4813 65.5693 47.0175 64.7881 47.3085 64.0528ZM49.0701 64.4358L50.4028 64.252C50.5866 64.9566 50.7091 65.8757 50.7244 66.4578L49.2845 66.6722C49.3152 66.0748 49.208 65.1404 49.0701 64.4358ZM51.0002 64.4358L52.2869 64.0682C52.6086 64.6656 52.8996 65.4774 53.0221 65.9982L51.6742 66.4424C51.5822 65.891 51.2912 65.0638 51.0002 64.4358ZM52.9455 64.2213L54.1097 63.7465C54.4773 64.1447 54.8603 64.7115 55.0441 65.0945L53.834 65.6459C53.6808 65.263 53.2825 64.6502 52.9455 64.2213ZM64.8323 61.2496H73.7934V62.9499H64.8323V61.2496ZM68.3861 59.243H70.2243V66.8254H68.3861V59.243ZM65.5523 54.2493H71.174V55.8424H65.5523V54.2493ZM67.6355 52.4571H69.4584C69.3205 56.1487 68.9529 58.569 65.7667 59.8557C65.5982 59.4574 65.1387 58.8294 64.7711 58.5384C67.4057 57.4814 67.5589 55.582 67.6355 52.4571ZM70.2702 54.2493H71.9552V57.4508C71.9552 57.7112 71.9705 57.849 72.0011 57.9103C72.0318 57.9716 72.0777 57.9869 72.1543 57.9869C72.2156 57.9869 72.3228 57.9869 72.3994 57.9869C72.476 57.9869 72.5526 57.9716 72.5832 57.9256C72.6292 57.895 72.6905 57.8184 72.7058 57.6346C72.7364 57.4508 72.7517 57.0525 72.7671 56.547C73.0428 56.8074 73.5483 57.0525 73.9465 57.1751C73.9159 57.7571 73.8546 58.4005 73.7474 58.6609C73.6402 58.9213 73.4717 59.1204 73.2419 59.243C73.0428 59.3655 72.6905 59.4115 72.4301 59.4115C72.2003 59.4115 71.8786 59.4115 71.6642 59.4115C71.2965 59.4115 70.8829 59.3043 70.6378 59.0439C70.3774 58.7834 70.2702 58.4618 70.2702 57.4967V54.2493ZM59.5936 55.5973H65.0774V57.3129H59.5936V55.5973ZM61.6309 52.4418H63.3618V66.8254H61.6309V52.4418ZM61.5696 56.7768L62.6265 57.1597C62.167 59.6106 61.2173 62.5823 60.0684 64.1601C59.8999 63.6546 59.4863 62.904 59.2106 62.4598C60.2522 61.1271 61.1713 58.7375 61.5696 56.7768ZM63.3005 58.0175C63.6835 58.3699 65.0161 59.9629 65.2919 60.3306L64.3268 61.7245C63.9286 60.9433 62.9482 59.4574 62.4887 58.7834L63.3005 58.0175Z" fill="white"/>
</svg>
