<svg width="291" height="92" viewBox="0 0 291 92" fill="none" xmlns="http://www.w3.org/2000/svg">
<path d="M53.3398 26.5599C53.1358 26.5599 52.9498 26.4939 52.7818 26.3619C52.6258 26.2299 52.5418 26.0499 52.5298 25.8219C52.5298 25.6179 52.6018 25.4379 52.7458 25.2819C52.8898 25.1259 53.0998 25.0419 53.3758 25.0299C54.0118 25.0059 54.4198 24.8799 54.5998 24.6519C54.7918 24.4119 54.8878 23.9979 54.8878 23.4099C54.8878 23.2419 54.8758 23.0799 54.8518 22.9239C54.8398 22.7559 54.8038 22.5939 54.7438 22.4379C54.0358 22.5219 53.3458 22.6059 52.6738 22.6899C52.0138 22.7619 51.4558 22.8219 50.9998 22.8699C50.7838 22.8819 50.6038 22.8279 50.4598 22.7079C50.3158 22.5879 50.2318 22.4199 50.2078 22.2039C50.1838 21.9999 50.2318 21.8319 50.3518 21.6999C50.4718 21.5559 50.6458 21.4719 50.8738 21.4479C51.2578 21.4239 51.7258 21.3819 52.2778 21.3219C52.8298 21.2619 53.4058 21.1959 54.0058 21.1239C53.9578 21.0759 53.9098 21.0279 53.8618 20.9799C53.8258 20.9319 53.7778 20.8839 53.7178 20.8359C53.5618 20.6919 53.5018 20.5239 53.5378 20.3319C53.5738 20.1279 53.6638 19.9659 53.8078 19.8459C53.9518 19.7379 54.1138 19.6899 54.2938 19.7019C54.4858 19.7019 54.6598 19.7679 54.8158 19.8999L54.8518 19.9359C55.0198 19.8279 55.1818 19.7199 55.3378 19.6119C55.4938 19.5039 55.5958 19.4259 55.6438 19.3779C55.7878 19.2819 55.8478 19.1919 55.8238 19.1079C55.8118 19.0119 55.7098 18.9639 55.5178 18.9639H53.4658C53.1178 19.2519 52.7638 19.5219 52.4038 19.7739C52.0438 20.0259 51.6778 20.2659 51.3058 20.4939C51.1258 20.6019 50.9338 20.6499 50.7298 20.6379C50.5378 20.6139 50.3818 20.5119 50.2618 20.3319C50.1658 20.1639 50.1298 19.9839 50.1538 19.7919C50.1898 19.5999 50.2918 19.4559 50.4598 19.3599C51.1678 18.9519 51.8458 18.4899 52.4938 17.9739C53.1418 17.4579 53.7478 16.9119 54.3118 16.3359H50.8378C50.6458 16.3359 50.4898 16.2759 50.3698 16.1559C50.2498 16.0239 50.1898 15.8679 50.1898 15.6879C50.1898 15.5079 50.2498 15.3519 50.3698 15.2199C50.4898 15.0879 50.6458 15.0219 50.8378 15.0219H53.6818V13.2579H51.5578C51.3658 13.2579 51.2098 13.1979 51.0898 13.0779C50.9698 12.9459 50.9098 12.7899 50.9098 12.6099C50.9098 12.4299 50.9698 12.2799 51.0898 12.1599C51.2098 12.0279 51.3658 11.9619 51.5578 11.9619H53.6818V10.5939C53.6818 10.3539 53.7538 10.1619 53.8978 10.0179C54.0538 9.87394 54.2398 9.80194 54.4558 9.80194C54.6718 9.80194 54.8518 9.87394 54.9958 10.0179C55.1518 10.1619 55.2298 10.3539 55.2298 10.5939V11.9619H56.3998C56.6038 11.9619 56.7598 12.0279 56.8678 12.1599C56.9878 12.2799 57.0478 12.4299 57.0478 12.6099C57.0478 12.7899 56.9878 12.9459 56.8678 13.0779C56.7598 13.1979 56.6038 13.2579 56.3998 13.2579H55.2298V15.0219H55.4818C56.5018 13.7859 57.3058 12.5499 57.8938 11.3139C57.9898 11.0859 58.1398 10.9419 58.3438 10.8819C58.5478 10.8219 58.7518 10.8399 58.9558 10.9359C59.1478 11.0199 59.2678 11.1579 59.3158 11.3499C59.3758 11.5419 59.3578 11.7399 59.2618 11.9439C58.9858 12.4599 58.6798 12.9819 58.3438 13.5099C58.0198 14.0259 57.6658 14.5299 57.2818 15.0219H58.4338C58.6378 15.0219 58.7938 15.0879 58.9018 15.2199C59.0218 15.3519 59.0818 15.5079 59.0818 15.6879C59.0818 15.8679 59.0218 16.0239 58.9018 16.1559C58.7938 16.2759 58.6378 16.3359 58.4338 16.3359H56.2018C55.8058 16.7919 55.3798 17.2359 54.9238 17.6679H56.3638C56.8318 17.6679 57.1798 17.7999 57.4078 18.0639C57.6478 18.3159 57.7438 18.6219 57.6958 18.9819C57.6478 19.3299 57.4318 19.6479 57.0478 19.9359C56.8918 20.0559 56.6818 20.2059 56.4178 20.3859C56.1658 20.5659 55.9198 20.7399 55.6798 20.9079V20.9259C56.2678 20.8539 56.8198 20.7819 57.3358 20.7099C57.8518 20.6379 58.2838 20.5779 58.6318 20.5299C58.8238 20.5059 58.9858 20.5419 59.1178 20.6379C59.2618 20.7339 59.3458 20.8779 59.3698 21.0699C59.3938 21.2619 59.3578 21.4299 59.2618 21.5739C59.1778 21.7179 59.0398 21.8079 58.8478 21.8439C58.5238 21.8919 58.1338 21.9519 57.6778 22.0239C57.2338 22.0959 56.7478 22.1679 56.2198 22.2399C56.3158 22.6599 56.3638 23.0979 56.3638 23.5539C56.3638 24.5619 56.1238 25.3119 55.6438 25.8039C55.1758 26.3079 54.4078 26.5599 53.3398 26.5599ZM58.3798 26.1639C58.1518 26.2599 57.9298 26.2779 57.7138 26.2179C57.5098 26.1699 57.3598 26.0439 57.2638 25.8399C57.1558 25.6119 57.1438 25.4019 57.2278 25.2099C57.3118 25.0299 57.4618 24.8979 57.6778 24.8139C58.5778 24.4659 59.3698 24.0279 60.0538 23.4999C60.7498 22.9599 61.3438 22.3599 61.8358 21.6999C61.4278 20.9799 61.0858 20.2239 60.8098 19.4319C60.5458 18.6279 60.3478 17.7879 60.2158 16.9119C60.0838 17.1399 59.9458 17.3679 59.8018 17.5959C59.6698 17.8239 59.5318 18.0399 59.3878 18.2439C59.2678 18.4239 59.0998 18.5379 58.8838 18.5859C58.6798 18.6339 58.4878 18.5979 58.3078 18.4779C58.1398 18.3699 58.0318 18.2139 57.9838 18.0099C57.9478 17.8059 57.9898 17.6259 58.1098 17.4699C58.5658 16.8579 58.9798 16.1619 59.3518 15.3819C59.7358 14.5899 60.0658 13.7739 60.3418 12.9339C60.6178 12.0819 60.8218 11.2779 60.9538 10.5219C61.0018 10.2819 61.1038 10.1079 61.2598 9.99994C61.4278 9.89194 61.6258 9.86194 61.8538 9.90994C62.0578 9.94594 62.2138 10.0419 62.3218 10.1979C62.4298 10.3539 62.4598 10.5459 62.4118 10.7739C62.3278 11.2779 62.2198 11.7819 62.0878 12.2859C61.9558 12.7779 61.8058 13.2639 61.6378 13.7439H66.2098C66.4258 13.7439 66.5938 13.8099 66.7138 13.9419C66.8458 14.0739 66.9118 14.2419 66.9118 14.4459C66.9118 14.6379 66.8458 14.8059 66.7138 14.9499C66.5938 15.0819 66.4258 15.1479 66.2098 15.1479H65.4538C65.2258 17.8479 64.6138 20.0379 63.6178 21.7179C64.0258 22.2699 64.4878 22.7859 65.0038 23.2659C65.5198 23.7459 66.0838 24.1959 66.6958 24.6159C66.8998 24.7479 67.0138 24.9219 67.0378 25.1379C67.0738 25.3659 67.0198 25.5699 66.8758 25.7499C66.7318 25.9419 66.5398 26.0499 66.2998 26.0739C66.0718 26.0979 65.8618 26.0379 65.6698 25.8939C65.0818 25.4619 64.5418 25.0059 64.0498 24.5259C63.5578 24.0339 63.1078 23.5239 62.6998 22.9959C62.1478 23.6559 61.5118 24.2439 60.7918 24.7599C60.0838 25.2759 59.2798 25.7439 58.3798 26.1639ZM62.7178 20.2779C63.1018 19.5219 63.3958 18.7179 63.5998 17.8659C63.8038 17.0019 63.9298 16.0959 63.9778 15.1479H61.3858C61.4698 17.0559 61.9138 18.7659 62.7178 20.2779ZM80.1238 25.7139C78.9358 25.7139 78.0898 25.4319 77.5858 24.8679C77.0818 24.2919 76.9138 23.3859 77.0818 22.1499C77.1418 21.7539 77.0818 21.4599 76.9018 21.2679C76.7218 21.0639 76.4818 20.9739 76.1818 20.9979C75.8938 21.0099 75.5998 21.1539 75.2998 21.4299C74.7838 21.9219 74.2738 22.4139 73.7698 22.9059C73.2658 23.3859 72.8038 23.8239 72.3838 24.2199C71.9638 24.6159 71.6278 24.9219 71.3758 25.1379C71.2078 25.2819 71.0098 25.3479 70.7818 25.3359C70.5658 25.3359 70.3798 25.2579 70.2238 25.1019C70.0678 24.9339 69.9898 24.7359 69.9898 24.5079C70.0018 24.2799 70.0918 24.0939 70.2598 23.9499C70.4758 23.7699 70.7698 23.5119 71.1418 23.1759C71.5138 22.8399 71.9218 22.4619 72.3658 22.0419C72.8218 21.6099 73.2838 21.1719 73.7518 20.7279C74.2198 20.2719 74.6638 19.8399 75.0838 19.4319C75.5038 19.0119 75.8698 18.6399 76.1818 18.3159C76.5058 17.9919 76.7398 17.7519 76.8838 17.5959C77.3398 17.0799 77.4778 16.6779 77.2978 16.3899C77.1298 16.0899 76.7158 15.9879 76.0558 16.0839C75.8998 16.1079 75.6478 16.1499 75.2998 16.2099C74.9638 16.2699 74.5978 16.3299 74.2018 16.3899C73.8058 16.4499 73.4398 16.5099 73.1038 16.5699C72.7798 16.6179 72.5458 16.6539 72.4018 16.6779C72.1858 16.7019 71.9818 16.6539 71.7898 16.5339C71.6098 16.4019 71.5018 16.2279 71.4658 16.0119C71.4298 15.7839 71.4778 15.5799 71.6098 15.3999C71.7418 15.2199 71.9218 15.1119 72.1498 15.0759C72.3178 15.0519 72.5518 15.0159 72.8518 14.9679C73.1518 14.9199 73.4818 14.8719 73.8418 14.8239C74.2138 14.7639 74.5738 14.7099 74.9218 14.6619C75.2818 14.6139 75.5878 14.5719 75.8398 14.5359C76.6198 14.4279 77.2558 14.4579 77.7478 14.6259C78.2398 14.7939 78.5998 15.0819 78.8278 15.4899C79.0318 15.8739 79.0978 16.3119 79.0258 16.8039C78.9538 17.2959 78.6898 17.8239 78.2338 18.3879C78.1138 18.5439 77.9458 18.7359 77.7298 18.9639C77.5138 19.1799 77.2798 19.4259 77.0278 19.7019C77.5918 19.7379 78.0298 19.9659 78.3418 20.3859C78.6658 20.7939 78.7858 21.3879 78.7018 22.1679C78.6538 22.6839 78.6598 23.0799 78.7198 23.3559C78.7918 23.6319 78.9418 23.8239 79.1698 23.9319C79.3978 24.0279 79.7278 24.0759 80.1598 24.0759C80.4478 24.0759 80.8078 24.0519 81.2398 24.0039C81.6718 23.9439 82.1458 23.8719 82.6618 23.7879C82.8778 23.7399 83.0758 23.7819 83.2558 23.9139C83.4478 24.0339 83.5618 24.2079 83.5978 24.4359C83.6458 24.6639 83.6038 24.8679 83.4718 25.0479C83.3518 25.2279 83.1778 25.3419 82.9498 25.3899C81.7978 25.6059 80.8558 25.7139 80.1238 25.7139ZM78.0178 13.2759C77.5018 13.2279 76.9558 13.1499 76.3798 13.0419C75.8158 12.9219 75.2698 12.7839 74.7418 12.6279C74.2258 12.4719 73.7818 12.3159 73.4098 12.1599C73.2058 12.0639 73.0558 11.9199 72.9598 11.7279C72.8638 11.5239 72.8578 11.3199 72.9418 11.1159C73.0258 10.8999 73.1698 10.7439 73.3738 10.6479C73.5778 10.5519 73.7818 10.5519 73.9858 10.6479C74.5738 10.8879 75.2278 11.0979 75.9478 11.2779C76.6678 11.4579 77.4118 11.5839 78.1798 11.6559C78.3958 11.6679 78.5758 11.7639 78.7198 11.9439C78.8638 12.1119 78.9238 12.3099 78.8998 12.5379C78.8878 12.7659 78.7918 12.9519 78.6118 13.0959C78.4438 13.2279 78.2458 13.2879 78.0178 13.2759ZM99.2578 25.2459C97.9018 25.0419 96.7738 24.6459 95.8738 24.0579C94.9858 23.4699 94.3258 22.7619 93.8938 21.9339C93.4618 21.0939 93.2458 20.2179 93.2458 19.3059C93.2458 18.2619 93.4738 17.2839 93.9298 16.3719C94.3858 15.4599 95.0458 14.6919 95.9098 14.0679C95.4178 14.1279 94.8538 14.2119 94.2178 14.3199C93.5938 14.4159 92.9398 14.5239 92.2558 14.6439C91.5838 14.7519 90.9178 14.8659 90.2578 14.9859C89.5978 15.1059 88.9918 15.2199 88.4398 15.3279C88.2238 15.3759 88.0198 15.3339 87.8278 15.2019C87.6478 15.0579 87.5458 14.8719 87.5218 14.6439C87.4858 14.4279 87.5338 14.2299 87.6658 14.0499C87.7978 13.8699 87.9778 13.7619 88.2058 13.7259C88.5298 13.6659 88.9858 13.5879 89.5738 13.4919C90.1618 13.3839 90.8218 13.2699 91.5538 13.1499C92.2858 13.0299 93.0478 12.9039 93.8398 12.7719C94.6438 12.6399 95.4298 12.5139 96.1978 12.3939C96.9658 12.2619 97.6678 12.1479 98.3038 12.0519C98.9398 11.9439 99.4618 11.8539 99.8698 11.7819C100.086 11.7459 100.284 11.7879 100.464 11.9079C100.644 12.0279 100.758 12.1959 100.806 12.4119C100.854 12.6279 100.818 12.8319 100.698 13.0239C100.578 13.2159 100.41 13.3299 100.194 13.3659C99.3178 13.5099 98.5438 13.7919 97.8718 14.2119C97.2118 14.6199 96.6598 15.1059 96.2158 15.6699C95.7718 16.2339 95.4358 16.8279 95.2078 17.4519C94.9798 18.0639 94.8658 18.6579 94.8658 19.2339C94.8658 20.5059 95.2918 21.5079 96.1438 22.2399C96.9958 22.9719 98.1118 23.4399 99.4918 23.6439C99.7198 23.6679 99.8998 23.7699 100.032 23.9499C100.164 24.1299 100.218 24.3339 100.194 24.5619C100.158 24.7899 100.05 24.9699 99.8698 25.1019C99.6898 25.2339 99.4858 25.2819 99.2578 25.2459ZM112.542 21.7359C112.35 21.7359 112.182 21.6699 112.038 21.5379C111.894 21.3939 111.816 21.2259 111.804 21.0339C111.78 20.6259 111.756 20.1339 111.732 19.5579C111.708 18.9699 111.684 18.3579 111.66 17.7219C111.648 17.0739 111.63 16.4559 111.606 15.8679C111.594 15.2799 111.582 14.7759 111.57 14.3559C111.558 13.9239 111.552 13.6419 111.552 13.5099V11.2779C111.552 11.0019 111.642 10.7739 111.822 10.5939C112.014 10.4019 112.254 10.3059 112.542 10.3059C112.83 10.3059 113.07 10.4019 113.262 10.5939C113.454 10.7739 113.55 11.0019 113.55 11.2779V13.5099C113.55 13.6419 113.544 13.9239 113.532 14.3559C113.52 14.7759 113.502 15.2799 113.478 15.8679C113.466 16.4559 113.448 17.0739 113.424 17.7219C113.4 18.3579 113.376 18.9699 113.352 19.5579C113.328 20.1339 113.304 20.6259 113.28 21.0339C113.268 21.2259 113.19 21.3939 113.046 21.5379C112.914 21.6699 112.746 21.7359 112.542 21.7359ZM112.542 25.8759C112.182 25.8759 111.87 25.7439 111.606 25.4799C111.354 25.2279 111.228 24.9219 111.228 24.5619C111.228 24.2019 111.354 23.8959 111.606 23.6439C111.87 23.3919 112.182 23.2659 112.542 23.2659C112.902 23.2659 113.208 23.3919 113.46 23.6439C113.724 23.8959 113.856 24.2019 113.856 24.5619C113.856 24.9219 113.724 25.2279 113.46 25.4799C113.208 25.7439 112.902 25.8759 112.542 25.8759ZM128.112 25.2099C126.972 25.2099 125.964 24.9399 125.088 24.3999C124.212 23.8599 123.522 23.0979 123.018 22.1139C122.526 21.1299 122.28 19.9719 122.28 18.6399C122.28 17.3079 122.526 16.1499 123.018 15.1659C123.522 14.1699 124.212 13.4019 125.088 12.8619C125.964 12.3099 126.972 12.0339 128.112 12.0339C128.988 12.0339 129.786 12.1959 130.506 12.5199C131.226 12.8439 131.844 13.3059 132.36 13.9059C132.552 14.1099 132.612 14.3199 132.54 14.5359C132.48 14.7399 132.354 14.9079 132.162 15.0399L132.09 15.0759C131.958 15.1599 131.778 15.1959 131.55 15.1839C131.334 15.1599 131.13 15.0579 130.938 14.8779C130.23 14.0739 129.288 13.6719 128.112 13.6719C127.296 13.6719 126.576 13.8759 125.952 14.2839C125.34 14.6919 124.86 15.2679 124.512 16.0119C124.164 16.7439 123.99 17.6199 123.99 18.6399C123.99 19.6479 124.164 20.5239 124.512 21.2679C124.86 21.9999 125.34 22.5699 125.952 22.9779C126.576 23.3859 127.296 23.5899 128.112 23.5899C129.264 23.5899 130.206 23.1879 130.938 22.3839C131.13 22.2039 131.322 22.1019 131.514 22.0779C131.718 22.0539 131.91 22.0899 132.09 22.1859L132.126 22.2039C132.33 22.3119 132.468 22.4739 132.54 22.6899C132.612 22.9059 132.558 23.1159 132.378 23.3199C131.862 23.9199 131.238 24.3879 130.506 24.7239C129.786 25.0479 128.988 25.2099 128.112 25.2099ZM137.416 25.0839C136.54 25.1079 135.814 24.9099 135.238 24.4899C134.674 24.0579 134.392 23.4399 134.392 22.6359C134.392 22.0479 134.578 21.5379 134.95 21.1059C135.334 20.6739 135.82 20.3379 136.408 20.0979C137.008 19.8459 137.626 19.7199 138.262 19.7199C138.634 19.6959 138.976 19.7319 139.288 19.8279C139.6 19.9119 139.87 20.0379 140.098 20.2059V19.1259C140.098 18.4539 139.954 18.0159 139.666 17.8119C139.39 17.6079 138.958 17.5059 138.37 17.5059C137.998 17.5059 137.602 17.5599 137.182 17.6679C136.774 17.7639 136.39 17.8959 136.03 18.0639C135.778 18.1599 135.562 18.1959 135.382 18.1719C135.202 18.1359 135.052 18.0219 134.932 17.8299C134.812 17.6259 134.782 17.4339 134.842 17.2539C134.914 17.0619 135.076 16.9119 135.328 16.8039C135.772 16.5879 136.258 16.4139 136.786 16.2819C137.326 16.1499 137.854 16.0839 138.37 16.0839C139.474 16.0839 140.296 16.3059 140.836 16.7499C141.376 17.1819 141.646 17.9739 141.646 19.1259V23.4639C141.646 23.6559 141.658 23.7819 141.682 23.8419C141.718 23.8899 141.796 23.9319 141.916 23.9679C142.06 24.0159 142.216 24.0579 142.384 24.0939C142.552 24.1179 142.636 24.1779 142.636 24.2739C142.636 24.6699 142.432 24.9099 142.024 24.9939C141.76 25.0539 141.52 25.0839 141.304 25.0839C140.92 25.0839 140.644 25.0119 140.476 24.8679C140.308 24.7239 140.194 24.4659 140.134 24.0939C139.81 24.4179 139.402 24.6579 138.91 24.8139C138.418 24.9699 137.92 25.0599 137.416 25.0839ZM137.434 23.6619C137.938 23.6499 138.394 23.5779 138.802 23.4459C139.222 23.3019 139.552 23.1039 139.792 22.8519C140.032 22.5879 140.14 22.2759 140.116 21.9159C140.092 21.5799 139.918 21.3399 139.594 21.1959C139.282 21.0519 138.88 20.9919 138.388 21.0159C137.944 21.0279 137.536 21.1119 137.164 21.2679C136.792 21.4119 136.492 21.6039 136.264 21.8439C136.048 22.0839 135.94 22.3539 135.94 22.6539C135.952 22.9899 136.09 23.2479 136.354 23.4279C136.618 23.5959 136.978 23.6739 137.434 23.6619ZM145.267 24.9399C144.727 24.9399 144.457 24.6519 144.457 24.0759V17.1459C144.457 16.5819 144.739 16.2999 145.303 16.2999C145.495 16.2999 145.663 16.3479 145.807 16.4439C145.951 16.5399 146.023 16.7199 146.023 16.9839V17.6499C146.263 17.1819 146.623 16.8039 147.103 16.5159C147.595 16.2279 148.123 16.0839 148.687 16.0839C149.419 16.0839 149.785 16.3779 149.785 16.9659C149.785 17.2179 149.713 17.4039 149.569 17.5239C149.437 17.6319 149.287 17.6799 149.119 17.6679C149.035 17.6559 148.939 17.6499 148.831 17.6499C148.723 17.6379 148.609 17.6319 148.489 17.6319C147.817 17.6319 147.247 17.8539 146.779 18.2979C146.311 18.7299 146.077 19.2999 146.077 20.0079V24.0759C146.077 24.6519 145.807 24.9399 145.267 24.9399ZM154.949 25.1379C154.133 25.1379 153.413 24.9639 152.789 24.6159C152.165 24.2679 151.679 23.7579 151.331 23.0859C150.983 22.4019 150.809 21.5799 150.809 20.6199C150.809 19.6959 150.983 18.8979 151.331 18.2259C151.679 17.5419 152.153 17.0139 152.753 16.6419C153.365 16.2699 154.067 16.0839 154.859 16.0839C155.651 16.0839 156.323 16.2759 156.875 16.6599C157.439 17.0319 157.865 17.5119 158.153 18.0999C158.453 18.6879 158.603 19.2939 158.603 19.9179C158.603 20.2659 158.531 20.4999 158.387 20.6199C158.243 20.7279 158.033 20.7819 157.757 20.7819H152.393C152.417 21.7419 152.657 22.4739 153.113 22.9779C153.581 23.4699 154.199 23.7159 154.967 23.7159C155.879 23.7159 156.569 23.3499 157.037 22.6179C157.229 22.4139 157.409 22.2819 157.577 22.2219C157.745 22.1499 157.925 22.1799 158.117 22.3119C158.321 22.4439 158.435 22.6119 158.459 22.8159C158.495 23.0199 158.417 23.2419 158.225 23.4819C157.829 24.0459 157.355 24.4659 156.803 24.7419C156.263 25.0059 155.645 25.1379 154.949 25.1379ZM152.483 19.4859H157.019C156.923 18.8619 156.683 18.3579 156.299 17.9739C155.915 17.5899 155.429 17.3979 154.841 17.3979C154.217 17.3979 153.701 17.5779 153.293 17.9379C152.885 18.2859 152.615 18.8019 152.483 19.4859ZM164.353 25.1379C163.537 25.1379 162.817 24.9639 162.193 24.6159C161.569 24.2679 161.083 23.7579 160.735 23.0859C160.387 22.4019 160.213 21.5799 160.213 20.6199C160.213 19.6959 160.387 18.8979 160.735 18.2259C161.083 17.5419 161.557 17.0139 162.157 16.6419C162.769 16.2699 163.471 16.0839 164.263 16.0839C165.055 16.0839 165.727 16.2759 166.279 16.6599C166.843 17.0319 167.269 17.5119 167.557 18.0999C167.857 18.6879 168.007 19.2939 168.007 19.9179C168.007 20.2659 167.935 20.4999 167.791 20.6199C167.647 20.7279 167.437 20.7819 167.161 20.7819H161.797C161.821 21.7419 162.061 22.4739 162.517 22.9779C162.985 23.4699 163.603 23.7159 164.371 23.7159C165.283 23.7159 165.973 23.3499 166.441 22.6179C166.633 22.4139 166.813 22.2819 166.981 22.2219C167.149 22.1499 167.329 22.1799 167.521 22.3119C167.725 22.4439 167.839 22.6119 167.863 22.8159C167.899 23.0199 167.821 23.2419 167.629 23.4819C167.233 24.0459 166.759 24.4659 166.207 24.7419C165.667 25.0059 165.049 25.1379 164.353 25.1379ZM161.887 19.4859H166.423C166.327 18.8619 166.087 18.3579 165.703 17.9739C165.319 17.5899 164.833 17.3979 164.245 17.3979C163.621 17.3979 163.105 17.5779 162.697 17.9379C162.289 18.2859 162.019 18.8019 161.887 19.4859ZM170.896 24.9399C170.356 24.9399 170.086 24.6519 170.086 24.0759V17.1459C170.086 16.5819 170.368 16.2999 170.932 16.2999C171.124 16.2999 171.292 16.3479 171.436 16.4439C171.58 16.5399 171.652 16.7199 171.652 16.9839V17.6499C171.892 17.1819 172.252 16.8039 172.732 16.5159C173.224 16.2279 173.752 16.0839 174.316 16.0839C175.048 16.0839 175.414 16.3779 175.414 16.9659C175.414 17.2179 175.342 17.4039 175.198 17.5239C175.066 17.6319 174.916 17.6799 174.748 17.6679C174.664 17.6559 174.568 17.6499 174.46 17.6499C174.352 17.6379 174.238 17.6319 174.118 17.6319C173.446 17.6319 172.876 17.8539 172.408 18.2979C171.94 18.7299 171.706 19.2999 171.706 20.0079V24.0759C171.706 24.6519 171.436 24.9399 170.896 24.9399ZM187.315 25.2099C186.175 25.2099 185.167 24.9399 184.291 24.3999C183.415 23.8599 182.725 23.0979 182.221 22.1139C181.729 21.1299 181.483 19.9719 181.483 18.6399C181.483 17.3079 181.729 16.1499 182.221 15.1659C182.725 14.1699 183.415 13.4019 184.291 12.8619C185.167 12.3099 186.175 12.0339 187.315 12.0339C188.191 12.0339 188.989 12.1959 189.709 12.5199C190.429 12.8439 191.047 13.3059 191.563 13.9059C191.755 14.1099 191.815 14.3199 191.743 14.5359C191.683 14.7399 191.557 14.9079 191.365 15.0399L191.293 15.0759C191.161 15.1599 190.981 15.1959 190.753 15.1839C190.537 15.1599 190.333 15.0579 190.141 14.8779C189.433 14.0739 188.491 13.6719 187.315 13.6719C186.499 13.6719 185.779 13.8759 185.155 14.2839C184.543 14.6919 184.063 15.2679 183.715 16.0119C183.367 16.7439 183.193 17.6199 183.193 18.6399C183.193 19.6479 183.367 20.5239 183.715 21.2679C184.063 21.9999 184.543 22.5699 185.155 22.9779C185.779 23.3859 186.499 23.5899 187.315 23.5899C188.467 23.5899 189.409 23.1879 190.141 22.3839C190.333 22.2039 190.525 22.1019 190.717 22.0779C190.921 22.0539 191.113 22.0899 191.293 22.1859L191.329 22.2039C191.533 22.3119 191.671 22.4739 191.743 22.6899C191.815 22.9059 191.761 23.1159 191.581 23.3199C191.065 23.9199 190.441 24.3879 189.709 24.7239C188.989 25.0479 188.191 25.2099 187.315 25.2099ZM197.663 25.1379C196.871 25.1379 196.163 24.9519 195.539 24.5799C194.927 24.1959 194.441 23.6619 194.081 22.9779C193.733 22.2939 193.559 21.5019 193.559 20.6019C193.559 19.7019 193.733 18.9159 194.081 18.2439C194.441 17.5599 194.927 17.0319 195.539 16.6599C196.163 16.2759 196.871 16.0839 197.663 16.0839C198.455 16.0839 199.157 16.2759 199.769 16.6599C200.393 17.0319 200.879 17.5599 201.227 18.2439C201.587 18.9159 201.767 19.7019 201.767 20.6019C201.767 21.5019 201.587 22.2939 201.227 22.9779C200.879 23.6619 200.393 24.1959 199.769 24.5799C199.157 24.9519 198.455 25.1379 197.663 25.1379ZM197.663 23.6619C198.395 23.6619 198.989 23.3919 199.445 22.8519C199.913 22.2999 200.147 21.5499 200.147 20.6019C200.147 19.6539 199.913 18.9099 199.445 18.3699C198.989 17.8299 198.395 17.5599 197.663 17.5599C196.931 17.5599 196.331 17.8299 195.863 18.3699C195.407 18.9099 195.179 19.6539 195.179 20.6019C195.179 21.5499 195.407 22.2999 195.863 22.8519C196.331 23.3919 196.931 23.6619 197.663 23.6619ZM206.129 25.0839C205.253 25.1079 204.527 24.9099 203.951 24.4899C203.387 24.0579 203.105 23.4399 203.105 22.6359C203.105 22.0479 203.291 21.5379 203.663 21.1059C204.047 20.6739 204.533 20.3379 205.121 20.0979C205.721 19.8459 206.339 19.7199 206.975 19.7199C207.347 19.6959 207.689 19.7319 208.001 19.8279C208.313 19.9119 208.583 20.0379 208.811 20.2059V19.1259C208.811 18.4539 208.667 18.0159 208.379 17.8119C208.103 17.6079 207.671 17.5059 207.083 17.5059C206.711 17.5059 206.315 17.5599 205.895 17.6679C205.487 17.7639 205.103 17.8959 204.743 18.0639C204.491 18.1599 204.275 18.1959 204.095 18.1719C203.915 18.1359 203.765 18.0219 203.645 17.8299C203.525 17.6259 203.495 17.4339 203.555 17.2539C203.627 17.0619 203.789 16.9119 204.041 16.8039C204.485 16.5879 204.971 16.4139 205.499 16.2819C206.039 16.1499 206.567 16.0839 207.083 16.0839C208.187 16.0839 209.009 16.3059 209.549 16.7499C210.089 17.1819 210.359 17.9739 210.359 19.1259V23.4639C210.359 23.6559 210.371 23.7819 210.395 23.8419C210.431 23.8899 210.509 23.9319 210.629 23.9679C210.773 24.0159 210.929 24.0579 211.097 24.0939C211.265 24.1179 211.349 24.1779 211.349 24.2739C211.349 24.6699 211.145 24.9099 210.737 24.9939C210.473 25.0539 210.233 25.0839 210.017 25.0839C209.633 25.0839 209.357 25.0119 209.189 24.8679C209.021 24.7239 208.907 24.4659 208.847 24.0939C208.523 24.4179 208.115 24.6579 207.623 24.8139C207.131 24.9699 206.633 25.0599 206.129 25.0839ZM206.147 23.6619C206.651 23.6499 207.107 23.5779 207.515 23.4459C207.935 23.3019 208.265 23.1039 208.505 22.8519C208.745 22.5879 208.853 22.2759 208.829 21.9159C208.805 21.5799 208.631 21.3399 208.307 21.1959C207.995 21.0519 207.593 20.9919 207.101 21.0159C206.657 21.0279 206.249 21.1119 205.877 21.2679C205.505 21.4119 205.205 21.6039 204.977 21.8439C204.761 22.0839 204.653 22.3539 204.653 22.6539C204.665 22.9899 204.803 23.2479 205.067 23.4279C205.331 23.5959 205.691 23.6739 206.147 23.6619ZM216.454 25.1379C215.662 25.1379 214.954 24.9519 214.33 24.5799C213.718 24.1959 213.232 23.6679 212.872 22.9959C212.524 22.3119 212.35 21.5199 212.35 20.6199C212.35 19.7199 212.524 18.9279 212.872 18.2439C213.232 17.5599 213.718 17.0319 214.33 16.6599C214.954 16.2759 215.662 16.0839 216.454 16.0839C217.462 16.0839 218.326 16.3959 219.046 17.0199C219.274 17.1879 219.376 17.3799 219.352 17.5959C219.34 17.8119 219.232 17.9919 219.028 18.1359C218.824 18.2919 218.644 18.3579 218.488 18.3339C218.332 18.3099 218.134 18.2199 217.894 18.0639C217.486 17.7279 217.006 17.5599 216.454 17.5599C215.722 17.5599 215.122 17.8299 214.654 18.3699C214.198 18.9099 213.97 19.6599 213.97 20.6199C213.97 21.5679 214.198 22.3119 214.654 22.8519C215.122 23.3919 215.722 23.6619 216.454 23.6619C216.994 23.6619 217.468 23.5059 217.876 23.1939C218.092 23.0379 218.284 22.9419 218.452 22.9059C218.62 22.8699 218.806 22.9239 219.01 23.0679C219.214 23.2239 219.328 23.4039 219.352 23.6079C219.376 23.8119 219.28 24.0039 219.064 24.1839C218.332 24.8199 217.462 25.1379 216.454 25.1379ZM222.417 24.9399C221.877 24.9399 221.607 24.6519 221.607 24.0759V12.8799C221.607 12.3159 221.877 12.0339 222.417 12.0339C222.957 12.0339 223.227 12.3159 223.227 12.8799V17.4159C223.443 17.0559 223.761 16.7439 224.181 16.4799C224.601 16.2159 225.087 16.0839 225.639 16.0839C226.551 16.0839 227.289 16.3779 227.853 16.9659C228.429 17.5419 228.717 18.3819 228.717 19.4859V24.0759C228.717 24.6519 228.447 24.9399 227.907 24.9399C227.379 24.9399 227.115 24.6519 227.115 24.0759V19.8279C227.115 19.0719 226.947 18.5079 226.611 18.1359C226.275 17.7519 225.837 17.5599 225.297 17.5599C224.685 17.5599 224.187 17.7639 223.803 18.1719C223.419 18.5679 223.227 19.1019 223.227 19.7739V24.0759C223.227 24.6519 222.957 24.9399 222.417 24.9399ZM232.25 24.9399C231.71 24.9399 231.44 24.6519 231.44 24.0759V17.1459C231.44 16.5819 231.71 16.2999 232.25 16.2999C232.778 16.2999 233.042 16.5819 233.042 17.1459V24.0759C233.042 24.6519 232.778 24.9399 232.25 24.9399ZM232.232 14.6799C231.932 14.6799 231.674 14.5779 231.458 14.3739C231.254 14.1579 231.152 13.8999 231.152 13.5999C231.152 13.2999 231.254 13.0479 231.458 12.8439C231.674 12.6279 231.932 12.5199 232.232 12.5199C232.52 12.5199 232.766 12.6279 232.97 12.8439C233.186 13.0479 233.294 13.2999 233.294 13.5999C233.294 13.8999 233.186 14.1579 232.97 14.3739C232.766 14.5779 232.52 14.6799 232.232 14.6799ZM236.532 24.9399C235.992 24.9399 235.722 24.6519 235.722 24.0759V17.1459C235.722 16.5819 235.968 16.2999 236.46 16.2999C236.964 16.2999 237.222 16.4439 237.234 16.7319L237.27 17.4159C237.522 17.0559 237.858 16.7439 238.278 16.4799C238.71 16.2159 239.202 16.0839 239.754 16.0839C240.666 16.0839 241.404 16.3779 241.968 16.9659C242.544 17.5419 242.832 18.3819 242.832 19.4859V24.0759C242.832 24.6519 242.562 24.9399 242.022 24.9399C241.494 24.9399 241.23 24.6519 241.23 24.0759V19.8279C241.23 19.0719 241.062 18.5079 240.726 18.1359C240.39 17.7519 239.952 17.5599 239.412 17.5599C238.8 17.5599 238.302 17.7639 237.918 18.1719C237.534 18.5679 237.342 19.1019 237.342 19.7739V24.0759C237.342 24.6519 237.072 24.9399 236.532 24.9399ZM248.741 28.6659C247.397 28.6659 246.317 28.2339 245.501 27.3699C245.309 27.1659 245.231 26.9619 245.267 26.7579C245.303 26.5539 245.429 26.3859 245.645 26.2539C245.849 26.1099 246.035 26.0619 246.203 26.1099C246.383 26.1579 246.575 26.2719 246.779 26.4519C247.283 26.9319 247.937 27.1719 248.741 27.1719C249.521 27.1719 250.109 26.9199 250.505 26.4159C250.901 25.9239 251.099 25.1559 251.099 24.1119V23.1579C250.811 23.5179 250.457 23.7999 250.037 24.0039C249.629 24.2079 249.173 24.3099 248.669 24.3099C247.925 24.3099 247.259 24.1479 246.671 23.8239C246.083 23.4999 245.621 23.0319 245.285 22.4199C244.961 21.7959 244.799 21.0519 244.799 20.1879C244.799 19.3119 244.961 18.5739 245.285 17.9739C245.621 17.3619 246.083 16.8939 246.671 16.5699C247.259 16.2459 247.925 16.0839 248.669 16.0839C249.197 16.0839 249.695 16.2039 250.163 16.4439C250.631 16.6839 251.009 17.0499 251.297 17.5419V16.9479C251.297 16.7079 251.357 16.5399 251.477 16.4439C251.597 16.3479 251.771 16.2999 251.999 16.2999C252.467 16.2999 252.701 16.5819 252.701 17.1459V24.1119C252.701 25.5999 252.359 26.7279 251.675 27.4959C251.003 28.2759 250.025 28.6659 248.741 28.6659ZM248.777 22.8879C249.485 22.8879 250.067 22.6419 250.523 22.1499C250.979 21.6579 251.207 21.0039 251.207 20.1879C251.207 19.3719 250.979 18.7239 250.523 18.2439C250.067 17.7639 249.485 17.5239 248.777 17.5239C248.081 17.5239 247.511 17.7639 247.067 18.2439C246.635 18.7239 246.419 19.3719 246.419 20.1879C246.419 21.0039 246.635 21.6579 247.067 22.1499C247.511 22.6419 248.081 22.8879 248.777 22.8879Z" fill="black"/>
<g clip-path="url(#clip0_0_1)">
<g clip-path="url(#clip1_0_1)">
<g clip-path="url(#clip2_0_1)">
<path d="M65.2333 86.7988C64.5347 86.8826 63.906 86.7149 63.3472 86.2958C62.7884 85.8767 62.467 85.3179 62.3832 84.6193C62.2993 83.9207 62.467 83.292 62.8861 82.7332C63.3053 82.1744 63.8641 81.853 64.5627 81.7692C68.0275 81.3501 70.8077 80.6375 72.9033 79.6316C75.027 78.6257 76.5358 77.4102 77.43 75.9852C78.352 74.5322 78.7572 72.9535 78.6454 71.249C78.5058 69.0137 77.7373 67.393 76.3402 66.3871C74.9432 65.3532 72.7496 64.9481 69.7599 65.1716C68.5583 65.2555 67.2171 65.4231 65.7362 65.6746C64.2553 65.8981 62.7324 66.1636 61.1677 66.4709C59.6309 66.7783 58.15 67.0996 56.7249 67.4349C55.2999 67.7702 54.0285 68.0916 52.9108 68.3989C52.2402 68.5946 51.5976 68.5247 50.9828 68.1894C50.396 67.8261 50.0049 67.3092 49.8093 66.6386C49.6137 65.94 49.6835 65.2834 50.0188 64.6687C50.3821 64.0539 50.899 63.6488 51.5696 63.4532C52.7711 63.1179 54.1263 62.7965 55.6352 62.4892C57.144 62.1539 58.7088 61.8466 60.3294 61.5671C61.978 61.2598 63.5847 60.9943 65.1494 60.7708C66.7142 60.5473 68.1392 60.3935 69.4246 60.3097C73.9232 59.9744 77.3461 60.7428 79.6933 62.6149C82.0404 64.4871 83.3536 67.2393 83.6331 70.8718C83.8287 73.4704 83.2698 75.8874 81.9566 78.1228C80.6712 80.3302 78.6315 82.2023 75.8373 83.7391C73.071 85.248 69.5364 86.2678 65.2333 86.7988ZM110.541 87.6789C109.843 87.8466 109.186 87.7488 108.571 87.3855C107.957 87.0223 107.565 86.5054 107.398 85.8348C107.23 85.1642 107.328 84.5355 107.691 83.9487C108.054 83.3339 108.571 82.9428 109.242 82.7751C112.344 81.9648 114.621 80.6515 116.074 78.8353C117.555 77.0191 118.295 74.7139 118.295 71.9196C118.295 70.1593 117.904 68.5805 117.122 67.1835C116.339 65.7864 115.222 64.6547 113.769 63.7885C112.344 62.9223 110.625 62.3914 108.613 62.1958C108.11 66.8901 107.258 70.9556 106.057 74.3925C104.883 77.8014 103.486 80.4419 101.865 82.3141C100.273 84.1582 98.596 85.0803 96.8357 85.0803C95.3548 85.0803 93.9995 84.6473 92.7701 83.781C91.5407 82.9148 90.5627 81.6714 89.8362 80.0508C89.1376 78.4301 88.7884 76.4881 88.7884 74.2248C88.7884 71.9057 89.2215 69.7402 90.0877 67.7283C90.9818 65.6885 92.2392 63.9003 93.8599 62.3635C95.4805 60.8266 97.3806 59.6252 99.56 58.7589C101.767 57.8927 104.184 57.4596 106.811 57.4596C109.996 57.4596 112.819 58.0744 115.277 59.3038C117.764 60.5053 119.72 62.1958 121.145 64.3753C122.57 66.5268 123.283 69.0416 123.283 71.9196C123.283 75.9713 122.193 79.3522 120.014 82.0626C117.862 84.745 114.705 86.6172 110.541 87.6789ZM96.8776 79.925C97.3806 79.925 97.9534 79.5059 98.596 78.6676C99.2667 77.8014 99.9373 76.5859 100.608 75.0212C101.278 73.4565 101.893 71.6123 102.452 69.4887C103.011 67.3372 103.43 64.9621 103.709 62.3635C101.53 62.7826 99.6997 63.5929 98.2188 64.7944C96.7379 65.968 95.6202 67.3791 94.8658 69.0276C94.1113 70.6483 93.7202 72.3527 93.6922 74.141C93.6922 76.041 93.9856 77.4801 94.5724 78.4581C95.1872 79.436 95.9555 79.925 96.8776 79.925ZM141.968 88.2573C141.129 88.2573 140.392 87.9556 139.755 87.352C139.151 86.7485 138.849 86.0276 138.849 85.1893C138.849 84.3175 139.151 83.5798 139.755 82.9763C140.392 82.3727 141.129 82.071 141.968 82.071C143.51 82.071 144.516 81.853 144.985 81.4171C145.455 80.9477 145.69 79.9921 145.69 78.5503V64.6184H132.411C131.573 64.6184 130.852 64.3334 130.249 63.7633C129.679 63.1598 129.394 62.4389 129.394 61.6006C129.394 60.7624 129.679 60.0582 130.249 59.4882C130.852 58.8847 131.573 58.5829 132.411 58.5829H145.69V53.151C145.69 52.2792 145.991 51.5583 146.595 50.9883C147.198 50.3847 147.919 50.0829 148.758 50.0829C149.629 50.0829 150.35 50.3847 150.92 50.9883C151.524 51.5583 151.826 52.2792 151.826 53.151V58.5829H164.249C165.087 58.5829 165.791 58.8847 166.361 59.4882C166.965 60.0582 167.266 60.7624 167.266 61.6006C167.266 62.4389 166.965 63.1598 166.361 63.7633C165.791 64.3334 165.087 64.6184 164.249 64.6184H151.826V78.9023C151.826 82.3224 151.071 84.7366 149.562 86.1449C148.053 87.5532 145.522 88.2573 141.968 88.2573ZM131.808 81.9201C131.07 82.356 130.282 82.4733 129.444 82.2722C128.639 82.0374 128.019 81.5512 127.583 80.8136C127.147 80.0424 127.047 79.2544 127.281 78.4497C127.516 77.6449 127.985 77.0246 128.69 76.5887C130.064 75.6499 131.489 74.5769 132.965 73.3698C134.44 72.1627 135.731 70.9389 136.838 69.6982C137.408 69.0612 138.095 68.6756 138.9 68.5414C139.704 68.3738 140.442 68.5247 141.113 68.9941C141.783 69.4971 142.186 70.1677 142.32 71.0059C142.487 71.8442 142.303 72.5986 141.766 73.2692C140.928 74.3422 139.939 75.4319 138.799 76.5384C137.693 77.6114 136.519 78.6173 135.278 79.5562C134.071 80.4615 132.914 81.2495 131.808 81.9201ZM169.027 80.8136C168.39 81.3836 167.635 81.6351 166.763 81.568C165.925 81.5009 165.204 81.1656 164.601 80.5621C163.93 79.8915 163.109 79.1371 162.136 78.2988C161.197 77.427 160.225 76.5887 159.219 75.784C158.247 74.9457 157.358 74.2584 156.553 73.7219C155.883 73.2525 155.464 72.6154 155.296 71.8107C155.162 70.9724 155.313 70.2012 155.749 69.4971C156.218 68.7929 156.872 68.3738 157.71 68.2397C158.548 68.072 159.32 68.2229 160.024 68.6923C160.896 69.2623 161.901 70 163.042 70.9053C164.182 71.8107 165.305 72.7495 166.411 73.7219C167.518 74.6607 168.473 75.5493 169.278 76.3876C169.882 76.9911 170.15 77.7455 170.083 78.6509C170.049 79.5227 169.697 80.2436 169.027 80.8136ZM165.808 57.0237C164.4 57.0237 163.192 56.5375 162.187 55.5652C161.214 54.5592 160.728 53.3522 160.728 51.9439C160.728 50.5691 161.214 49.3956 162.187 48.4232C163.192 47.4173 164.4 46.9143 165.808 46.9143C167.183 46.9143 168.356 47.4173 169.328 48.4232C170.334 49.3956 170.837 50.5691 170.837 51.9439C170.837 53.3522 170.334 54.5592 169.328 55.5652C168.356 56.5375 167.183 57.0237 165.808 57.0237ZM165.808 54.1569C166.378 54.1569 166.881 53.9389 167.317 53.503C167.753 53.0671 167.971 52.5474 167.971 51.9439C167.971 51.3403 167.753 50.8374 167.317 50.435C166.881 49.9991 166.378 49.7812 165.808 49.7812C165.204 49.7812 164.685 49.9991 164.249 50.435C163.813 50.8374 163.595 51.3403 163.595 51.9439C163.595 52.5474 163.813 53.0671 164.249 53.503C164.685 53.9389 165.204 54.1569 165.808 54.1569ZM197.595 90.0177C196.756 90.0177 196.035 89.6991 195.432 89.0621C194.828 88.4585 194.527 87.7376 194.527 86.8994V66.7811C192.381 68.6588 190.168 70.4694 187.888 72.213C185.608 73.9566 183.327 75.5493 181.047 76.9911C180.31 77.427 179.522 77.5444 178.683 77.3432C177.879 77.142 177.242 76.6726 176.772 75.9349C176.336 75.1972 176.219 74.4093 176.42 73.571C176.621 72.7327 177.091 72.0957 177.828 71.6598C179.941 70.3521 182.137 68.8264 184.417 67.0829C186.731 65.3393 188.977 63.4783 191.157 61.5C193.37 59.5218 195.398 57.5435 197.243 55.5652C199.12 53.5533 200.679 51.6589 201.92 49.8818C202.423 49.1776 203.094 48.7417 203.932 48.5741C204.77 48.4064 205.541 48.5741 206.245 49.077C206.95 49.5464 207.386 50.2171 207.553 51.0888C207.721 51.9271 207.553 52.6983 207.05 53.4024C205.307 55.7496 203.194 58.2141 200.713 60.7959V86.8994C200.713 87.7376 200.411 88.4585 199.808 89.0621C199.204 89.6991 198.466 90.0177 197.595 90.0177ZM224.352 85.8431C223.547 86.1449 222.742 86.1114 221.938 85.7426C221.167 85.3737 220.63 84.7869 220.328 83.9822C220.027 83.1775 220.06 82.3895 220.429 81.6183C220.798 80.8136 221.384 80.2603 222.189 79.9585C224.872 79.0197 227.571 77.8629 230.287 76.4881C233.036 75.1134 235.652 73.6213 238.133 72.0118C240.648 70.3688 242.928 68.6923 244.973 66.9823C247.052 65.2387 248.745 63.5622 250.053 61.9527C250.623 61.2821 251.327 60.8965 252.165 60.7959C253.037 60.6953 253.792 60.93 254.429 61.5C255.099 62.0365 255.485 62.7407 255.586 63.6125C255.686 64.4507 255.451 65.2052 254.881 65.8758C253.507 67.5523 251.679 69.3462 249.399 71.2574C247.119 73.1351 244.571 74.996 241.754 76.8402C238.938 78.6844 236.037 80.3944 233.053 81.9704C230.069 83.5463 227.169 84.8372 224.352 85.8431ZM228.677 66.0267C227.403 64.9537 225.978 63.8472 224.402 62.7071C222.826 61.5336 221.401 60.578 220.127 59.8403C219.389 59.3709 218.92 58.7338 218.719 57.9291C218.518 57.0908 218.635 56.3028 219.071 55.5652C219.54 54.8275 220.177 54.3581 220.982 54.1569C221.82 53.9222 222.608 54.0395 223.346 54.509C224.251 55.079 225.274 55.7831 226.414 56.6214C227.588 57.4261 228.711 58.2308 229.784 59.0356C230.89 59.8403 231.796 60.5277 232.5 61.0977C233.17 61.6342 233.556 62.3383 233.657 63.2101C233.791 64.0484 233.59 64.8028 233.053 65.4734C232.517 66.144 231.812 66.5464 230.941 66.6805C230.102 66.7811 229.348 66.5631 228.677 66.0267ZM270.473 89.9674C269.635 89.9674 268.914 89.6656 268.31 89.0621C267.707 88.4585 267.405 87.7376 267.405 86.8994V52.1451C267.405 51.2733 267.707 50.5524 268.31 49.9823C268.914 49.3788 269.635 49.077 270.473 49.077C271.345 49.077 272.083 49.3788 272.686 49.9823C273.29 50.5524 273.591 51.2733 273.591 52.1451V64.2663C274.027 63.5957 274.631 63.1598 275.402 62.9586C276.173 62.7239 276.928 62.791 277.665 63.1598C279.644 64.1992 281.655 65.3896 283.701 66.7308C285.78 68.072 287.574 69.3797 289.082 70.6539C289.753 71.1903 290.122 71.9112 290.189 72.8166C290.29 73.6884 290.055 74.4596 289.485 75.1302C288.948 75.7672 288.244 76.1361 287.372 76.2367C286.501 76.3037 285.729 76.069 285.059 75.5325C284.12 74.7949 283.03 74.0069 281.79 73.1686C280.582 72.3304 279.359 71.5256 278.118 70.7544C276.911 69.9497 275.804 69.2623 274.798 68.6923C274.262 68.3906 273.86 68.0217 273.591 67.5858V86.8994C273.591 87.7376 273.29 88.4585 272.686 89.0621C272.083 89.6656 271.345 89.9674 270.473 89.9674Z" fill="black"/>
</g>
</g>
</g>
<path d="M27.8333 91.9399C24.9999 91.9399 23.5833 90.2683 23.5833 86.9249V78.9349H5.39326C1.99327 78.9349 0.293265 77.7733 0.293265 75.4499C0.293265 74.1466 0.434932 73.0133 0.718265 72.0499C1.0016 71.0866 1.4266 70.0949 1.99327 69.0749L21.7133 35.5849C22.3933 34.3383 23.1866 33.4599 24.0933 32.9499C25.0566 32.4399 26.2466 32.1849 27.6633 32.1849C30.6666 32.1849 32.1683 33.8566 32.1683 37.1999V70.9449H35.4833C38.8266 70.9449 40.4983 72.2766 40.4983 74.9399C40.4983 77.6033 39.2799 78.9349 36.8433 78.9349H32.1683V86.9249C32.1683 90.2683 30.7233 91.9399 27.8333 91.9399ZM9.38827 70.9449H23.5833V46.6349L9.38827 70.9449Z" fill="black"/>
<defs>
<clipPath id="clip0_0_1">
<rect width="241" height="45.04" fill="white" transform="translate(49.4951 45.8999)"/>
</clipPath>
<clipPath id="clip1_0_1">
<rect width="241" height="45.04" fill="white" transform="translate(49.4951 45.8999)"/>
</clipPath>
<clipPath id="clip2_0_1">
<rect width="241" height="45.0565" fill="white" transform="translate(49.4951 45.8916)"/>
</clipPath>
</defs>
</svg>
