<svg width="242" height="46" viewBox="0 0 242 46" fill="none" xmlns="http://www.w3.org/2000/svg">
<g clip-path="url(#clip0_26_2526)">
<g clip-path="url(#clip1_26_2526)">
<path d="M16.2333 41.7988C15.5347 41.8826 14.906 41.7149 14.3472 41.2958C13.7884 40.8767 13.467 40.3179 13.3832 39.6193C13.2993 38.9207 13.467 38.292 13.8861 37.7332C14.3053 37.1744 14.8641 36.853 15.5627 36.7692C19.0275 36.3501 21.8077 35.6375 23.9033 34.6316C26.027 33.6257 27.5358 32.4102 28.43 30.9852C29.352 29.5322 29.7572 27.9535 29.6454 26.249C29.5058 24.0137 28.7373 22.393 27.3402 21.3871C25.9432 20.3532 23.7496 19.9481 20.7599 20.1716C19.5583 20.2555 18.2171 20.4231 16.7362 20.6746C15.2553 20.8981 13.7324 21.1636 12.1677 21.4709C10.6309 21.7783 9.14996 22.0996 7.72492 22.4349C6.29987 22.7702 5.02851 23.0916 3.91083 23.3989C3.24022 23.5946 2.59756 23.5247 1.98283 23.1894C1.39605 22.8261 1.00486 22.3092 0.809263 21.6386C0.61367 20.94 0.683524 20.2834 1.01883 19.6687C1.38208 19.0539 1.899 18.6488 2.56961 18.4532C3.77112 18.1179 5.12631 17.7965 6.63518 17.4892C8.14405 17.1539 9.7088 16.8466 11.3294 16.5671C12.978 16.2598 14.5847 15.9943 16.1494 15.7708C17.7142 15.5473 19.1392 15.3935 20.4246 15.3097C24.9232 14.9744 28.3461 15.7428 30.6933 17.6149C33.0404 19.4871 34.3536 22.2393 34.6331 25.8718C34.8287 28.4704 34.2698 30.8874 32.9566 33.1228C31.6712 35.3302 29.6315 37.2023 26.8373 38.7391C24.071 40.248 20.5364 41.2678 16.2333 41.7988ZM61.5413 42.6789C60.8427 42.8466 60.1861 42.7488 59.5714 42.3855C58.9566 42.0223 58.5654 41.5054 58.3978 40.8348C58.2301 40.1642 58.3279 39.5355 58.6912 38.9487C59.0545 38.3339 59.5714 37.9428 60.242 37.7751C63.3435 36.9648 65.6208 35.6515 67.0738 33.8353C68.5547 32.0191 69.2952 29.7139 69.2952 26.9196C69.2952 25.1593 68.904 23.5805 68.1216 22.1835C67.3392 20.7864 66.2216 19.6547 64.7686 18.7885C63.3435 17.9223 61.6251 17.3914 59.6133 17.1958C59.1103 21.8901 58.2581 25.9556 57.0566 29.3925C55.883 32.8014 54.4859 35.4419 52.8653 37.3141C51.2726 39.1582 49.596 40.0803 47.8357 40.0803C46.3548 40.0803 44.9995 39.6473 43.7701 38.781C42.5407 37.9148 41.5627 36.6714 40.8362 35.0508C40.1376 33.4301 39.7884 31.4881 39.7884 29.2248C39.7884 26.9057 40.2215 24.7402 41.0877 22.7283C41.9818 20.6885 43.2392 18.9003 44.8599 17.3635C46.4805 15.8266 48.3806 14.6252 50.56 13.7589C52.7675 12.8927 55.1844 12.4596 57.811 12.4596C60.9964 12.4596 63.8185 13.0744 66.2774 14.3038C68.7642 15.5053 70.7202 17.1958 72.1453 19.3753C73.5703 21.5268 74.2828 24.0416 74.2828 26.9196C74.2828 30.9713 73.1931 34.3522 71.0136 37.0626C68.8621 39.745 65.7046 41.6172 61.5413 42.6789ZM47.8776 34.925C48.3806 34.925 48.9534 34.5059 49.596 33.6676C50.2667 32.8014 50.9373 31.5859 51.6079 30.0212C52.2785 28.4565 52.8932 26.6123 53.452 24.4887C54.0108 22.3372 54.43 19.9621 54.7094 17.3635C52.53 17.7826 50.6997 18.5929 49.2188 19.7944C47.7379 20.968 46.6202 22.3791 45.8658 24.0276C45.1113 25.6483 44.7202 27.3527 44.6922 29.141C44.6922 31.041 44.9856 32.4801 45.5724 33.4581C46.1872 34.436 46.9555 34.925 47.8776 34.925ZM92.9677 43.2573C92.1294 43.2573 91.3917 42.9556 90.7546 42.352C90.1511 41.7485 89.8493 41.0276 89.8493 40.1893C89.8493 39.3175 90.1511 38.5798 90.7546 37.9763C91.3917 37.3727 92.1294 37.071 92.9677 37.071C94.5101 37.071 95.516 36.853 95.9854 36.4171C96.4548 35.9477 96.6895 34.9921 96.6895 33.5503V19.6184H83.4115C82.5732 19.6184 81.8523 19.3334 81.2488 18.7633C80.6788 18.1598 80.3937 17.4389 80.3937 16.6006C80.3937 15.7624 80.6788 15.0582 81.2488 14.4882C81.8523 13.8847 82.5732 13.5829 83.4115 13.5829H96.6895V8.15097C96.6895 7.27918 96.9913 6.55827 97.5949 5.98826C98.1984 5.38471 98.9193 5.08293 99.7576 5.08293C100.629 5.08293 101.35 5.38471 101.92 5.98826C102.524 6.55827 102.826 7.27918 102.826 8.15097V13.5829H115.249C116.087 13.5829 116.791 13.8847 117.361 14.4882C117.965 15.0582 118.266 15.7624 118.266 16.6006C118.266 17.4389 117.965 18.1598 117.361 18.7633C116.791 19.3334 116.087 19.6184 115.249 19.6184H102.826V33.9023C102.826 37.3224 102.071 39.7366 100.562 41.1449C99.0534 42.5532 96.5219 43.2573 92.9677 43.2573ZM82.8079 36.9201C82.0703 37.356 81.2823 37.4733 80.444 37.2722C79.6393 37.0374 79.019 36.5512 78.5831 35.8136C78.1472 35.0424 78.0466 34.2544 78.2813 33.4497C78.516 32.6449 78.9855 32.0246 79.6896 31.5887C81.0644 30.6499 82.4894 29.5769 83.9647 28.3698C85.4401 27.1627 86.731 25.9389 87.8375 24.6982C88.4075 24.0612 89.0949 23.6756 89.8996 23.5414C90.7043 23.3738 91.442 23.5247 92.1126 23.9941C92.7832 24.4971 93.1856 25.1677 93.3197 26.0059C93.4874 26.8442 93.303 27.5986 92.7665 28.2692C91.9282 29.3422 90.9391 30.4319 89.799 31.5384C88.6925 32.6114 87.519 33.6173 86.2783 34.5562C85.0712 35.4615 83.9144 36.2495 82.8079 36.9201ZM120.027 35.8136C119.39 36.3836 118.635 36.6351 117.763 36.568C116.925 36.5009 116.204 36.1656 115.601 35.5621C114.93 34.8915 114.109 34.1371 113.136 33.2988C112.197 32.427 111.225 31.5887 110.219 30.784C109.247 29.9457 108.358 29.2584 107.553 28.7219C106.883 28.2525 106.464 27.6154 106.296 26.8107C106.162 25.9724 106.313 25.2012 106.749 24.4971C107.218 23.7929 107.872 23.3738 108.71 23.2397C109.548 23.072 110.32 23.2229 111.024 23.6923C111.896 24.2623 112.901 25 114.042 25.9053C115.182 26.8107 116.305 27.7495 117.411 28.7219C118.518 29.6607 119.473 30.5493 120.278 31.3876C120.882 31.9911 121.15 32.7455 121.083 33.6509C121.049 34.5227 120.697 35.2436 120.027 35.8136ZM116.808 12.0237C115.4 12.0237 114.192 11.5375 113.187 10.5652C112.214 9.55925 111.728 8.35215 111.728 6.94387C111.728 5.56913 112.214 4.39556 113.187 3.42318C114.192 2.41726 115.4 1.91431 116.808 1.91431C118.183 1.91431 119.356 2.41726 120.328 3.42318C121.334 4.39556 121.837 5.56913 121.837 6.94387C121.837 8.35215 121.334 9.55925 120.328 10.5652C119.356 11.5375 118.183 12.0237 116.808 12.0237ZM116.808 9.15688C117.378 9.15688 117.881 8.93893 118.317 8.50304C118.753 8.06714 118.971 7.54742 118.971 6.94387C118.971 6.34032 118.753 5.83737 118.317 5.435C117.881 4.99911 117.378 4.78116 116.808 4.78116C116.204 4.78116 115.685 4.99911 115.249 5.435C114.813 5.83737 114.595 6.34032 114.595 6.94387C114.595 7.54742 114.813 8.06714 115.249 8.50304C115.685 8.93893 116.204 9.15688 116.808 9.15688ZM148.595 45.0177C147.756 45.0177 147.035 44.6991 146.432 44.0621C145.828 43.4585 145.527 42.7376 145.527 41.8994V21.7811C143.381 23.6588 141.168 25.4694 138.888 27.213C136.608 28.9566 134.327 30.5493 132.047 31.9911C131.31 32.427 130.522 32.5444 129.683 32.3432C128.879 32.142 128.242 31.6726 127.772 30.9349C127.336 30.1972 127.219 29.4093 127.42 28.571C127.621 27.7327 128.091 27.0957 128.828 26.6598C130.941 25.3521 133.137 23.8264 135.417 22.0829C137.731 20.3393 139.977 18.4783 142.157 16.5C144.37 14.5218 146.398 12.5435 148.243 10.5652C150.12 8.55333 151.679 6.65886 152.92 4.88175C153.423 4.17761 154.094 3.74172 154.932 3.57406C155.77 3.40641 156.541 3.57406 157.245 4.07702C157.95 4.54645 158.386 5.21706 158.553 6.08885C158.721 6.92711 158.553 7.69831 158.05 8.40245C156.307 10.7496 154.194 13.2141 151.713 15.7959V41.8994C151.713 42.7376 151.411 43.4585 150.808 44.0621C150.204 44.6991 149.466 45.0177 148.595 45.0177ZM175.352 40.8431C174.547 41.1449 173.742 41.1114 172.938 40.7426C172.167 40.3737 171.63 39.7869 171.328 38.9822C171.027 38.1775 171.06 37.3895 171.429 36.6183C171.798 35.8136 172.384 35.2603 173.189 34.9585C175.872 34.0197 178.571 32.8629 181.287 31.4881C184.036 30.1134 186.652 28.6213 189.133 27.0118C191.648 25.3688 193.928 23.6923 195.973 21.9823C198.052 20.2387 199.745 18.5622 201.053 16.9527C201.623 16.2821 202.327 15.8965 203.165 15.7959C204.037 15.6953 204.792 15.93 205.429 16.5C206.099 17.0365 206.485 17.7407 206.586 18.6125C206.686 19.4507 206.451 20.2052 205.881 20.8758C204.507 22.5523 202.679 24.3462 200.399 26.2574C198.119 28.1351 195.571 29.996 192.754 31.8402C189.938 33.6844 187.037 35.3944 184.053 36.9704C181.069 38.5463 178.169 39.8372 175.352 40.8431ZM179.677 21.0267C178.403 19.9537 176.978 18.8472 175.402 17.7071C173.826 16.5336 172.401 15.578 171.127 14.8403C170.389 14.3709 169.92 13.7338 169.719 12.9291C169.518 12.0908 169.635 11.3028 170.071 10.5652C170.54 9.82749 171.177 9.35806 171.982 9.15688C172.82 8.92217 173.608 9.03953 174.346 9.50895C175.251 10.079 176.274 10.7831 177.414 11.6214C178.588 12.4261 179.711 13.2308 180.784 14.0356C181.89 14.8403 182.796 15.5277 183.5 16.0977C184.17 16.6342 184.556 17.3383 184.657 18.2101C184.791 19.0484 184.59 19.8028 184.053 20.4734C183.517 21.144 182.812 21.5464 181.941 21.6805C181.102 21.7811 180.348 21.5631 179.677 21.0267ZM221.473 44.9674C220.635 44.9674 219.914 44.6656 219.31 44.0621C218.707 43.4585 218.405 42.7376 218.405 41.8994V7.14506C218.405 6.27326 218.707 5.55236 219.31 4.98234C219.914 4.37879 220.635 4.07702 221.473 4.07702C222.345 4.07702 223.083 4.37879 223.686 4.98234C224.29 5.55236 224.591 6.27326 224.591 7.14506V19.2663C225.027 18.5957 225.631 18.1598 226.402 17.9586C227.173 17.7239 227.928 17.791 228.665 18.1598C230.644 19.1992 232.655 20.3896 234.701 21.7308C236.78 23.072 238.574 24.3797 240.082 25.6539C240.753 26.1903 241.122 26.9112 241.189 27.8166C241.29 28.6884 241.055 29.4596 240.485 30.1302C239.948 30.7672 239.244 31.1361 238.372 31.2367C237.501 31.3037 236.729 31.069 236.059 30.5325C235.12 29.7949 234.03 29.0069 232.79 28.1686C231.582 27.3304 230.359 26.5256 229.118 25.7544C227.911 24.9497 226.804 24.2623 225.798 23.6923C225.262 23.3906 224.86 23.0217 224.591 22.5858V41.8994C224.591 42.7376 224.29 43.4585 223.686 44.0621C223.083 44.6656 222.345 44.9674 221.473 44.9674Z" fill="black"/>
</g>
</g>
<defs>
<clipPath id="clip0_26_2526">
<rect width="241" height="45.04" fill="white" transform="translate(0.495117 0.899902)"/>
</clipPath>
<clipPath id="clip1_26_2526">
<rect width="241" height="45.0565" fill="white" transform="translate(0.495117 0.891602)"/>
</clipPath>
</defs>
</svg>
