<svg width="230" height="43" viewBox="0 0 230 43" fill="none" xmlns="http://www.w3.org/2000/svg">
<path d="M15.02 39.04C14.3533 39.12 13.7533 38.96 13.22 38.56C12.6867 38.16 12.38 37.6267 12.3 36.96C12.22 36.2933 12.38 35.6933 12.78 35.16C13.18 34.6267 13.7133 34.32 14.38 34.24C17.6867 33.84 20.34 33.16 22.34 32.2C24.3667 31.24 25.8067 30.08 26.66 28.72C27.54 27.3333 27.9267 25.8267 27.82 24.2C27.6867 22.0667 26.9533 20.52 25.62 19.56C24.2867 18.5733 22.1933 18.1867 19.34 18.4C18.1933 18.48 16.9133 18.64 15.5 18.88C14.0867 19.0933 12.6333 19.3467 11.14 19.64C9.67333 19.9333 8.26 20.24 6.9 20.56C5.54 20.88 4.32667 21.1867 3.26 21.48C2.62 21.6667 2.00667 21.6 1.42 21.28C0.86 20.9333 0.486667 20.44 0.3 19.8C0.113334 19.1333 0.18 18.5067 0.5 17.92C0.846667 17.3333 1.34 16.9467 1.98 16.76C3.12667 16.44 4.42 16.1333 5.86 15.84C7.3 15.52 8.79333 15.2267 10.34 14.96C11.9133 14.6667 13.4467 14.4133 14.94 14.2C16.4333 13.9867 17.7933 13.84 19.02 13.76C23.3133 13.44 26.58 14.1733 28.82 15.96C31.06 17.7467 32.3133 20.3733 32.58 23.84C32.7667 26.32 32.2333 28.6267 30.98 30.76C29.7533 32.8667 27.8067 34.6533 25.14 36.12C22.5 37.56 19.1267 38.5333 15.02 39.04ZM58.26 39.88C57.5933 40.04 56.9667 39.9467 56.38 39.6C55.7933 39.2533 55.42 38.76 55.26 38.12C55.1 37.48 55.1933 36.88 55.54 36.32C55.8867 35.7333 56.38 35.36 57.02 35.2C59.98 34.4267 62.1533 33.1733 63.54 31.44C64.9533 29.7067 65.66 27.5067 65.66 24.84C65.66 23.16 65.2867 21.6533 64.54 20.32C63.7933 18.9867 62.7267 17.9067 61.34 17.08C59.98 16.2533 58.34 15.7467 56.42 15.56C55.94 20.04 55.1267 23.92 53.98 27.2C52.86 30.4533 51.5267 32.9733 49.98 34.76C48.46 36.52 46.86 37.4 45.18 37.4C43.7667 37.4 42.4733 36.9867 41.3 36.16C40.1267 35.3333 39.1933 34.1467 38.5 32.6C37.8333 31.0533 37.5 29.2 37.5 27.04C37.5 24.8267 37.9133 22.76 38.74 20.84C39.5933 18.8933 40.7933 17.1867 42.34 15.72C43.8867 14.2533 45.7 13.1067 47.78 12.28C49.8867 11.4533 52.1933 11.04 54.7 11.04C57.74 11.04 60.4333 11.6267 62.78 12.8C65.1533 13.9467 67.02 15.56 68.38 17.64C69.74 19.6933 70.42 22.0933 70.42 24.84C70.42 28.7067 69.38 31.9333 67.3 34.52C65.2467 37.08 62.2333 38.8667 58.26 39.88ZM45.22 32.48C45.7 32.48 46.2467 32.08 46.86 31.28C47.5 30.4533 48.14 29.2933 48.78 27.8C49.42 26.3067 50.0067 24.5467 50.54 22.52C51.0733 20.4667 51.4733 18.2 51.74 15.72C49.66 16.12 47.9133 16.8933 46.5 18.04C45.0867 19.16 44.02 20.5067 43.3 22.08C42.58 23.6267 42.2067 25.2533 42.18 26.96C42.18 28.7733 42.46 30.1467 43.02 31.08C43.6067 32.0133 44.34 32.48 45.22 32.48ZM88.252 40.432C87.452 40.432 86.748 40.144 86.14 39.568C85.564 38.992 85.276 38.304 85.276 37.504C85.276 36.672 85.564 35.968 86.14 35.392C86.748 34.816 87.452 34.528 88.252 34.528C89.724 34.528 90.684 34.32 91.132 33.904C91.58 33.456 91.804 32.544 91.804 31.168V17.872H79.132C78.332 17.872 77.644 17.6 77.068 17.056C76.524 16.48 76.252 15.792 76.252 14.992C76.252 14.192 76.524 13.52 77.068 12.976C77.644 12.4 78.332 12.112 79.132 12.112H91.804V6.928C91.804 6.096 92.092 5.408 92.668 4.864C93.244 4.288 93.932 4 94.732 4C95.564 4 96.252 4.288 96.796 4.864C97.372 5.408 97.66 6.096 97.66 6.928V12.112H109.516C110.316 12.112 110.988 12.4 111.532 12.976C112.108 13.52 112.396 14.192 112.396 14.992C112.396 15.792 112.108 16.48 111.532 17.056C110.988 17.6 110.316 17.872 109.516 17.872H97.66V31.504C97.66 34.768 96.94 37.072 95.5 38.416C94.06 39.76 91.644 40.432 88.252 40.432ZM78.556 34.384C77.852 34.8 77.1 34.912 76.3 34.72C75.532 34.496 74.94 34.032 74.524 33.328C74.108 32.592 74.012 31.84 74.236 31.072C74.46 30.304 74.908 29.712 75.58 29.296C76.892 28.4 78.252 27.376 79.66 26.224C81.068 25.072 82.3 23.904 83.356 22.72C83.9 22.112 84.556 21.744 85.324 21.616C86.092 21.456 86.796 21.6 87.436 22.048C88.076 22.528 88.46 23.168 88.588 23.968C88.748 24.768 88.572 25.488 88.06 26.128C87.26 27.152 86.316 28.192 85.228 29.248C84.172 30.272 83.052 31.232 81.868 32.128C80.716 32.992 79.612 33.744 78.556 34.384ZM114.076 33.328C113.468 33.872 112.748 34.112 111.916 34.048C111.116 33.984 110.428 33.664 109.852 33.088C109.212 32.448 108.428 31.728 107.5 30.928C106.604 30.096 105.676 29.296 104.716 28.528C103.788 27.728 102.94 27.072 102.172 26.56C101.532 26.112 101.132 25.504 100.972 24.736C100.844 23.936 100.988 23.2 101.404 22.528C101.852 21.856 102.476 21.456 103.276 21.328C104.076 21.168 104.812 21.312 105.484 21.76C106.316 22.304 107.276 23.008 108.364 23.872C109.452 24.736 110.524 25.632 111.58 26.56C112.636 27.456 113.548 28.304 114.316 29.104C114.892 29.68 115.148 30.4 115.084 31.264C115.052 32.096 114.716 32.784 114.076 33.328ZM111.004 10.624C109.66 10.624 108.508 10.16 107.548 9.232C106.62 8.272 106.156 7.12 106.156 5.776C106.156 4.464 106.62 3.344 107.548 2.416C108.508 1.456 109.66 0.975999 111.004 0.975999C112.316 0.975999 113.436 1.456 114.364 2.416C115.324 3.344 115.804 4.464 115.804 5.776C115.804 7.12 115.324 8.272 114.364 9.232C113.436 10.16 112.316 10.624 111.004 10.624ZM111.004 7.888C111.548 7.888 112.028 7.68 112.444 7.264C112.86 6.848 113.068 6.352 113.068 5.776C113.068 5.2 112.86 4.72 112.444 4.336C112.028 3.92 111.548 3.712 111.004 3.712C110.428 3.712 109.932 3.92 109.516 4.336C109.1 4.72 108.892 5.2 108.892 5.776C108.892 6.352 109.1 6.848 109.516 7.264C109.932 7.68 110.428 7.888 111.004 7.888ZM141.34 42.112C140.54 42.112 139.852 41.808 139.276 41.2C138.7 40.624 138.412 39.936 138.412 39.136V19.936C136.364 21.728 134.252 23.456 132.076 25.12C129.9 26.784 127.724 28.304 125.548 29.68C124.844 30.096 124.092 30.208 123.292 30.016C122.524 29.824 121.916 29.376 121.468 28.672C121.052 27.968 120.94 27.216 121.132 26.416C121.324 25.616 121.772 25.008 122.476 24.592C124.492 23.344 126.588 21.888 128.764 20.224C130.972 18.56 133.116 16.784 135.196 14.896C137.308 13.008 139.244 11.12 141.004 9.232C142.796 7.312 144.284 5.504 145.468 3.808C145.948 3.136 146.588 2.72 147.388 2.56C148.188 2.4 148.924 2.56 149.596 3.04C150.268 3.488 150.684 4.128 150.844 4.96C151.004 5.76 150.844 6.496 150.364 7.168C148.7 9.408 146.684 11.76 144.316 14.224V39.136C144.316 39.936 144.028 40.624 143.452 41.2C142.876 41.808 142.172 42.112 141.34 42.112ZM166.876 38.128C166.108 38.416 165.34 38.384 164.572 38.032C163.836 37.68 163.324 37.12 163.036 36.352C162.748 35.584 162.78 34.832 163.132 34.096C163.484 33.328 164.044 32.8 164.812 32.512C167.372 31.616 169.948 30.512 172.54 29.2C175.164 27.888 177.66 26.464 180.028 24.928C182.428 23.36 184.604 21.76 186.556 20.128C188.54 18.464 190.156 16.864 191.404 15.328C191.948 14.688 192.62 14.32 193.42 14.224C194.252 14.128 194.972 14.352 195.58 14.896C196.22 15.408 196.588 16.08 196.684 16.912C196.78 17.712 196.556 18.432 196.012 19.072C194.7 20.672 192.956 22.384 190.78 24.208C188.604 26 186.172 27.776 183.484 29.536C180.796 31.296 178.028 32.928 175.18 34.432C172.332 35.936 169.564 37.168 166.876 38.128ZM171.004 19.216C169.788 18.192 168.428 17.136 166.924 16.048C165.42 14.928 164.06 14.016 162.844 13.312C162.14 12.864 161.692 12.256 161.5 11.488C161.308 10.688 161.42 9.936 161.836 9.232C162.284 8.528 162.892 8.08 163.66 7.888C164.46 7.664 165.212 7.776 165.916 8.224C166.78 8.768 167.756 9.44 168.844 10.24C169.964 11.008 171.036 11.776 172.06 12.544C173.116 13.312 173.98 13.968 174.652 14.512C175.292 15.024 175.66 15.696 175.756 16.528C175.884 17.328 175.692 18.048 175.18 18.688C174.668 19.328 173.996 19.712 173.164 19.84C172.364 19.936 171.644 19.728 171.004 19.216ZM210.892 42.064C210.092 42.064 209.404 41.776 208.828 41.2C208.252 40.624 207.964 39.936 207.964 39.136V5.968C207.964 5.136 208.252 4.448 208.828 3.904C209.404 3.328 210.092 3.04 210.892 3.04C211.724 3.04 212.428 3.328 213.004 3.904C213.58 4.448 213.868 5.136 213.868 5.968V17.536C214.284 16.896 214.86 16.48 215.596 16.288C216.332 16.064 217.052 16.128 217.756 16.48C219.644 17.472 221.564 18.608 223.516 19.888C225.5 21.168 227.212 22.416 228.652 23.632C229.292 24.144 229.644 24.832 229.708 25.696C229.804 26.528 229.58 27.264 229.036 27.904C228.524 28.512 227.852 28.864 227.02 28.96C226.188 29.024 225.452 28.8 224.812 28.288C223.916 27.584 222.876 26.832 221.692 26.032C220.54 25.232 219.372 24.464 218.188 23.728C217.036 22.96 215.98 22.304 215.02 21.76C214.508 21.472 214.124 21.12 213.868 20.704V39.136C213.868 39.936 213.58 40.624 213.004 41.2C212.428 41.776 211.724 42.064 210.892 42.064Z" fill="#2F1909"/>
</svg>
