<svg width="918" height="364" viewBox="0 0 918 364" fill="none" xmlns="http://www.w3.org/2000/svg">
<mask id="mask0_14594_12984" style="mask-type:alpha" maskUnits="userSpaceOnUse" x="0" y="0" width="918" height="364">
<path d="M918 0H0V364H918V0Z" fill="white"/>
</mask>
<g mask="url(#mask0_14594_12984)">
<g filter="url(#filter0_d_14594_12984)">
<path d="M191.003 138.01C189.303 138.6 187.533 139.24 185.723 139.91C181.443 141.49 177.303 143.39 173.393 145.55C172.813 144.71 172.193 144 171.563 143.43C170.703 142.53 169.613 142.01 168.323 141.88C167.993 141.83 167.683 141.81 167.403 141.81C166.373 141.81 165.583 142.12 165.033 142.74C164.433 143.42 164.203 144.42 164.363 145.71C164.853 149.34 165.373 153.66 165.933 158.56L165.963 159.41V159.45V159.49C166.573 164.8 167.393 169.93 168.383 174.72C169.393 179.56 170.963 183.28 173.053 185.79C173.763 186.83 174.923 187.36 176.493 187.36C178.303 187.36 179.493 186.34 179.843 184.51L179.903 184.21L179.783 183.93C178.083 180 176.603 174.98 175.363 169C174.313 163.81 173.793 158.68 173.813 153.78C173.853 153.33 173.883 152.89 173.913 152.44C174.503 152.49 175.043 152.52 175.513 152.54C176.103 152.57 176.613 152.58 177.043 152.58H177.243H177.313H177.383C178.573 152.39 179.883 151.8 181.403 150.77C182.583 149.94 184.283 149.04 186.493 148.1L187.493 153.75C185.773 154.19 184.303 154.62 183.113 155.03C181.703 155.51 180.453 156.01 179.383 156.51L179.213 156.59L179.083 156.73C177.973 157.91 177.873 159.36 178.813 160.69L178.833 160.72L178.853 160.75C179.693 161.76 180.733 162.49 181.943 162.92H181.973L182.003 162.94C182.563 163.1 183.143 163.19 183.713 163.19C184.393 163.19 185.073 163.07 185.753 162.84C186.503 162.58 187.363 162.35 188.313 162.13L189.053 167C185.813 168.06 182.703 169.23 179.773 170.47L179.393 170.63L179.233 171.01C178.793 172.07 178.463 174.09 181.043 175.78C181.923 176.73 182.963 177.22 184.123 177.22C185.283 177.2 186.403 176.95 187.503 176.49H187.533L187.563 176.47C188.223 176.15 189.013 175.89 189.913 175.69L190.413 178.51C190.543 179.83 191.043 180.93 191.903 181.77C192.673 182.53 193.563 182.91 194.553 182.91C194.753 182.91 194.953 182.89 195.153 182.86H195.193L195.223 182.85C196.443 182.57 197.243 181.99 197.623 181.12V181.1L197.643 181.08C197.933 180.3 198.003 179.41 197.863 178.43C197.733 176.41 197.613 174.3 197.513 172.15C200.933 170.72 204.803 168.3 209.043 164.96C209.153 170.03 209.073 171.37 209.003 171.7V171.73V171.76C208.923 172.36 208.743 173.02 208.493 173.72C208.433 173.89 208.303 174.32 207.373 174.66C206.493 174.93 205.153 175.33 203.343 175.86L202.143 176.22L202.753 177.31C203.673 178.95 205.093 180.22 206.973 181.1C208.663 181.85 210.103 182.21 211.383 182.21C211.593 182.21 211.793 182.21 211.993 182.18C213.753 182.09 215.083 180.4 216.033 177.02C216.943 174 217.163 168.84 216.683 161.28C216.203 153.85 215.593 146.35 214.863 139V138.94L214.843 138.88C214.343 136.59 213.573 135.05 212.473 134.17C211.613 133.48 210.413 133.13 208.913 133.13C208.463 133.13 207.983 133.16 207.473 133.22H207.413L207.353 133.24C205.053 133.79 201.973 134.63 198.203 135.73C196.013 136.39 193.593 137.16 191.013 138.02L191.003 138.01ZM202.783 156.3C203.663 156.15 204.453 155.83 205.143 155.34L205.173 155.32L205.203 155.3C206.133 154.53 206.373 153.44 205.893 152.22L205.863 152.15L205.823 152.09C204.853 150.41 203.253 149.48 201.203 149.4H201.053L200.903 149.43C199.783 149.73 198.723 150.03 197.753 150.31C197.093 150.51 196.183 150.73 195.053 150.96C194.903 149.89 194.783 148.89 194.693 147.98C194.593 146.96 194.493 145.83 194.413 144.58C196.313 143.68 198.563 142.86 201.123 142.12C203.453 141.45 205.293 141.07 206.583 140.98C207.053 143.22 207.473 146.29 207.823 150.11C208.213 153.78 208.433 156.31 208.473 157.66C205.643 159.42 203.173 160.84 201.123 161.89C199.513 162.73 198.053 163.4 196.783 163.88C196.563 162.7 196.253 161.01 195.883 158.85C199.223 157.66 201.543 156.8 202.783 156.3Z" fill="white"/>
<path d="M168.303 127.84C168.433 127.86 168.563 127.86 168.693 127.86C169.833 127.86 171.073 127.26 172.473 126.02C175.003 124.17 178.013 122.48 181.433 121C184.223 119.75 186.803 118.78 189.143 118.09C187.913 121.44 186.133 124.77 183.813 128.02C183.263 128.19 181.873 128.47 178.363 128.87L178.053 128.91L177.813 129.12C176.813 130 176.263 130.84 176.113 131.69V131.74L176.103 131.79C176.043 132.61 176.373 133.58 177.103 134.73C177.843 135.9 178.723 136.64 179.723 136.92C180.093 137.03 180.493 137.08 180.913 137.08C181.503 137.08 182.143 136.97 182.813 136.75C186.723 136.67 191.303 136.43 196.433 136.04L196.713 136.02L196.943 135.86C197.253 135.64 197.623 135.28 198.063 134.76L198.093 134.73L198.113 134.7C198.493 134.18 198.733 133.48 198.833 132.56C198.913 131.88 198.753 130.63 196.893 129.82C196.333 129.43 195.153 129.01 191.653 128.66C192.733 127.05 193.733 125.61 194.663 124.36C195.883 122.62 197.283 120.32 198.843 117.5L198.873 117.45L198.893 117.4C199.763 115.35 199.963 113.56 199.503 112.08C199.083 110.45 197.523 109.37 194.883 108.91L194.723 108.88L194.563 108.9L193.503 109.06C191.203 109.41 188.303 110.19 184.883 111.38C180.863 112.79 177.223 114.28 174.083 115.82C170.943 117.36 167.753 119.16 164.613 121.16L164.543 121.21L164.483 121.27C163.823 121.88 163.483 122.53 163.493 123.22C163.493 123.86 163.803 124.45 164.383 124.99C165.843 126.75 167.133 127.68 168.333 127.84H168.303Z" fill="white"/>
<path d="M191.273 197.05C192.743 197.15 194.193 197.21 195.583 197.21C199.553 197.21 203.233 196.78 206.533 195.93C210.933 194.79 214.593 193.59 217.413 192.37C220.343 191.11 222.183 190.15 223.043 189.44C224.023 188.69 224.603 187.53 224.763 185.99C224.913 185.03 224.773 184.29 224.343 183.78C224.103 183.5 223.653 183.16 222.903 183.16C222.773 183.16 222.623 183.17 222.473 183.19H222.393L222.313 183.23C217.833 184.7 213.303 186.15 208.863 187.55C205.273 188.75 200.303 189.35 194.073 189.35C192.903 189.35 191.673 189.33 190.403 189.29C182.323 189.08 175.443 188.84 169.963 188.56C166.803 188.39 163.923 188.31 161.403 188.31C160.293 188.31 159.233 188.33 158.243 188.36C158.663 187.58 159.083 186.72 159.513 185.78C160.443 183.78 160.293 181.67 159.043 179.5C157.933 177.56 156.463 175.78 154.673 174.22C153.733 173.01 153.103 171.71 152.773 170.36C152.473 169.16 152.423 167.89 152.633 166.55C153.203 163.97 153.883 161.67 154.663 159.7C155.443 157.65 156.403 155.66 157.523 153.76L157.543 153.72L157.563 153.68C158.033 152.67 158.213 151.7 158.083 150.81C158.003 149.84 157.583 148.86 156.813 147.89L156.753 147.82L156.683 147.76C155.293 146.55 153.823 145.94 152.323 145.94C151.183 145.94 150.023 146.3 148.883 147C143.703 150.23 139.603 152.89 136.703 154.91C133.773 156.98 132.053 158.27 131.443 158.85L131.163 159.12L131.133 159.51C130.993 161.63 131.583 163.27 132.893 164.38C134.063 165.3 135.043 165.9 135.923 166.22H135.953L135.993 166.24C136.303 166.33 136.603 166.37 136.873 166.37C137.653 166.37 138.313 166.04 138.773 165.41L138.793 165.38L138.813 165.35C139.043 165 139.713 164.18 141.633 162.31C142.693 161.28 143.913 160.36 145.273 159.58C144.883 161.59 144.493 163.78 144.123 166.13C143.743 168.85 144.433 171.79 146.163 174.88C146.633 175.7 147.173 176.54 147.773 177.4L147.833 177.48L147.903 177.55C148.153 177.79 148.753 178.54 149.923 180.88C150.713 182.46 150.753 183.79 150.043 184.93L150.023 184.96L150.003 184.99C149.113 186.7 147.973 188.07 146.623 189.06C145.403 190.05 143.543 190.53 141.053 190.53H140.853H140.683L140.523 190.59C138.843 191.17 137.843 192.04 137.523 193.15C137.213 194.25 137.613 195.49 138.713 196.82L138.763 196.89L138.833 196.95C139.883 197.86 141.093 198.41 142.433 198.59C142.833 198.64 143.223 198.66 143.593 198.66C144.513 198.66 145.413 198.52 146.263 198.24C149.553 197.42 153.223 196.79 157.153 196.39C159.713 196.12 162.833 195.99 166.423 195.99C168.463 195.99 170.703 196.03 173.073 196.12C179.683 196.42 185.803 196.75 191.273 197.09V197.05Z" fill="white"/>
<path d="M136.973 126.43C138.153 129.41 139.353 131.99 140.533 134.12C141.793 136.26 143.253 138.61 144.893 141.13L144.913 141.16L144.933 141.19C145.493 141.93 146.193 142.57 147.023 143.11C147.873 143.62 148.653 143.86 149.393 143.86C149.563 143.86 149.723 143.85 149.883 143.82C150.853 143.67 151.573 143.15 151.893 142.36C152.243 141.63 152.263 140.75 151.943 139.76L151.923 139.69L151.893 139.62C149.653 135.19 147.853 131.43 146.553 128.44C144.853 124.47 144.583 123.64 144.543 123.46L144.503 123.21L144.353 123.02C143.663 122.11 142.703 121.4 141.483 120.9C140.843 120.61 140.143 120.46 139.433 120.46C138.863 120.46 138.283 120.56 137.703 120.76L137.583 120.8L137.473 120.87C136.373 121.59 135.873 122.66 136.063 123.88C136.203 124.82 136.523 125.68 136.993 126.43H136.973Z" fill="white"/>
<path d="M296.463 122.09L296.303 122.05H296.143C295.323 122.11 294.583 122.26 293.923 122.52C289.763 124.21 285.573 125.95 281.443 127.69L273.463 131.08C271.603 131.92 271.173 133.29 271.133 134.3V134.34V134.38C271.163 135.08 271.303 135.77 271.563 136.43V136.46L271.583 136.49C271.793 136.95 272.043 137.42 272.333 137.88L272.493 138.14L272.773 138.27C274.363 138.99 275.633 139.33 276.663 139.33C277.443 139.33 278.093 139.13 278.593 138.72C280.553 137.59 283.833 135.94 288.353 133.83C292.933 131.71 296.293 130.41 298.313 129.98C299.783 129.67 300.733 128.72 300.973 127.3C301.103 126.44 300.973 125.2 299.713 123.99C298.833 123.08 297.733 122.44 296.463 122.1V122.09Z" fill="white"/>
<path d="M246.673 148.2C246.803 150.36 246.983 152.86 247.213 155.65C247.573 160.59 248.143 166.51 248.913 173.25C248.913 175.06 249.263 176.82 249.933 178.46L249.953 178.5L249.973 178.54C250.753 180.06 252.053 181.12 253.823 181.7C254.363 181.85 254.843 181.91 255.303 181.91C256.803 181.91 258.073 181.18 258.983 179.79L259.263 179.37L259.093 178.9C257.983 175.84 257.163 173.03 256.653 170.53C256.203 168.02 255.673 163.44 255.073 156.95C254.913 155.02 254.773 153.05 254.673 151.12C254.323 146.28 254.193 141.13 254.293 135.78C254.403 134.72 254.383 133.67 254.233 132.64C254.123 131.47 253.773 130.42 253.193 129.52C252.853 128.9 252.443 128.41 251.983 128.07C254.933 122.46 256.803 119.11 257.553 118.1L259.893 114.69L259.993 114.54C261.013 113.16 261.413 111.85 261.153 110.67C260.963 109.48 260.323 108.41 259.233 107.47C258.173 106.49 257.203 106 256.293 106C256.293 106 256.203 106 256.163 106C255.233 106.05 254.333 106.56 253.473 107.53L253.403 107.61L253.353 107.7L248.053 117C246.083 120.46 242.993 126.23 238.893 134.14C234.843 142.05 231.953 147.99 230.293 151.81C228.643 155.66 227.693 158.36 227.403 160.08C227.233 160.91 227.213 161.79 227.353 162.68C227.463 163.43 227.953 164.45 229.613 165.09H229.653L229.693 165.12C230.123 165.25 230.583 165.31 231.063 165.31C231.973 165.31 232.983 165.08 234.053 164.61L234.543 164.4L234.643 163.87C235.053 161.59 236.433 157.76 238.733 152.49C240.743 148.02 243.223 143.23 246.123 138.24C246.263 140.72 246.443 144.01 246.683 148.17L246.673 148.2Z" fill="white"/>
<path d="M300.503 134.57C300.413 134.57 300.323 134.57 300.233 134.57H300.123L300.013 134.61C298.373 135.06 295.863 136.04 292.323 137.59C288.853 139.04 284.363 140.89 279.003 143.06C276.083 143.93 275.533 145.91 275.593 147.43V147.58L275.653 147.72C276.483 150.09 278.253 151.43 280.773 151.59L281.023 151.61L281.243 151.51C281.943 151.2 282.743 150.8 283.603 150.33C284.503 149.87 286.323 148.96 288.983 147.64C291.703 146.31 295.393 144.69 299.933 142.83L299.973 142.81L300.013 142.79C300.933 142.32 302.003 141.76 303.233 141.11L303.503 140.97L303.643 140.7C304.403 139.29 304.563 137.99 304.123 136.84L304.093 136.77L304.063 136.71C303.283 135.3 302.053 134.56 300.483 134.56L300.503 134.57Z" fill="white"/>
<path d="M307.953 146.22C306.933 146.22 305.743 146.41 304.433 146.78C302.893 147.15 299.963 148.18 295.533 149.93C291.263 151.55 285.803 153.98 279.293 157.14C278.453 156.83 277.683 156.61 277.003 156.47C276.233 156.23 275.623 156.1 275.133 156.1C274.543 156.1 273.843 156.31 272.893 156.77L272.533 156.94L272.393 157.32C271.843 158.79 271.793 160.19 272.223 161.47C273.433 164.58 274.703 167.38 276.013 169.84L276.033 169.87L276.053 169.9C276.923 171.28 278.063 173.03 279.543 175.23C281.173 177.53 283.313 179.17 285.913 180.12C286.813 180.54 287.713 180.76 288.603 180.76C289.493 180.76 290.403 180.54 291.263 180.1C296.363 177.88 300.813 175.91 304.483 174.23C306.643 173.26 308.703 172.49 310.603 171.94C312.063 171.58 313.023 170.98 313.513 170.11C313.773 169.65 314.023 168.89 313.713 167.85C313.383 166.52 312.673 165.5 311.643 164.87C311.903 163.95 312.253 162.93 312.673 161.83C313.333 160.28 313.923 157.33 314.463 152.83C314.613 150.8 314.193 149.22 313.213 148.1C312.223 146.97 310.683 146.34 308.633 146.23C308.443 146.21 308.193 146.2 307.953 146.2V146.22ZM305.403 154.93C305.223 157.21 304.853 159.17 304.313 160.77C303.683 162.64 303.133 164.33 302.673 165.82C301.653 166.39 299.973 167.32 297.653 168.62C295.293 169.96 291.913 171.16 287.603 172.22C285.403 169.81 283.843 167.76 282.943 166.1C283.933 165.35 284.883 164.52 285.793 163.61C286.473 162.93 288.433 161.6 293.873 159.18C297.833 157.42 301.703 156 305.403 154.95V154.93Z" fill="white"/>
<path d="M261.883 129.75L261.973 129.83L262.083 129.88C263.143 130.41 264.163 130.68 265.133 130.68C266.543 130.68 267.823 130.12 268.953 129.03C270.933 127.02 274.533 124.76 279.683 122.3C284.903 119.81 289.773 117.78 294.163 116.27C297.103 115.24 299.513 114.55 301.303 114.21C302.063 114.09 302.733 114.02 303.263 113.99C303.703 114.08 304.143 114.13 304.563 114.13C306.423 114.13 308.093 113.25 309.533 111.51L309.873 111.1L309.723 110.59C309.443 109.65 309.003 108.66 308.433 107.64C307.803 106.38 306.703 105.61 305.253 105.41C304.793 105.35 304.343 105.32 303.913 105.32C303.153 105.32 302.443 105.42 301.793 105.62C298.323 106.74 294.873 107.9 291.513 109.07C289.213 109.83 287.533 110.39 286.463 110.74C285.573 106.83 284.423 103.08 283.033 99.58C282.323 97.5 281.113 96.29 279.443 96.03C279.173 95.99 278.923 95.98 278.663 95.98C278.333 95.98 278.003 96.01 277.653 96.06C276.633 96.22 275.513 96.64 274.323 97.33L273.683 97.7L273.843 98.42C274.053 99.35 274.503 100.78 275.213 102.78C275.903 104.69 277.123 107.33 278.823 110.66C279.333 111.66 279.973 112.55 280.743 113.33C278.833 113.95 276.363 114.98 273.263 116.45C269.123 118.41 265.283 120.54 261.853 122.78L261.793 122.82L261.733 122.87C260.503 123.97 259.893 125.14 259.913 126.33C259.933 127.54 260.593 128.7 261.893 129.79L261.883 129.75Z" fill="white"/>
<path d="M325.473 141.33H325.493L325.523 141.36C326.123 141.64 326.733 141.78 327.333 141.78C327.823 141.78 328.323 141.68 328.803 141.49H328.833L328.863 141.46C329.733 141.04 330.493 140.56 331.143 140.03L331.193 139.99L331.233 139.94C331.323 139.84 331.413 139.75 331.503 139.65C331.493 139.75 331.483 139.84 331.483 139.92C331.503 142.72 332.013 146.08 333.003 149.95C334.043 153.7 335.503 157.24 337.343 160.51C338.883 163.33 340.653 164.76 342.593 164.76C342.743 164.76 342.893 164.76 343.043 164.73C345.903 164.52 346.603 162.79 346.753 161.78L346.823 161.31L346.503 160.96C345.543 159.91 344.663 158.97 343.883 158.17C343.293 157.49 342.643 156.19 341.983 154.32C341.453 152.8 341.033 151.24 340.723 149.68C341.623 149.78 342.473 149.9 343.273 150.03L343.953 150.15L344.303 149.56C345.193 148.06 346.593 146.41 348.473 144.67C348.653 144.5 348.853 144.32 349.053 144.14C349.343 146.3 349.623 148.28 349.893 150.03C350.653 155.85 351.653 162.67 352.883 170.28C352.943 171.13 353.233 172.02 353.753 172.92C354.343 174.01 355.303 174.59 356.523 174.59C356.623 174.59 356.723 174.59 356.823 174.58C357.953 174.55 358.953 174.28 359.813 173.77C360.983 173.19 361.513 172.14 361.313 170.81V170.78V170.75C360.103 164.89 358.993 158.49 358.013 151.65L358.523 152.17C360.253 153.93 361.603 155.03 362.633 155.53C363.663 155.99 364.623 156.32 365.533 156.53C366.273 156.92 367.133 157.15 368.083 157.22C368.183 157.22 368.263 157.22 368.343 157.22C369.453 157.22 370.553 156.76 371.603 155.85C372.683 154.92 373.663 153.09 374.573 150.25C375.443 147.57 376.053 144.72 376.413 141.79C376.753 138.81 376.953 135.22 376.983 131.12C376.943 129.28 376.353 127.93 375.223 127.09C374.273 126.27 373.093 125.7 371.723 125.39C371.253 125.26 370.683 125.19 370.073 125.19C369.013 125.19 367.783 125.41 366.423 125.85C364.453 126.41 361.843 127.46 358.673 128.94L355.353 130.64C355.023 127.54 354.763 125.17 354.573 123.57C357.573 122.05 360.743 120.73 364.023 119.62C367.503 118.45 370.273 117.76 372.263 117.59C373.363 117.52 374.313 116.85 375.073 115.62C375.613 114.67 375.993 113.17 374.873 111.26L374.713 110.99L374.433 110.86C372.933 110.16 371.503 109.8 370.203 109.8C370.093 109.8 369.983 109.8 369.863 109.8H369.763L369.663 109.83C366.463 110.65 363.383 111.66 360.503 112.83C358.203 113.78 355.963 114.68 353.823 115.51C353.733 113.39 353.613 111.63 353.463 110.28C353.373 108.96 353.323 107.64 353.333 106.35C356.433 105.12 358.443 104.33 359.303 104.02C359.813 103.84 360.303 103.75 360.753 103.75C360.993 103.75 361.233 103.78 361.453 103.83H361.493L361.533 103.85C361.753 103.89 361.983 103.91 362.213 103.91C363.053 103.91 363.943 103.65 364.863 103.13L365.063 103.02L365.193 102.83C366.793 100.53 366.163 98.67 365.343 97.51L365.223 97.34L365.043 97.23C363.493 96.31 361.963 95.84 360.483 95.84C359.803 95.84 359.123 95.94 358.473 96.13C357.013 96.64 355.303 97.22 353.303 97.9C353.063 95.71 353.043 93.37 353.253 90.93C353.483 89.91 353.363 88.87 352.883 87.83C352.353 86.68 351.343 85.92 349.873 85.56L349.803 85.54H349.733C349.473 85.51 349.223 85.5 348.983 85.5C348.643 85.5 348.313 85.52 348.013 85.57C347.293 85.68 346.603 85.95 345.943 86.37L345.513 86.65L345.493 87.17C345.253 92.16 345.123 96.8 345.123 100.98C341.883 102.58 338.663 104.15 335.523 105.65C335.763 104.12 336.043 102.45 336.363 100.65L337.603 93.24L337.653 92.94L337.533 92.67C336.473 90.27 335.213 89.01 333.683 88.8C333.413 88.76 333.123 88.74 332.853 88.74C331.853 88.74 330.973 89.04 330.253 89.62L329.963 89.86L329.893 90.23C329.093 94.77 328.213 99.65 327.273 104.75C326.383 109.8 325.923 114.28 325.903 118.07C325.953 121.99 326.303 124.71 326.993 126.4C327.553 127.77 328.573 128.93 330.053 129.87C328.603 130.89 327.523 131.63 326.843 132.09C325.913 132.75 324.813 133.83 323.463 135.43L323.273 135.65L323.233 135.94C323.053 137.25 323.113 138.3 323.403 139.15C323.723 140.03 324.423 140.75 325.503 141.33H325.473ZM343.013 130.36C345.023 128.99 346.243 128.23 346.983 127.82C347.333 130.44 347.653 132.92 347.963 135.26C345.123 137.19 343.103 138.69 341.803 139.85C340.863 140.72 340.193 141.27 339.723 141.62C338.773 139.69 337.873 138.57 336.923 138.13C336.163 137.77 335.363 137.59 334.563 137.59C334.283 137.59 334.003 137.61 333.723 137.65C333.653 137.66 333.573 137.67 333.503 137.69C334.273 136.98 335.103 136.26 335.993 135.53C337.893 133.94 340.253 132.2 343.023 130.36H343.013ZM334.023 113.59C334.423 113.69 334.833 113.74 335.243 113.74C335.713 113.74 336.203 113.67 336.683 113.54C337.873 113.21 338.973 112.64 339.953 111.84C341.843 110.51 343.803 109.37 345.793 108.45C345.893 110.34 346.003 112.03 346.113 113.49C346.303 115.13 346.473 116.99 346.623 119.06C342.093 121.43 338.103 123.84 334.763 126.23C334.033 124.14 333.613 122.06 333.523 120.03C333.413 117.89 333.583 115.72 334.023 113.58V113.59ZM357.883 150.67C357.513 148.07 357.173 145.41 356.843 142.68C356.703 141.38 356.543 140.12 356.373 138.93C356.633 138.76 356.903 138.57 357.183 138.38C360.943 136.07 363.733 134.57 365.473 133.93C366.733 133.43 367.723 133.17 368.443 133.16C368.563 134.02 368.603 135.74 368.253 139.17C367.893 142.71 367.523 145.17 367.153 146.49C366.823 147.59 366.403 148.38 365.913 148.81C365.453 149.25 364.723 149.57 363.713 149.78L361.423 150.13L359.103 150.48L357.893 150.66L357.883 150.67Z" fill="white"/>
<path d="M380.123 118.16C380.333 122.99 380.613 127 380.943 130.04C381.313 132.93 382.733 135.23 385.173 136.89L385.323 137L385.503 137.04C386.113 137.18 386.663 137.25 387.153 137.25C387.643 137.25 388.093 137.18 388.473 137.03C389.323 136.72 389.953 136.19 390.323 135.46C390.673 134.77 390.763 133.9 390.603 132.85L390.583 132.72L390.533 132.6C389.373 129.95 388.703 125.23 388.523 118.57C388.463 113.89 388.523 109.71 388.693 106.17C388.763 104.46 388.843 102.86 388.953 101.41V101.34V101.27C388.753 97.91 386.813 96.04 383.503 95.98C383.383 95.97 383.263 95.96 383.143 95.96C382.323 95.96 381.173 96.28 380.303 97.82C379.693 98.93 379.413 99.94 379.463 100.85L379.813 111.54C379.913 113.87 380.013 116.09 380.123 118.13V118.16Z" fill="white"/>
<path d="M407.123 162.62H407.293C407.543 162.62 407.783 162.63 408.013 162.63C410.523 162.63 412.103 162.32 413.013 161.66C414.113 160.91 414.563 159.24 414.443 156.4C414.143 151.44 413.763 146.3 413.303 141.12C412.843 135.94 412.333 130.43 411.793 124.75C411.313 119.06 410.773 113.51 410.173 108.28C409.573 103.05 408.863 97.1401 408.083 90.7101L408.033 90.3901C407.883 89.4001 407.423 88.3601 406.663 87.2801C405.843 86.0001 404.633 85.3101 403.193 85.3101C403.133 85.3101 403.063 85.3101 403.003 85.3101C401.653 85.3601 400.603 85.6101 399.793 86.0501C399.193 86.4001 398.303 87.2601 398.723 89.2001V89.2601L398.753 89.3201C399.323 90.9501 399.833 93.0101 400.263 95.4501L400.923 99.7701C401.533 104.19 402.153 109.36 402.773 115.15C403.453 120.86 404.033 126.87 404.513 133.03C404.993 139.18 405.293 144.2 405.413 147.96C405.513 151.25 405.393 152.94 405.253 153.8C402.513 153.45 400.793 153.2 400.133 153.07L396.583 152.24L395.663 152.03L395.393 152.93C394.953 154.41 395.173 155.76 396.023 156.83C396.863 157.85 398.303 158.83 400.453 159.85C402.533 160.8 404.723 161.71 406.963 162.56L407.123 162.62Z" fill="white"/>
<path d="M443.603 133.74C444.513 133.74 445.413 133.45 446.263 132.89C447.173 132.29 448.743 131.21 450.933 129.7C453.093 128.14 456.783 126 461.893 123.33C467.013 120.67 472.893 118.22 479.393 116.06C485.243 114.06 489.483 112.82 492.053 112.36C492.283 113.12 492.583 114.42 492.923 116.65C493.303 119.16 493.513 122.47 493.543 126.49C493.633 130.51 493.353 135.15 492.713 140.32C491.873 147.24 490.843 147.94 490.733 148C489.953 148.3 488.773 148.45 487.183 148.45C486.683 148.45 486.123 148.43 485.543 148.41L483.993 148.33L484.563 149.77C485.133 151.22 485.783 152.41 486.493 153.31C487.353 154.34 488.413 155.01 489.673 155.3C490.633 155.75 491.583 155.98 492.503 155.98C494.073 155.98 495.543 155.32 496.863 154.03L496.913 153.98L496.963 153.92C499.313 150.8 500.603 147.31 500.793 143.56C501.283 138.99 501.473 134.94 501.343 131.51C501.213 128.09 501.113 124.39 501.043 120.51C501.043 116.63 501.003 113.07 500.913 109.95C500.843 108.96 500.463 107.93 499.763 106.83L499.723 106.77L499.673 106.72C498.173 104.95 496.363 104.06 494.313 104.06C493.733 104.06 493.133 104.13 492.533 104.28C486.733 105.69 480.573 107.6 474.213 109.96C467.853 112.25 461.913 114.72 456.573 117.32C451.303 119.83 447.363 121.84 444.873 123.28C443.253 124.23 441.953 124.96 440.993 125.45C440.993 125.36 440.993 125.27 440.993 125.18V125.02L440.943 124.87C440.063 122.09 438.093 120.61 435.253 120.56C434.993 120.53 434.743 120.51 434.513 120.51C433.433 120.51 432.623 120.84 432.103 121.48C431.533 122.18 431.383 123.18 431.653 124.47C431.803 125.91 432.033 127.35 432.313 128.76C432.443 129.63 432.623 130.56 432.823 131.47C433.723 136.12 434.653 140.68 435.573 144.97C436.763 150.13 438.493 154.22 440.713 157.15L440.783 157.24L440.863 157.31C442.503 158.72 444.183 159.43 445.853 159.43C446.353 159.43 446.863 159.36 447.363 159.23L447.983 159.07L448.093 158.43C448.453 156.33 448.133 154.59 447.133 153.24C446.353 152.23 445.673 151.08 445.113 149.8C444.623 148.58 443.983 146.31 443.233 143.06L442.703 140.54L441.813 136.32C441.683 135.48 441.623 134.53 441.633 133.47C441.963 133.55 442.333 133.62 442.733 133.7C443.023 133.76 443.303 133.78 443.593 133.78L443.603 133.74Z" fill="white"/>
<path d="M474.783 85.74H474.643C472.803 85.74 471.103 86.08 469.563 86.74C464.703 88.57 458.333 91.05 450.663 94.09C449.343 93.81 448.213 93.61 447.323 93.5C447.183 93.48 447.053 93.47 446.913 93.47C445.773 93.47 444.643 94.06 443.533 95.24L443.103 95.7L443.333 96.29C444.313 98.83 445.343 101.47 446.413 104.13C447.483 106.82 448.653 109.17 449.883 111.13C450.543 112.49 451.463 113.58 452.613 114.36L452.653 114.38L452.693 114.4C453.433 114.82 454.183 115.09 454.893 115.21H454.933L454.973 115.22C455.213 115.24 455.453 115.25 455.683 115.25C456.053 115.25 456.423 115.22 456.783 115.17H456.833L456.883 115.15C458.183 114.81 459.313 114.28 460.223 113.56C463.183 111.89 466.303 110.41 469.513 109.15C470.833 108.6 472.123 107.88 473.363 107C474.793 106.03 475.773 104.58 476.243 102.72C476.823 100.93 477.423 98.98 478.023 96.92C478.533 95.05 479.033 93.03 479.503 90.9V90.84L479.523 90.77C479.673 89.06 478.993 86.8 474.913 85.76L474.793 85.73L474.783 85.74ZM469.723 95.43C469.543 97.23 469.283 98.94 468.963 100.54C464.743 102.73 460.423 104.82 456.103 106.75C455.693 106.16 455.353 105.61 455.103 105.11C454.903 104.71 454.643 103.84 454.453 102.07C458.043 99.9 460.673 98.43 462.283 97.7C463.753 97.03 466.253 96.26 469.723 95.43Z" fill="white"/>
<path d="M464.123 152.78L464.333 152.76L464.523 152.65C465.763 151.95 467.713 151 470.323 149.82L473.393 148.54L477.733 146.73C480.213 145.69 481.723 144.59 482.343 143.36C483.053 142.11 482.853 140.5 481.743 138.61C481.893 134.68 482.073 132.14 482.273 131.07C482.533 129.73 482.463 128.58 482.073 127.65L482.043 127.57L481.993 127.5C480.633 125.37 478.753 124.29 476.403 124.29C476.003 124.29 475.583 124.32 475.153 124.39H475.103L475.053 124.41C472.373 125.09 469.933 126.09 467.813 127.36C465.913 128.5 463.723 129.65 461.283 130.76L458.833 129.61L458.703 129.55L458.563 129.53C458.043 129.45 457.563 129.4 457.133 129.4C455.173 129.4 454.383 130.29 454.073 131.04V131.07L454.053 131.1C453.683 132.14 453.563 133.4 453.713 134.84V134.94L453.753 135.04C454.643 137.91 455.733 141.11 456.973 144.57C457.103 145.41 457.293 146.43 457.533 147.6C457.833 149.04 458.643 150.3 459.953 151.33C461.213 152.31 462.463 152.81 463.693 152.81C463.833 152.81 463.973 152.81 464.113 152.79L464.123 152.78ZM473.363 140.13C470.163 141.57 467.013 142.78 463.993 143.74C463.243 142.13 462.873 140.38 462.913 138.53C465.113 137.12 467.163 135.89 469.023 134.88C470.603 133.96 472.243 133.16 473.923 132.48C474.093 135.27 473.913 137.84 473.373 140.13H473.363Z" fill="white"/>
<path d="M432.493 90.8901L432.523 90.9801C433.033 92.4701 433.903 93.9501 435.103 95.3801L435.253 95.5601L435.473 95.6501C436.163 95.9501 436.873 96.1001 437.553 96.1001C438.643 96.1001 439.713 95.7301 440.713 94.9901L440.763 94.9601L440.803 94.9201C441.993 93.8101 443.793 92.6501 446.143 91.4701C448.553 90.1901 453.953 87.9801 462.223 84.9001C470.153 81.9401 476.363 80.4401 480.693 80.4401C480.833 80.4401 480.973 80.4401 481.113 80.4401H481.223L481.333 80.4201C483.083 80.0701 484.423 79.1501 485.303 77.6701L485.373 77.5601L485.413 77.4401C485.763 76.2401 485.623 75.2001 485.023 74.3501C484.523 73.6401 483.913 73.0801 483.213 72.7101C482.193 72.1001 481.153 71.7901 480.123 71.7901C479.603 71.7901 479.083 71.8701 478.573 72.0301C475.083 72.9501 471.793 73.8501 468.823 74.7001C466.413 75.3401 464.313 76.0501 462.553 76.8201C462.363 76.1601 462.133 75.5601 461.873 75.0201C461.713 74.5901 461.423 73.3301 461.183 69.6401C460.993 66.9301 459.613 65.0001 457.183 64.0601C456.453 63.7401 455.763 63.5801 455.133 63.5801C454.953 63.5801 454.783 63.5901 454.613 63.6201C453.483 63.7901 452.203 64.6501 452.453 67.7601V67.8001L452.463 67.8401C453.033 71.1101 453.483 73.6301 453.833 75.5501C454.113 77.0501 454.353 78.3901 454.543 79.5501L435.563 87.3001C435.053 87.5101 434.463 87.7701 433.773 88.0701C432.733 88.5601 432.263 89.5601 432.463 90.8301V90.9201L432.493 90.8901Z" fill="white"/>
<path d="M535.133 138.02L535.163 138.12C535.933 140.6 537.753 141.92 540.403 141.92H540.523C541.823 141.81 542.763 141.12 543.233 139.92C543.643 139 543.713 137.83 543.443 136.49C542.423 129.78 541.573 123.81 540.933 118.75C540.523 115.19 540.163 111.96 539.863 109.15C539.813 108.58 539.753 108.03 539.703 107.49C540.233 107.69 540.773 107.86 541.313 108.02C542.223 108.28 543.143 108.52 544.053 108.72C546.153 109.08 547.983 109.31 549.543 109.41H549.773C551.003 109.41 552.163 109.15 553.243 108.64C553.523 109.37 553.773 109.93 553.983 110.34L554.013 110.4L554.053 110.46C554.593 111.22 555.623 111.61 557.313 111.69H557.363H557.413C558.393 111.63 559.243 111.21 559.863 110.48C560.453 109.77 560.833 108.95 561.013 108.03C563.233 103.48 565.343 99.2099 567.293 95.3399C569.263 91.4199 570.973 87.7899 572.393 84.5399L572.463 84.3699V84.1899L572.513 83.1999V83.1299V83.0599C572.403 81.8299 571.843 80.5199 570.813 79.0499L570.693 78.8799L570.523 78.7699C569.773 78.2999 569.103 78.0799 568.473 78.0799C567.913 78.0799 567.383 78.2699 566.953 78.6199C566.253 79.1999 565.723 79.9599 565.383 80.8599C563.363 84.7699 561.593 88.1799 560.073 91.0999C556.073 98.8599 554.573 101.87 553.993 103.09C551.323 102.67 549.043 102.24 547.193 101.81C546.163 101.53 545.223 101.26 544.413 101C542.443 100.2 540.813 99.4999 539.543 98.9099C539.253 97.5999 538.993 95.8199 538.773 93.6199C538.583 91.1699 538.393 87.4899 538.213 82.6699C541.943 80.8999 544.953 79.5799 547.163 78.7499L547.203 78.7299L547.243 78.7099C547.973 78.3599 548.753 78.0899 549.563 77.8999L550.573 77.6699L550.303 76.6699C549.973 75.4399 549.433 74.2599 548.703 73.1699C547.763 71.5599 546.433 71.2199 545.483 71.2199C545.343 71.2199 545.213 71.2199 545.063 71.2399C543.843 71.3499 542.733 71.7099 541.773 72.2899C540.123 73.0099 538.553 73.6899 537.053 74.3399C536.513 71.4499 536.073 68.9199 535.753 66.7999C535.623 65.0299 534.813 63.5399 533.323 62.3799L533.273 62.3399L533.213 62.3099C532.193 61.7099 531.173 61.3999 530.203 61.3999C529.873 61.3999 529.543 61.4399 529.223 61.4999H529.193L529.163 61.5199C527.823 61.9099 527.023 62.8399 526.933 64.1199V64.1499V64.1799C526.923 65.0999 527.113 65.9299 527.513 66.6599C528.023 68.7999 528.443 70.9199 528.753 72.9599C529.093 74.7899 529.283 76.4999 529.333 78.0999C527.173 79.0599 524.613 80.2599 521.703 81.6599C518.563 83.1299 515.283 84.8699 511.943 86.8299C510.323 87.8099 509.523 88.8499 509.473 90.0199C509.423 91.1099 510.063 92.1499 511.383 93.1199C512.653 94.0099 513.903 94.4599 515.123 94.4599C516.003 94.4599 516.863 94.2299 517.683 93.7699L517.733 93.7399L517.783 93.6999C519.693 92.3199 521.903 90.9699 524.343 89.6899C526.353 88.6399 528.403 87.6199 530.443 86.6499C530.493 87.5199 530.593 88.5799 530.743 89.8499C530.293 91.0099 529.673 91.9899 528.913 92.7599L528.763 92.9099L528.693 93.1099C526.943 97.8699 524.663 103.28 521.903 109.19C519.183 115.15 516.793 120.43 514.803 124.91L514.663 125.22L514.743 125.55C514.983 126.54 515.423 127.29 516.063 127.76L516.113 127.8L516.163 127.83L517.133 128.37L517.253 128.44L517.393 128.47C518.413 128.71 519.333 128.93 520.153 129.13L520.623 129.25L521.003 128.95C522.153 128.06 523.043 127.11 523.623 126.14L523.653 126.08L523.683 126.02C524.513 124.12 525.263 122.31 525.923 120.63C527.383 117.41 528.683 114.71 529.793 112.6C530.683 110.84 531.473 109.38 532.153 108.21C532.353 109.88 532.553 111.64 532.743 113.48C532.913 115.48 533.113 117.66 533.343 120C533.863 125.51 534.443 131.54 535.093 137.92V138.02H535.133Z" fill="white"/>
<path d="M582.473 79.7501H582.433C580.743 80.2701 579.793 81.0401 579.513 82.1001C579.233 83.1801 579.713 84.3301 580.963 85.6201L580.983 85.6401L581.003 85.6601C581.783 86.3701 582.703 86.9101 583.723 87.2701L583.953 87.3501L584.193 87.3201C589.663 86.6201 595.373 85.9101 601.153 85.2301L601.363 85.2101L601.543 85.1001C602.163 84.7301 602.673 84.4101 603.053 84.1401L603.073 84.1201L603.093 84.1001C603.633 83.6701 604.063 83.0901 604.373 82.3801L604.443 82.2101V82.0201C604.493 80.7401 604.113 79.5201 603.313 78.3901L603.223 78.2701L603.103 78.1801C601.783 77.1601 600.413 76.6401 599.033 76.6401C598.543 76.6401 598.043 76.7101 597.563 76.8401C592.453 77.6901 587.383 78.6601 582.493 79.7301H582.453L582.473 79.7501Z" fill="white"/>
<path d="M609.793 130L610.023 129.71V129.34C609.953 126.48 608.573 124.41 606.003 123.35C601.993 121.12 598.583 118.93 595.883 116.84C593.153 114.72 590.773 112.71 588.813 110.88C586.973 109.11 586.063 108.1 585.613 107.53C587.413 103.71 589.363 99.9202 591.413 96.2502C592.733 94.1602 592.693 92.0702 591.293 90.2102C590.393 88.9002 589.243 88.2202 587.883 88.2202C587.073 88.2202 586.213 88.4702 585.313 88.9802L585.003 89.1602L584.873 89.4902C583.233 93.7002 581.243 97.9802 578.953 102.23C577.953 101.34 576.853 100.26 575.693 99.0202L575.573 98.8902L575.413 98.8102C574.683 98.4502 573.873 98.2702 572.993 98.2702C572.813 98.2702 572.633 98.2702 572.453 98.2902C571.303 98.3802 570.353 98.9402 569.703 99.9302L569.663 100L569.633 100.07C569.063 101.34 569.043 102.52 569.563 103.59C570.003 104.5 570.583 105.29 571.283 105.93C572.123 106.65 573.493 108.09 575.383 110.22C572.003 118.31 568.013 126.3 563.513 134L563.313 134.34L563.403 134.73C563.733 136.15 564.563 136.8 565.203 137.1C565.903 137.39 566.533 137.52 567.133 137.52C567.323 137.52 567.513 137.51 567.703 137.48C568.533 137.35 569.373 136.91 570.213 136.15C570.983 135.52 571.753 134.65 572.493 133.56L572.513 133.53L572.533 133.5C575.333 128.61 577.633 124.46 579.363 121.17C580.723 118.67 581.773 116.7 582.483 115.31C583.363 116.08 584.563 117.18 586.053 118.59C588.303 120.59 590.713 122.54 593.243 124.4C595.823 126.29 598.983 128.56 602.653 131.15C603.363 131.73 604.143 132.13 604.963 132.32C605.253 132.38 605.513 132.4 605.763 132.4C606.473 132.4 607.133 132.19 607.733 131.79C608.493 131.37 609.193 130.77 609.813 130.01L609.793 130Z" fill="white"/>
<path d="M549.073 80.5198L549.003 80.7998L549.093 81.0798C549.653 82.8398 550.663 84.2898 552.093 85.4098L552.163 85.4698L552.243 85.5098C553.013 85.9098 553.763 86.1098 554.473 86.1098C555.593 86.1098 556.583 85.6298 557.413 84.6798C559.613 82.3498 563.013 80.0598 567.483 77.8998C572.043 75.6298 576.623 73.5498 581.103 71.6898C584.913 70.1498 588.203 69.1498 590.883 68.7498C591.413 68.6698 591.893 68.6298 592.303 68.6198H592.373L592.443 68.6098C593.803 68.3998 594.933 67.6998 595.803 66.5198L595.933 66.3498L595.973 66.1398C596.113 65.4798 596.133 64.8298 596.033 64.1998C595.923 63.4798 595.653 62.7898 595.233 62.1298L595.183 62.0498L595.113 61.9798C593.853 60.6698 592.443 59.9998 590.923 59.9998C590.333 59.9998 589.723 60.0998 589.113 60.3098L584.783 61.9698C580.623 63.6598 577.513 64.8698 575.493 65.5998C575.473 62.9898 575.523 59.8498 575.643 56.2398C575.593 53.4098 574.403 51.3298 572.093 50.0098C571.453 49.5498 570.763 49.3198 570.043 49.3198C569.873 49.3198 569.703 49.3298 569.543 49.3598C569.153 49.4198 568.783 49.5698 568.433 49.7998C567.173 50.4698 566.613 51.6598 566.833 53.1498C567.383 57.1898 567.663 60.2598 567.643 62.2498C567.673 64.0998 567.673 66.2398 567.623 68.6498C566.343 69.5198 564.923 70.3398 563.373 71.0898C559.393 73.2198 555.343 75.4698 551.293 77.7998C550.163 78.3798 549.403 79.3198 549.073 80.5598V80.5198Z" fill="white"/>
<path d="M691.663 80.0102L691.593 79.9502L691.513 79.9102C689.353 78.7602 687.263 77.4302 685.303 75.9302C683.383 74.3502 681.173 72.4402 678.763 70.2702C676.403 68.0302 673.723 65.4902 670.743 62.6702C669.833 61.5702 668.703 60.7502 667.373 60.2202C666.543 59.8902 665.693 59.7202 664.843 59.7202C664.283 59.7202 663.713 59.7902 663.153 59.9402L662.873 60.0102L662.673 60.2302C661.553 61.4502 661.303 62.8802 661.973 64.3602C662.533 65.5502 663.353 66.5302 664.423 67.2602C669.233 71.8202 673.513 75.7102 677.133 78.8302C680.773 81.9602 683.973 84.2402 686.653 85.5802C687.483 86.2302 688.403 86.5702 689.383 86.5802H689.433C690.453 86.5802 691.383 86.2202 692.193 85.5102C693.403 84.5302 693.533 83.4302 693.413 82.6902C693.263 81.7302 692.673 80.8302 691.653 80.0002L691.663 80.0102Z" fill="white"/>
<path d="M615.033 91.2901C616.103 91.9501 617.263 92.3401 618.483 92.4501C618.603 92.4601 618.713 92.4701 618.833 92.4701C620.103 92.4701 621.323 91.8301 622.443 90.5601C623.853 89.0901 625.363 87.7201 626.903 86.5301C627.553 86.0301 628.163 85.5801 628.723 85.1901C628.013 87.9201 627.413 90.2901 626.943 92.2701C626.353 94.6501 625.563 97.7401 624.543 101.71C623.583 105.54 623.053 108.08 622.923 109.49C622.763 110.65 623.113 111.73 623.933 112.64L623.953 112.66L623.973 112.68C624.833 113.52 625.753 114 626.713 114.11C627.133 114.15 627.513 114.17 627.863 114.17C628.293 114.17 628.693 114.14 629.053 114.09H629.103L629.153 114.07C630.103 113.82 630.823 112.81 631.513 110.8L631.533 110.75V110.7C631.893 109.16 632.673 106.06 633.883 101.49C635.153 96.8901 636.233 92.5901 637.083 88.7101C637.893 85.0501 638.693 81.8601 639.473 79.2201C641.823 78.0001 643.733 77.2401 645.153 76.9701C646.243 76.7101 647.313 76.5901 648.373 76.5901C648.803 76.5901 649.233 76.6101 649.653 76.6501C650.283 76.6801 651.253 76.7901 651.263 77.2701V77.3001V77.3301C651.343 78.2301 651.243 79.9101 650.973 82.3201C650.693 84.6301 649.833 87.6801 648.403 91.3601C647.033 94.8901 644.683 98.3801 641.413 101.75C640.233 101.75 639.203 101.65 638.363 101.45L637.333 101.21L637.153 102.25C636.943 103.47 637.223 104.87 637.983 106.41C638.743 107.9 639.953 109.03 641.573 109.76C642.133 110.01 642.723 110.14 643.333 110.14C644.613 110.14 645.943 109.55 647.293 108.4C649.993 105.86 652.393 102.52 654.463 98.4401C656.513 94.3901 657.943 90.6101 658.693 87.2001C659.453 83.7801 659.733 80.9001 659.533 78.6701C659.303 76.2301 658.163 73.9801 656.143 72.0001C654.193 70.0301 651.733 69.0201 648.843 69.0201C648.693 69.0201 648.543 69.0201 648.383 69.0201C646.103 69.1001 643.833 69.5001 641.593 70.1901C642.013 68.7101 642.393 67.3301 642.703 66.0701C642.963 65.2701 643.043 64.5301 642.953 63.8901C642.903 63.0901 642.413 62.2901 641.453 61.4401C640.603 60.6201 639.803 60.0801 639.043 59.7901L639.003 59.7701H638.963C638.473 59.6201 637.983 59.5601 637.503 59.5601C637.253 59.5601 636.993 59.5801 636.753 59.6201H636.653L636.603 59.6401H636.553C635.693 59.8701 635.023 60.3101 634.553 60.9401L634.523 60.9801L634.503 61.0201C634.173 61.5601 633.933 62.2801 633.773 63.2101C633.053 66.2601 632.233 69.8901 631.343 74.0001C627.503 76.0401 624.313 77.8801 621.873 79.4701C619.383 81.0501 616.893 82.9501 614.493 85.1201L614.463 85.1501L614.433 85.1801C613.533 86.1601 612.383 87.6201 612.873 88.9701C613.183 89.8201 613.893 90.5801 615.043 91.2901H615.033Z" fill="white"/>
<path d="M716.263 38.07V38.1C716.693 39.02 717.143 39.8 717.593 40.44L717.633 40.5L717.683 40.55C718.083 40.97 719.033 41.76 722.733 43.85C725.363 45.29 727.853 47.29 730.143 49.8L730.183 49.84L730.233 49.88C731.143 50.66 732.223 51.06 733.433 51.06C733.723 51.06 734.033 51.04 734.333 50.99L734.683 50.94L734.923 50.68C735.913 49.61 736.503 48.39 736.683 47.04L736.703 46.93V46.82C736.573 45.49 735.913 44.2 734.733 43.01C733.683 41.88 731.713 40.23 728.733 37.98C725.763 35.74 722.873 34.09 720.143 33.09L719.903 33L719.653 33.04L719.173 33.11C718.173 33.26 717.303 33.74 716.583 34.52L716.493 34.62L716.433 34.74C715.893 35.79 715.833 36.9 716.273 38.04V38.07H716.263Z" fill="white"/>
<path d="M706.193 84.97V85.04C706.553 86.81 707.333 88.3 708.533 89.46C709.573 90.76 710.733 91.42 711.983 91.42C713.233 91.42 714.413 90.78 715.623 89.52C720.123 85.23 724.143 82.17 727.583 80.43C731.063 78.67 733.653 77.52 735.293 77.02C735.983 76.81 736.613 76.7 737.143 76.7C737.633 76.7 738.033 76.79 738.363 76.96C739.203 78.31 739.343 80.18 738.803 82.51C738.233 85.09 737.493 87.37 736.583 89.28C735.723 91.2 733.653 94.31 730.423 98.56C729.563 99.6 728.793 101.38 730.193 103.75L730.213 103.78L730.233 103.81C731.403 105.5 732.683 106.36 734.043 106.36C735.403 106.36 736.663 105.54 737.883 103.91L737.903 103.89L737.923 103.87C741.063 99.2 743.243 95.28 744.383 92.22C745.573 89.11 746.563 85.45 747.343 81.34C747.853 77.97 747.003 75.08 744.823 72.72C742.783 70.42 740.163 69.25 737.073 69.25H736.873C734.593 69.32 732.363 69.77 730.213 70.58C728.133 71.3 725.623 72.46 722.793 74.02C720.403 75.28 717.583 76.9 714.393 78.82C714.533 76.51 714.743 74.22 715.013 71.98C715.353 69.19 715.963 66.18 716.813 63.05C717.233 62.21 717.523 61.31 717.663 60.37C717.913 59.14 717.333 57.82 715.923 56.44C714.693 55.15 713.443 54.42 712.213 54.27C712.053 54.24 711.893 54.23 711.733 54.23C710.853 54.23 709.623 54.64 708.763 56.61L708.733 56.69L708.713 56.77C707.853 60.29 707.173 64.86 706.693 70.36C706.203 75.79 706.043 80.67 706.223 84.89V84.96L706.193 84.97Z" fill="white"/>
<path d="M79.8329 293.04L79.8029 292.98C77.2929 288.31 74.7929 285.37 72.1529 283.99C70.1529 282.91 68.2729 282.2 66.5329 281.87C66.7129 281.25 66.9029 280.54 67.1029 279.75C67.5229 278.34 67.6329 277.07 67.4029 276.02C67.2329 274.95 66.7729 274 66.0329 273.17C65.2829 272.2 64.1929 271.66 62.8729 271.61C62.7029 271.6 62.5429 271.59 62.3829 271.59C61.2529 271.59 60.2629 271.95 59.4229 272.66L59.1529 272.89L59.0829 273.24C58.8229 274.6 58.5929 275.94 58.3929 277.23C58.2729 278.35 57.9529 279.7 57.4429 281.28C53.8029 282.29 51.0529 283.23 49.2429 284.08C47.9229 284.66 46.6329 285.29 45.3929 285.96C45.3429 283.67 45.3929 281.47 45.5529 279.41C45.7829 276.95 46.2029 274.33 46.8129 271.62C51.1029 269.56 54.1129 268.3 55.7629 267.87C57.5529 267.33 59.1629 266.85 60.6029 266.44C62.0929 265.99 63.1229 265.49 63.7629 264.91C64.3329 264.39 64.8929 263.38 64.2829 261.57C63.9029 260.19 63.2329 259.24 62.2929 258.75C61.6829 258.37 61.0229 258.17 60.3329 258.17C60.0529 258.17 59.7629 258.2 59.4729 258.27C58.7129 258.39 57.7129 258.64 56.4229 259.04C55.0829 259.44 53.4429 260.03 51.5729 260.78C50.1029 261.37 48.6629 261.95 47.2629 262.53C47.0029 261.64 46.6029 260.82 46.0729 260.07C45.2329 258.89 44.1929 258.21 42.9629 258.05L42.8229 258.03L42.6829 258.05L42.3929 258.09L42.1029 258.13C41.0429 258.29 40.1529 258.9 39.4529 259.95L39.3129 260.16L39.2829 260.41C39.1129 262.04 38.9229 263.72 38.7129 265.42C35.7429 267.08 33.3929 268.3 31.7329 269.04C29.9529 269.77 27.5729 270.87 24.6829 272.3L24.3029 272.49L24.1729 272.89C23.8129 274.01 24.0129 275.2 24.7929 276.42V276.44L24.8229 276.46C25.5429 277.48 26.2829 278.31 27.0329 278.92L27.0529 278.94L27.0729 278.96C27.5329 279.29 28.0729 279.46 28.6729 279.46C29.5029 279.46 30.4429 279.14 31.5429 278.5C32.6629 277.88 33.6929 277.33 34.5929 276.87C35.2929 276.53 36.3329 276.04 37.6929 275.41C37.4729 278.25 37.4029 281.05 37.4829 283.74C37.5629 286.72 37.6329 289.4 37.6829 291.8C35.4529 294.26 33.3629 296.88 31.4829 299.6C29.5629 302.46 28.0129 305.49 26.8729 308.62C25.7329 311.75 25.0429 314.6 24.8129 317.08V317.12V317.16C24.8129 318.55 25.0829 319.91 25.6529 321.2V321.23L25.6829 321.26C26.2929 322.44 27.1429 323.6 28.2229 324.7C29.3229 325.88 30.6429 326.78 32.1029 327.36C32.7629 327.6 33.4829 327.72 34.2829 327.72C35.5129 327.72 36.9829 327.44 38.6329 326.88C41.2929 325.99 43.3229 324.77 44.6729 323.28C45.7929 322.16 46.9029 320.91 47.9729 319.57C48.6429 319.9 49.2329 320.06 49.7829 320.06C50.0829 320.06 50.3729 320.01 50.6329 319.92H50.6629L50.6929 319.89C51.4429 319.56 52.1229 319.16 52.7129 318.7L52.7429 318.68L52.7729 318.65C53.5729 317.92 53.8229 316.82 53.5129 315.36L53.4929 315.28L53.4629 315.21L52.6629 313.14C54.4229 310.16 55.8729 307.67 56.9629 305.74C58.1729 303.7 59.4329 301.07 60.6929 297.95C61.8429 295.01 62.9929 292.09 64.1329 289.25C65.6529 289.36 67.1129 289.74 68.4729 290.37C69.9929 291.08 71.2329 292.17 72.1629 293.62L72.1829 293.65L72.2029 293.67C73.2529 295.11 73.8629 297.18 74.0229 299.85C74.1829 302.52 73.7029 305.7 72.5929 309.3C71.5529 312.78 69.5629 315.94 66.6529 318.71L66.4929 318.86L66.4129 319.07C65.5529 321.29 65.6929 323 66.8529 324.16C67.9429 325.23 68.9329 325.84 69.8829 326.03C70.1229 326.07 70.3429 326.09 70.5529 326.09C71.4029 326.09 72.1829 325.79 72.8729 325.21C73.6629 324.64 74.5029 323.79 75.4329 322.6L75.4729 322.55L75.5029 322.5C76.8929 320.21 78.5929 316.51 80.5429 311.51C82.6229 306.26 82.3829 300.07 79.8329 293.13L79.8129 293.06L79.8329 293.04ZM54.9629 289.58C53.9429 292.2 52.7429 295.01 51.3929 297.98C50.1529 300.7 48.9729 303.03 47.8629 304.92C47.3529 303.43 46.9629 302.13 46.7029 301.04C46.4229 299.57 46.2329 297.58 46.1429 295.17C48.5129 293.03 50.4429 291.57 51.8729 290.81C52.8629 290.3 53.9029 289.89 54.9629 289.57V289.58ZM32.5929 319.27C32.4929 317.84 32.9229 315.68 33.8729 312.83C34.8429 309.84 35.8829 307.27 36.9729 305.19C37.7029 303.87 38.4529 302.66 39.2229 301.58C39.8029 304.52 40.2929 306.61 40.7129 307.93C41.1729 309.34 41.9329 311.17 42.9529 313.37C40.8729 315.55 39.0629 317.25 37.5729 318.43C35.7329 319.81 34.6429 320.17 34.0629 320.22C33.8729 320.24 33.6929 320.25 33.5229 320.25C33.0129 320.25 32.7929 320.17 32.7229 320.13C32.6229 319.98 32.5829 319.72 32.5929 319.39V319.33V319.27Z" fill="white"/>
<path d="M124.813 261.93C125.043 261.07 124.873 260.13 124.313 259.13C123.793 258.03 122.913 257.3 121.763 257.04C121.173 256.85 120.603 256.76 120.053 256.76C119.683 256.76 119.313 256.8 118.963 256.89C118.273 257.07 117.383 257.38 116.293 257.81C115.773 257.99 115.103 258.2 114.293 258.43C114.573 257.73 114.813 256.97 115.013 256.15C115.433 254.82 115.403 253.63 114.923 252.61C114.493 251.57 113.593 250.74 112.233 250.15C111.043 249.59 110.183 249.33 109.563 249.33H109.543H109.473H109.403C108.643 249.46 107.903 250.1 107.003 251.41L106.983 251.43V251.45C106.403 252.39 105.803 253.8 105.133 255.76C104.563 257.45 103.953 259.17 103.323 260.88C98.923 261.98 96.083 262.7 94.793 263.02C93.463 263.35 91.433 263.86 88.703 264.54L88.113 264.69L87.973 265.29C87.693 266.51 87.803 267.79 88.303 269.09C88.793 270.3 89.473 271.3 90.353 272.07C91.083 272.67 91.963 272.95 93.003 272.95C93.423 272.95 93.883 272.9 94.353 272.81H94.403L94.443 272.79C95.303 272.53 96.403 272.23 97.713 271.9C98.623 271.68 99.623 271.44 100.693 271.18C99.913 273.83 99.163 276.39 98.443 278.85C97.573 281.84 96.783 285.45 96.083 289.59C95.423 293.93 96.313 297.94 98.713 301.53C99.373 302.9 100.263 303.93 101.353 304.6C102.413 305.25 103.543 305.58 104.723 305.58H104.893H104.923H104.953C106.393 305.44 107.423 304.86 108.003 303.84C108.943 302.22 108.123 301.25 107.733 300.91C105.683 299.09 104.603 297.42 104.543 295.94C104.463 294.16 104.553 292.01 104.823 289.52C105.143 286.97 105.743 283.82 106.613 280.18C107.453 276.67 108.973 272.53 111.123 267.87L122.633 263.82C123.833 263.46 124.563 262.81 124.763 261.9L124.813 261.93Z" fill="white"/>
<path d="M134.743 261.6V261.62L134.773 261.64C135.793 263.15 137.053 263.98 138.493 264.09C143.613 264.74 148.123 265.19 151.853 265.41H152.013L152.173 265.38C152.803 265.21 153.643 264.74 154.053 263.45C154.353 262.39 154.113 261.18 153.333 259.71C152.543 258.22 151.233 257.28 149.433 256.92C146.343 256.26 141.833 255.74 136.023 255.37H135.973H135.923C134.263 255.43 133.283 256.34 133.303 257.82V257.85V257.88C133.383 258.89 133.843 260.1 134.733 261.58L134.743 261.6Z" fill="white"/>
<path d="M160.073 283.23L159.623 283.21C158.993 283.18 158.373 283.16 157.763 283.16C156.113 283.16 154.493 283.28 152.943 283.52C150.923 283.76 149.063 284.11 147.453 284.56C146.353 284.82 145.213 285.08 144.043 285.31C144.043 281.73 143.993 278.9 143.863 276.91C143.783 274.71 143.723 273 143.673 271.82V271.66L143.613 271.51C142.983 269.82 142.133 268.61 141.073 267.9C140.103 267.19 139.133 266.81 138.243 266.81C138.193 266.81 138.143 266.81 138.103 266.81C138.063 266.81 138.023 266.81 137.983 266.81C137.173 266.81 136.343 267.07 135.513 267.57L135.073 267.84L135.033 268.36C134.953 269.6 134.983 271.21 135.143 273.13C135.293 274.95 135.453 277.13 135.643 279.66C135.883 282.05 136.053 284.96 136.153 288.36C134.983 289.11 133.703 289.88 132.333 290.66C130.763 291.58 129.163 292.75 127.553 294.14C125.903 295.49 124.533 297.11 123.483 298.94L123.453 299L123.433 299.06C122.283 301.87 122.683 304.52 124.623 306.92C125.923 308.43 127.533 309.68 129.423 310.65C131.313 311.62 133.273 312.17 135.253 312.29C135.453 312.32 135.653 312.33 135.853 312.33C137.033 312.33 138.173 311.88 139.233 311.01C141.263 309.67 142.623 307.77 143.273 305.36C143.873 303.02 144.183 300.8 144.213 298.75C144.233 297.05 144.233 295.45 144.193 293.98C145.563 293.45 146.953 292.96 148.343 292.53C149.953 292.03 151.883 291.5 154.063 290.97C156.443 290.4 158.113 289.87 159.173 289.36C160.903 288.55 161.293 287.41 161.313 286.59C161.393 285.48 161.063 284.46 160.333 283.56L160.053 283.21L160.073 283.23ZM135.803 298.34C135.623 300.42 135.073 302.5 134.173 304.53C134.103 304.7 134.023 304.82 133.693 304.83C133.603 304.83 133.513 304.83 133.423 304.83C132.973 304.83 132.533 304.77 132.103 304.65C131.673 304.54 131.113 304.4 131.363 303.13C131.573 302.77 131.883 302.24 132.293 301.54C132.743 300.79 133.433 300.07 134.323 299.41C134.813 299.01 135.303 298.65 135.803 298.32V298.34Z" fill="white"/>
<path d="M201.503 241.26C200.743 240.19 199.993 239.46 199.213 239.03C198.873 238.84 198.483 238.74 198.053 238.74C197.233 238.74 196.253 239.09 195.063 239.82C193.493 240.72 191.703 241.67 189.733 242.64C188.953 240.85 187.703 239.43 186.013 238.4L185.953 238.36L185.893 238.33C185.333 238.09 184.793 237.96 184.283 237.96C184.123 237.96 183.973 237.97 183.823 237.99C182.973 238.12 181.823 238.7 181.163 240.73L181.123 240.84V240.96C181.053 241.78 180.853 243.84 180.523 247.09C179.033 247.78 177.673 248.25 176.493 248.49C175.063 248.78 173.603 249.1 172.153 249.45L172.053 249.47L171.963 249.51C169.483 250.66 169.313 252.08 169.613 253.06V253.09L169.633 253.12C170.023 254.15 170.553 254.95 171.213 255.51L171.243 255.53L171.273 255.55C171.973 256.06 173.043 256.52 174.553 256.94L174.623 256.96H174.703C175.043 257.01 175.393 257.03 175.753 257.03C176.413 257.03 177.113 256.96 177.853 256.83C177.713 257.98 177.493 259.6 177.193 261.65C176.733 264.68 176.343 268.93 176.033 274.26C175.773 279.55 175.983 284.63 176.643 289.38C177.293 294.09 178.513 298.49 180.253 302.44L180.273 302.49L180.303 302.54C181.073 303.88 182.083 304.68 183.313 304.93C183.873 305.07 184.413 305.15 184.903 305.15C185.393 305.15 185.863 305.08 186.283 304.94C187.173 304.72 187.913 304.37 188.483 303.88C189.673 302.93 189.163 301.01 188.573 299.43L188.533 299.31L188.463 299.21C186.523 296.42 185.193 293.11 184.493 289.36C183.843 285.49 183.653 280.6 183.943 274.86C184.283 269.03 184.763 264.66 185.373 261.86C185.953 259.18 186.623 256.44 187.383 253.73C189.743 252.59 191.673 251.68 193.123 251.02C194.753 250.23 196.983 249.06 199.773 247.51L199.803 247.49L199.833 247.47C201.733 246.21 202.583 245.26 202.673 244.3C202.793 243.36 202.403 242.34 201.523 241.26H201.503Z" fill="white"/>
<path d="M210.283 267.19L210.403 267.15L210.513 267.08C214.183 264.63 218.223 263.01 222.533 262.28C224.353 262.23 225.533 261.22 225.873 259.41C226.063 258.29 225.863 256.64 223.803 255.04C222.763 254.19 221.573 253.75 220.293 253.75C219.623 253.75 218.923 253.87 218.203 254.12C213.493 255.97 208.833 258.05 204.293 260.33L204.173 260.39L204.073 260.48C202.983 261.47 202.453 262.66 202.483 264.01V264.14L202.523 264.27C203.023 265.91 204.113 267.01 205.673 267.44C206.303 267.6 206.933 267.68 207.553 267.68C208.443 267.68 209.363 267.52 210.273 267.21L210.283 267.19Z" fill="white"/>
<path d="M228.633 285.42L228.573 285.37L228.503 285.33C227.543 284.8 225.913 284 223.533 282.89C221.213 281.75 218.153 280.36 214.463 278.77C213.433 278.09 212.213 277.57 210.843 277.22L210.713 277.19H210.573C209.233 277.23 208.223 277.63 207.573 278.39C206.923 279.14 206.673 280.19 206.833 281.51V281.56L206.853 281.61C207.343 283.78 208.593 285.31 210.593 286.17C214.213 287.58 217.103 288.85 219.213 289.95C221.403 291.05 223.123 291.97 224.333 292.69L224.523 292.8L224.743 292.82C225.493 292.9 226.153 292.94 226.703 292.94C227.673 292.94 228.353 292.82 228.843 292.58C229.643 292.17 230.253 291.3 230.703 289.91C231.043 288.85 230.973 287.2 228.663 285.42H228.633Z" fill="white"/>
<path d="M289.173 241.49C287.263 240.03 285.463 238.95 283.843 238.29C282.233 237.58 280.423 237.15 278.473 237.03C277.743 236.88 277.023 236.76 276.353 236.67C275.723 236.56 274.843 236.49 273.743 236.45H273.653L273.563 236.46L273.273 236.5L272.983 236.54C272.023 236.69 271.063 237.12 270.143 237.82C264.983 239.87 260.923 242.04 258.063 244.28C255.233 246.46 252.533 249.33 250.043 252.79C247.583 256.21 245.913 259.87 245.063 263.67C244.273 267.38 244.013 270.38 244.283 272.62C244.563 274.89 245.183 276.83 246.133 278.39V278.41L246.163 278.43C247.173 279.91 248.363 281.1 249.713 281.96L249.743 281.98L249.773 282C251.163 282.78 252.433 283.27 253.553 283.46C253.843 283.51 254.143 283.54 254.443 283.54C255.403 283.54 256.403 283.28 257.433 282.78C258.723 282.17 260.403 281.04 262.543 279.35C265.973 276.45 268.743 273.09 270.803 269.33C272.893 265.54 274.593 261.43 275.863 257.11C277.103 253.09 277.913 248.95 278.283 244.82C278.993 244.85 279.723 244.94 280.473 245.08H280.503L280.533 245.09C281.603 245.22 282.563 245.51 283.383 245.96C284.163 246.39 284.753 246.99 285.213 247.8L285.233 247.83L285.253 247.86C285.783 248.66 286.283 249.97 286.743 251.75C287.263 253.52 287.563 255.88 287.623 258.79C287.683 261.74 287.473 264.8 286.973 267.9C286.363 271.72 285.943 273.15 285.703 273.67C285.373 274.41 284.823 275.34 284.063 276.46C283.513 277.33 283.403 278.29 283.743 279.26C284.023 280.08 284.453 280.8 285.013 281.42C285.603 282.07 286.473 282.58 287.613 282.95C288.353 283.17 288.953 283.27 289.473 283.27C289.893 283.27 290.273 283.2 290.593 283.07C291.373 282.79 291.953 282.36 292.293 281.82C292.613 281.37 292.943 280.67 293.293 279.69C294.243 277.22 294.983 274.7 295.473 272.21C295.953 269.64 296.223 266.06 296.263 261.53C296.363 256.88 295.723 252.72 294.373 249.19C292.993 245.6 291.243 243.01 289.173 241.48V241.49ZM268.953 247.04C268.673 248.94 268.183 251.27 267.503 254.01C266.593 257.67 265.153 261.27 263.243 264.7C261.333 268.05 259.003 271.07 256.323 273.65C255.103 274.83 253.843 275.43 252.453 275.48C251.943 273.64 251.813 271.52 252.063 269.15C252.333 266.41 253.403 263.31 255.223 259.93C257.103 256.55 259.643 253.63 262.763 251.25C265.173 249.39 267.243 247.98 268.943 247.02L268.953 247.04Z" fill="white"/>
<path d="M374.503 205.73C373.903 205.73 373.273 205.84 372.653 206.04L372.603 206.06L372.563 206.08C370.543 206.98 367.333 208.26 363.023 209.89C358.663 211.55 353.013 213.67 346.243 216.2C345.213 216.52 344.213 217.16 343.253 218.12L343.133 218.24L343.063 218.39C342.493 219.55 342.413 220.67 342.813 221.73C343.253 223.42 344.293 224.57 345.843 225.08H345.873L345.903 225.1C346.503 225.25 347.093 225.33 347.653 225.33C348.513 225.33 349.333 225.15 350.093 224.8C353.323 223.19 357.443 221.37 362.353 219.39C367.283 217.41 370.753 216.26 372.663 215.97C374.853 215.57 376.483 215.04 377.673 214.36C379.093 213.71 379.943 212.83 380.193 211.74C380.473 210.51 379.973 209.18 378.683 207.67L378.663 207.64L378.633 207.61C377.393 206.36 376.013 205.73 374.513 205.73H374.503Z" fill="white"/>
<path d="M336.593 223.75C335.863 223.21 335.003 222.92 334.083 222.92C333.753 222.92 333.413 222.96 333.073 223.03L332.913 223.06L332.773 223.14C332.223 223.47 331.293 224.39 328.593 228.81C326.633 231.94 324.353 235.79 321.823 240.24C319.283 244.63 316.883 249.03 314.703 253.32C312.523 257.61 310.973 260.86 310.103 262.98C309.223 265.05 308.593 266.78 308.253 268.13C307.573 271.23 309.113 272.25 310.083 272.59L310.133 272.61H310.183L310.673 272.74C311.253 272.91 311.873 272.99 312.503 272.99C313.173 272.99 313.893 272.89 314.623 272.71L315.173 272.57L315.333 272.03C315.723 270.73 316.093 269.53 316.443 268.47C316.683 267.91 316.903 267.38 317.083 266.9C317.683 265.32 319.063 262.24 321.183 257.74C321.533 256.98 321.913 256.19 322.313 255.39C322.333 257.39 322.353 259.56 322.353 261.88C322.363 262.4 322.353 262.94 322.313 263.5V263.54V263.58C322.333 268.04 322.403 272.16 322.503 275.82C322.673 279.54 323.163 283.25 323.983 286.86C324.553 289.54 326.283 290.97 328.983 290.97H329.113L329.283 290.93C330.663 290.55 331.623 289.71 332.053 288.5C332.453 287.38 332.493 286.35 332.183 285.45C331.153 282.43 330.553 279.39 330.423 276.43C330.273 273.29 330.143 268.96 330.043 263.57C330.013 261.21 329.993 259.15 329.983 257.37C330.003 254.97 330.073 253.02 330.173 251.59C330.543 248.09 330.323 246.96 330.073 246.4C329.833 245.76 329.323 245.21 328.553 244.73L329.083 243.9C332.203 239.2 335.523 234.41 338.933 229.7L339.193 229.34L339.103 228.91C338.533 226.15 337.743 224.52 336.603 223.76L336.593 223.75Z" fill="white"/>
<path d="M391.353 222.69L391.263 222.5L391.113 222.36C389.803 221.16 388.353 220.56 386.813 220.56C386.163 220.56 385.483 220.67 384.803 220.89H384.783L384.763 220.91C383.913 221.23 382.443 221.75 380.383 222.46C378.343 223.16 375.733 224.04 372.403 225.16C369.873 226.01 366.653 227.34 362.823 229.12C361.783 229.61 360.663 230.15 359.493 230.72C354.133 233.25 348.453 236.63 342.603 240.77L342.553 240.81L342.503 240.85C341.653 241.62 341.223 242.48 341.213 243.4C341.213 244.44 341.743 245.49 342.833 246.51C343.083 246.76 343.423 247.04 343.833 247.34L343.883 247.37L343.933 247.4C345.133 248.08 346.183 248.41 347.143 248.41C348.103 248.41 349.003 248.04 349.683 247.34C352.273 244.96 355.803 242.47 360.183 239.93C363.983 237.73 367.003 236.22 369.213 235.43C369.923 238.33 370.763 243.87 371.703 251.92C372.813 260.87 373.213 267.98 372.903 273.07C372.533 274.22 372.003 274.97 371.323 275.29C370.053 275.43 368.753 275.5 367.463 275.5C367.083 275.5 366.693 275.5 366.313 275.48C365.603 275.46 364.913 275.45 364.253 275.45C363.233 275.45 362.273 275.48 361.383 275.53L359.203 275.66L360.723 277.22C364.603 281.2 369.233 283.22 374.493 283.22C374.783 283.22 375.073 283.22 375.363 283.2H375.493C376.283 283.2 377.163 283.06 378.133 282.78C379.853 282.29 380.443 281.15 380.633 280.28C380.833 279.37 380.983 278.52 381.073 277.75V277.71V277.67C381.393 268.98 380.863 259.56 379.493 249.68C378.293 240.67 377.663 234.75 377.593 232.07C379.073 231.39 380.663 230.86 382.333 230.49C384.323 230.06 386.323 229.75 388.283 229.58H388.333L388.383 229.56C390.143 229.21 391.423 228.36 392.203 227.02L392.273 226.89L392.303 226.75C392.513 225.84 392.443 225.06 392.073 224.41C391.863 223.92 391.623 223.35 391.333 222.7L391.353 222.69Z" fill="white"/>
<path d="M309.303 250.95L309.473 250.26C310.913 244.42 313.123 238.77 316.063 233.48C319.033 228.05 321.913 223.07 324.643 218.68L324.903 218.27L324.733 217.81C323.713 215 322.053 213.28 319.803 212.69H319.763L319.723 212.67C319.533 212.64 319.373 212.62 319.213 212.62C319.103 212.62 319.003 212.62 318.913 212.64C318.053 212.77 317.323 213.25 316.733 214.06L316.693 214.12L316.653 214.19C312.993 221.18 309.903 227.31 307.463 232.42C305.013 237.55 303.343 241.83 302.513 245.17C302.133 246.28 302.143 247.42 302.563 248.56C303.023 249.83 303.953 250.63 305.253 250.88C305.993 251.01 306.723 251.07 307.443 251.07C307.833 251.07 308.223 251.05 308.613 251.02L309.323 250.96L309.303 250.95Z" fill="white"/>
<path d="M444.333 219.33C443.483 218.65 442.533 218.3 441.503 218.3C441.263 218.3 441.023 218.32 440.773 218.36L440.653 218.38L440.543 218.43C439.683 218.79 438.803 219.41 437.913 220.27C437.433 220.69 436.893 221.15 436.293 221.63C435.243 218.58 434.543 216.64 434.163 215.72C433.863 214.82 433.413 213.6 432.833 212.08C435.633 211.04 438.673 209.88 441.893 208.63L442.533 208.38V207.69C442.513 206.56 442.153 205.5 441.443 204.57C440.723 203.62 439.763 202.98 438.583 202.68C438.203 202.58 437.773 202.53 437.303 202.53C436.353 202.53 435.233 202.73 433.873 203.13C432.233 203.62 430.503 204.15 428.723 204.71C428.293 204.25 427.783 203.78 427.213 203.32C426.373 202.52 425.183 201.96 423.653 201.68L423.573 201.66H423.483H423.343C422.953 201.66 422.583 201.69 422.243 201.74C421.403 201.87 420.273 202.36 419.713 203.94L419.573 204.32L419.743 204.69C420.243 205.79 420.673 206.77 421.033 207.62C416.593 209.43 413.033 210.85 410.433 211.86C406.663 213.23 405.593 213.8 405.143 214.11C404.233 214.66 403.783 215.62 403.873 216.83L403.893 217.06L404.013 217.26C404.773 218.56 405.623 219.62 406.533 220.41C407.553 221.3 408.623 221.75 409.723 221.75C410.843 221.74 412.063 221.31 413.473 220.44C416.623 218.99 419.303 217.79 421.433 216.88C423.023 216.2 424.283 215.66 425.203 215.26C426.033 216.98 426.763 218.8 427.383 220.69C428.033 222.67 428.533 224.67 428.863 226.64C424.313 229.41 420.963 231.36 418.883 232.42C416.783 233.52 414.263 234.66 411.393 235.81L410.653 236.11L410.773 236.89C411.013 238.49 411.603 239.84 412.533 240.91C413.603 242.05 414.863 242.66 416.323 242.76H416.353H416.383H416.493C417.813 242.76 419.063 242.42 420.203 241.73C420.973 241.33 422.263 240.64 424.033 239.66C425.673 238.78 427.913 237.44 430.683 235.69C430.813 236.96 430.773 238.33 430.543 239.79C430.293 241.78 429.703 243.42 428.773 244.68L428.523 245.01L428.583 245.42C428.853 247.17 429.533 248.23 430.613 248.58C431.343 248.79 432.053 248.88 432.763 248.88C432.943 248.88 433.123 248.88 433.303 248.86C434.453 248.77 435.483 248.12 436.373 246.91C437.173 245.82 437.823 244.05 438.353 241.5C438.853 238.96 439.003 236.77 438.803 234.99C438.683 233.46 438.493 231.94 438.233 230.5C439.363 229.64 440.633 228.61 442.013 227.42C443.763 225.95 444.943 224.42 445.513 222.86L445.533 222.81V222.76C445.893 221.41 445.473 220.21 444.333 219.29V219.33Z" fill="white"/>
<path d="M435.303 263.11C431.293 262.42 428.253 261.68 426.223 260.91C424.263 260.11 422.213 258.71 420.163 256.76L420.133 256.73L420.103 256.7C419.163 255.94 417.983 255.4 416.613 255.1C415.463 254.82 414.333 254.58 413.303 254.4L413.143 254.37L412.983 254.39C411.443 254.63 410.473 255.25 410.113 256.24L410.093 256.28V256.32C409.863 257.13 409.903 257.99 410.203 258.87L410.223 258.92L410.243 258.97C410.593 259.71 411.223 260.5 412.163 261.38L412.193 261.41L412.223 261.44C414.153 262.97 417.273 264.77 421.513 266.79C425.863 268.82 430.213 270 434.443 270.3H434.523H434.603C435.923 270.18 437.023 269.72 437.883 268.94C438.893 268.02 439.133 266.78 438.563 265.46C438.023 264.22 436.923 263.43 435.303 263.1V263.11Z" fill="white"/>
<path d="M503.303 222.48L503.423 222.44L503.533 222.37C507.203 219.92 511.243 218.3 515.553 217.57C517.373 217.52 518.553 216.51 518.893 214.7C519.173 213.08 518.473 211.62 516.823 210.33C515.783 209.48 514.593 209.04 513.313 209.04C512.643 209.04 511.943 209.16 511.223 209.41C506.503 211.26 501.843 213.34 497.313 215.62L497.193 215.68L497.093 215.77C496.003 216.76 495.473 217.95 495.513 219.3V219.43L495.553 219.56C496.053 221.2 497.133 222.3 498.703 222.73C499.333 222.89 499.963 222.97 500.583 222.97C501.473 222.97 502.393 222.81 503.303 222.5V222.48Z" fill="white"/>
<path d="M521.653 240.71L521.593 240.66L521.523 240.62C520.573 240.09 518.893 239.27 516.553 238.18C514.223 237.04 511.173 235.65 507.483 234.06C506.453 233.38 505.243 232.86 503.863 232.51L503.733 232.48H503.593C502.253 232.52 501.243 232.92 500.593 233.68C499.943 234.43 499.693 235.48 499.853 236.8V236.85L499.873 236.9C500.363 239.07 501.613 240.6 503.613 241.46C507.233 242.87 510.123 244.14 512.233 245.24C514.423 246.34 516.143 247.26 517.353 247.98L517.543 248.09L517.763 248.11C518.513 248.19 519.173 248.23 519.723 248.23C520.693 248.23 521.373 248.11 521.853 247.87C522.653 247.46 523.263 246.58 523.713 245.2C524.053 244.14 523.983 242.49 521.673 240.71H521.653Z" fill="white"/>
<path d="M494.523 196.55C493.763 195.48 493.013 194.75 492.233 194.31C491.893 194.12 491.503 194.02 491.073 194.02C490.253 194.02 489.273 194.37 488.083 195.1C486.513 196 484.723 196.95 482.753 197.92C481.973 196.13 480.723 194.71 479.033 193.68L478.973 193.64L478.913 193.61C478.353 193.37 477.813 193.24 477.303 193.24C477.143 193.24 476.993 193.25 476.843 193.27C475.993 193.4 474.843 193.98 474.183 196.01L474.143 196.12V196.24C474.073 197.05 473.873 199.11 473.543 202.37C472.053 203.06 470.693 203.53 469.513 203.77C468.083 204.06 466.623 204.38 465.173 204.73L465.073 204.75L464.983 204.79C462.503 205.94 462.333 207.35 462.633 208.34V208.37L462.653 208.4C463.043 209.43 463.573 210.23 464.233 210.79L464.263 210.81L464.293 210.83C464.993 211.34 466.063 211.8 467.573 212.22L467.643 212.24H467.723C468.063 212.29 468.413 212.31 468.773 212.31C469.433 212.31 470.133 212.24 470.863 212.11C470.723 213.26 470.503 214.88 470.203 216.93C469.743 219.97 469.353 224.22 469.043 229.54C468.783 234.82 468.993 239.91 469.653 244.66C470.303 249.38 471.523 253.77 473.263 257.72L473.283 257.77L473.313 257.82C474.083 259.16 475.093 259.96 476.323 260.21C476.883 260.35 477.423 260.43 477.913 260.43C478.403 260.43 478.873 260.36 479.293 260.22C480.183 260 480.923 259.65 481.493 259.16C482.683 258.21 482.173 256.29 481.583 254.71L481.543 254.59L481.473 254.49C479.533 251.7 478.203 248.39 477.503 244.64C476.843 240.77 476.663 235.88 476.953 230.14C477.293 224.31 477.773 219.93 478.383 217.14C478.963 214.46 479.633 211.73 480.393 209.01C482.753 207.87 484.683 206.96 486.133 206.3C487.763 205.52 489.993 204.34 492.783 202.79L492.813 202.77L492.843 202.75C494.743 201.49 495.593 200.54 495.683 199.58C495.803 198.64 495.413 197.62 494.533 196.54L494.523 196.55Z" fill="white"/>
<path d="M597.293 212.33C596.453 209.39 595.253 204.75 593.723 198.55C593.573 197.63 593.293 196.75 592.873 195.94C592.403 194.96 591.653 194.23 590.673 193.78C589.813 193.34 588.883 193.04 587.923 192.89C587.543 192.81 587.163 192.77 586.793 192.77C586.533 192.77 586.263 192.79 586.013 192.83C585.063 192.98 584.373 193.56 584.073 194.48C583.833 195.34 583.863 196.1 584.133 196.79C584.523 198.08 585.253 200.57 586.373 204.39C587.533 208.12 588.983 212.37 590.683 217.03V217.07L590.713 217.1C591.463 218.76 592.513 220.19 593.833 221.35L593.923 221.43L594.033 221.49C594.443 221.7 594.943 221.8 595.503 221.8C595.913 221.8 596.383 221.74 596.883 221.63H596.913L596.943 221.62C598.333 221.23 599.183 220.28 599.353 218.95L599.383 218.7L599.293 218.47C598.853 217.31 598.183 215.24 597.283 212.32L597.293 212.33Z" fill="white"/>
<path d="M570.013 217.25C569.943 217.25 569.873 217.25 569.803 217.25H569.313L569.023 217.66C567.783 219.35 566.433 221.26 565.023 223.34C563.693 225.3 562.283 227.22 560.813 229.07C559.383 230.86 558.193 232.2 557.253 233.03C556.863 233.3 556.503 233.43 556.193 233.43C555.803 233.43 555.413 233.22 554.993 232.78C553.393 231 552.023 229.2 550.923 227.45C549.893 225.66 548.733 223.18 547.493 220.14C546.323 217.07 545.513 213.88 545.093 210.69V210.64L545.073 210.6C544.853 209.63 544.493 208.71 544.013 207.84C543.513 206.78 542.733 206 541.673 205.5C540.803 205.05 539.803 204.81 538.753 204.81H538.723C538.553 204.81 538.393 204.8 538.243 204.8C537.373 204.8 536.683 204.94 536.133 205.24C534.763 205.87 534.983 207.92 535.063 208.69V208.76L535.093 208.83C536.043 212.45 537.113 215.97 538.283 219.29C539.523 222.63 540.913 225.78 542.423 228.68C543.933 231.55 545.813 234.29 548.013 236.83C549.313 238.28 550.883 239.4 552.703 240.19C554.123 240.75 555.573 241.03 557.043 241.03C557.503 241.03 557.983 241 558.453 240.95C560.433 240.72 562.223 240.01 563.783 238.83C565.303 237.6 566.543 236.17 567.483 234.55C570.313 229.91 571.973 227.04 572.533 225.79C573.123 224.48 573.453 223.08 573.523 221.63C573.663 219.93 573.413 218.83 572.723 218.19C572.143 217.56 571.233 217.24 570.023 217.24L570.013 217.25Z" fill="white"/>
<path d="M683.343 222.58L683.173 222.44L682.953 222.39C681.413 222.01 679.323 221.05 676.743 219.53C674.123 217.94 670.113 214.99 664.843 210.78C659.923 206.88 654.943 201.31 650.033 194.22L649.063 192.84C647.943 190.68 646.273 189.24 644.103 188.56C644.263 186.61 644.403 185.93 644.483 185.69C644.653 185.08 644.773 184.34 644.863 183.4C646.343 182.7 649.023 181.73 652.823 180.52C657.143 179.14 661.883 177.69 666.923 176.2C667.953 175.98 668.973 175.83 669.953 175.74C670.733 175.67 671.523 175.63 672.273 175.63C672.543 175.63 672.803 175.63 673.073 175.64H673.183L673.293 175.62C675.303 175.23 676.513 174.48 676.973 173.33C677.393 172.28 677.113 171.04 676.133 169.63C674.943 167.42 673.283 166.29 671.183 166.29C670.253 166.29 669.243 166.52 668.173 166.98C661.103 169.11 656.093 170.67 653.293 171.62C650.893 172.39 648.223 173.23 645.373 174.12C645.113 170.67 644.923 168.34 644.803 167.19C645.013 165.79 644.753 164.45 644.033 163.2C643.263 161.81 642.033 160.9 640.393 160.52C639.073 160.21 638.073 160.06 637.333 160.06C637.243 160.06 637.163 160.06 637.083 160.06H637.033L636.983 160.07L636.793 160.1C636.163 160.2 635.093 160.67 635.023 162.78V162.87L635.033 162.96C635.663 167.08 636.003 170.18 636.053 172.16C636.153 173.95 636.223 175.73 636.263 177.47C632.753 178.94 628.943 180.6 624.913 182.4C620.723 184.29 616.373 186.39 611.983 188.64C610.153 189.61 609.113 190.77 608.903 192.09C608.693 193.36 609.243 194.68 610.533 196.03C612.083 197.57 613.423 198.3 614.653 198.3C615.323 198.3 616.283 198.07 617.103 197C617.853 196.27 618.573 195.63 619.243 195.09C619.893 194.56 621.303 193.71 623.433 192.55C625.603 191.3 627.953 190.05 630.433 188.83C632.313 187.9 634.043 187.1 635.603 186.45C635.453 188.31 635.003 191.15 634.263 194.94C633.513 198.96 632.353 203.49 630.823 208.4C630.383 209.68 629.923 211.05 629.473 212.45L622.103 234.01C621.603 235.42 621.353 238.06 625.313 239.78H625.343L625.373 239.8C625.863 239.98 626.333 240.06 626.793 240.06C627.873 240.06 629.383 239.55 630.433 237.13C630.933 236.18 631.353 234.88 631.713 233.16C632.103 231.58 633.223 227.84 635.023 222.07C636.893 216.27 638.293 211.65 639.173 208.36C639.683 206.59 640.243 204.62 640.843 202.49C641.243 201.11 641.673 199.66 642.123 198.13C642.503 198.61 642.883 199.08 643.233 199.54C645.263 202.01 647.373 204.43 649.513 206.75C652.443 209.94 655.783 213.18 659.443 216.38C663.093 219.52 667.523 222.93 672.623 226.5L672.673 226.53L672.723 226.56C674.523 227.54 676.413 228.49 678.343 229.39H678.373L678.403 229.42C679.313 229.77 680.243 229.95 681.163 229.95C681.353 229.95 681.553 229.95 681.743 229.93C682.983 229.9 684.083 229.4 685.003 228.44L685.143 228.29L685.213 228.1C685.803 226.51 685.793 225.33 685.183 224.5C684.773 223.87 684.173 223.24 683.343 222.57V222.58Z" fill="white"/>
<path d="M770.273 193.7C769.973 193.66 769.663 193.65 769.363 193.65C768.343 193.65 767.363 193.86 766.453 194.27C764.133 194.93 760.473 195.97 755.473 197.39C754.743 195.15 753.403 193.42 751.493 192.23C749.903 191.15 748.303 190.32 746.743 189.75C747.113 188.9 747.563 188.07 748.073 187.27C748.903 185.99 749.643 184.56 750.293 183.04C750.943 181.43 751.463 179.63 751.843 177.67V177.61L751.863 177.54C751.933 176.4 751.643 175.31 751.013 174.29C750.703 173.8 750.323 173.34 749.883 172.95C748.683 171.78 747.293 171.18 745.773 171.18C745.563 171.18 745.343 171.19 745.123 171.22H745.043L744.963 171.25C741.643 172.16 738.383 173.29 735.263 174.63C732.163 175.91 729.133 177.74 726.253 180.06L726.223 180.09L726.193 180.12C725.033 181.22 724.463 182.37 724.513 183.53C724.553 184.69 725.213 185.8 726.453 186.82L726.603 186.95L726.793 187.01C728.203 187.44 729.183 187.77 729.703 187.99L729.763 188.02L729.833 188.04C730.023 188.09 730.223 188.12 730.413 188.12C731.013 188.12 731.873 187.86 732.593 186.64C732.783 186.29 733.593 185.3 737.463 182.93C739.353 181.79 740.973 180.96 742.323 180.45C741.843 181.49 741.303 182.57 740.723 183.66C739.823 185.31 738.643 186.82 737.213 188.14C736.513 188.54 735.973 189.18 735.613 190.06C735.273 190.96 735.323 191.9 735.733 192.88L735.753 192.93L735.773 192.98C736.183 193.74 736.693 194.35 737.293 194.82C738.373 196.01 739.893 196.61 741.823 196.61C741.953 196.61 742.073 196.61 742.203 196.61C743.673 196.81 745.003 197.19 746.163 197.73H746.193L746.223 197.75C747.033 198.07 747.643 198.72 748.053 199.74C743.193 201.5 739.093 202.99 735.853 204.18C732.483 205.42 729.183 206.82 726.053 208.36C724.683 208.9 723.753 209.8 723.273 211.04L723.233 211.15L723.213 211.26C722.893 213.6 724.003 215.17 726.353 215.66C726.983 215.83 727.623 215.91 728.233 215.91C729.513 215.91 730.743 215.54 731.903 214.82C736.853 212.38 740.853 210.55 743.783 209.39C746.033 208.46 747.883 207.72 749.323 207.17C749.283 210.39 748.783 213.63 747.833 216.84C746.883 220.21 745.413 223.08 743.443 225.39C740.823 224.26 738.573 223.3 736.603 222.47L735.143 221.85L735.223 223.44C735.323 225.6 736.643 227.87 739.133 230.19C741.633 232.53 743.493 233.62 744.963 233.62H745.083C746.573 233.55 747.913 232.95 749.063 231.84L749.133 231.77L749.193 231.69C750.843 229.29 752.223 226.69 753.293 223.97C754.343 221.28 755.193 218.65 755.813 216.16C756.503 213.65 756.903 211.32 756.993 209.27C757.073 207.59 757.173 206.04 757.303 204.68C760.693 203.58 763.173 202.88 764.703 202.58C765.933 202.3 767.063 202.16 768.103 202.16C768.413 202.16 768.713 202.17 769.013 202.2C769.253 202.22 769.493 202.23 769.723 202.23C771.043 202.23 772.313 201.91 773.493 201.29L773.893 201.08L773.993 200.64C774.363 199.07 774.243 197.58 773.653 196.21C773.093 194.7 771.913 193.83 770.263 193.73L770.273 193.7Z" fill="white"/>
<path d="M711.583 162.18L711.603 162.2L711.623 162.22C713.543 163.81 715.413 164.84 717.203 165.29C718.883 165.68 720.063 165.87 720.823 165.87C720.893 165.87 720.963 165.87 721.033 165.87H721.083L721.133 165.86C721.983 165.73 722.803 165.41 723.583 164.9L724.073 164.58L724.033 163.99C723.973 163.09 723.673 162.08 723.143 161C722.743 160.07 721.843 158.97 719.763 158.84C717.803 158.38 716.343 157.51 715.433 156.25C714.423 154.78 713.393 153.51 712.373 152.52C711.083 150.53 709.153 149.32 706.613 148.9L706.083 148.81L705.723 149.21C703.933 151.17 703.753 153.26 705.193 155.12C707.023 157.56 709.183 159.94 711.593 162.18H711.583Z" fill="white"/>
<path d="M732.083 149.06C732.083 149.06 731.983 149.06 731.933 149.06C730.603 148.83 729.133 148.23 727.543 147.28C725.863 146.27 724.623 145.38 723.833 144.64L723.563 144.39L723.193 144.37C723.043 144.37 722.893 144.36 722.753 144.36C721.793 144.36 720.973 144.52 720.303 144.83C719.223 145.34 718.863 146.54 719.233 148.38C719.633 149.97 720.053 150.94 720.583 151.48L720.673 151.57L720.783 151.64C723.343 153.17 726.083 154.61 728.933 155.9L728.973 155.92H729.013C729.673 156.17 730.333 156.28 730.963 156.28C732.723 156.28 734.333 155.4 735.743 153.68L735.993 153.38L735.973 152.99C735.933 152.16 735.643 151.33 735.113 150.53C734.713 149.87 733.843 149.06 732.063 149.06H732.083Z" fill="white"/>
<path d="M776.143 154.08C775.813 153.68 775.413 153.35 774.903 153.03C773.693 152.09 772.383 151.61 770.993 151.59C767.313 151.62 763.643 151.97 760.083 152.65C757.673 153.06 755.183 153.55 752.633 154.11C753.123 153.65 753.523 153.27 753.833 152.98L753.853 152.96L753.873 152.94C754.643 152.14 755.833 150.71 757.523 148.57C759.203 146.44 760.773 144.11 762.193 141.62L762.503 141.08L762.163 140.57C761.523 139.6 760.703 138.72 759.733 137.94C758.723 137 757.323 136.47 755.583 136.37L755.023 136.34L754.703 136.79C749.733 143.78 744.893 150.9 740.313 157.97C738.143 158.99 735.793 160.01 733.303 161.02C730.713 162 728.033 163.08 725.373 164.21C722.673 165.36 719.983 166.78 717.363 168.45C715.193 169.83 713.063 171.12 711.003 172.3C710.763 171.42 710.563 170.65 710.423 170C710.213 168.69 709.393 167.58 707.993 166.68C706.653 165.82 705.533 165.4 704.573 165.4C704.503 165.4 704.423 165.4 704.353 165.4C703.183 165.48 702.333 166.07 701.963 167.07L701.943 167.11V167.15C701.723 167.91 701.703 168.83 701.873 169.94C702.653 175.91 703.783 180.9 705.243 184.75C706.813 188.71 708.343 191.44 709.943 193.1C711.603 194.77 713.103 195.57 714.543 195.57C714.593 195.57 714.643 195.57 714.693 195.57C716.573 195.49 717.563 194.59 718.053 193.84L718.373 193.35L718.103 192.83C717.703 192.04 716.953 190.94 715.843 189.46C714.903 188.22 713.873 185.75 712.763 182.11C713.643 181.53 714.613 180.98 715.663 180.46L715.813 180.38L715.933 180.26C717.703 178.46 720.403 176.36 723.983 174.01C727.563 171.66 732.783 169.09 739.523 166.37C746.273 163.58 752.353 161.53 757.613 160.28C760.853 159.47 763.613 159.06 765.813 159.06C766.733 159.06 767.573 159.13 768.313 159.27V159.31C767.983 160.38 767.503 161.43 766.873 162.43C765.983 163.79 764.433 166.01 762.283 169.01C760.103 172.05 758.543 174.37 757.643 175.91L757.063 176.91L758.133 177.34C759.333 177.83 760.433 178.07 761.393 178.07C762.513 178.07 763.483 177.74 764.273 177.09C765.513 176.1 766.733 175.12 767.883 174.17C769.163 173.08 770.523 171.64 771.933 169.87C773.383 167.98 774.953 164.95 776.733 160.62C777.293 159.42 777.473 158.08 777.263 156.66C777.123 155.72 776.743 154.85 776.153 154.07L776.143 154.08Z" fill="white"/>
<path d="M853.083 184.93C839.023 170.6 829.403 161.02 824.493 156.44L824.473 156.42L824.443 156.4C822.313 154.66 820.283 153.78 818.403 153.78C818.243 153.78 818.093 153.78 817.933 153.8H817.893H817.853L817.753 153.82L817.563 153.85C815.643 154.14 813.913 155.67 812.413 158.39C809.413 163.87 806.953 169.28 805.093 174.46C803.233 179.55 801.553 184.72 800.093 189.8V189.85L800.073 189.9C799.823 191.37 800.153 192.82 801.063 194.24L801.233 194.5L801.513 194.62C803.343 195.39 805.123 195.79 806.793 195.79C806.903 195.79 807.023 195.79 807.133 195.79H807.193L807.253 195.78C809.283 195.47 809.793 194.18 809.923 193.41C810.123 192.47 810.213 191.69 810.193 191.04C810.343 189.12 810.763 186.77 811.433 184.05C812.173 181.29 813.413 177.54 815.123 172.92C816.603 168.84 818.163 165.81 819.773 163.91C820.673 164.65 822.053 165.88 823.893 167.58C826.303 169.75 829.923 173.27 834.653 178.05C839.363 182.82 843.543 187.19 847.083 191.04C847.923 191.93 848.993 192.55 850.273 192.89H850.313L850.353 192.91C850.863 193.01 851.323 193.05 851.743 193.05C852.493 193.05 853.123 192.89 853.623 192.58C854.393 192.13 854.983 191.4 855.333 190.42C855.803 189.33 855.683 188.23 854.973 187.24C854.443 186.49 853.803 185.72 853.063 184.94L853.083 184.93Z" fill="white"/>
<path d="M890.313 185.73C890.023 183.86 889.453 182.21 888.623 180.85C887.803 179.51 886.803 178.38 885.643 177.48C884.783 176.7 883.743 176.18 882.543 175.93C881.503 175.67 880.443 175.49 879.443 175.42C878.563 175.3 877.803 175.19 877.163 175.08H877.083L877.003 175.07H876.863C876.553 175.07 876.283 175.09 876.053 175.12C875.553 175.2 875.103 175.37 874.703 175.64C874.123 175.97 873.343 176.52 872.323 177.32C871.233 178.19 870.353 179.24 869.723 180.44L869.703 180.48L869.683 180.52C869.013 182.13 868.463 183.72 868.053 185.23C867.643 186.74 867.303 188.29 867.053 189.83C866.773 191.26 866.733 192.74 866.953 194.19C867.233 195.67 867.763 197.03 868.523 198.29C869.353 199.59 870.353 200.72 871.513 201.68L871.533 201.7L871.553 201.72C872.373 202.32 873.313 202.75 874.373 203.01C874.953 203.17 875.563 203.26 876.143 203.26C876.663 203.26 877.173 203.19 877.653 203.06C878.653 202.79 879.593 202.38 880.443 201.85C881.333 201.34 882.223 200.69 883.063 199.95C883.963 199.19 885.023 197.91 886.293 196.06C887.533 194.25 888.503 192.54 889.193 190.96C889.903 189.32 890.283 187.62 890.303 185.91V185.83L890.293 185.75L890.313 185.73ZM883.803 184.95L883.783 185V185.05C883.443 186.2 883.033 187.34 882.543 188.42C882.093 189.44 881.393 190.67 880.443 192.09C879.553 193.47 878.303 194.82 876.703 196.11C876.313 196.41 875.883 196.61 875.403 196.73C875.293 196.76 875.193 196.77 875.093 196.77C874.883 196.77 874.673 196.71 874.473 196.57L874.443 196.55L874.413 196.53C874.413 196.53 874.003 196.23 873.533 194.36C873.293 191.79 873.483 189.59 874.073 187.8C874.613 186.23 875.283 184.99 876.053 184.11C876.513 184.23 876.933 184.29 877.313 184.29C877.663 184.29 877.983 184.24 878.273 184.13C878.903 183.9 879.563 183.42 880.293 182.66C880.763 182.33 881.213 182.17 881.673 182.17C882.133 182.17 882.553 182.32 883.033 182.62C883.483 182.89 883.743 183.2 883.873 183.62C884.013 184.05 883.983 184.49 883.803 184.94V184.95Z" fill="white"/>
</g>
</g>
<defs>
<filter id="filter0_d_14594_12984" x="9" y="18" width="898.313" height="326.72" filterUnits="userSpaceOnUse" color-interpolation-filters="sRGB">
<feFlood flood-opacity="0" result="BackgroundImageFix"/>
<feColorMatrix in="SourceAlpha" type="matrix" values="0 0 0 0 0 0 0 0 0 0 0 0 0 0 0 0 0 0 127 0" result="hardAlpha"/>
<feOffset dx="1" dy="1"/>
<feGaussianBlur stdDeviation="8"/>
<feComposite in2="hardAlpha" operator="out"/>
<feColorMatrix type="matrix" values="0 0 0 0 0 0 0 0 0 0 0 0 0 0 0 0 0 0 0.25 0"/>
<feBlend mode="normal" in2="BackgroundImageFix" result="effect1_dropShadow_14594_12984"/>
<feBlend mode="normal" in="SourceGraphic" in2="effect1_dropShadow_14594_12984" result="shape"/>
</filter>
</defs>
</svg>
